<svg xmlns="http://www.w3.org/2000/svg" width="130" height="65"><rect width="100%" height="100%" fill="none"/><g class="currentLayer" transform="translate(10 16.023) scale(1.27465)"><path fill-rule="evenodd" d="M3.536 9.054a1.734 1.734 0 0 0 1.79 1.79 2.094 2.094 0 0 0 1.566-.721c.621-.795.696-1.765.696-3.107-2.361-.199-4.052.547-4.052 2.038zm4.512 3.878a9.775 9.775 0 0 1-.118-1.715A4.176 4.176 0 0 1 4.2 13.23c-1.814 0-2.635-.522-3.107-.994A3.89 3.89 0 0 1 0 9.476a4.176 4.176 0 0 1 2.66-3.902c1.547-.696 3.729-.696 4.972-.696a4.897 4.897 0 0 0-.174-1.665 1.703 1.703 0 0 0-1.641-1.044 1.678 1.678 0 0 0-1.392.696 1.864 1.864 0 0 0-.273 1.118H.547a3.511 3.511 0 0 1 1.417-2.958A6.556 6.556 0 0 1 5.767.006C6.811.006 9 .18 10.242 1.622a4.971 4.971 0 0 1 .87 3.107v5.046a15.188 15.188 0 0 0 .242 3.182H8.073ZM13.504.329h3.679v12.603h-3.679zm9.57 2.411L22.999.33h-3.455c.075.72.174 2.535.174 3.106v9.502h3.704V6.724c0-1.566.224-3.48 3.952-3.107V.31C24.391.16 23.571 1.678 23.1 2.747zm16.922 10.08a4.238 4.238 0 0 0-3.555 1.69V9.004h-3.698v16.549h3.555c.075-.77.1-1.311.124-1.709a4.083 4.083 0 0 0 3.779 1.958c2.485 0 5.244-1.641 5.244-6.339 0-4.226-2.41-6.637-5.468-6.637zm-.84 10.496c-1.665 0-2.883-1.342-2.883-4.145 0-.777 0-3.803 2.716-3.803 2.715 0 2.71 3.244 2.71 4.213 0 .622 0 3.729-2.536 3.729zm18.619-5.966a4.971 4.971 0 0 0-.87-3.107c-1.243-1.442-3.43-1.616-4.475-1.616a6.556 6.556 0 0 0-3.803 1.02 3.511 3.511 0 0 0-1.417 2.957h3.605a1.864 1.864 0 0 1 .273-1.118 1.678 1.678 0 0 1 1.392-.696 1.703 1.703 0 0 1 1.64 1.044c.153.54.212 1.104.175 1.665-1.243 0-3.43 0-4.972.696a4.176 4.176 0 0 0-2.66 3.903 3.89 3.89 0 0 0 1.094 2.759c.497.472 1.318.994 3.107.994a4.182 4.182 0 0 0 3.729-2.013 9.545 9.545 0 0 0 .1 1.715h3.3a15.157 15.157 0 0 1-.243-3.182zm-4.176 5.419a2.082 2.082 0 0 1-1.566.72 1.734 1.734 0 0 1-1.79-1.789c0-1.491 1.69-2.237 4.052-2.038 0 1.342-.05 2.312-.696 3.107zm18.052-7.762c-.323-.87-1.367-2.361-3.828-2.361a4.35 4.35 0 0 0-4.083 2.187l-.1-1.864h-3.554c.075.87.075 2.237.075 2.287v10.297h3.729v-7.252a3.449 3.449 0 0 1 .447-1.914 2.287 2.287 0 0 1 1.914-.97 1.908 1.908 0 0 1 1.79 1.07 2.958 2.958 0 0 1 .199 1.367v7.699h3.728v-6.792c0-2.337-.075-2.983-.348-3.729z"/><path fill="#9c3" fill-rule="evenodd" d="M31.743.323 18.525 25.534h3.828L35.571.323h-3.828"/><path fill-rule="evenodd" d="M86.006 12.944H81.85l-3.785 5.22v-9.21H74.41v16.599h3.654v-6.842l3.884 6.842h4.35l-4.58-7.159"/></g></svg>
