<svg xmlns="http://www.w3.org/2000/svg" xmlns:xlink="http://www.w3.org/1999/xlink" viewBox="0 0 80 40"><defs><path id="a" d="M0 539.284h819.74V0H0Z"/></defs><defs><clipPath id="b" clipPathUnits="userSpaceOnUse"><use xlink:href="#a"/></clipPath><clipPath id="c" clipPathUnits="userSpaceOnUse"><use xlink:href="#a"/></clipPath></defs><g clip-path="url(#b)" transform="matrix(.069 0 0 -.069 11.879 38.5)"><path fill="#d0103a" d="M325.594 249.327c-1.646-5.846-4.07-10.593-8.16-14.262-4.475-4.354-10.832-7.992-18.598-9.342-3.711-.706-6.383-1.056-10.636-1.056-28.124 0-42.5 19.616-42.5 45.784 0 26.188 13.723 47.059 41.834 47.059 9.619 0 16.916-1.996 23.138-5.696 6.944-4.102 12.07-10.455 14.303-13.727l18.52 8.943c-11.493 17.286-29.58 24.462-52.905 24.462-40.611 0-66.191-22.885-66.191-60.808 0-36.353 22.208-60.352 64.17-60.352 28.163 0 56.113 11.663 59.293 38.995zm84.409 39.197c-21.133 0-34.787-13.132-34.787-33.447 0-20.311 13.654-33.437 34.787-33.437 21.135 0 34.793 13.126 34.793 33.437 0 20.315-13.658 33.447-34.793 33.447m0-79.474c-34.457 0-53.443 16.346-53.443 46.027 0 29.259 19.48 46.038 53.443 46.038 34.459 0 53.443-16.35 53.443-46.038 0-29.681-18.984-46.027-53.443-46.027m92.777 3.196h-17.642v73.075h-22.06v12.591h22.06v4.474c0 23.231 9.57 33.587 31.045 33.587 4.999 0 10.76-.38 15.397-1.015l.497-.075v-12.635l-.67.117c-2.11.376-6.306 1.007-10.845 1.007-12.796 0-17.783-5.175-17.783-18.452v-7.008h27.117v-12.59H502.78ZM713.829 316.97h-17.642v17.992h17.642zm0-104.724h-17.642v77.73l16.85 7.936h.792ZM562.218 316.97H544.57v17.992h17.648zm0-104.724H544.57v77.566l17.648 8.372Zm209.976-3.196c-21.861 0-36.662 6.847-41.664 19.29l-.203.495 17.024 8.076.129-.739c1.683-9.782 10.373-14.532 26.564-14.532 17.438 0 27.043 4.999 27.043 14.069 0 8.054-12.474 10.022-26.911 12.295-19.426 3.062-41.454 6.53-41.454 26.1 0 17.164 15.188 27.01 41.655 27.01 14.216 0 32.562-2.766 39.224-15.972l.262-.527-15.498-7.352-.23.573c-2.787 7.291-10.121 10.688-23.078 10.688-14.764 0-24.685-4.917-24.685-12.227 0-5.613 5.41-9.13 17.549-11.398l27.953-5.214c16.5-3.156 23.866-10.189 23.866-22.79 0-18.74-15.552-27.846-47.546-27.846m-144.633 79.475c-19.904 0-32.765-13.132-32.765-33.447 0-20.311 12.861-33.437 32.765-33.437 19.901 0 32.765 13.126 32.765 33.437 0 20.315-12.864 33.447-32.765 33.447m-3.705-79.474c-27.202 0-47.713 19.785-47.713 46.027 0 26.248 20.511 46.038 47.713 46.038 15.476 0 27.425-4.408 36.47-13.474v39.39l16.843 7.932h.802V232.681c0-5.49.305-12.234.678-19.84l.031-.595h-17.623l-.056.514c-.299 3.214-.604 6.662-.667 10.545-8.613-9.076-21.807-14.256-36.478-14.256m-279.14 150.775c-1.08.991.672 7.793 2.706 14.44 11.666 36.08 70.6 99.133 79.935 103.807 4.194 2.103-14.942-30.236-33.957-64.313-10.901-19.558-46.402-55.462-48.596-53.889-.032.022-.063-.032-.088-.045"/><path fill="#fecb00" d="M288.217.09c-1.243-.988-3.352 6.354-4.213 11.782-9.162 57.668-12.9 140.07 3.063 162.611.252.347.498.607.763.82.873.7 1.963.83 2.912.337 1.194-.618 6.495-3.27 9.353-37.873 1.644-19.919.89-38.187-.35-52.88C297.113 53.492 292.42 3.461 288.217.09M98.473 164.63c-2.112.152 1.638 3.894 1.638 3.894 38.085 34.66 71.655 48.015 89.433 48.015 1.474 0 2.779-.118 3.861-.347 1.652-.353 2.798-.955 3.391-1.776 1.926-.794 2.279-2.26 2.338-2.901.195-2.087 5.795-6.074-36.588-26.442-14.194-6.822-59.306-20.785-64.073-20.443m116.002 153.704h-.006c-39.322 3.248-81.587 53.962-106.835 84.26-6.537 7.848-16.972 19.712-16.218 21.099.257.479 1.065.669 2.646.313 6.939-1.54 49.07-23.413 74.228-43.401.599-.475 58.927-48.264 54.923-59.728-.435-1.236-1.627-2.712-4.863-2.708a45.64 45.64 0 0 0-3.875.166m-86.27-63.365c-12.683 0-36.95 1.377-48.744 1.778-22.157.757-82.598 5.62-79.334 9.6 2.737 3.332 62.362 16.454 115.404 16.454 20.378 0 39.395-.873 56.521-2.586 24.614-2.474 29.895-7.905 30.934-9.507.526-.829.65-1.803.339-2.756-.915-2.819-5.382-4.642-5.891-4.839-14.137-5.553-36.139-8.145-69.229-8.145M392.76 89.043c-17.612 14.087-58.313 73.37-64.44 100.664-.922 4.092.533 5.386.872 5.792.528.63 1.265.994 2.07 1.034h.06c1.276 0 3.33-.192 15.992-13.996 17.306-18.87 32.177-45.425 39.503-59.57 6.216-12.015 16.854-35.618 15.606-40.092-.469-1.663-9.664 6.168-9.664 6.168m-90.161 265.15c-.5.1-.955.33-1.344.675-.867.781-2.47 2.222-2.3 23.896.368 49.191 24.988 116.445 30.693 123.118.698.817 1.107 1.623 1.593 1.528 1.174-.235 1.21-1.107 1.375-2.838 4.928-68.113-11.305-125.408-24.25-142.612-2.147-2.879-4.036-4.112-5.767-3.767m-58.386 4.39-.79.405c-.92.471-22.9 12.234-47.287 70.255-17.193 40.897-24.993 66.476-29.167 81.077-4.88 17.092-7.007 27.098-4.77 28.914.488.397 2.398-1.675 2.816-2.165 2.231-2.61 9.754-10.226 47.738-78.917 31.708-57.352 38.387-85.09 38.283-90.94-.085-5.048-5.789-8.089-6.032-8.218ZM150.374 85.022c17.086 27.659 26.705 54.866 59.613 92.285 16.225 18.444 30.791 22.582 33.254 22.302a3.477 3.477 0 0 0 1.661-.63c3.027-2.158 1.759-8.105 1.542-8.76-10.87-32.43-40.704-72.771-58.993-94.618-25.594-30.56-59.034-61.95-60.212-58.184-1.172 3.772 13.612 32.19 23.135 47.605"/></g><path fill="#d0103a" d="M41.55 25.975h1.466v.318H41.95v.566h.915v.318h-.915v.982h-.402Z"/><g clip-path="url(#c)" transform="matrix(.069 0 0 -.069 11.879 38.5)"><path fill="#d0103a" d="M467.357 174.66h-3.81l4.18 6.417H474zm4.273-10.92c-.277 3.03-1.717 4.725-4.739 4.725-3.437 0-4.739-1.782-5.25-4.725zm-10.22-3.832c0-3.03 1.392-6.238 5.063-6.238 2.37 0 4.276 1.29 4.646 3.609h5.484c-1.254-5.66-5.716-7.444-9.805-7.444-7.48 0-10.873 5.08-10.873 11.23 0 6.064 3.392 11.232 10.548 11.232 8.272 0 10.734-5.66 10.5-12.39zm20.593 11.497h5.205v-4.5h.093c1.627 3.565 4.04 5.392 8.179 5.392v-4.902c-.605 0-1.21.09-2.093.09-3.253 0-5.9-2.14-5.9-6.597v-10.161h-5.484Zm31.697-10.339c0 5.08-2.186 7.487-5.343 7.399-3.067.088-5.253-2.318-5.253-7.4 0-4.99 2.186-7.395 5.253-7.395 3.157 0 5.343 2.406 5.343 7.396m-16.45 0c.048 6.998 3.485 11.23 11.152 11.23 6.922 0 11.152-4.365 11.152-11.23 0-6.775-4.23-11.231-11.152-11.231-7.667 0-11.104 4.323-11.152 11.23m24.036 10.34h5.948l5.063-13.903h.093l5.389 13.903h5.947l-8.921-20.678h-4.971Zm35.6 3.255h-3.81l4.18 6.417h6.272zm4.273-10.92c-.277 3.03-1.717 4.725-4.739 4.725-3.437 0-4.739-1.782-5.25-4.725zm-10.22-3.832c0-3.03 1.392-6.238 5.063-6.238 2.37 0 4.276 1.29 4.646 3.609h5.484c-1.254-5.66-5.716-7.444-9.805-7.444-7.48 0-10.873 5.08-10.873 11.23 0 6.064 3.392 11.232 10.548 11.232 8.272 0 10.734-5.66 10.5-12.39zm52.799-9.181h-5.482v20.678h5.482zm-5.482 30.218h5.482v-5.349h-5.482zm-2.369-9.54v-4.188h-5.205v-16.49h-5.484v16.49h-3.158v4.188h3.158v5.171c0 4.546 1.858 5.973 8.178 5.973.929 0 1.906-.091 2.511-.136v-4.456a9.534 9.534 0 0 1-1.627.135c-2.742 0-3.578-.847-3.578-3.298v-3.389zm13.53-20.678v20.678h5.298v-3.386h.093c1.347 2.807 4.135 4.278 7.433 4.278 4.369 0 7.25-2.138 7.25-7.933v-13.637h-5.485v13.104c0 2.584-1.115 4.634-4.134 4.634-3.067 0-4.971-2.32-4.971-5.66v-12.078Zm38.995 11.677h-.093c-1.858-3.476-8.687-1.16-8.687-5.617 0-2.406 1.533-3.118 3.762-3.118 5.529 0 5.018 5.123 5.018 8.735m.79-11.678c-.51 1.026-.79 2.23-.697 3.386h-.093c-1.392-2.629-3.903-4.278-7.063-4.278-4.691 0-7.571 2.674-7.571 6.865 0 10.25 14.634 3.833 14.634 9.181 0 1.96-1.858 2.584-4.228 2.584-1.765 0-3.902-.714-3.902-2.674h-5.205c0 4.903 4.6 6.507 9.062 6.507 6.504 0 9.757-2.762 9.757-9.269v-8.29c0-2.317.28-3.21 1.209-4.012zm10.187.001v20.678h5.298v-3.386h.093c1.347 2.807 4.135 4.278 7.433 4.278 4.369 0 7.25-2.138 7.25-7.933v-13.637h-5.485v13.104c0 2.584-1.112 4.634-4.134 4.634-3.067 0-4.971-2.32-4.971-5.66v-12.078Zm40.621 13.55c-.325 1.245-.836 2.316-1.579 3.03-.79.757-1.813 1.158-3.205 1.158-3.067 0-5.253-2.318-5.253-7.4 0-4.99 2.186-7.395 5.253-7.395 2.553 0 3.81 1.336 4.646 3.742h5.481c-1.067-4.948-4.414-7.577-10.082-7.577-7.667 0-11.152 4.323-11.152 11.23 0 6.999 3.485 11.232 11.152 11.232 5.948 0 9.153-2.63 10.175-8.02Zm24.686-3.211c0 5.08-2.186 7.487-5.343 7.399-3.067.088-5.253-2.318-5.253-7.4 0-4.99 2.186-7.395 5.253-7.395 3.157 0 5.343 2.406 5.343 7.396m-16.45 0c.048 6.998 3.485 11.23 11.152 11.23 6.922 0 11.152-4.365 11.152-11.23 0-6.775-4.23-11.231-11.152-11.231-7.667 0-11.104 4.323-11.152 11.23m24.035 10.34h5.948l5.063-13.903h.093l5.39 13.903h5.946l-8.92-20.678h-4.97zm34.765 3.255h-3.813l4.183 6.417h6.272Zm3.669-12.256h-.094c-1.858-3.476-8.687-1.16-8.687-5.617 0-2.406 1.534-3.117 3.762-3.117 5.53 0 5.019 5.123 5.019 8.734m.79-11.677c-.511 1.025-.79 2.228-.697 3.386h-.093c-1.393-2.63-3.903-4.278-7.064-4.278-4.69 0-7.571 2.674-7.571 6.865 0 10.248 14.635 3.832 14.635 9.18 0 1.96-1.86 2.585-4.228 2.585-1.765 0-3.903-.715-3.903-2.674h-5.205c0 4.902 4.6 6.506 9.063 6.506 6.504 0 9.757-2.762 9.757-9.268v-8.292c0-2.316.279-3.208 1.209-4.01zm10.186 0v20.678h5.298v-3.386h.093c1.347 2.807 4.135 4.278 7.433 4.278 4.37 0 7.25-2.138 7.25-7.933v-13.637h-5.485v13.104c0 2.584-1.115 4.634-4.134 4.634-3.067 0-4.97-2.32-4.97-5.66v-12.078Zm26.219 20.678h5.482v-20.678h-5.482zm3.067 3.256h-3.813l4.183 6.416h6.272z"/></g></svg>
