<svg xmlns="http://www.w3.org/2000/svg" width="130" height="65"><switch transform="matrix(.67133 0 0 .67133 -18.832 -17.648)"><g><path d="M90.875 85.692V65.733h18.268v3.3h-14.55v4.842h11.303v3.299H94.593v5.22h15.19v3.298zm37.606-15.253a20.505 20.505 0 0 0-7.826-1.838c-3.593 0-5.4.778-5.4 2.206 0 4.013 16.074.777 16.074 9.36 0 3.572-3.3 6.303-9.916 6.303a20.391 20.391 0 0 1-10.515-2.73l1.448-3.215a17.89 17.89 0 0 0 9.097 2.5c3.93 0 6.02-1.146 6.02-2.858 0-4.402-16.083-1.114-16.083-9.15 0-3.477 3.29-5.872 9.202-5.872 3.551 0 6.535.788 9.38 2.227zm22.27 0a20.505 20.505 0 0 0-7.826-1.838c-3.603 0-5.399.778-5.399 2.206 0 4.013 16.073.777 16.073 9.36 0 3.572-3.299 6.303-9.918 6.303-3.928 0-6.996-.809-10.514-2.73l1.45-3.215a17.882 17.882 0 0 0 9.097 2.5c3.917 0 6.018-1.146 6.018-2.858 0-4.402-16.081-1.114-16.081-9.15 0-3.477 3.276-5.872 9.202-5.872 3.55 0 6.534.788 9.38 2.227zm17.626 16.146c-6.427 0-11.754-4.317-11.754-10.788 0-6.387 5.326-10.788 11.754-10.788 6.461 0 11.703 4.402 11.703 10.788 0 6.471-5.252 10.788-11.703 10.788m0-18.1c-4.673 0-7.878 3.204-7.878 7.311 0 4.202 3.07 7.334 7.878 7.334 4.79 0 7.828-3.152 7.828-7.334 0-4.096-3.047-7.31-7.828-7.31" style="stroke-width:.915301" transform="matrix(1.076 0 0 1.076 -4.187 -6.422)"/><path d="m198.096 86.007-6.775-7.741-6.933 7.741h-4.634L189 75.683l-8.93-10.054h4.906l6.481 7.469 6.617-7.469h4.623l-8.93 10.054 9.245 10.324z" style="stroke-width:.915301" transform="matrix(1.076 0 0 1.076 -4.187 -6.422)"/><path fill="#c30730" d="M34.01 74.448h47.173V50.122H34.01Z"/><path d="M34.01 97.789h47.173v-23.82H34.01Z"/><path fill="#fff" d="M42.235 75.4h30.688v-2.89H42.235z"/></g></switch></svg>
