<svg xmlns="http://www.w3.org/2000/svg" xml:space="preserve" width="80mm" height="40mm" viewBox="0 0 302.362 151.181"><path d="m115.119 120.303-7.527-11.486h-7.526v11.486h-9.845V80.709h17.3c9.845 0 16.408 5.35 16.408 13.912 0 5.172-2.497 9.38-6.706 11.806l9.31 13.876H115.12c0 .036 0 0 0 0zm-15.053-20.296h7.277c3.78 0 6.741-2.105 6.741-5.35 0-3.211-2.96-5.244-6.741-5.244h-7.277zm41.163-10.737v7.205h17.585v8.418H141.23v6.885h20.082v8.56h-29.927V80.746h29.927v8.56zm63.992 11.13c0 11.77-8.917 19.903-21.366 19.903h-15.909V80.709h15.909c12.449 0 21.366 8.097 21.366 19.69zm-9.952 0c0-6.136-4.958-10.845-11.414-10.845h-6.064v21.902h6.064c6.456 0 11.414-4.78 11.414-11.058zm25.219-19.69v39.593h-9.845V80.709Zm37.703 8.81h-11.379v30.819h-9.773v-30.82H225.66v-8.81h32.531zM74.205 106.07c-1.534 3.639-4.673 5.815-9.096 5.815-6.456 0-10.95-4.78-10.95-11.379 0-6.599 4.494-11.343 10.95-11.343 4.423 0 7.598 2.176 9.096 5.814h10.416c-2.033-9.06-9.488-15.017-19.476-15.017-11.95 0-20.974 8.632-20.974 20.546s9.025 20.546 20.974 20.546c9.988 0 17.443-5.957 19.476-15.017 0 .036-10.416.036-10.416.036zm8.062-74.193V71.47h-9.774V56.63H56.37v14.84h-9.845V31.877h9.845v15.909h16.123v-15.91Zm113.18 39.594h-9.844V51.602l-8.81 13.555v.071h-5.458v-.07l-8.847-13.698.072 19.975h-9.845V31.841h7.348l14.018 21.153 14.054-21.153h7.348zm18.014-31.033v7.205h17.585v8.383h-17.585v6.884h20.082v8.56h-29.927V31.878h29.927v8.56zm-95.988-10.309c-15.66 0-28.358 12.092-28.358 27.002 0 5.28 1.57 10.166 4.316 14.34h13.662c-4.138-3.14-6.849-8.097-6.849-13.733 0-9.524 7.705-17.229 17.229-17.229s17.229 7.705 17.229 17.229c0 5.6-2.676 10.594-6.85 13.733h13.663a25.933 25.933 0 0 0 4.316-14.34c0-14.91-12.663-27.002-28.358-27.002zm-9.274 31.425c1.32 3.96 4.994 6.813 9.31 6.813 4.316 0 7.99-2.853 9.31-6.813z" style="stroke-width:.356701;fill:#c8102e"/></svg>
