<svg xmlns="http://www.w3.org/2000/svg" width="80" height="40" version="1.0" viewBox="-1.134 -1.134 8.449 4.229"><path d="m58.109 17.676 11.68-6.695c1.035-.604.446-1.226-.261-1.226v-.264h8.336v.264c-1.353.156-2.806.924-3.904 1.555l-10.509 5.928 12.238 9.385c.925.677 1.729 1.372 2.772 1.485v.266l-8.37-.002L58.11 18.83v7.351c0 1.23.696 1.927 1.927 1.927v.267l-9.031-.002v-.265c1.231 0 1.927-.697 1.927-1.927V11.682c0-1.23-.696-1.927-1.927-1.927v-.264h9.031v.264c-1.231 0-1.927.698-1.927 1.927v5.994M105.876 22.988c0 3.26-3.065 5.343-10.427 5.386L81.23 28.37v-.263c1.23 0 1.926-.698 1.926-1.928V11.682c0-1.23-.696-1.927-1.926-1.927v-.264h15.069c6.229 0 8.425 2.017 8.425 4.358 0 3.162-3.368 4.237-6.494 4.529 3.292 0 7.646 1.077 7.646 4.61zm-6.751-8.535c0-2.594-3.049-2.933-6.174-2.91-1.372.012-2.927.05-4.62.248v5.57s1.849.083 3.084.083c6.216-.048 7.71-.838 7.71-2.991zm-4.884 11.772c2.664 0 5.955-.416 5.955-3.292 0-3.958-6.777-3.54-11.865-3.24v5.043c0 .69.866 1.393 1.876 1.434 1.192.049 4.034.055 4.034.055" style="fill:#000;fill-opacity:1;fill-rule:nonzero;stroke:none" transform="matrix(.05956 0 0 .05956 -.062 -.145)"/><path d="M0 0h37.797v19.204H0Z" style="fill:#c03;fill-opacity:1;fill-rule:nonzero;stroke:none" transform="matrix(.05956 0 0 .05956 -.062 -.145)"/><path d="M0 18.898h37.8v18.9H0Z" style="fill:#000;fill-opacity:1;fill-rule:nonzero;stroke:none" transform="matrix(.05956 0 0 .05956 -.062 -.145)"/><path d="M8.036 18.898h21.595v1.807H8.036z" style="fill:#fff;fill-opacity:1;fill-rule:nonzero;stroke:none" transform="matrix(.05956 0 0 .05956 -.062 -.145)"/></svg>
