<svg xmlns="http://www.w3.org/2000/svg" xml:space="preserve" width="80" height="40" viewBox="-153 -46 80 40"><path d="M321.5 160.7h146.7v230.8H321.5z" style="fill:#00a124" transform="matrix(.105 0 0 .105 -130.661 -54.99)"/><path d="M206 160.7h98.8v230.8H206z" style="fill:#ee0303" transform="matrix(.105 0 0 .105 -130.661 -54.99)"/><path d="M62.2 160.7H206v230.8H62.2z" style="fill:#ff9200" transform="matrix(.105 0 0 .105 -130.661 -54.99)"/><path d="M-131.8 160.7H37.6v230.8h-169.4z" style="fill:#ff1802" transform="matrix(.105 0 0 .105 -130.661 -54.99)"/><path d="M37.6 160.7h24.6v230.8H37.6z" style="fill:#1c150f" transform="matrix(.105 0 0 .105 -130.661 -54.99)"/><path d="M304.7 160.7h16.8v230.8h-16.8z" style="fill:#0078c1" transform="matrix(.105 0 0 .105 -130.661 -54.99)"/><path d="M97.1 271.2h9.8c6.6 0 10.3-1 12.7-3.3 2.2-2 3.1-5 3.1-9.8 0-2.8-.6-6.6-3.4-9.1-2.4-2.2-6.2-3.1-13.1-3.1H97v25.3zm0 41.5h12c13.5 0 18.5-3.8 18.5-14 0-4.8-1.2-8.1-3.6-10.2-3.1-2.6-7.2-3.6-14.8-3.6H97.1ZM74.6 329v-83.2h-9.5v-16.2H110c14.1 0 22.1 2.1 27.8 7.1 5 4.5 7.6 10.7 7.6 18.1 0 9-4.2 16.4-11.5 20.3l-.5.3.5.2c11.4 3.4 17.4 11.7 17.4 24.2 0 12-4.6 20.1-14.1 24.8-5.9 3-14 4.4-26.2 4.4zm219.1 0v-46.5c0-4.7-.4-8-2.4-10.8-2-2.6-5.3-4-9.4-4-4.3 0-7.8 1.6-10.2 4.6-2.5 3.3-3 7.5-3 12.9V329h-21.6v-60.8h-9v-15.5h22.1l3.6 9.2.2-.3c5.4-6.6 13.8-10.3 23.7-10.3 9 0 16.3 2.6 21 7.4 4.6 4.9 6.6 11.2 6.6 20.5V329Zm97.5.9c-8.2 0-13.3-3.2-18.1-11.3l-13.9-23.2h-6.6V329H331v-91.7h-9v-15.5h30.6v57.5h7.5l15.4-26.6h21.6l-19.8 34 14.8 24.5c1.9 3.1 3.3 4.1 5.8 4.1 1.9 0 4.2-.7 5.8-1.9l.8-.6-.7 13.5-.2.1c-2.9 2.1-7.6 3.5-12.4 3.5m-342.3 0c-6.4 0-11-1.8-13.6-5.5-1.9-2.7-2.9-6.8-2.9-12.4v-29.6c0-4.8-.2-7.9-2.2-10.8-2-2.5-5.3-4-9.1-4-4 0-7.5 1.6-9.7 4.5-2.1 2.9-3 6.6-3 12.8v44h-21.6v-46.5c0-4.8-.2-7.9-2.2-10.8-1.9-2.5-5.3-4-9.1-4-4 0-7.5 1.6-9.7 4.5-2.1 2.9-3 6.6-3 12.8v44H-59v-60.8h-9v-15.5h22l3.5 9.1.3-.3c5-6.5 13.5-10.2 23.4-10.2 10.4 0 18 3.3 22.6 9.7l.2.2.2-.2c3.1-3.6 10.1-9.7 22.8-9.7 10.2 0 18.3 3.4 22.6 9.7 3.1 4.4 4.4 9.9 4.4 18.4V311c0 3.7 1.7 4.2 3.3 4.2 1.7 0 4.4-1 5.6-1.9l.8-.6-.7 13-.2.1c-2.8 2.1-7.9 4.1-13.9 4.1m145.5-38.2c-8.1 0-12.8 4.5-12.8 12.3 0 7.7 4.1 12.1 11.4 12.1 3.5 0 6.7-1.3 8.7-3.4 2-2.1 3-5.3 3-9.2v-10.1l-.1-.1c-2.4-.8-6.5-1.6-10.2-1.6m-7.3 38.7c-16.8 0-27.2-9.8-27.2-25.5 0-16.3 11.2-26 30-26 4.7 0 10.3.8 14.5 2.2l.3.1v-1.4c0-5.3-.7-8-2.8-10.4-2.3-2.6-6.4-3.9-12.2-3.9-7.4 0-15.3 2-22.3 5.5l-.7.3v-15l.3-.1c7.1-3.2 16.3-5 26-5 12.2 0 20.8 2.6 26.6 8 4.7 4.3 6.8 10.6 6.8 19.6V311c0 3 .9 4.2 3.1 4.2 1.7 0 4.6-1.1 5.8-1.9l.8-.6-.9 13-.2.1c-3.5 2.4-8.9 4-14.1 4-6.5 0-11.4-2.6-13.4-7.1l-.1-.3-.2.3c-4.4 4.8-11.9 7.7-20.1 7.7" style="fill:#fff" transform="matrix(.105 0 0 .105 -130.661 -54.99)"/></svg>
