<svg xmlns="http://www.w3.org/2000/svg" xml:space="preserve" width="80" height="40" viewBox="-153 -46 80 40"><linearGradient id="a" x1="-115.684" x2="-26.12" y1="260.122" y2="337.937" gradientTransform="matrix(.9323 0 0 -1.0726 -20.722 600.678)" gradientUnits="userSpaceOnUse"><stop offset=".25" style="stop-color:#140757"/><stop offset=".286" style="stop-color:#270953"/><stop offset=".427" style="stop-color:#6d1042"/><stop offset=".553" style="stop-color:#a41535"/><stop offset=".662" style="stop-color:#cc192c"/><stop offset=".747" style="stop-color:#e41b26"/><stop offset=".8" style="stop-color:#ed1c24"/></linearGradient><path d="m42.3 253.3-28 37.2-28-37.2v51.1h10V282l18 24.4 18-24.4v22.4h10zm34.1.9c-14.4 0-26.1 11.5-26.1 25.7s11.7 25.7 26.1 25.7c14.4 0 26.1-11.5 26.1-25.7 0-14.3-11.7-25.7-26.1-25.7m0 41.4c-8.7 0-15.7-7.1-15.7-15.8 0-8.8 7-15.8 15.7-15.8s15.7 7.1 15.7 15.8c0 8.8-7 15.8-15.7 15.8m32.6-42.3v51.1h10v-30.3l38.8 32.3v-51.1h-10v30.3zm96.6 2h-37.9v49.1h37.9v-9H178v-11.2h26.3v-8.8H178v-11h27.6zm54.8 0h-49.1v9.1H226v40h10.2v-40H255Zm11.7-2-29.2 51.2h11.3l5.3-9.4h25.3l5.3 9.4h11.3zM264 287l8-14.3 8.1 14.3z" style="fill:#140757" transform="matrix(.1754 0 0 .1754 -128.365 -75.12)"/><path d="m-116.8 258.5 22.1 21.3-22.1 21.3zm68.3-23.3-39 37.6-38.7-37.3v88.6l38.4-37.2 7.4-7.1 22.1-21.3v42.6L-73 286.8l-7.2 7 32.1 31.1v-89.7z" style="fill:url(#a)" transform="matrix(.1754 0 0 .1754 -128.365 -75.12)"/></svg>
