<svg xmlns="http://www.w3.org/2000/svg" viewBox="0 0 436.61 161.41"><defs><style>.cls-1{fill:gray}.cls-2{fill:#00abbd}</style></defs><path d="M206.92 63.5a12.81 12.81 0 0 0-2.49-2 15.85 15.85 0 0 0-7.94-2c-9.62 0-17.25 7.62-17.25 18.45 0 10.83 7.63 18.45 17.25 18.45a15 15 0 0 0 7.94-2 12.41 12.41 0 0 0 2.49-2l1.6 3.6h5.22V59.9h-5.22zm-10 26.07c-5.53 0-10.43-4.82-10.43-11.63 0-6.81 4.9-11.63 10.43-11.63 5.53 0 10.4 4.81 10.4 11.59s-4.89 11.67-10.43 11.67zM161.56 45.45h-18.45v50.53h7.62V77.54h10.83a16.045 16.045 0 0 0 0-32.09zm0 24.87h-10.83V52.67h10.83c4.49 0 8.42 4.09 8.42 8.82a8.72 8.72 0 0 1-8.42 8.83zM231.3 61.49a11.66 11.66 0 0 0-2.32 2l-1.61-3.59h-5.21v36.08h7.22V75.53a8.9 8.9 0 0 1 8.82-8.82h2.41V59.9a22.72 22.72 0 0 0-2.93-.22 10.81 10.81 0 0 0-6.38 1.81zM381.17 70.32c0-2 2-4 5.62-4s5.61 1.92 6 4.41H400c-.4-6.82-4.81-11.23-13.23-11.23-7.62 0-12.43 4.81-12.43 10.83 0 12.75 19.25 8.42 19.25 14.84 0 2.48-1.93 4.41-6.42 4.41-4.09 0-6-2-6.42-5.22h-7.22c.41 7.7 4.74 12 13.64 12 8.42 0 13.23-4.82 13.23-11.23.02-12.73-19.23-8.4-19.23-14.81zM258.63 50.26h-6v4.82a4.64 4.64 0 0 1-4.82 4.82H245v6.82h6.41v17.23c0 7.62 4.82 12.44 11.23 12.44a9.67 9.67 0 0 0 2.89-.41 4.63 4.63 0 0 0 1.12-.4v-6.41l-.72.24a11.94 11.94 0 0 1-1.68.16 5.49 5.49 0 0 1-5.62-5.62V66.71h8V59.9h-8zM329 59.49c-9.31 0-16.85 7.62-16.85 18.45 0 10.83 7.62 18.45 17.25 18.45 8.42 0 13.31-4.82 15.64-10.83h-7.62a9.83 9.83 0 0 1-17.65-4.41h25.67l.16-1a14.75 14.75 0 0 0 .24-2.24c-.03-10.8-7.57-18.42-16.84-18.42zm-9.23 15.64c.89-5.21 4.42-8.82 9.23-8.82 5.69 0 9.14 3.61 10 8.82zM291.87 59.49a15.91 15.91 0 0 0-7.94 2 12.74 12.74 0 0 0-2.48 2l-1.61-3.59h-5.21v36.08h7.22V75.13a8.9 8.9 0 0 1 8.82-8.82c4.49 0 8.42 4.09 8.42 8.82v20.85h7.22V75.13c0-9.23-6.41-15.64-14.44-15.64zM361 61.49a11.66 11.66 0 0 0-2.32 2L357 59.9h-5.21v36.08h7.22V75.53a8.9 8.9 0 0 1 8.82-8.82h2.41V59.9a22.72 22.72 0 0 0-2.93-.22 10.81 10.81 0 0 0-6.31 1.81z" class="cls-1"/><path d="M143.45 103.06h9.39a6.84 6.84 0 0 1 7.16 6.84 5.77 5.77 0 0 1-1.4 3.84 5.41 5.41 0 0 1-1.4 1.16 7.77 7.77 0 0 1 1.88 1.36 6.72 6.72 0 0 1 1.92 4.84c0 3.71-3.4 7.19-8 7.19h-9.59zm9.39 10.6a3.91 3.91 0 1 0 0-7.8h-6.19v7.8zm.2 11.79a4.5 4.5 0 1 0 0-9h-6.39v9zM177.23 126.25a6.16 6.16 0 0 1-1.36 1.12 7.26 7.26 0 0 1-4 1.08c-4.64 0-8.4-3.8-8.4-9.19s3.76-9.2 8.4-9.2a7.24 7.24 0 0 1 4 1.12 7.35 7.35 0 0 1 1.36 1.08l.8-2h2.2v18H178Zm.4-7c0-3.84-2.6-6.4-5.59-6.4-2.99 0-5.6 2.56-5.6 6.4 0 3.84 2.6 6.39 5.6 6.39 3 0 5.59-2.55 5.59-6.38zM184.83 110.26H187l.8 2a6 6 0 0 1 1.32-1.08 6.88 6.88 0 0 1 3.88-1.12c3.79 0 7 3.2 7 7.8v10.39h-3V117.9c0-3-2-5-4.4-5a4.63 4.63 0 0 0-4.8 5v10.39h-3zM204.62 103.06h3v15.84l6.8-8.6h3.4l-6.8 8.4 7.8 9.59h-3.6l-7.6-9.39v9.39h-3zM232.81 126.25a6.16 6.16 0 0 1-1.36 1.12 7.27 7.27 0 0 1-4 1.08c-4.63 0-8.39-3.8-8.39-9.19s3.76-9.2 8.39-9.2a7.25 7.25 0 0 1 4 1.12 7.35 7.35 0 0 1 1.36 1.08l.8-2h2.2v18h-2.2zm.4-7c0-3.84-2.6-6.4-5.6-6.4-3 0-5.6 2.56-5.6 6.4 0 3.84 2.6 6.39 5.6 6.39 3 0 5.6-2.55 5.6-6.38zM78.54 92.77h-5.41L70 114.02h11.67zM114.61 63.53a5.83 5.83 0 0 0-4.35-3.39c-3.64-.47-6.06 2.75-8.64 4.82C98.69 67.7 90 75.33 77.28 78l1.46 5.84c5.37-1 15.4-2.55 25.93-9.46-1.18 13.46-12.37 19.68-21.13 22.1l1.74 6.59c11.46-2.85 21.19-9.63 25.69-18 4.38-8.07 5.88-16.93 3.64-21.54z" class="cls-2"/><path d="M49.57 83.39a25.47 25.47 0 0 1-.92-24.9 31.06 31.06 0 0 1 26.94-15.05c5.16.14 9.57 2.69 11 6.33 1.13 2.94.14 6.27-2.8 9.39-9.96 10.39-23.68 11.87-28.17 12.19v5.89c14.29-.8 25.21-4.37 33.87-11.4 17-13.07 10.41-29.74-9.22-32.55C57.9 30.58 41.36 44.9 37.16 59.77c-4.71 18.86 6.15 37.56 29.22 43.29l1.8-6.78c-3.31-.88-12.87-3.76-18.61-12.89z" class="cls-2"/></svg>
