<svg xmlns="http://www.w3.org/2000/svg" width="130" height="65" fill="none"><g clip-path="url(#a)"><path fill="#000" d="M116.248 48.097V16.863s0-4.52-4.266-4.52H52.53V52.59h59.453s4.266 0 4.266-4.526"/><path fill="#00b0f0" d="M18.018 12.377s-4.266 0-4.266 4.519V48.13s0 4.525 4.266 4.525H52.53v-40.28Z"/><path fill="#fff" d="M43.724 29.164 27.07 17.507a3.203 3.203 0 0 0-4.453.784 3.143 3.143 0 0 0-.558 2.1v12.222a3.197 3.197 0 1 0 6.393 0v-6.34l7.855 5.503-12.926 9.051a3.196 3.196 0 1 0 3.669 5.237L43.538 34.52a3.196 3.196 0 0 0 .186-5.356zM82.913 45.904h3.09v-5.482l3.656 5.482h3.761l-4.292-6.007 3.86-5.456h-3.555l-3.43 5.097V32.3l-3.09-1.197zM77.424 42.535a3.13 3.13 0 0 1-4.592 0 3.496 3.496 0 0 1 0-4.752 3.131 3.131 0 0 1 4.592 0 3.515 3.515 0 0 1 0 4.752zm1.755-6.446a5.689 5.689 0 0 0-4.054-1.668 5.748 5.748 0 1 0 0 11.49 5.543 5.543 0 0 0 3.21-.99l2.492.83v-5.595a5.726 5.726 0 0 0-1.662-4.067M62.378 34.42a5.789 5.789 0 0 1 0 11.577 5.21 5.21 0 0 1-2.997-.917v4.56h-2.95V34.433l2.73 1.057a4.366 4.366 0 0 1 3.217-1.07zm2.725 5.782A2.97 2.97 0 1 0 62.14 43.2a2.898 2.898 0 0 0 2.964-2.998M96.365 29.709v-6.24a4.486 4.486 0 0 1 7.602-2.971 4.482 4.482 0 0 1 4.886-.906 4.487 4.487 0 0 1 2.723 4.156v5.98h-2.784v-6.093a1.709 1.709 0 1 0-3.416 0v6.094h-2.798v-6.094a1.716 1.716 0 0 0-2.96-1.281 1.717 1.717 0 0 0-.462 1.28v6.095zM93.958 16.231l-1.674 2.306h2.147l2.32-2.306zm-1.993 13.465h2.784V19.342h-2.784zM89.24 27.203a1.443 1.443 0 0 1-1.588-1.581v-4.034h1.23l1.514-2.253h-2.764V17.28l-2.658-1.056v3.123H82.98v2.253h1.86v4.406c0 2.3 1.397 3.702 3.67 3.702h.285l1.675-2.492zM79.099 26.672a2.851 2.851 0 0 1-4.187 0 3.21 3.21 0 0 1 0-4.327 2.85 2.85 0 0 1 4.187 0 3.196 3.196 0 0 1 0 4.327zm1.595-5.875A5.186 5.186 0 0 0 77 19.275a5.23 5.23 0 0 0-3.702 8.932A5.164 5.164 0 0 0 77 29.735a5.105 5.105 0 0 0 2.93-.897l2.267.751V24.5a5.217 5.217 0 0 0-1.516-3.715M67.642 16.225l2.784 1.09v12.38h-2.784zM66.32 20.89a4.56 4.56 0 0 1-4.72 4.612h-2.246v4.193h-2.89V16.278H61.6a4.553 4.553 0 0 1 4.718 4.612zm-2.932 0a1.835 1.835 0 0 0-1.914-1.927h-2.12v3.854h2.12a1.834 1.834 0 0 0 1.914-1.927"/></g><defs><clipPath id="a"><path fill="#fff" d="M0 0h155v76.214H0z"/></clipPath></defs></svg>
