<svg xmlns="http://www.w3.org/2000/svg" xml:space="preserve" id="layer" width="80" height="40" x="0" y="0" version="1.1" viewBox="-153 -46 80 40"><style id="style2" type="text/css">.st1{fill:#fff200}</style><g id="g81" transform="matrix(.09834 0 0 .09834 -129.521 -53.019)"><path id="rect4" d="M-132 108.1h600v333.3h-600z" style="fill:#e2001a"/><path id="path6" d="M161.8 278.7v17.8c1.8 0 3.3-.1 4.6-.1 1.3 0 2.4-.1 3.3-.2.9-.2 1.7-.5 2.3-.9.6-.4 1.2-1.1 1.7-2 .5-.8.8-1.7 1-2.7.2-1 .3-2 .3-3 0-1.1-.1-2.1-.3-3.2-.2-1-.6-2-1.2-2.8-.6-.8-1.3-1.5-2.2-2-.9-.5-2.1-.8-3.5-.8h-3.5c-1 0-1.8 0-2.5-.1m6.4 25h-6.4v15.9c-1.3.2-2.9.3-4.7.3-1.8 0-3.4-.1-4.7-.3v-47.4l.5-.4c3.8-.1 6.9-.2 9.5-.2 2.5 0 4.5-.1 5.8-.1 5 0 9.1 1.4 12.1 4.1 3 2.7 4.5 6.7 4.5 11.9 0 2.6-.4 4.9-1.2 6.9-.8 2-1.9 3.7-3.3 5-1.4 1.4-3.2 2.4-5.2 3.1-2.1.8-4.4 1.2-6.9 1.2" class="st1"/><path id="path8" d="M203.4 290.7c-4.1 0-6.2 3.8-6.2 11.5 0 7.6 2.1 11.4 6.2 11.4s6.2-3.8 6.2-11.4c.1-7.6-2-11.5-6.2-11.5m10.7-2.9c3.3 3.3 5 8.1 5 14.4 0 2.8-.3 5.3-1 7.6s-1.7 4.2-3 5.8c-1.3 1.6-3 2.8-4.9 3.7-2 .9-4.2 1.3-6.6 1.3-2.5 0-4.7-.4-6.6-1.3-1.9-.9-3.6-2.1-4.9-3.7-1.3-1.6-2.3-3.5-3-5.8-.7-2.3-1-4.8-1-7.6 0-5.6 1.3-10.1 4.1-13.4 2.7-3.3 6.5-4.9 11.5-4.9 4.1 0 7.7 1.3 10.4 3.9" class="st1"/><path id="path10" d="m230.5 267.8 6.4 6.2 7-6.7c1.9.7 3.2 1.9 4.1 3.6l-7.5 9.5c-1.1.3-2.3.5-3.8.5-1.4 0-2.7-.2-3.8-.5l-6.6-8.8c.4-.9 1-1.7 1.8-2.4.9-.6 1.6-1.1 2.4-1.4m-7.1 49.3c0-1 .3-2.2.9-3.4.5-1.2 1.2-2.2 1.9-2.9 3.7 2 6.9 3 9.7 3 1.5 0 2.8-.3 3.7-.9 1-.6 1.4-1.4 1.4-2.4 0-1.6-1.3-2.9-3.8-3.9l-3.9-1.5c-5.9-2.1-8.8-5.6-8.8-10.3 0-1.7.3-3.2.9-4.5.6-1.3 1.5-2.5 2.7-3.4 1.1-1 2.5-1.7 4.1-2.2 1.6-.5 3.4-.8 5.3-.8.9 0 1.9.1 3 .2s2.2.3 3.3.6c1.1.3 2.2.5 3.2.9 1 .3 1.9.7 2.7 1 0 1.2-.2 2.4-.7 3.6-.5 1.3-1.1 2.2-1.9 2.8-3.7-1.6-6.9-2.4-9.6-2.4-1.2 0-2.2.3-2.9.9-.7.6-1 1.3-1 2.3 0 1.4 1.2 2.6 3.5 3.4l4.3 1.5c3.1 1.1 5.4 2.5 6.9 4.4 1.5 1.9 2.2 4 2.2 6.5 0 3.3-1.2 6-3.7 7.9-2.5 2-6 3-10.6 3s-8.8-1.1-12.8-3.4" class="st1"/><path id="path12" d="M276 284.8c.3 1.1.4 2.2.4 3.3 0 1.1-.1 2.2-.4 3.3l-8.5-.1v18.4c0 2.1 1 3.2 3 3.2h4.3c.5 1.4.7 2.7.7 4 0 1.3-.1 2.1-.2 2.4-2.8.4-5.6.6-8.4.6-5.6 0-8.4-2.8-8.4-8.5v-20.1l-5.3.1c-.2-.9-.4-2-.4-3.3 0-1.3.1-2.4.4-3.3l5.3.1v-5c0-2.1.4-3.5 1.1-4.3.7-.8 2-1.3 3.8-1.3h3.5l.5.4V285Z" class="st1"/><path id="path14" d="M295.4 290.7c-4.1 0-6.2 3.8-6.2 11.5 0 7.6 2.1 11.4 6.2 11.4s6.2-3.8 6.2-11.4c0-7.6-2-11.5-6.2-11.5m10.7-2.9c3.3 3.3 5 8.1 5 14.4 0 2.8-.3 5.3-1 7.6s-1.7 4.2-3 5.8c-1.3 1.6-3 2.8-4.9 3.7-2 .9-4.2 1.3-6.6 1.3-2.5 0-4.7-.4-6.6-1.3-1.9-.9-3.6-2.1-4.9-3.7-1.3-1.6-2.3-3.5-3-5.8-.7-2.3-1-4.8-1-7.6 0-5.6 1.3-10.1 4.1-13.4 2.7-3.3 6.5-4.9 11.5-4.9 4.1 0 7.7 1.3 10.4 3.9" class="st1"/><path id="path16" d="m330.1 312.4 7.1-27.5c.9-.2 2.2-.4 3.7-.4s3 .2 4.3.7l.3.4c-4.6 15.9-8 27.2-10.2 33.9-2.1.3-4.2.4-6.3.4-2.1 0-3.7-.3-4.6-.9-.9-.6-1.7-1.9-2.2-3.7l-9-29.7c1.9-.9 3.6-1.3 5.2-1.3 2.7 0 4.4 1.4 5.1 4.1l3.9 14.2c.5 1.7 1.2 4.8 2.1 9.3 0 .3.3.5.6.5" class="st1"/><path id="path18" d="M379.5 296.2v15.2c0 3 .5 5.2 1.5 6.6-1.5 1.3-3.3 2-5.4 2-2 0-3.4-.5-4.1-1.4-.7-.9-1.1-2.3-1.1-4.3V298c0-2.1-.3-3.6-.8-4.4-.5-.8-1.5-1.3-2.9-1.3-2.5 0-4.8 1.1-6.9 3.4v23.8c-.7.1-1.4.2-2.2.3-.8 0-1.6.1-2.3.1-.8 0-1.6 0-2.3-.1-.8 0-1.5-.1-2.2-.3v-34.6l.4-.5h3.5c2.6 0 4.2 1.4 4.9 4.2 3.4-2.9 6.8-4.4 10.1-4.4 3.4 0 5.8 1.1 7.4 3.2 1.6 2.3 2.4 5.2 2.4 8.8" class="st1"/><path id="path20" d="m387.4 278.2 10.5-11.5c1.2.4 2.4 1.1 3.5 2.2s1.9 2.2 2.3 3.4l-12.5 9.5c-1.8-.5-3.1-1.8-3.8-3.6m11.9 13.7v27.6c-1.4.2-2.9.3-4.5.3s-3.2-.1-4.6-.3v-24.3c0-2.6-1.1-3.8-3.1-3.8h-.9c-.3-1.1-.4-2.1-.4-3.2s.1-2.1.4-3.2c2.2-.2 4-.3 5.3-.3h1.2c2.1 0 3.7.7 4.9 2 1.1 1.2 1.7 2.9 1.7 5.2" class="st1"/><path id="path22" d="M102.2 381.3c0-1 .3-2.2.9-3.4.5-1.2 1.2-2.2 1.9-2.9 3.7 2 6.9 3 9.7 3 1.5 0 2.8-.3 3.7-.9 1-.6 1.4-1.4 1.4-2.4 0-1.6-1.3-2.9-3.8-3.9l-3.9-1.5c-5.9-2.1-8.8-5.6-8.8-10.3 0-1.7.3-3.2.9-4.5.6-1.3 1.5-2.5 2.7-3.4 1.1-1 2.5-1.7 4.1-2.2 1.6-.5 3.4-.8 5.3-.8.9 0 1.9.1 3 .2s2.2.3 3.3.6c1.1.3 2.2.5 3.2.9 1 .3 1.9.7 2.7 1 0 1.2-.2 2.4-.7 3.6-.5 1.3-1.1 2.2-1.9 2.8-3.7-1.6-6.9-2.4-9.6-2.4-1.2 0-2.2.3-2.9.9-.7.6-1.1 1.3-1.1 2.3 0 1.4 1.2 2.6 3.5 3.4l4.3 1.5c3.1 1.1 5.4 2.5 6.8 4.4 1.5 1.9 2.2 4 2.2 6.5 0 3.3-1.2 6-3.7 7.9-2.5 2-6 3-10.6 3-4.4 0-8.7-1.1-12.6-3.4" class="st1"/><path id="path24" d="M151.3 355.5c-2.5 0-4.6 1.2-6.4 3.6v16.2c2.1 1.4 3.9 2 5.6 2 2 0 3.4-1 4.5-3 1-2 1.5-4.8 1.5-8.4 0-3.6-.5-6.3-1.5-8-.9-1.5-2.2-2.4-3.7-2.4m.8 28.9c-2.4 0-4.8-.6-7.2-1.9v10.7c0 2.1-.4 3.6-1.1 4.4-.7.8-2 1.3-3.8 1.3h-3.6l-.4-.5v-49.2l.4-.5h2.6c2.5 0 4.2 1.1 5.2 3.4 2.7-2.7 5.9-4 9.6-4 3.8 0 6.8 1.6 8.9 4.9 2.1 3.2 3.1 7.7 3.1 13.3 0 2.8-.4 5.3-1.1 7.5-.7 2.2-1.7 4.1-2.9 5.7-1.2 1.6-2.7 2.8-4.3 3.6-1.7.9-3.4 1.3-5.4 1.3" class="st1"/><path id="path26" d="M186.7 355c-4.1 0-6.1 3.8-6.1 11.5 0 7.6 2.1 11.4 6.1 11.4 4.1 0 6.2-3.8 6.2-11.4 0-7.7-2.1-11.5-6.2-11.5m10.7-3c3.3 3.3 5 8.1 5 14.4 0 2.8-.3 5.3-1 7.6s-1.7 4.2-3 5.8c-1.3 1.6-3 2.8-4.9 3.7-2 .9-4.2 1.3-6.6 1.3-2.5 0-4.7-.4-6.6-1.3-1.9-.9-3.6-2.1-4.9-3.7-1.3-1.6-2.3-3.5-3-5.8-.7-2.3-1-4.8-1-7.6 0-5.6 1.4-10.1 4.1-13.4 2.7-3.3 6.5-4.9 11.5-4.9 4.1 0 7.6 1.3 10.4 3.9" class="st1"/><path id="path28" d="m212.6 332 6.4 6.2 7-6.7c1.9.7 3.2 1.9 4.1 3.6l-7.5 9.5c-1.1.3-2.3.5-3.8.5-1.4 0-2.7-.2-3.8-.5l-6.6-8.8c.4-.9 1-1.7 1.8-2.4.9-.6 1.7-1.1 2.4-1.4m-4.9 21.3c.2-.8.6-1.7 1.2-2.7.6-.9 1.2-1.6 1.8-2.1 3.8.5 6.4 2.6 7.8 6.3 1.8-4.1 4.7-6.2 8.9-6.2 1.5 0 2.9.2 4.2.5 0 3.3-.7 6.1-2.2 8.5-.7-.2-1.8-.4-3.2-.5-2.7 0-4.9 1.4-6.6 4.3v22.3c-1.4.2-2.9.3-4.5.3s-3.2-.1-4.6-.3v-23.3c-.2-3.2-1.1-5.6-2.8-7.1" class="st1"/><path id="path30" d="M237.7 335.6c1.1-.6 2.6-.9 4.6-.9 1.2 0 2.1.1 2.8.3.7.2 1.2.4 1.6.7.3.3.5.7.6 1.4.1.7.1 1.4.1 2.2-.1 2.4-.4 3.7-.9 3.9-.4.2-1.9.5-4.4.7-2.6-.1-4.1-.4-4.6-1-.4-.6-.7-1.8-.7-3.6.2-1.4.4-2.6.9-3.7m10.5 20.5v27.6c-.7.1-1.4.2-2.2.3-.8 0-1.5.1-2.3.1-.8 0-1.6 0-2.3-.1-.8 0-1.5-.1-2.3-.3v-24.3c0-2.6-1-3.8-3.1-3.8h-1c-.3-1-.4-2.1-.4-3.2 0-1 .1-2.1.4-3.2 1.1-.1 2.1-.2 3-.2.9-.1 1.7-.1 2.3-.1h1.2c2.1 0 3.7.7 4.9 2 1.2 1.2 1.8 3 1.8 5.2" class="st1"/><path id="path32" d="M276.1 349c.3 1.1.4 2.2.4 3.3 0 1.1-.1 2.2-.4 3.3l-8.5-.1v18.4c0 2.1 1 3.2 3 3.2h4.3c.5 1.4.7 2.7.7 4 0 1.3-.1 2.1-.2 2.4-2.8.4-5.6.6-8.4.6-5.6 0-8.4-2.8-8.4-8.5v-20.1l-5.3.1c-.2-.9-.4-2-.4-3.3 0-1.3.1-2.4.4-3.3l5.3.1v-5c0-2 .4-3.5 1.1-4.3.7-.8 2-1.3 3.8-1.3h3.5l.5.4v10.3l8.6-.2" class="st1"/><path id="path34" d="M295.1 354.7c-3.6 0-5.6 2.8-5.9 8.2h11.6v-.8c0-2.2-.5-4-1.4-5.4-.9-1.3-2.4-2-4.3-2m13.5 14.7h-19.3c.1 2.6.7 4.6 1.8 6 1 1.5 2.9 2.2 5.5 2.2 2.7 0 5.8-.8 9.3-2.4 1.3 1.4 2.2 3.2 2.6 5.5-3.7 2.7-8.2 4-13.4 4-4.9 0-8.7-1.5-11.2-4.6-2.5-3.1-3.8-7.6-3.8-13.6 0-2.8.3-5.3 1-7.6s1.6-4.2 2.9-5.8c1.3-1.6 2.8-2.9 4.6-3.7 1.8-.9 3.9-1.3 6.2-1.3 2.4 0 4.5.4 6.3 1.1 1.8.7 3.4 1.7 4.6 3.1 1.3 1.3 2.2 2.9 2.8 4.7.6 1.8.9 3.8.9 5.9 0 1.2-.1 2.3-.2 3.3-.2 1.1-.4 2.1-.6 3.2" class="st1"/><path id="path36" d="M328.7 377h2.2c.5 1.3.8 2.6.8 3.8 0 1.2-.1 2.1-.2 2.7-2.8.4-5.1.6-6.8.6-2.7 0-4.7-.7-5.9-2.1-1.3-1.4-1.9-3.5-1.9-6.5v-42.8l.5-.5h3.5c1.8 0 3.1.4 3.8 1.3.7.9 1.1 2.3 1.1 4.4v35.9c0 2.2 1 3.2 2.9 3.2" class="st1"/><path id="path38" d="M367 360.4v15.2c0 3 .5 5.2 1.5 6.6-1.5 1.3-3.3 2-5.4 2-2 0-3.4-.5-4.1-1.4-.7-.9-1.1-2.3-1.1-4.3v-16.3c0-2.1-.3-3.6-.8-4.4-.5-.8-1.5-1.3-2.9-1.3-2.5 0-4.8 1.1-6.9 3.4v23.8c-.7.1-1.4.2-2.2.3-.8 0-1.6.1-2.3.1-.8 0-1.6 0-2.3-.1-.8 0-1.5-.1-2.2-.3v-34.6l.4-.5h3.5c2.6 0 4.2 1.4 4.9 4.2 3.4-2.9 6.8-4.4 10.1-4.4 3.4 0 5.8 1.1 7.4 3.2 1.6 2.3 2.4 5.2 2.4 8.8" class="st1"/><path id="path40" d="M387 377.8c2.3 0 4.5-1 6.6-3.1v-6.1c-.7 0-1.5-.1-2.2-.1-.7 0-1.4-.1-2-.1-2.1 0-3.6.4-4.7 1.2-1.1.8-1.6 2-1.6 3.8 0 1.4.4 2.5 1 3.2.8.8 1.7 1.2 2.9 1.2m17.6 1.8c-.2.8-.7 1.7-1.3 2.7-.6.9-1.2 1.6-1.8 2.1-3-.4-5.2-1.7-6.6-4-3 2.9-6.3 4.4-9.9 4.4-1.8 0-3.4-.3-4.8-.9-1.4-.6-2.5-1.4-3.4-2.3-.9-1-1.6-2.1-2-3.4-.4-1.3-.7-2.6-.7-3.9 0-2 .3-3.7 1-5.1.7-1.5 1.6-2.7 2.9-3.7 1.2-1 2.7-1.7 4.3-2.2 1.7-.5 3.5-.8 5.4-.8 2.5 0 4.5.1 5.9.2v-1.9c0-3.5-1.7-5.3-5.2-5.3-2.3 0-5.9.8-10.6 2.4-1.3-1.4-2.1-3.6-2.4-6.5 4.9-2.1 10-3.1 15.3-3.1 3.5 0 6.4 1 8.6 2.9 2.2 2 3.4 4.9 3.4 8.9v14.3c0 2.5.6 4.2 1.9 5.2" class="st1"/><path id="path42" d="M15.9 251.8s-2.1 2.3-7.3 2.9c-14.9 1.8-22.3 3.3-31.3 6.6-10 3.7-22.2 10.6-23.2 17.2-1.9 12.9 18.1 10.6 27.3 20.3 8.3 8.7 2.8 23.4 14.6 23.4 8.3 0 15.2-8.2 18.3-15.9 3-7.9 3.2-13.2 4.1-23.4.9-9.7 2.1-18.7 4.5-24.9 1.8-4.7 2-4.9 2.8-6.1 1.6-2.6 4.8-3.1 4.8-3.1s1.6 1.9.6 5.4c-3.6 12.9-2.6 34.2-3.2 50-.7 16.2-8.5 34.9-29.3 37.4-8.1 1-18.1-1.3-22.6-11.7-4.7-10.7-12.8-19.7-22.3-24.9-8-4.4-17.1-12.4-15.4-26.2 1.9-15.7 21.4-25.5 34.1-27.9 16.5-3.1 26.7-2.4 34.2-2.3 6.5.3 9.3 3.2 9.3 3.2" class="st1"/><path id="path44" d="M38.8 264s2.3 2.1 2.9 7.3c1.8 14.9 3.3 22.3 6.6 31.3 3.7 10 10.6 22.2 17.2 23.2 12.9 1.9 10.6-18.1 20.3-27.3 8.7-8.3 23.4-2.8 23.4-14.6 0-8.3-8.2-15.2-15.9-18.3-7.9-3-13.2-3.2-23.4-4.1-9.7-.9-18.7-2.1-24.9-4.5-4.7-1.8-4.9-2-6.1-2.8-2.6-1.6-3.1-4.8-3.1-4.8s1.9-1.6 5.4-.6c12.9 3.6 34.2 2.6 50 3.2 16.2.7 34.9 8.5 37.4 29.3 1 8.1-1.3 18.1-11.7 22.6-10.7 4.7-19.7 12.8-24.9 22.3-4.4 8-12.4 17.1-26.2 15.4-15.7-1.9-25.5-21.4-27.9-34.1-3.1-16.5-2.4-26.7-2.3-34.2.3-6.5 3.2-9.3 3.2-9.3" class="st1"/><path id="path46" d="M28.2 229s-2.3-2.1-2.9-7.3c-1.8-14.9-3.3-22.3-6.6-31.3-3.7-10-10.6-22.2-17.2-23.2-12.9-1.9-10.6 18.1-20.3 27.3-8.7 8.3-23.4 2.8-23.4 14.6 0 8.3 8.2 15.2 15.9 18.3 7.9 3 13.2 3.2 23.4 4.1 9.7.9 18.7 2.1 24.9 4.5 4.7 1.8 4.9 2 6.1 2.8 2.6 1.6 3.1 4.8 3.1 4.8s-1.9 1.6-5.4.6c-12.9-3.6-34.2-2.6-50-3.2-16.2-.7-34.9-8.5-37.4-29.3-1-8.1 1.3-18.1 11.7-22.6 10.7-4.7 19.7-12.8 24.9-22.3 4.4-8 12.4-17.1 26.2-15.4 15.7 1.9 25.5 21.4 27.9 34.1 3.1 16.5 2.4 26.7 2.3 34.2-.3 6.5-3.2 9.3-3.2 9.3" class="st1"/><path id="path48" d="M51.3 241.2s2.1-2.3 7.3-2.9c14.9-1.8 22.3-3.3 31.3-6.6 10-3.7 22.2-10.6 23.2-17.2 1.9-12.9-18.1-10.6-27.3-20.3-8.3-8.7-2.8-23.4-14.6-23.4-8.3 0-15.2 8.2-18.3 15.9-3 7.9-3.2 13.2-4.1 23.4-.9 9.7-2.1 18.7-4.5 24.9-1.8 4.7-2 4.9-2.8 6.1-1.6 2.6-4.8 3.1-4.8 3.1s-1.6-1.9-.6-5.4c3.6-12.9 2.6-34.2 3.2-50 .7-16.2 8.5-34.9 29.3-37.4 8.1-1 18.1 1.3 22.6 11.7 4.7 10.7 12.8 19.7 22.3 24.9 8 4.4 17.1 12.4 15.4 26.2-1.9 15.7-21.4 25.5-34.1 27.9-16.5 3.1-26.7 2.4-34.2 2.3-6.5-.3-9.3-3.2-9.3-3.2" class="st1"/><path id="path50" d="M39.7 333.9c.5 4.4.4 4.4 1 8.9 1.9 15.6 20.9 38.5 20.9 38.5s-3.5 7.2-6.9 4.7c-2.6-1.9-35.5-31.3-23.2-67.2 2.7 1.9 7.2 6.7 8.2 15.1" class="st1"/></g></svg>
