<svg xmlns="http://www.w3.org/2000/svg" xml:space="preserve" id="Layer_1" width="80" height="40" x="0" y="0" version="1.1"><style id="style2" type="text/css">.st1{fill:#1d1d1b}</style><g id="g16" transform="matrix(.52455 0 0 .52455 1 9.483)"><g id="g14"><g id="g12"><path id="rect4" d="M.4 2.7h37.3V40H.4z" style="fill:#ffed00"/><g id="g10"><path id="path6" d="M52.8 11c2.1-.4 3.5-2.3 3.4-4.4 0-3.3-2.3-4.8-5.4-4.8h-6.1v15.7h4.1v-6l3.8 6h5.1zm-4-6.1h.4c1.3 0 2.8.2 2.8 1.9s-1.5 2-2.8 2h-.4zm21.6 1.9h-3.8v1c-.8-.9-2.1-1.4-3.3-1.4-3 .1-5.4 2.6-5.3 5.6v.1c-.1 3 2.2 5.6 5.2 5.7h.1c1.3.1 2.5-.5 3.2-1.5v1.2h3.8zm-6.1 2.9c1.3-.1 2.4.9 2.4 2.2v.2c0 1.3-1.1 2.4-2.4 2.4-1.3 0-2.4-1.1-2.4-2.4-.1-1.3.9-2.4 2.2-2.4h.2m12.6-7c0 1.2-1 2.1-2.1 2.1s-2.1-1-2.1-2.1c0-1.2 1-2.1 2.1-2.1s2.1.9 2.1 2.1m-4 4.1h3.8v10.7h-3.8Zm10.4 10.6h-3.8V9.9h-1.3V6.8h1.3V5.4c-.2-1.3.2-2.7 1.1-3.7C81.5.6 82.9 0 84.3 0c.6 0 1.1.1 1.6.4v3.2c-.4-.2-.9-.3-1.3-.3-1 0-1.3.6-1.3 1.8v1.7h2.6v3.1h-2.6zm8 0h-3.7V9.9h-1.3V6.8h1.3V5.4c-.2-1.3.2-2.7 1.1-3.7C89.6.6 90.9 0 92.4 0c.6 0 1.1.1 1.6.4v3.2c-.4-.2-.9-.3-1.3-.3-1 0-1.3.6-1.3 1.8v1.7H94v3.1h-2.7zm14.9-5c0-3.6-2.1-5.9-5.8-5.9-3.5 0-5.9 2.1-5.9 5.7s2.6 5.7 6.2 5.7c2.4 0 4.8-1.1 5.4-3.6h-3.6c-.4.7-1.1 1.1-1.8 1-1.2.1-2.2-.7-2.4-1.8V13h8zm-7.9-1.8c.3-1.2 1.6-1.9 2.8-1.6.8.2 1.4.8 1.6 1.6zm13.6-7.9c0 1.2-1 2.1-2.1 2.1-1.2 0-2.1-.9-2.1-2.1 0-1.2 1-2.1 2.1-2.1 1.2 0 2.1.9 2.1 2.1m-4 4.1h3.8v10.7h-3.8zm13.3 2.7c-.6-.3-1.3-.5-2-.5-.4 0-1.2.2-1.2.7 0 .7 1.2.8 1.7.9 1.8.4 3.1 1.2 3.1 3.2 0 2.8-2.6 4-5 4-1.5 0-3-.4-4.3-1.2l1.4-2.6c.9.6 1.9 1 3 1.1.5 0 1.2-.2 1.2-.8 0-.8-1.2-.9-2.4-1.2-1.4-.2-2.5-1.4-2.4-2.8 0-2.6 2.4-3.8 4.7-3.8 1.2 0 2.4.2 3.5.7zm14.6 2.9c0-3.6-2.1-5.9-5.8-5.9-3.5 0-5.9 2.1-5.9 5.7s2.6 5.7 6.2 5.7c2.4 0 4.8-1.1 5.4-3.6H132c-.3.7-1.1 1.1-1.8 1-1.2.2-2.2-.7-2.4-1.8V13h8zm-7.9-1.8c.2-1 1.2-1.8 2.2-1.7 1 0 1.9.7 2.1 1.7zm13.4-2.4c.8-1.2 2.1-1.8 3.4-1.7 2.9 0 4 1.8 4 4.4v6.6H145v-5.2c0-1 .2-2.8-1.7-2.8-1.5 0-2 1.1-2 2.5v5.5h-3.8V6.8h3.8zM50.9 27.5h.3c1.1 0 2.4.1 2.1 1.5-.3 1.4-1.4 1.5-2.4 1.5h-.5zm.2 12.6c2.9 0 5.8-1.1 6.4-4.4.3-2.2-.4-3.7-2.6-4 1.3-.6 2.1-1.8 2.2-3.2.5-3-1.2-4.1-4-4.1h-5.8L44.8 40h6.3zm-1.2-6.5h.4c1.3 0 3.4-.2 3.1 1.7-.3 1.7-2.3 1.7-3.5 1.7h-.5zm19 3.7.6 2.7h4.3l-3.4-15.7H66L57.5 40h4.3l1.5-2.7zm-.6-3.1h-3.4l2.5-5zm9.3-9.8h4.1l5.9 9.6 1.5-9.6h4.1L90.8 40h-4.1l-5.9-9.6-1.5 9.6h-4.1zm27.4 0h5l-7.4 7.4 5.5 8.2h-5.3l-4.2-6.8-1.1 6.8h-4.1l2.5-15.7h4.1l-1 6.5z" class="st1"/><path id="path8" d="M0 1.8h38.2V40H0ZM1 39h36.2V2.9H1Zm18-13.5L30.6 37l4.5-4.5L23.5 21l2.2-2.2v-4.5l1.6-1.6v3.7l1.6 1.5 5.6-5.6 1.5 1.5c-.1-2.6-1.1-5.1-3-6.9-1.8-2-4.8-2.1-6.8-.4l-.2.2-5.4 5.4 1.4 1.4-3 3-3-3 1.4-1.4L12 6.7c-1.9-1.9-4.9-1.9-6.8 0l-.2.2c-1.8 1.8-2.9 4.3-2.9 6.9l1.5-1.5 5.6 5.6 1.6-1.6v-3.7l1.6 1.6v4.5l2.2 2.3L3.2 32.4l4.5 4.5Z" class="st1"/></g></g></g></g></svg>
