<svg xmlns="http://www.w3.org/2000/svg" width="80" height="40"><defs><linearGradient id="a" x1="2.637" x2="20.637" y1="-2.637" y2="15.363" gradientUnits="userSpaceOnUse"><stop offset="0%" stop-color="#82BC00" stop-opacity="0"/><stop offset="100%" stop-color="#82BC00"/></linearGradient></defs><path fill="#482683" d="M18.12 54.63h17.95V.8H.18v17.95h17.94z" style="fill-rule:evenodd;stroke:none;stroke-width:1" transform="translate(-.077 7.657) scale(.42886)"/><g style="fill:none;fill-rule:evenodd;stroke:none;stroke-width:1"><path fill="#009d4e" d="M15.383 8a7.717 7.717 0 0 0 7.72 7.72V8Z"/><path fill="url(#a)" d="M0 0c0 9.99 8.1 18 18 18V0Z" style="fill:url(#a)" transform="translate(15.383 8) scale(.42886)"/></g><g fill="#482683"><path d="M39.583 17.288v-3.476h1.738V12.04h-1.738V9.894h-2.18v2.145h-1.206v1.773h1.205v3.76c0 1.755 1.011 2.552 2.623 2.552.585 0 1.118-.086 1.418-.248v-1.952a1.9 1.9 0 0 1-.956.265c-.565 0-.904-.28-.904-.9" style="fill-rule:evenodd;stroke:none;stroke-width:.395009" transform="translate(-.197 5.208)"/><path d="m105.37 17.85 3.28 12.3h5.12l6.1-20.06h-5.39l-3.59 12.79-3.32-12.79h-4.27l-3.27 12.79-3.59-12.79h-5.57l6.11 20.06h5.11z" style="fill-rule:evenodd;stroke:none;stroke-width:1" transform="matrix(.395 0 0 .395 6.046 13.261)"/><path d="M54.783 12.039h2.2v7.928h-2.2zM63.046 15.266l-1.631-.371c-.494-.123-.707-.3-.707-.62 0-.498.513-.747 1.047-.747.726 0 1.098.336 1.24.782h2.093c-.264-1.49-1.366-2.445-3.369-2.445-1.774 0-3.156 1.027-3.156 2.571 0 1.331.853 1.952 2.058 2.236l1.596.356c.549.142.798.32.798.675 0 .514-.443.778-1.118.778-.656 0-1.154-.3-1.331-.869h-2.18c.228 1.616 1.595 2.536 3.527 2.536 1.844 0 3.247-.956 3.247-2.571-.004-1.213-.731-1.975-2.114-2.311M69.303 17.288v-3.476h1.738V12.04h-1.738V9.894h-2.18v2.145h-1.205v1.773h1.205v3.76c0 1.755 1.01 2.552 2.623 2.552.584 0 1.117-.086 1.418-.248v-1.952a1.9 1.9 0 0 1-.956.265c-.565 0-.905-.28-.905-.9" style="fill-rule:evenodd;stroke:none;stroke-width:.395009" transform="translate(-.197 5.208)"/><path d="M75.86 11.86A4.139 4.139 0 0 0 71.72 16a4.139 4.139 0 0 0 4.14 4.14A4.139 4.139 0 0 0 80 16a4.139 4.139 0 0 0-4.14-4.14m0 6.159a2.02 2.02 0 0 1 0-4.037 2.02 2.02 0 0 1 0 4.037" style="stroke:none;stroke-width:.395009" transform="translate(-.197 5.208)"/><path d="M55.88 8.792a1.098 1.098 0 1 0 .001 2.196 1.098 1.098 0 0 0 0-2.196" style="fill-rule:evenodd;stroke:none;stroke-width:.395009" transform="translate(-.197 5.208)"/></g></svg>
