<svg xmlns="http://www.w3.org/2000/svg" width="80" height="40"><g fill="none" fill-rule="evenodd"><path fill="#e00a1e" fill-rule="nonzero" d="M7.036 17.697s0-.027.08-.134c.082-.108.055-.189 0-.243-.026-.027-.807-.484-.807-.484-.054-.027-.08-.108-.08-.162 0-.108.08-.189.215-.242.484-.135 2.235-.216 2.827-.216H10.106A4.93 4.93 0 0 0 2 19.986c0 1.186.43 2.29 1.131 3.151.62-.915 2.155-3.07 2.478-3.528.404-.592 1.427-1.912 1.427-1.912ZM11.453 18.02c.242-.242.404-.457.377-.646-.027-.511-.646-.915-.646-.915l-.027-.027a.372.372 0 0 1 .08.107c.162.377-.107.62-.269.781-.08.081-1.346 1.266-2.828 2.559a68.544 68.544 0 0 1-3.608 2.935c-1.185.889-1.428 1.024-1.428 1.024-.027.027-.08.027-.134.027-.081 0-.135-.054-.189-.108 0 .027 0 .108.108.242l.054.054c.08.08.188.216.35.323.242.216.35.108.862-.269a5.009 5.009 0 0 0 2.746.835 4.93 4.93 0 0 0 4.929-4.929 4.064 4.064 0 0 0-.377-1.992z"/><path fill="#fff" d="M7.117 17.563c.08-.108.054-.189 0-.243-.027-.027-.808-.484-.808-.484-.054-.027-.08-.108-.08-.162 0-.108.08-.189.215-.242.484-.135 2.235-.216 2.827-.216.27 0 .835 0 1.185.027.404.027.728.108.781.296.162.377-.107.62-.269.781-.08.081-1.346 1.266-2.828 2.559a68.544 68.544 0 0 1-3.608 2.935c-1.185.889-1.428 1.024-1.428 1.024-.027.027-.08.027-.134.027-.135 0-.216-.081-.216-.216 0-.054.027-.08.027-.134 0 0 2.343-3.367 2.747-3.932.43-.566 1.454-1.886 1.454-1.886s.054-.027.135-.134z"/><path fill="#212121" fill-rule="nonzero" d="M41.384 2.14v14.855c0 3.243-2.854 5.773-6.681 5.773-3.762 0-6.681-2.465-6.681-5.773V5.643c0-1.946 1.556-3.502 3.437-3.502h.26v14.854c0 1.75 1.557 2.854 3.113 2.854 1.492 0 3.05-.973 3.05-2.854V5.449a3.322 3.322 0 0 1 3.307-3.308zM48.714 7.395c5.059 0 5.837 2.854 5.837 4.54v10.573h-.13c-1.88 0-3.437-1.557-3.437-3.438v-7.135c0-.973-.39-2.205-2.4-2.205-.908 0-1.492.13-2.076.324v12.39h-3.632V8.431c1.556-.648 4.086-1.037 5.838-1.037zM57.99 2.14c1.102 0 1.945.844 1.945 1.817s-.843 1.751-1.946 1.751-1.946-.778-1.946-1.751c-.065-1.038.843-1.816 1.946-1.816zm1.75 5.255v11.74a3.419 3.419 0 0 1-3.437 3.438h-.13V7.395ZM70.054 1.816c1.687 0 3.308.39 4.605 1.168V6.55c-.843-1.037-1.945-1.816-3.827-1.816-3.697 0-5.967 3.633-5.967 7.395 0 3.567 2.4 7.394 5.967 7.394 1.557 0 2.984-.454 3.827-1.621v3.502c-1.037.779-2.724 1.233-4.67 1.233-5.838 0-8.951-5.384-8.951-10.508.065-4.995 3.178-10.314 9.016-10.314zM81.081 7.395c.584 0 1.362.064 2.01.13v2.918c-1.232-.908-2.918-.584-3.632-.194v8.886c0 1.881-1.556 3.438-3.437 3.438h-.13V8.563c1.427-.714 2.854-1.168 5.19-1.168zM95.676 15.114l-9.017 1.232c.325 2.465 1.557 3.762 3.827 3.762 2.53 0 3.763-.843 4.736-1.492V21.6c-.908.519-2.595 1.103-5.06 1.103-4.41 0-7.005-2.984-7.005-7.72 0-4.605 2.465-7.653 6.421-7.653 3.957 0 6.163 2.594 6.163 7.2v.584zm-3.114-2.076c-.13-2.984-1.946-3.308-2.984-3.308h-.13c-2.01.065-2.983 1.492-2.983 4.151zM108.649 2.14v20.238c-.844.195-3.698.39-4.865.39h-.26c-4.41-.065-6.81-2.595-6.81-7.136 0-4.605 2.53-7.589 6.421-7.589.779 0 1.427.065 1.946.195V5.643a3.419 3.419 0 0 1 3.438-3.438h.13zm-3.503 8.174c-.39-.13-.778-.13-1.232-.13-2.984 0-3.568 2.854-3.568 5.254 0 3.308 1.103 4.994 3.373 4.994.39 0 1.232-.064 1.492-.13v-9.988zM112.151 2.14c1.103 0 1.946.844 1.946 1.817s-.843 1.751-1.946 1.751c-1.102 0-1.946-.778-1.946-1.751-.064-1.038.844-1.816 1.946-1.816zm1.752 5.255v11.74a3.419 3.419 0 0 1-3.438 3.438h-.13V7.395ZM120.26 2.14v5.255h2.335v2.919h-2.336v8.043c0 .973.325 1.297 1.363 1.297.26 0 .648-.065.973-.195v2.984c-.13.065-.844.325-1.817.325-2.66 0-4.086-1.298-4.086-3.633v-8.821h-1.557v-2.92h1.557V5.579c0-1.88 1.492-3.437 3.373-3.437zM139.2 11.481v.065c1.946.39 4.605 2.076 4.605 5.06 0 4.086-3.243 5.837-8.043 5.837-4.54 0-6.227-.065-6.227-.065V2.854c1.297-.649 3.438-1.168 5.968-1.168 5.06 0 7.589 2.206 7.589 5.19.065 2.919-2.076 4.216-3.892 4.605zm.195-4.281c0-2.27-1.298-3.308-3.827-3.308-.909 0-1.622.13-2.336.324v6.422h1.168c3.762.194 4.995-.973 4.995-3.438Zm-4.995 5.384h-1.168v7.589h2.465c2.465 0 4.281-.973 4.281-3.568 0-2.854-1.621-4.15-5.578-4.021zM152.757 12.973V12c0-1.946-1.168-2.465-2.92-2.465-1.426 0-2.853.52-4.475 1.362v-2.4c.973-.454 2.724-1.167 5.06-1.167 3.048 0 5.643 1.556 5.643 5.319v9.665c-.973.194-3.308.389-4.735.389h-.779c-4.021 0-6.097-1.687-6.097-4.54 0-3.893 3.762-4.8 8.303-5.19zm0 1.622c-3.179.324-5.125.973-5.125 3.502 0 1.881 1.168 2.725 3.114 2.725.778 0 1.686-.065 2.01-.13zM163.395 7.33c5.059 0 5.902 2.854 5.902 4.54v10.638h-.13c-1.88 0-3.502-1.557-3.502-3.438v-7.135c0-.973-.39-2.205-2.4-2.205-.908 0-1.492.13-2.076.324v12.454h-3.632V8.432c1.557-.648 4.086-1.102 5.838-1.102zM174.486 19.005c0 1.946-1.491 3.503-3.567 3.503V5.578c0-1.946 1.492-3.502 3.567-3.502V14.4l4.476-6.681h3.373l-4.605 6.746 5.448 8.043h-3.827l-4.865-7.524z" style="fill:#111;fill-opacity:1;stroke-width:.99954197;stroke-dasharray:none" transform="translate(1.946 15.058) scale(.41519)"/></g></svg>
