<svg width="120" height="80" viewBox="0 0 120 80" fill="none" xmlns="http://www.w3.org/2000/svg">
<rect width="120" height="80" rx="4" fill="white"/>
<path d="M50.853 52.9544H44.5765L48.5431 27.0962H54.8196L50.853 52.9544Z" fill="#00579F"/>
<path d="M78.1498 27.7002C76.9199 27.2178 74.9898 26.6846 72.5802 26.6846C66.3842 26.6846 62.0265 29.8896 61.9959 34.4662C61.9347 37.8536 65.0602 39.7348 67.3886 40.8592C69.7782 42.0144 70.5787 42.7592 70.5787 43.7924C70.5481 45.3782 68.6486 46.0924 66.8714 46.0924C64.4006 46.0924 63.0789 45.7318 61.0571 44.839L60.257 44.4784L59.3953 49.6894C60.8393 50.3318 63.4934 50.905 66.2494 50.9356C72.8553 50.9356 77.1211 47.7918 77.1823 42.9394C77.2129 40.2434 75.558 38.1798 72.0532 36.4808C69.9089 35.3874 68.5871 34.643 68.5871 33.5496C68.618 32.548 69.725 31.5158 72.1349 31.5158C74.1259 31.4546 75.5699 31.937 76.6475 32.4194L77.1823 32.6582L78.1498 27.7002Z" fill="#00579F"/>
<path d="M86.0624 43.3094C86.5666 41.9582 88.5881 36.5038 88.5881 36.5038C88.5575 36.5648 89.0923 35.1526 89.3979 34.2818L89.7953 36.2946C89.7953 36.2946 90.9862 42.1058 91.2306 43.3094H86.0624ZM93.8054 27.0962H88.8934C87.3576 27.0962 86.1891 27.5172 85.5109 29.0726L76.3728 52.9544H82.9787C82.9787 52.9544 84.0564 50.1672 84.3008 49.4834H92.3969C92.5801 50.4248 93.1455 52.9544 93.1455 52.9544H98.9419L93.8054 27.0962Z" fill="#00579F"/>
<path d="M38.7701 27.0962L32.6353 44.3872L31.9877 41.111C30.8489 37.3888 27.2622 33.3494 23.2344 31.3366L28.8302 52.924H35.4973L45.4371 27.0962H38.7701Z" fill="#00579F"/>
<path d="M27.6597 27.0962H17.6893L17.5977 27.5786C25.4489 29.4598 30.6782 34.1584 32.6389 39.9086L30.6168 29.1034C30.281 27.5786 29.1424 27.1572 27.6597 27.0962Z" fill="#FAA61A"/>
</svg>
