<svg xmlns="http://www.w3.org/2000/svg" xml:space="preserve" viewBox="0 0 130 65"><rect width="940" height="349.587" y="49.707" fill="#2870ed" rx="35" ry="27.251" transform="matrix(.1287 0 0 .1144 4.5 6.813)"/><g fill="#fff"><path d="M23.452 25.201c2.033 0 3.2.221 3.2 1.119v.867h-2.98c-.882 0-1.229.268-1.229.773 0 1.371 4.744 1.135 4.744 4.508 0 1.607-.992 2.978-3.876 2.978-1.814 0-3.311-.252-3.311-1.12v-.867h3.42c.898 0 1.34-.284 1.34-.866 0-1.481-4.728-1.26-4.728-4.696 0-1.513 1.072-2.695 3.42-2.695zM28.258 26.147c0-.567.252-.866.836-.866h1.45v8.163h4.223v1.104c0 .567-.3.819-.882.819h-4.791c-.584 0-.836-.3-.836-.866zM34.83 30.324c0-3.577 1.53-5.122 4.302-5.122s4.303 1.545 4.303 5.122-1.512 5.121-4.303 5.121c-2.79 0-4.302-1.544-4.302-5.121zm2.349 0c0 2.458.693 3.246 1.954 3.246s1.955-.788 1.955-3.246-.693-3.247-1.955-3.247-1.954.788-1.954 3.247zM47.989 33.035h.063l1.891-7.392c.095-.33.221-.362.63-.362h1.813c0 .094-.016.22-.047.378l-2.6 9.347c-.095.347-.3.394-.71.394h-2.08c-.41 0-.615-.047-.694-.394l-2.584-9.347a1.884 1.884 0 0 1-.047-.378h1.828c.394 0 .536.031.615.362l1.923 7.392zM53.095 26.147c0-.567.253-.866.836-.866h5.736v1.103c0 .567-.299.836-.897.836h-3.39v2.096h3.704v1.812h-3.703v2.317h4.365v1.104c0 .567-.3.819-.883.819H53.93c-.583 0-.836-.3-.836-.866v-8.355ZM67.011 31.978c-.047-1.024-.047-1.812-.047-3.089v-3.608h2.05v9.346c0 .472-.221.773-.805.773h-1.23c-.41 0-.583-.047-.787-.426l-3.468-6.304h-.046c.046 1.245.046 1.875.046 2.837v3.861h-2.049v-9.284c0-.52.284-.836.868-.836h1.166c.41 0 .583.047.804.426l3.436 6.304h.063zM73.504 25.201c2.033 0 3.2.221 3.2 1.119v.867h-2.979c-.883 0-1.23.268-1.23.773 0 1.371 4.744 1.135 4.744 4.508 0 1.607-.992 2.978-3.876 2.978-1.812 0-3.31-.252-3.31-1.118v-.868h3.42c.898 0 1.34-.284 1.34-.866 0-1.481-4.727-1.261-4.727-4.697 0-1.513 1.072-2.695 3.42-2.695zM80.595 29.945l2.932-4.24c.236-.362.363-.425.662-.425h2.112a.69.69 0 0 1-.141.425l-3.247 4.46 3.405 4.775a.861.861 0 0 1 .141.426h-2.018c-.44 0-.583-.032-.867-.457l-2.979-4.192v4.649H78.31v-9.219c0-.567.252-.866.836-.866h1.45v4.665zM91.99 25.25c.41 0 .598.046.693.393l2.569 9.346c.031.142.046.284.046.379h-1.812c-.409 0-.535-.015-.63-.362l-.567-2.144h-2.758l-.567 2.144c-.078.347-.204.362-.614.362h-1.813c0-.095.016-.22.047-.379l2.585-9.346c.095-.347.284-.394.693-.394zm-2.08 5.878h1.969l-.946-3.514h-.078zm1.843-6.65c-.205.22-.316.236-.52.236h-.915c0-.063 0-.158.063-.237l1.324-1.607c.19-.22.3-.268.489-.268h.897c.127 0 .19.047.19.11 0 .079-.032.142-.158.284l-1.371 1.481zM98.243 32.658h9.003V31.45H98.26c-.007-.14-.003-2.865-.022-4.124-.015-1.074.718-2.12 2.104-2.096 2.524.041 5.052.041 7.577-.002 1.088-.02 2.078.78 2.077 2.08v.638h-9.011v1.18l9.01-.002c0 .161.003 2.89 0 4.16-.004 1.278-.822 2.081-2.115 2.082h-7.513c-1.303 0-2.118-.812-2.124-2.114v-.594M104.13 23.968c-1.064 0-1.925-.877-1.92-1.954a1.93 1.93 0 0 1 1.928-1.917 1.932 1.932 0 0 1 1.92 1.924 1.936 1.936 0 0 1-1.927 1.947M21.752 38.83c.89 0 1.492.027 1.492.472v.268h-1.501c-.418 0-.668.176-.668.436 0 .871 2.41.621 2.41 2.188 0 .76-.491 1.363-1.9 1.363-.825 0-1.585 0-1.585-.427v-.315h1.669c.555 0 .797-.167.797-.538 0-.788-2.42-.648-2.42-2.206 0-.779.63-1.242 1.706-1.242zM25.117 44.902h-.973v-6.026h.51c.343 0 .463.185.463.408v.13c.278-.306.714-.585 1.26-.585 1.168 0 1.698.908 1.698 2.364s-.529 2.364-1.697 2.364c-.547 0-.983-.278-1.26-.575V44.9zm.919-5.303c-.362 0-.668.148-.919.343v2.494c.25.194.556.343.919.343.751 0 1.029-.547 1.029-1.585s-.278-1.594-1.03-1.594zM28.63 41.193c0-1.298.473-2.364 2.04-2.364s2.039 1.066 2.039 2.364c0 1.298-.473 2.364-2.04 2.364s-2.038-1.066-2.038-2.364zm3.078 0c0-1.075-.241-1.668-1.038-1.668s-1.03.593-1.03 1.668.233 1.669 1.03 1.669 1.038-.585 1.038-1.669zM33.478 43.511v-4.635h.51c.316 0 .445.232.464.584.38-.491.862-.63 1.232-.63.167 0 .334.047.334.232v.723h-.232c-.713 0-1.057.149-1.334.343v3.384h-.974zM37.381 38.394h-.973v-.538c0-.296.111-.463.418-.463h.555zm-.973.482h.547c.306 0 .426.167.426.463v4.172h-.973zM39.578 38.876h1.039v.723h-1.039v2.698c0 .36.047.5.362.5h.677v.242c0 .389-.334.5-.863.5-1.056 0-1.149-.564-1.149-1.241V39.6h-.612v-.538l.612-.185.352-.742c.102-.194.176-.278.352-.278h.27v1.02zM44.51 42.816v.26c0 .379-.51.482-1.631.482-1.558 0-2.04-1.066-2.04-2.364 0-1.298.51-2.364 2.03-2.364 1.224 0 1.863.705 1.863 1.752 0 .232 0 .408-.047.872h-2.837c0 .991.37 1.363 1.14 1.363h1.52zm-.76-2.012c.01-.083.01-.25.01-.352 0-.417-.177-.927-.881-.927-.649 0-.992.37-1.03 1.28zM46.448 43.511h-.974v-5.655c0-.296.111-.463.418-.463h.556zm.973-5.145c-.028.14-.14.14-.269.14h-.361l.102-.955c.018-.149.148-.158.268-.158h.343c.065 0 .12.027.12.083a.536.536 0 0 1-.027.14l-.176.751zM48.033 43.511v-4.635h.51c.343 0 .463.176.463.4v.139c.399-.418.88-.585 1.363-.585.964 0 1.427.585 1.427 1.438v3.244h-.973v-3.199c0-.51-.325-.713-.844-.713-.352 0-.714.148-.973.343v3.569h-.973zm1.752-5.006c-.12 0-.186-.036-.297-.157l-.778-.908c-.047-.047-.047-.102-.047-.14h.426c.13 0 .186.028.316.14l.51.435.52-.435c.128-.111.184-.14.305-.14h.426c0 .037 0 .093-.037.14l-.788.908c-.11.12-.176.157-.296.157h-.26zM55.82 43.511c-.335 0-.464-.176-.464-.4v-.13a1.876 1.876 0 0 1-1.354.576c-.88 0-1.427-.51-1.427-1.298 0-1.159 1.27-1.474 2.781-1.54v-.388c0-.585-.417-.76-1.01-.76h-1.428v-.27c0-.444.556-.472 1.585-.472 1.15 0 1.826.483 1.826 1.456v3.226Zm-.464-2.206c-1.27.018-1.752.269-1.752.815 0 .483.352.649.825.649.343 0 .695-.13.927-.334v-1.131z" class="cls-1"/></g></svg>
