<svg xmlns="http://www.w3.org/2000/svg" width="80pt" height="40pt" viewBox="0 0 80 40"><defs><clipPath id="a"><path d="M142 173h21v21.45h-21zm0 0"/></clipPath><clipPath id="b"><path d="M185 173h20.77v21H185Zm0 0"/></clipPath><clipPath id="c"><path d="M0 34h205.77v131H0Zm0 0"/></clipPath></defs><path d="M40.188 18.682h-4.413l-.024 1.556h.299l.005-.04c.136-1.094.806-1.158 1.313-1.188v3.788c0 .57-.127.58-.664.623l-.042.004v.27h2.69v-.27l-.041-.004c-.53-.035-.671-.045-.671-.623V19.01c.504.03 1.17.095 1.306 1.187l.005.04h.298l-.016-1.555h-.045M31.605 18.682h-4.413l-.023 1.556h.297l.005-.04c.138-1.094.807-1.158 1.315-1.188v3.788c0 .57-.128.58-.664.623l-.042.004v.27h2.69v-.27l-.043-.004c-.529-.035-.67-.045-.67-.623V19.01c.505.03 1.17.095 1.306 1.187l.005.04h.298l-.016-1.555h-.045M32.633 21.885l.62-1.6c.074.18.62 1.49.664 1.6h-1.284zm3.572 1.536c-.316.014-.424-.209-.75-.983l-1.634-3.858h-.266l-1.628 4.018c-.21.528-.306.77-.677.824l-.039.006v.267h1.57v-.271l-.044-.003c-.292-.017-.554-.05-.554-.266 0-.106.115-.403.306-.894h1.576c.09.206.32.737.32.923 0 .183-.06.2-.522.237l-.042.003-.018.043v.228h2.45v-.275l-.048.001M42.483 21.09v-1.805c.034-.212.045-.264.406-.264.578 0 .835.31.835 1.003 0 .883-.329 1.054-1.24 1.067zm3.15 2.33c-.089 0-.175-.008-.262-.12l-1.426-2.021c.414-.131 1.115-.382 1.115-1.27 0-.856-.745-1.327-2.099-1.327h-2.389v.271l.045.003c.409.029.596.041.596.624v3.218c0 .553-.116.567-.6.624l-.04.005v.268h2.55v-.267l-.04-.006c-.472-.065-.6-.082-.6-.624v-1.381h.127l1.507 2.278h1.562v-.274h-.046" style="fill:#003873;fill-opacity:1;fill-rule:nonzero;stroke:none;stroke-width:.250752" transform="matrix(1.4597 0 0 1.4597 .73 -12.49)"/><path d="M47.054 21.885c.042-.108.548-1.42.619-1.6l.665 1.6h-1.284zm3.57 1.536c-.315.014-.422-.209-.748-.983L48.24 18.58h-.265l-1.628 4.018c-.21.528-.307.77-.677.824l-.04.006v.267h1.57v-.271l-.043-.003c-.292-.017-.554-.05-.554-.266 0-.106.116-.404.306-.894h1.577c.089.206.318.737.318.923 0 .183-.058.2-.521.237l-.043.003-.018.043v.228h2.45v-.275l-.047.001" style="fill:#003873;fill-opacity:1;fill-rule:nonzero;stroke:none;stroke-width:.250752" transform="matrix(1.4597 0 0 1.4597 .73 -12.49)"/><path d="M73.453 18.682h-2.15v.271l.043.003c.553.03.576.082.576.194 0 .115-.048.168-.25.369l-1.501 1.508V19.58c0-.58.2-.595.6-.624l.042-.003.006-.043v-.228h-2.552v.271l.054.003c.335.023.58.039.58.471v3.524c0 .406-.198.428-.593.47l-.041.005v.27h2.545v-.27l-.053-.005c-.379-.051-.588-.078-.588-.47v-1.408l.146-.134c.06.072 1.294 1.613 1.294 1.613.107.128.165.212.165.293 0 .07-.109.093-.53.106l-.045.002v.272h2.538v-.271l-.043-.003c-.15-.007-.23-.023-.324-.135l-2.194-2.72c1.203-1.233 1.536-1.568 2.277-1.61l.044-.003v-.27h-.046" style="fill:#003873;fill-opacity:1;fill-rule:nonzero;stroke:none;stroke-width:.250752" transform="matrix(1.4597 0 0 1.4597 -37.264 -3.41)"/><g clip-path="url(#a)" transform="translate(2.394 -39.804) scale(.36602)"><path d="M162.602 173.934h-6.422v1.078l.168.011c2.168.164 2.53.961 2.53 2.696v8.351l-9.862-12.136h-6.395v1.093h.184c.27 0 .68.004 2.28 1.973v13.695c0 1.79-.69 1.942-2.39 2.14l-.164.02v1.07h6.957v-1.073l-.164-.02c-2.105-.223-2.594-.727-2.594-2.687v-11.176l12.708 15.48h1.085v-17.281c0-1.273.086-1.89 2.106-2.145l.156-.02v-1.07h-.183" style="fill:#003873;fill-opacity:1;fill-rule:nonzero;stroke:none"/></g><path d="M55.486 23.37c-.29 0-.392-.104-.392-.398v-1.774h.174c.527.025 1.067.177 1.067 1.126 0 .704-.278 1.046-.849 1.046zm-.392-4.067c.008-.166.014-.311.34-.311.474 0 .704.293.704.893 0 .728-.162.992-1.044 1.002v-1.584zm1.322 1.682c.375-.116 1.015-.355 1.015-1.091 0-.782-.688-1.212-1.938-1.212h-2.296v.271l.055.003c.327.022.586.039.586.471v3.524c0 .392-.173.425-.6.47l-.041.005v.27h2.39c1.543-.03 2.092-.743 2.092-1.4 0-.902-.836-1.212-1.263-1.311M59.025 21.885l.62-1.6.664 1.6h-1.284zm3.571 1.536c-.316.014-.423-.209-.749-.983l-1.635-3.858h-.265l-1.628 4.018c-.212.528-.308.77-.678.824l-.04.006v.267h1.57v-.271l-.042-.003c-.293-.017-.555-.05-.555-.266 0-.106.116-.403.307-.894h1.576c.09.205.32.737.32.923 0 .183-.06.2-.524.237l-.042.003-.017.043v.228h2.45v-.275l-.048.001" style="fill:#003873;fill-opacity:1;fill-rule:nonzero;stroke:none;stroke-width:.250752" transform="matrix(1.4597 0 0 1.4597 -37.264 -3.41)"/><g clip-path="url(#b)" transform="translate(2.394 -39.804) scale(.36602)"><path d="M191.324 186.707c.164-.43 2.188-5.656 2.465-6.379.297.715 2.473 5.942 2.652 6.379h-5.117zm14.238 6.125c-1.253.055-1.687-.832-2.988-3.922l-6.52-15.383H195l-6.492 16.024c-.848 2.105-1.23 3.066-2.707 3.285l-.153.023v1.067h6.258v-1.082l-.172-.012c-1.164-.066-2.207-.2-2.207-1.062 0-.422.461-1.614 1.22-3.563h6.284c.36.816 1.274 2.938 1.274 3.68 0 .754-.297.8-2.082.945l-.168.012-.075.172v.91h9.778v-1.098l-.195.004" style="fill:#003873;fill-opacity:1;fill-rule:nonzero;stroke:none"/></g><g clip-path="url(#c)" transform="matrix(.15277 0 0 .15277 2.263 7.44)"><path d="M178.785 34.61v1.69h25.293v126.442H1.902V36.301h99.196v-1.692H.207v129.825H205.77V34.609h-26.985" style="fill:#003873;fill-opacity:1;fill-rule:nonzero;stroke:none"/></g><path d="M32.366 9.962h5.752L25.97 31.105H20.22L32.366 9.962M45.358 0h5.752L33.238 31.118h-5.766L45.358 0M49.943 4.907h5.752L40.638 31.105h-5.751L49.943 4.907M52.87 23.32h-6.4l-.507 2.247.372.001.009-.017c.577-1.154 1.408-1.745 2.47-1.761l-1.7 6.171c-.218.787-.684.833-1.184.81h-.033v.351h3.892v-.35h-.03c-.658-.024-.93-.034-.93-.467 0-.161.064-.475.125-.685l1.615-5.832c.6.024 1.485.08 1.54 1.762l.002.031.389-.006.408-2.255h-.038M55.434 26.8l.694-2.56.001-.002c.057-.228.122-.485.536-.485.68 0 1.01.36 1.01 1.102 0 1.839-1.335 1.912-2.24 1.946zm-.25 3.89c-.46 0-.674-.104-.674-.327 0-.104.023-.25.056-.349l.757-2.8c.831.022 1.681.056 1.681 1.274 0 .572-.334 2.202-1.82 2.202zm4.255-5.673c0-1.11-.955-1.697-2.762-1.697h-3.179v.35l.03.002c.507.024.815.069.815.49 0 .06-.067.403-.126.603l-1.411 5.196c-.195.71-.506.754-.901.81l-.026.005v.346h3.514c1.287-.017 3.444-.356 3.444-2.437 0-1.183-.948-1.522-1.509-1.699.727-.176 2.111-.55 2.111-1.97" style="fill:#003873;fill-opacity:1;fill-rule:nonzero;stroke:none;stroke-width:.205709" transform="matrix(.74263 0 0 .74263 -11.725 7.44)"/></svg>
