<svg width="120" height="80" viewBox="0 0 120 80" fill="none" xmlns="http://www.w3.org/2000/svg">
<rect width="120" height="80" rx="4" fill="black"/>
<path d="M38.5 25.5C37.3 27 35.5 28.2 33.7 28.1C33.5 26.3 34.3 24.4 35.4 23C36.6 21.5 38.5 20.3 40.1 20.2C40.2 22.1 39.6 24 38.5 25.5ZM40.1 28.5C37.5 28.4 35.3 30 34.1 30C32.8 30 31 28.6 28.9 28.6C26.2 28.7 23.7 30.2 22.3 32.6C19.5 37.4 21.5 44.5 24.3 48.4C25.6 50.3 27.2 52.5 29.3 52.4C31.2 52.3 32 51.2 34.4 51.2C36.8 51.2 37.5 52.4 39.5 52.4C41.6 52.3 43 50.4 44.3 48.5C45.3 47 45.8 45.9 46.6 44.2C43.1 42.8 42.7 37.9 46.2 35.8C44.9 34.1 42.8 28.6 40.1 28.5Z" fill="white"/>
<path d="M56.7 23.2C62.3 23.2 66.2 27.1 66.2 32.7C66.2 38.4 62.2 42.3 56.5 42.3H51.1V52.1H47.4V23.2H56.7ZM51.1 39.1H55.8C59.8 39.1 62.3 36.7 62.3 32.7C62.3 28.7 59.8 26.4 55.8 26.4H51.1V39.1Z" fill="white"/>
<path d="M67.5 46.1C67.5 42.4 70.3 40.2 75.2 39.9L80.8 39.5V37.8C80.8 35.4 79.2 34 76.6 34C74.3 34 72.7 35.2 72.3 37H69V36.8C69.4 33.1 72.5 30.7 76.8 30.7C81.3 30.7 84.3 33.3 84.3 37.4V52.1H80.9V48.8H80.8C79.7 50.9 77.3 52.4 74.7 52.4C70.5 52.4 67.5 49.8 67.5 46.1ZM80.8 44.3V42.5L75.8 42.8C73.2 43 71.3 44.3 71.3 46.1C71.3 47.9 73.1 49.2 75.5 49.2C78.6 49.2 80.8 47.1 80.8 44.3Z" fill="white"/>
<path d="M87.7 57.5V54.4C87.9 54.5 88.6 54.5 88.8 54.5C90.6 54.5 91.7 53.7 92.4 51.5L92.7 50.5L85.2 31H89.2L94.5 47.4H94.6L99.9 31H103.8L95.9 51.8C94.3 56.1 92.4 57.6 89.1 57.6C88.9 57.6 88 57.5 87.7 57.5Z" fill="white"/>
</svg>
