<svg xmlns="http://www.w3.org/2000/svg" xml:space="preserve" width="80" height="40"><path d="M32.3 11.1v17.886h2.776v-6.115h3.844c3.51 0 5.977-2.409 5.977-5.897 0-3.488-2.42-5.874-5.885-5.874Zm2.776 2.34h3.201c2.41 0 3.787 1.285 3.787 3.546 0 2.26-1.377 3.556-3.798 3.556h-3.19zM49.97 29.125c1.743 0 3.361-.883 4.095-2.283h.058v2.145h2.57v-8.903c0-2.581-2.065-4.245-5.243-4.245-2.949 0-5.129 1.687-5.21 4.004h2.502c.206-1.1 1.228-1.824 2.627-1.824 1.698 0 2.65.792 2.65 2.249v.987l-3.464.206c-3.224.195-4.968 1.515-4.968 3.81 0 2.317 1.801 3.854 4.383 3.854zm.745-2.122c-1.48 0-2.42-.712-2.42-1.802 0-1.124.906-1.778 2.638-1.881l3.086-.195v1.01c0 1.674-1.422 2.868-3.304 2.868zm9.408 6.85c2.708 0 3.981-1.034 5.094-4.166l4.876-13.676H67.27L64 26.577h-.057l-3.27-10.567H57.77l4.704 13.022-.252.792c-.425 1.342-1.113 1.859-2.34 1.859-.219 0-.643-.023-.815-.046v2.145c.16.046.849.07 1.055.07z" style="stroke-width:.11473" transform="translate(2.284 -.164)"/><path d="M14.12-15.929c-.905 1.071-2.353 1.916-3.801 1.795-.181-1.448.528-2.986 1.357-3.937.905-1.1 2.49-1.885 3.771-1.945.151 1.508-.437 2.986-1.327 4.087m1.312 2.082c-2.096-.12-3.891 1.192-4.887 1.192-1.01 0-2.534-1.132-4.194-1.101-2.157.03-4.163 1.252-5.264 3.197C-1.176-6.667.499-.904 2.686 2.263c1.071 1.57 2.353 3.289 4.043 3.228 1.599-.06 2.232-1.04 4.163-1.04 1.946 0 2.504 1.04 4.193 1.01 1.75-.03 2.851-1.569 3.922-3.137 1.222-1.78 1.72-3.515 1.75-3.606-.03-.03-3.379-1.312-3.409-5.174-.03-3.228 2.64-4.766 2.76-4.857-1.508-2.232-3.861-2.474-4.676-2.534" style="stroke-width:.150844" transform="matrix(.96976 0 0 .96976 7.614 25.724)"/></svg>
