<svg width="35" height="35" viewBox="0 0 35 35" fill="none" xmlns="http://www.w3.org/2000/svg">
<path d="M25.293 35H9.70703C7.97316 35 6.5625 33.5893 6.5625 31.8555V3.14453C6.5625 1.41066 7.97316 0 9.70703 0H25.293C27.0268 0 28.4375 1.41066 28.4375 3.14453V31.8555C28.4375 33.5893 27.0268 35 25.293 35ZM9.70703 2.1875C9.1793 2.1875 8.75 2.6168 8.75 3.14453V31.8555C8.75 32.3832 9.1793 32.8125 9.70703 32.8125H25.293C25.8207 32.8125 26.25 32.3832 26.25 31.8555V3.14453C26.25 2.6168 25.8207 2.1875 25.293 2.1875H9.70703Z" fill="#525F7F"/>
<path d="M19.6875 6.01562H15.3125C14.7084 6.01562 14.2188 5.5259 14.2188 4.92188C14.2188 4.31785 14.7084 3.82812 15.3125 3.82812H19.6875C20.2916 3.82812 20.7812 4.31785 20.7812 4.92188C20.7812 5.5259 20.2916 6.01562 19.6875 6.01562Z" fill="#525F7F"/>
<path d="M17.6545 27.8455C21.2395 27.7768 24.1006 24.8233 23.9972 21.2859C23.9627 20.0495 23.5835 18.9162 22.963 17.9546C21.7221 17.9546 20.4466 18.298 19.9985 18.4354C20.8603 19.1223 21.4118 20.1869 21.4463 21.3546C21.4808 23.0031 20.4811 24.4112 19.0678 25.0294C18.9299 24.6859 18.8609 24.5485 18.7231 24.2051C17.3097 25.0294 15.2759 25.9223 12.9319 26.0253C14.1384 27.193 15.793 27.8799 17.6545 27.8455Z" fill="#0097DB"/>
<path d="M17.3454 15.0012C13.7604 15.0699 10.8993 18.0234 11.0027 21.5608C11.0372 22.7972 11.4164 23.9305 12.0369 24.8921C13.2778 24.8921 14.5533 24.5487 15.0014 24.4113C14.1396 23.7244 13.5881 22.6598 13.5536 21.4921C13.5191 19.8436 14.5188 18.4355 15.9321 17.8173C16.07 18.1608 16.1389 18.2982 16.2768 18.6416C17.6901 17.8173 19.724 16.9244 22.068 16.8214C20.8615 15.688 19.1724 14.9668 17.3454 15.0012Z" fill="#0097DB"/>
</svg>
