<svg xml:space="preserve" width="80" height="40" xmlns="http://www.w3.org/2000/svg"><defs><clipPath clipPathUnits="userSpaceOnUse" id="a"><path d="M2805.83 0H254.164C113.793 0 0 113.801 0 254.172V1355.83C0 1496.21 113.793 1610 254.164 1610H2805.83c140.37 0 254.17-113.79 254.17-254.17V254.172C3060 113.801 2946.2 0 2805.83 0z"/></clipPath><clipPath clipPathUnits="userSpaceOnUse" id="c"><path d="M1118.75 1241.67c0-102.18-82.83-185-185-185-102.172 0-185 82.82-185 185 0 102.17 82.828 185 185 185 102.17 0 185-82.83 185-185z"/></clipPath><radialGradient fx="-.012" fy="-.003" cx="0" cy="0" r="1" gradientUnits="userSpaceOnUse" gradientTransform="scale(606.529 -606.529) rotate(40 3.9 .59)" spreadMethod="pad" id="d"><stop style="stop-opacity:1;stop-color:#ee252c" offset="0"/><stop style="stop-opacity:1;stop-color:#ef304c" offset=".495"/><stop style="stop-opacity:1;stop-color:#9c41a6" offset="1"/></radialGradient><linearGradient x1="0" y1="0" x2="1" y2="0" gradientUnits="userSpaceOnUse" gradientTransform="matrix(0 1610 1610 0 1530 0)" spreadMethod="pad" id="b"><stop style="stop-opacity:1;stop-color:#3d3e3f" offset="0"/><stop style="stop-opacity:1;stop-color:#050606" offset="1"/></linearGradient></defs><g clip-path="url(#a)" transform="matrix(.01994 0 0 -.01988 9.494 36)"><path d="M2805.83 0H254.164C113.793 0 0 113.801 0 254.172V1355.83C0 1496.21 113.793 1610 254.164 1610H2805.83c140.37 0 254.17-113.79 254.17-254.17V254.172C3060 113.801 2946.2 0 2805.83 0" style="fill:url(#b);fill-opacity:1;fill-rule:nonzero;stroke:none"/></g><path d="M1467.5 206.672H1260V1369.17h207.5V206.672M1852.5 206.672H1645v769.996h207.5V206.672M2782.5 206.672l-311.81 407.496 286.81 362.5h-245l-275-351.68v744.182H2030V206.672h207.5V602l275-395.328h270M731.25 405.422c-102.859 0-186.25 83.387-186.25 186.25 0 102.855 83.391 186.246 186.25 186.246S917.5 694.527 917.5 591.672c0-102.863-83.391-186.25-186.25-186.25zm0 579.996c-67.383 0-130.789-16.957-186.25-46.789v430.541H337.5V591.672c0-217.461 176.289-393.75 393.75-393.75S1125 374.211 1125 591.672c0 217.457-176.289 393.746-393.75 393.746" style="fill:#fff;fill-opacity:1;fill-rule:nonzero;stroke:none" transform="matrix(.01994 0 0 -.01988 9.494 36)"/><g clip-path="url(#c)" transform="matrix(.01994 0 0 -.01988 9.494 36)"><path d="M1118.75 1241.67c0-102.18-82.83-185-185-185-102.172 0-185 82.82-185 185 0 102.17 82.828 185 185 185 102.17 0 185-82.83 185-185" style="fill:url(#d);fill-opacity:1;fill-rule:nonzero;stroke:none"/></g></svg>