<svg xmlns="http://www.w3.org/2000/svg" xml:space="preserve" width="260" height="130"><path d="M47.46 44.668 31.097 83.713H20.419l-8.054-31.16c-.489-1.919-.914-2.622-2.4-3.43C7.535 47.804 3.526 46.57 0 45.802l.24-1.135h17.186c2.191 0 4.16 1.458 4.658 3.981l4.253 22.594L36.85 44.667H47.46Zm41.835 26.297c.043-10.305-14.25-10.873-14.152-15.476.031-1.401 1.365-2.89 4.285-3.27 1.447-.19 5.435-.335 9.958 1.747l1.774-8.28c-2.43-.883-5.558-1.731-9.448-1.731-9.984 0-17.01 5.307-17.07 12.906-.064 5.621 5.016 8.758 8.843 10.626 3.936 1.913 5.257 3.142 5.242 4.853-.028 2.619-3.14 3.775-6.048 3.82-5.076.079-8.022-1.373-10.37-2.465l-1.831 8.554c2.36 1.083 6.716 2.028 11.232 2.075 10.611 0 17.553-5.241 17.585-13.359m26.363 12.748H125l-8.154-39.045h-8.623c-1.938 0-3.574 1.129-4.298 2.865l-15.157 36.18h10.606l2.106-5.832h12.959zm-11.27-13.834 5.317-14.66 3.06 14.66zm-42.496-25.21L53.54 83.712h-10.1l8.355-39.045Z" style="stroke-width:.0651038;fill:#1434cb"/><path d="M60.412 25.697h31.5v56.606h-31.5z" style="fill:#ff5f00" transform="matrix(.94416 0 0 -.94416 133.098 115.985)"/><path d="M382.208 306a35.938 35.938 0 0 1 13.75-28.303 36 36 0 1 0 0 56.606A35.938 35.938 0 0 1 382.208 306Z" style="fill:#eb001b" transform="matrix(.94416 0 0 -.94416 -168.84 353.913)"/><path d="M454.203 306a35.999 35.999 0 0 1-58.245 28.303 36.005 36.005 0 0 0 0-56.606A35.999 35.999 0 0 1 454.203 306z" style="fill:#f79e1b" transform="matrix(.94416 0 0 -.94416 -168.84 353.913)"/></svg>
