<svg xmlns="http://www.w3.org/2000/svg" xml:space="preserve" id="layer" width="80" height="40" x="0" y="0" version="1.1" viewBox="-153 -46 80 40"><style id="style2" type="text/css">.st0,.st1{fill-rule:evenodd;clip-rule:evenodd;fill:#009fe3}.st1{fill:#003865}</style><g id="g24" transform="matrix(.06799 0 0 .06799 -124.466 -44.774)"><g id="g22"><g id="g20"><g id="g18"><path id="path4" d="M171.5 242.7c59.8 0 108.2-48.5 108.2-108.3S231.3 26.1 171.5 26.1c-59.8 0-108.3 48.5-108.3 108.3s48.5 108.3 108.3 108.3" class="st0"/><path id="path6" d="M251.4 222.1c-20.6 22.4-57 44.7-103.7 44.7-36.2 0-67.4-14.1-87.2-29.7-118.2 12.4-206.1 30-206.1 30V315l626.3-.1.1-98.7s-106.8-.7-229.4 5.9" class="st0"/><path id="path8" d="M-14.8 519.6c-11.2 3.2-27.7 6.4-42.8 6.4-51.8 0-93.2-28.1-93.2-85.4 0-53.9 43.3-80.8 93.2-80.8 16.5 0 26.3 2.1 42.4 5.1v42.3c-9.8-3.2-19.9-6-29.9-6-25.4 0-44.6 14.1-44.6 40.3 0 27.6 17.8 41.6 42.6 41.6 10.9 0 21.4-2.3 32.3-6.2z" class="st1"/><path id="path10" d="M126.6 406.6c-13.4-4.8-29.2-8-46.2-8-9.4 0-25.7.2-25.7 10.6 0 21 81.9 1.1 81.9 63.1 0 43-41.3 53.9-75.9 53.9-23 0-41.9-2.3-64.2-7.6V477c16.1 6.9 35.7 10.6 53.5 10.6 14.1 0 26.8-3 26.8-11 0-21.6-81.9-2.1-81.9-64.5 0-44.2 44.6-52 80.1-52 16.7 0 35.2 2.1 51.5 5.5v41z" class="st1"/><path id="path12" d="M232.1 487.4c23.6 0 24.3-27.2 24.5-44.4-.2-15-1.8-44.4-24.5-44.4-22.1 0-23.9 29.5-23.9 44.4 0 17.2 2.5 44.4 23.9 44.4m0 38.7c-54.4 0-86.3-28.3-86.3-83.1 0-53.9 31.9-83.1 86.3-83.1s87 29.2 87 83.1c0 54.8-32.6 83.1-87 83.1" class="st1"/><path id="path14" d="M390 424.1h15c10.5 0 21.9-3.2 21.9-15.4 0-12-9.8-15.6-20.5-15.6H390Zm0 66.1h15.6c10.9 0 22.7-4.1 22.7-16.6 0-13.8-11.1-16.3-22.3-16.3h-16Zm-56.2-127.5h97.9c27 0 53.5 9 53.5 39.6 0 22.1-11.4 33.8-32.1 39.4v.5c21.6 3 35 20.5 35 36.6 0 40.5-31.7 44.6-64 44.6h-90.3z" class="st1"/><path id="path16" d="M-119.9 348.2s18.8 16.1 47.2 16.3c26.8.1 46.7-13.2 57.2-24.5l-4.5-3.5s-13.6 15-39.5 14.8c-27.4-.3-43-19-43-19z" class="st1"/></g></g></g></g></svg>
