<svg xmlns="http://www.w3.org/2000/svg" xmlns:xlink="http://www.w3.org/1999/xlink" width="80" height="40"><defs><path id="a" fill="#00408a" d="m52.9 36.8.2 33.2L4.8 53.4Z" shape-rendering="geometricPrecision"/><path id="b" fill="#00408a" d="M153 104.5 99.7 86.1l42.5-14.6V35.1L99.9 20.6 153 2.2Z" shape-rendering="geometricPrecision"/><path id="c" fill="#00408a" d="m97.8 87.1 56.4-19.2 42.9-14.1-42.9-13.9-56.3-19.6L41.3.9v39l.1 28v38.8z" shape-rendering="geometricPrecision"/></defs><g fill="red" transform="matrix(.245 0 0 .245 -19.18 .724)"><use xlink:href="#a" width="100%" height="100%" fill="#00408a" transform="translate(143 11.17)"/><use xlink:href="#b" width="100%" height="100%" fill="#00408a" transform="translate(143 11.17)"/><use xlink:href="#c" width="100%" height="100%" fill="#00408a" transform="translate(143 11.17)"/><use xlink:href="#a" width="100%" height="100%" fill="#00408a" transform="translate(143 11.17)"/><path fill="#00408a" d="M194.4 50.17c0 3.5.1 25.3.1 28.9-3.4-1.2-35.3-12.2-42-14.5 6.7-2.3 38.5-13.2 41.9-14.4zM143 64.57l54.6 18.8-.2-37.5z" shape-rendering="geometricPrecision"/><use xlink:href="#b" width="100%" height="100%" fill="#00408a" transform="translate(143 11.17)"/><path fill="#00408a" d="M294.4 15.47v98c-3.5-1.2-40.1-13.9-47-16.2 6.9-2.4 39.3-13.5 39.3-13.5v-38.6s-32.2-11.1-39.1-13.4c6.9-2.4 43.3-15 46.8-16.3zm-56.3 16.3s43.5 14.9 45.5 15.6v34.2c-2 .7-45.6 15.7-45.6 15.7l59.5 20.6V11.17z" shape-rendering="geometricPrecision"/><use xlink:href="#c" width="100%" height="100%" fill="#00408a" transform="translate(143 11.17)"/><path fill="#fff" fill-rule="evenodd" d="m242.9 31.77 42.3 14.5v36.4l-42.5 14.6 53.2 18.4V13.37zm-95.1 32.8 48.3 16.6-.1-33.2zm117.8-11.9h.3c4.1-.6 4.9 7.3 4.9 9.9 0 3.9-.4 9.3-4.6 10.6 0 0-.1 0-.3.1-4.8 1-4.8-8.7-4.8-11.6 0-3.7.8-8 4.5-9zm.2 21.6c.4-.1.7-.1 1-.3 4.9-2 8.4-7.7 8.5-13.3v-.9c0-1.5-.3-2.8-.8-4.1-1.4-3.6-5.2-4.9-8.7-4.2-.4.1-.8.3-1.3.4-4.2 1.7-7.1 6.2-7.8 10.9-.6 3.5-.3 8.4 2.9 10.7 1.9 1.3 4.1 1.3 6.2.8zm-21.4 7.7c1.1-.1 2.8-1.3 3.5-2 1.1-1.3 2.4-3.8 3.1-6.7-1.4-.4.4.1-1.1-.3-.3 1.2-1 2.5-1.3 3-.3.4-1 1.5-1.4 1.6l-.6.1c-.4-.1-.4-2.5-.3-3.2v-18.4c-3.9 1.7-4.6 1.9-8.7 3.8.2.9.1 1 .1.8 0 .2.1.4.2.8l.7-.1c.6-.1 1.4-.3 1.5-.3.8-.1.8 1 .8 2.5v13.3c0 1.6-.3 4.4 1 4.8.1 0 1.2.5 2.5.3zm-6.6-21.3c-.2-.7-.1-.1 0 0zm6.7-8c2 0 3.5-1.7 3.5-3.8 0-2-1.5-3.8-3.5-3.8-2.1 0-3.6 1.7-3.6 3.8 0 2 1.5 3.8 3.6 3.8zm-38.3-5.1c1.7-.3 2.8-.3 3.6 0 .4.1 1.1.9 1.1 1.6 0 .4.3 1.6.3 2.6v32.3c0 .9.6 5.4-4.8 8.6v2l16.9-5.5v-2.5c-2.7 0-4.2-1.2-4.2-2.8v-18c1.8-.4 2.9-.7 3.9-.7.8 0 1.8.4 2.4.9.4.3 1 1 1.1 1.6.1.4.6 1.6.7 2.5l.6 2.8h1.2v-19.5h-1.7c-.1 1.4-.3 2.8-.3 3-.1 1-.7 2.2-1 2.9-.4.9-1.4 1.9-2.2 2.3-1.7.9-3.2 1.2-4.9 1.7v-16.1c0-1.7 0-2.9 1.7-3.9l.6-.3c2.8-1.7 5.9-.7 7.4.1 1.7.7 3.2 4.4 3.8 7.3l.3 1.2h1.3v-15.6l-27.9 9.7v1.8z" shape-rendering="geometricPrecision"/></g><g fill="#00408a" shape-rendering="geometricPrecision"><path d="M26.252 34.275h-1.719v2.164h-1.537v-5.45h4.156v1.142h-2.619v1.021h1.72zM27.557 32.596h1.335v3.843h-1.335zm0-1.608h1.335v1.102h-1.335zM30.955 35.367a.493.493 0 0 0 .465.283c.212 0 .374-.091.465-.283.091-.182.142-.465.142-.85 0-.384-.051-.667-.142-.85-.091-.181-.253-.272-.465-.272-.213 0-.374.09-.465.273-.091.182-.142.465-.142.85 0 .384.05.667.142.849zm-1.396-1.638c.101-.253.243-.466.415-.648.182-.182.394-.323.637-.424.243-.101.516-.152.809-.152.293 0 .556.05.809.152.253.1.465.242.637.414.182.182.313.395.414.637.102.253.152.516.152.82 0 .293-.05.566-.152.808a2.1 2.1 0 0 1-.414.637 1.928 1.928 0 0 1-.637.415 2.096 2.096 0 0 1-.81.152c-.292 0-.565-.05-.808-.152a2.1 2.1 0 0 1-.637-.415 1.928 1.928 0 0 1-.415-.637 2.096 2.096 0 0 1-.152-.809c0-.283.051-.556.152-.798zM38.326 35.781c.243 0 .415-.1.496-.293.08-.192.131-.516.131-.96 0-.405-.04-.698-.11-.88a.442.442 0 0 0-.436-.283.55.55 0 0 0-.273.07.982.982 0 0 0-.283.213v1.506c0 .415.152.627.475.627zm-1.82.354c.01-.09.01-.182.01-.253v-4.894h1.335v2.043a1.71 1.71 0 0 1 .475-.374c.162-.081.344-.122.536-.122.466 0 .84.172 1.103.506s.404.809.404 1.436c0 .647-.141 1.143-.435 1.496-.293.354-.687.536-1.193.536s-.9-.202-1.193-.596l-.223.516h-.85l.031-.294zM42.958 34.69c-.627.04-.94.232-.94.586 0 .283.13.424.404.424.09 0 .182-.02.273-.05.08-.03.172-.081.263-.152zm1.335 1.557c.01.06.02.131.04.192h-1.325a.964.964 0 0 1-.05-.334 1.902 1.902 0 0 1-1.193.415c-.324 0-.577-.102-.769-.304-.192-.202-.293-.465-.293-.789 0-.445.192-.798.566-1.041.384-.243.94-.364 1.689-.374v-.334a.307.307 0 0 0-.122-.253.533.533 0 0 0-.323-.09.484.484 0 0 0-.334.12.595.595 0 0 0-.182.344l-1.122-.242c.11-.344.303-.597.576-.769.273-.162.637-.243 1.102-.243.587 0 1.022.091 1.305.284.283.182.425.475.425.87v2.345c0 .071 0 .132.01.203zM44.95 32.596h1.325v.556c.242-.202.465-.354.677-.455a1.49 1.49 0 0 1 .657-.152c.364 0 .617.102.769.314.152.212.222.526.222.96v2.62h-1.334v-2.286c0-.232-.02-.404-.061-.515-.04-.112-.142-.172-.303-.172a.637.637 0 0 0-.284.08 1.52 1.52 0 0 0-.333.243v2.65H44.96v-3.843zM50.582 36.439h-1.304v-5.45h1.304v3.023l1.315-1.416h1.335l-1.193 1.244 1.173 2.599h-1.477l-.677-1.588-.476.485zM55.628 34.69c-.627.04-.94.232-.94.586 0 .283.131.424.404.424.091 0 .182-.02.274-.05.08-.03.171-.081.262-.152zm1.335 1.557c.01.06.02.131.04.192H55.68a.964.964 0 0 1-.05-.334 1.902 1.902 0 0 1-1.194.415c-.323 0-.576-.102-.778-.304-.193-.202-.294-.465-.294-.789 0-.445.192-.798.567-1.041.384-.243.94-.364 1.688-.374v-.334a.307.307 0 0 0-.121-.253.533.533 0 0 0-.324-.09.484.484 0 0 0-.333.12.595.595 0 0 0-.182.344l-1.123-.242c.111-.344.304-.597.577-.769.273-.162.637-.243 1.102-.243.586 0 1.021.091 1.304.284.283.182.425.475.425.87v2.345c.01.071.01.132.02.203z"/></g></svg>
