<svg xmlns="http://www.w3.org/2000/svg" viewBox="0 0 435 174">
<path d="M206.2 84.7v50.4h-16V5h42.4c10.2 0 18.9 3.4 26.1 10.2 7.4 6.8 11.1 15 11.1 24.7 0 9.9-3.7 18.2-11.1 24.8-7.1 6.6-15.7 10-26.1 10h-26.4zm0-63.3v46.8h26.8c6.2 0 11.4-2.1 15.5-6.3 4.2-4.2 6.3-9.3 6.3-15.1 0-5.7-2.1-10.7-6.3-14.9-4.1-4.3-9.3-6.5-15.5-6.5h-26.8z" fill="#fff"/>
<path d="M309.1 46.2c11.9 0 21.2 3.2 28.1 9.5 6.9 6.3 10.3 15 10.3 26v52.4h-15.3v-11.8h-.7c-6.6 9.7-15.4 14.6-26.4 14.6-9.4 0-17.2-2.8-23.5-8.3-6.3-5.5-9.5-12.4-9.5-20.5 0-8.7 3.3-15.6 9.8-20.7 6.6-5.1 15.3-7.7 26.2-7.7 9.3 0 17 1.7 22.9 5.2v-3.6c0-6.5-2.6-12-7.7-16.4-5.1-4.5-11-6.7-17.9-6.7-10.3 0-18.5 4.4-24.5 13.1l-14.1-8.9c8.8-12.8 21.8-19.2 38.3-19.2zm-20.7 67.5c0 5 2.2 9.1 6.5 12.4 4.3 3.3 9.3 5 14.9 5 8.1 0 15.2-3 21.2-9.1 6-6.1 9.1-13.1 9.1-21.2-4.8-4-11.5-6.1-20.3-6.1-6.4 0-11.8 1.6-16.1 4.8-4.4 3.3-5.3 7.2-5.3 14.2z" fill="#fff"/>
<path d="M412.7 49l-53.2 122.4h-16.5l19.8-42.8-35-79.6h17.4l25.1 60.6h.3l24.4-60.6h17.7z" fill="#fff"/>
<path d="M166.3 71.2c0-4.7-.4-9.2-1.1-13.5h-62.9v25.6h36c-1.5 8.3-6.2 15.4-13.2 20.1v16.7h21.3c12.5-11.5 19.9-28.5 19.9-48.9z" fill="#4285F4"/>
<path d="M102.3 120.6c17.9 0 32.8-5.9 43.8-16.1l-21.3-16.7c-5.9 4-13.5 6.3-22.4 6.3-17.2 0-31.8-11.6-37-27.3H43.2v17.2c10.8 21.4 33 36.6 59.1 36.6z" fill="#34A853"/>
<path d="M65.3 93.3c-1.3-4-2.1-8.2-2.1-12.6s.7-8.6 2.1-12.6V50.9H43.2C39 59.3 36.6 68.7 36.6 78.7c0 10 2.4 19.4 6.6 27.8l22.1-13.2z" fill="#FBBC04"/>
<path d="M102.3 41.4c9.7 0 18.4 3.3 25.3 9.9l18.9-18.9C135 21.4 120.2 15 102.3 15 76.2 15 54 30.2 43.2 51.6l22.1 17.2c5.2-15.7 19.8-27.4 37-27.4z" fill="#EA4335"/>
</svg>
