<svg xmlns="http://www.w3.org/2000/svg" viewBox="0 0 330 120">
<g>
<path d="M106.813 56.881c0-3.736-.301-7.472-.903-11.132H54.872v21.12h35.24c-1.203 6.787-5.111 12.886-10.824 16.699v13.725h17.439c12.522-11.515 19.986-28.521 19.986-40.412z" fill="#4285F4"/>
<path d="M54.872 110.56c14.583 0 26.91-4.88 35.855-13.267l-17.439-13.725c-4.886 3.355-10.524 5.261-18.416 5.261-14.131 0-26.083-9.684-30.368-22.646H6.54v14.182c9.17 18.528 27.887 30.195 48.332 30.195z" fill="#34A853"/>
<path d="M24.505 66.183c-2.255-6.786-2.255-14.182 0-20.968V31.033H6.54c-8.342 15.478-8.342 33.778 0 49.256l17.965-14.106z" fill="#FBBC04"/>
<path d="M54.872 22.493c7.742-.152 15.184 2.821 20.746 8.235l15.485-15.707C81.256 5.719 68.327.61 54.872.762 34.426.762 15.71 12.504 6.54 31.033l17.966 14.182c4.284-13.038 16.236-22.722 30.367-22.722z" fill="#EA4335"/>
</g>
<g transform="translate(143.57,7.625)">
<path d="M12.177 57.643v38.734H.075V.762h32.097c7.742 0 15.259 2.974 20.746 8.464 10.974 10.37 11.651 27.83 1.353 39.04-.451.457-.902.914-1.353 1.371-5.638 4.956-12.553 7.7-20.746 7.7H12.177v.306zm0-45.139v33.397h20.295c4.51.152 8.87-1.677 11.952-4.956 6.314-6.634 6.164-17.308-.45-23.713-3.082-3.05-7.216-4.728-11.502-4.728H12.177z" fill="#fff"/>
<path d="M89.524 28.822c8.945 0 16.011 2.44 21.197 7.243 5.187 4.804 7.742 11.514 7.742 19.977v40.336h-11.576V87.304h-.527c-5.036 7.472-11.653 11.208-19.996 11.208-7.066 0-13.08-2.135-17.815-6.405-4.661-3.965-7.291-9.836-7.141-16.012 0-6.786 2.556-12.124 7.592-16.165 5.036-4.04 11.801-6.023 20.22-6.023 7.216 0 13.079 1.372 17.74 3.964v-2.821c0-4.194-1.804-8.159-4.961-10.904-3.233-2.897-7.366-4.498-11.651-4.498-10.298 0-18.47 4.346-22.38 10.141l-10.673-6.786c8.87-12.809 21.873-19.278 38.229-19.278zm-20.7 67.5c0 5.002 2.197 9.107 6.497 12.412 4.3 3.305 9.299 5.002 14.899 5.002 8.093 0 15.159-3.05 21.159-9.151 6.014-6.1 9.072-13.099 9.072-21.207-4.81-3.965-11.501-6.1-20.295-6.1-6.414 0-11.801 1.6-16.141 4.804-4.35 3.305-5.191 7.148-5.191 14.24z" fill="#fff"/>
<polygon points="184.912 30.957 144.472 125.123 131.994 125.123 147.028 92.184 120.493 30.957 133.648 30.957 152.816 77.925 153.041 77.925 171.758 30.957" fill="#fff"/>
</g>
</svg>
