<svg xmlns="http://www.w3.org/2000/svg" viewBox="0 0 330 132">
<g transform="translate(0,-8)">
<path d="M12.177 65.268v38.734H0.075V8.387h32.097c7.742 0 15.259 2.974 20.746 8.464 10.974 10.37 11.651 27.83 1.353 39.04-.451.457-.902.914-1.353 1.371C47.28 62.219 40.365 64.963 32.172 64.963h-19.995v.305zm0-45.139v33.397h20.295c4.51.152 8.87-1.677 11.952-4.956 6.314-6.634 6.164-17.308-.45-23.713-3.082-3.05-7.216-4.728-11.502-4.728H12.177z" fill="#ffffff"/>
<path d="M89.524 36.446c8.945 0 16.011 2.44 21.197 7.243 5.187 4.804 7.742 11.514 7.742 19.977v40.336h-11.576V95.08h-.527c-5.036 7.472-11.653 11.208-19.996 11.208-7.066 0-13.08-2.135-17.815-6.405-4.661-3.965-7.291-9.836-7.141-16.012 0-6.786 2.556-12.124 7.592-16.165 5.036-4.04 11.801-6.023 20.22-6.023 7.216 0 13.079 1.372 17.74 3.964v-2.821c0-4.194-1.804-8.159-4.961-10.904-3.233-2.897-7.366-4.498-11.651-4.498-10.298 0-18.47 4.346-22.38 10.141l-10.673-6.786c8.87-12.809 21.873-19.278 38.229-19.278zm-20.7 67.5c0 5.002 2.197 9.107 6.497 12.412 4.3 3.305 9.299 5.002 14.899 5.002 8.093 0 15.159-3.05 21.159-9.151 6.014-6.1 9.072-13.099 9.072-21.207-4.81-3.965-11.501-6.1-20.295-6.1-6.414 0-11.801 1.6-16.141 4.804-4.35 3.305-5.191 7.148-5.191 14.24z" fill="#ffffff"/>
<polygon points="184.912 38.581 144.472 132.747 131.994 132.747 147.028 99.808 120.493 38.581 133.648 38.581 152.816 85.55 153.041 85.55 171.758 38.581" fill="#ffffff"/>
</g>
<g transform="translate(0,-8)">
<path d="M106.813 64.505c0-3.736-.301-7.472-.903-11.132H54.872v21.12h35.24c-1.203 6.787-5.111 12.886-10.824 16.699v13.725h17.439C109.249 93.402 106.813 79.296 106.813 64.505z" fill="#4285F4"/>
<path d="M54.872 118.184c14.583 0 26.91-4.88 35.855-13.267l-17.439-13.725c-4.886 3.355-10.524 5.261-18.416 5.261-14.131 0-26.083-9.684-30.368-22.646H6.54v14.182c9.17 18.528 27.887 30.195 48.332 30.195z" fill="#34A853"/>
<path d="M24.505 73.807c-2.255-6.786-2.255-14.182 0-20.968V38.657H6.54c-8.342 15.478-8.342 33.778 0 49.256l17.965-14.106z" fill="#FBBC04"/>
<path d="M54.872 30.117c7.742-.152 15.184 2.821 20.746 8.235l15.485-15.707C81.256 13.343 68.327 8.234 54.872 8.387c-20.446 0-39.162 11.742-48.333 30.27l17.966 14.182c4.284-13.038 16.236-22.722 30.367-22.722z" fill="#EA4335"/>
</g>
</svg>
