<svg width="120" height="80" viewBox="0 0 120 80" fill="none" xmlns="http://www.w3.org/2000/svg">
<rect width="120" height="80" rx="4" fill="white" stroke="#E1E3E5" stroke-width="1"/>
<path d="M52.2 40.8V48H49.5V28H57C58.7 28 60.2 28.6 61.4 29.7C62.6 30.8 63.3 32.2 63.3 33.9C63.3 35.6 62.6 37 61.4 38.1C60.2 39.2 58.8 39.7 57 39.7H52.2V40.8ZM52.2 30.5V37.3H57.1C58.1 37.3 59 36.9 59.7 36.3C60.4 35.6 60.8 34.8 60.8 33.9C60.8 33 60.4 32.2 59.7 31.5C59 30.8 58.1 30.5 57.1 30.5H52.2Z" fill="#3C4043"/>
<path d="M69.5 34.1C71.7 34.1 73.4 34.7 74.7 35.9C76 37.1 76.6 38.7 76.6 40.7V48H74V46C73.2 47.5 71.7 48.3 69.6 48.3C67.8 48.3 66.3 47.8 65.2 46.8C64.1 45.8 63.5 44.5 63.5 43.1C63.5 41.6 64.1 40.4 65.2 39.4C66.3 38.5 67.9 38 69.9 38H73.9V40.5C73.9 39.4 73.5 38.5 72.6 37.8C71.7 37.1 70.7 36.7 69.5 36.7C68.5 36.7 67.7 36.9 67.1 37.4C66.4 37.9 66.1 38.5 66.1 39.3C66.1 39.9 66.4 40.5 66.9 40.9C67.4 41.3 68.2 41.6 69.2 41.7L72 42.1C73.9 42.4 75.3 43 76.2 43.9C77.1 44.8 77.5 45.9 77.5 47.3" fill="#3C4043"/>
<path d="M69.8 46.1C70.9 46.1 71.9 45.7 72.7 45C73.5 44.3 73.9 43.3 73.9 42.1V41H70.3C68.2 41 67.1 41.8 67.1 43.2C67.1 43.9 67.4 44.5 67.9 45C68.4 45.5 69.1 46.1 69.8 46.1Z" fill="#3C4043"/>
<path d="M82.6 53.1L84.5 48.5L79.2 34.4H82.1L86.1 45L90.2 34.4H93L85.5 53.1H82.6Z" fill="#3C4043"/>
<path d="M40.6 40C40.6 39.2 40.5 38.5 40.4 37.7H28.9V41.9H35.5C35.2 43.4 34.4 44.7 33.1 45.6V48.5H37C39.2 46.5 40.6 43.5 40.6 40Z" fill="#4285F4"/>
<path d="M28.9 51.3C31.7 51.3 34.1 50.3 37 48.5L33.1 45.6C32 46.4 30.6 46.8 28.9 46.8C26.2 46.8 23.9 44.8 23 42.2H19V45.2C21 49.3 24.7 51.3 28.9 51.3Z" fill="#34A853"/>
<path d="M23 42.2C22.7 41.4 22.5 40.5 22.5 39.6C22.5 38.7 22.7 37.8 23 37V34H19C18 35.9 17.5 37.8 17.5 39.6C17.5 41.5 18 43.3 19 45.2L23 42.2Z" fill="#FBBC04"/>
<path d="M28.9 32.5C30.7 32.5 32.4 33.1 33.7 34.4L37.1 31C34.8 28.9 31.9 27.8 28.9 27.8C24.7 27.8 21 30 19 34L23 37C23.9 34.4 26.2 32.5 28.9 32.5Z" fill="#EA4335"/>
</svg>
