<svg width="120" height="80" viewBox="0 0 120 80" fill="none" xmlns="http://www.w3.org/2000/svg">
<rect width="120" height="80" rx="4" fill="white"/>
<defs>
  <linearGradient id="sw_a" x1="75" x2="55" y1="62" y2="14" gradientUnits="userSpaceOnUse">
    <stop offset="0" stop-color="#ef2131"/>
    <stop offset="1" stop-color="#fecf2c"/>
  </linearGradient>
  <linearGradient id="sw_b" x1="58" x2="28" y1="22" y2="68" gradientUnits="userSpaceOnUse">
    <stop offset="0" stop-color="#fbc52c"/>
    <stop offset=".26" stop-color="#f87130"/>
    <stop offset=".56" stop-color="#ef52e2"/>
    <stop offset="1" stop-color="#661eec"/>
  </linearGradient>
  <linearGradient id="sw_c" x1="40" x2="55" y1="50" y2="70" gradientUnits="userSpaceOnUse">
    <stop offset="0" stop-color="#78f6d8"/>
    <stop offset=".27" stop-color="#77d1f6"/>
    <stop offset=".55" stop-color="#70a4f3"/>
    <stop offset="1" stop-color="#661eec"/>
  </linearGradient>
  <linearGradient id="sw_d" x1="55" x2="80" y1="65" y2="14" gradientUnits="userSpaceOnUse">
    <stop offset="0" stop-color="#536eed"/>
    <stop offset=".25" stop-color="#54c3ec"/>
    <stop offset=".56" stop-color="#64d769"/>
    <stop offset="1" stop-color="#fecf2c"/>
  </linearGradient>
</defs>
<g transform="translate(30,10) scale(0.9375)">
  <path d="M18.2 60.9C31.1 67 46.9 64 56.5 52.6 67.9 39 66.1 18.8 52.6 7.5L43.6 18.2c10.6 8.9 12 24.6 3.1 35.2-7.1 8.4-18.7 11.2-28.5 7.5" fill="url(#sw_a)" fill-rule="evenodd"/>
  <path d="M18.2 60.9c12.9 6.1 28.7 3.1 38.3-8.3 1.2-1.4 2.2-2.9 3.1-4.4 1.5-9.4-1.8-19.3-9.6-25.9-2-1.7-4.1-3-6.4-4 10.6 8.9 12 24.6 3.1 35.2-7.1 8.4-18.7 11.2-28.5 7.4" fill="url(#sw_b)" fill-rule="evenodd"/>
  <path d="M45.8 3.1C32.9-3 17.1 0 7.5 11.4-3.9 25-2.1 45.2 11.4 56.5l9-10.7C9.9 36.9 8.5 21.1 17.4 10.6 24.4 2.1 36.1-.7 45.8 3.1" fill="url(#sw_c)" fill-rule="evenodd"/>
  <path d="M45.8 3.1C32.9-3 17.1 0 7.5 11.4c-1.2 1.4-2.2 2.9-3.1 4.4-1.5 9.4 1.8 19.3 9.6 25.9 2 1.7 4.1 3 6.4 4C9.9 36.9 8.5 21.1 17.4 10.6 24.4 2.1 36.1-.7 45.8 3.1" fill="url(#sw_d)" fill-rule="evenodd"/>
</g>
</svg>
