<?xml version="1.0" encoding="UTF-8" standalone="no"?>
<!-- Created with Inkscape (http://www.inkscape.org/) -->

<svg
   version="1.1"
   id="svg2"
   width="1666.6667"
   height="613.33331"
   viewBox="0 0 1666.6667 613.33331"
   sodipodi:docname="Trustly_Regular_Logotype_Horizontal_Black_RGB.eps"
   xmlns:inkscape="http://www.inkscape.org/namespaces/inkscape"
   xmlns:sodipodi="http://sodipodi.sourceforge.net/DTD/sodipodi-0.dtd"
   xmlns="http://www.w3.org/2000/svg"
   xmlns:svg="http://www.w3.org/2000/svg">
  <defs
     id="defs6" />
  <sodipodi:namedview
     id="namedview4"
     pagecolor="#ffffff"
     bordercolor="#000000"
     borderopacity="0.25"
     inkscape:showpageshadow="2"
     inkscape:pageopacity="0.0"
     inkscape:pagecheckerboard="0"
     inkscape:deskcolor="#d1d1d1" />
  <g
     id="g8"
     inkscape:groupmode="layer"
     inkscape:label="ink_ext_XXXXXX"
     transform="matrix(1.3333333,0,0,-1.3333333,0,613.33333)">
    <g
       id="g10"
       transform="scale(0.1)">
      <path
         d="m 4584.23,1681.73 v 1351 h -485.45 v 320.58 h 1318.95 v -320.58 h -485.44 v -1351 h -348.06"
         style="fill:#000000;fill-opacity:1;fill-rule:nonzero;stroke:none"
         id="path12" />
      <path
         d="m 5362.78,1681.73 v 1213.61 h 320.57 V 2703 c 75.57,162.57 174.03,192.34 279.36,192.34 h 123.66 v -325.15 h -105.33 c -151.12,0 -286.23,-87.02 -286.23,-352.64 v -535.82 h -332.03"
         style="fill:#000000;fill-opacity:1;fill-rule:nonzero;stroke:none"
         id="path14" />
      <path
         d="m 6237.5,2125.96 v 769.38 h 332.02 v -693.82 c 0,-141.97 68.69,-247.3 210.66,-247.3 137.39,0 224.4,105.33 224.4,245.01 v 696.11 h 332.03 V 1681.73 h -315.99 v 153.42 c -80.14,-121.36 -199.22,-180.9 -350.36,-180.9 -265.62,0 -432.76,183.19 -432.76,471.71"
         style="fill:#000000;fill-opacity:1;fill-rule:nonzero;stroke:none"
         id="path16" />
      <path
         d="m 7478.62,2022.92 288.51,66.4 c 13.74,-93.88 89.31,-164.86 233.55,-164.86 112.22,0 174.05,45.79 174.05,103.04 0,45.79 -25.19,80.14 -139.7,105.33 l -190.05,41.21 c -242.71,52.67 -345.75,164.87 -345.75,368.67 0,208.37 171.74,375.53 494.59,375.53 343.48,0 480.88,-206.09 494.62,-341.18 l -290.82,-64.12 c -13.74,70.99 -66.41,148.84 -210.67,148.84 -91.58,0 -160.28,-41.22 -160.28,-100.75 0,-50.38 34.35,-77.86 93.88,-91.6 l 277.07,-64.11 c 210.67,-48.08 309.12,-174.03 309.12,-352.64 0,-192.34 -153.41,-393.85 -503.76,-393.85 -384.68,0 -510.62,231.28 -524.36,364.09"
         style="fill:#000000;fill-opacity:1;fill-rule:nonzero;stroke:none"
         id="path18" />
      <path
         d="m 9145.63,1681.73 c -215.25,0 -359.5,119.07 -359.5,354.93 v 567.87 h -203.79 v 290.81 h 203.79 v 270.2 l 332.02,96.17 v -366.37 h 245.01 v -290.81 h -245.01 v -508.34 c 0,-89.31 45.79,-123.65 135.09,-123.65 h 128.23 v -290.81 h -235.84"
         style="fill:#000000;fill-opacity:1;fill-rule:nonzero;stroke:none"
         id="path20" />
      <path
         d="m 9562.41,1681.73 v 1671.58 h 332.02 V 1681.73 h -332.02"
         style="fill:#000000;fill-opacity:1;fill-rule:nonzero;stroke:none"
         id="path22" />
      <path
         d="m 10895.1,2895.34 h 354.9 l -506,-1648.67 h -355 l 139.7,435.06 h -183.2 l -334.3,1213.61 h 354.9 l 249.6,-938.83 279.4,938.83"
         style="fill:#000000;fill-opacity:1;fill-rule:nonzero;stroke:none"
         id="path24" />
      <path
         d="m 1250,2621.42 h 779.35 v 621.69 l 621.69,-621.69 -621.69,-621.59 v -318.11 h 754.64 v 939.7 h 693.25 v 731.91 H 1250 v -731.91"
         style="fill:#000000;fill-opacity:1;fill-rule:nonzero;stroke:none"
         id="path26" />
    </g>
  </g>
</svg>
