<svg xmlns="http://www.w3.org/2000/svg" xml:space="preserve" width="80" height="40"><path d="M272.973 205.925v.003l-.014.012h-.003c-.29.173-.725.273-1.016.144-1.872.174-3.662.157-5.553.14h-.056l-.076-.01c-.95-.005-1.93-.017-2.91-.001l-7.936.159a92.722 92.722 0 0 1-5.899-.038 204.516 204.516 0 0 1-4.382-.093c-1.526-.042-5.165-.048-7.34-.06-1.16-.003-1.769-.007-1.847-.007-.259-.014-.569-.373-.578-.666 0-.158.094-.344.372-.37.202-.022 1.52-.025 3.911-.022l2.44.015c.65.003.952-.012 1.091.003l.017.004c1.796.175 3.6.169 5.348.16h.131c1.13-.011 2.3-.015 3.473.03.245-.055.5-.002.748.049l.035.004c.115.024.228.044.336.055.27-.08.576-.073.895-.066.314.007.63.01.922-.06v-.003h.05v.006c.254.087.483.043.731-.006.006 0 .042-.01.042-.01.118-.021.226-.042.333-.046 2.272.062 4.778-.02 7.908-.26l1.48-.157h.02c1.308.13 2.671.03 3.987-.068h.033c.987-.073 1.922-.143 2.85-.121l.006-.014.052.02v.013l.49.393h.007l.02.022-.004.002a.687.687 0 0 1-.114.844" style="fill:#e5b506;fill-opacity:1;fill-rule:nonzero;stroke:none" transform="matrix(.28515 0 0 -.28515 -32.506 68.431)"/><path d="m259.843 189.068.04.023v.102l-.037 3.088v.015c-.056.465-.066.975-.079 1.522-.012.61-.026 1.247-.108 1.806-.015.8-.175 1.658-.33 2.493l-.104.56-.01.054-.036.042c-.125.12-.167.278-.215.458a1.443 1.443 0 0 1-.173.456c-.21.376-.536.745-.827 1.066l-.016.02a.808.808 0 0 1-.23.195c-.042.028-.084.055-.129.093l-.066.06-.039-.011-.056.04c-.26.21-.506.294-.787.385l-.007.002c-.082.117-.233.135-.342.135v.08l-.147.02-.687.1-.1.019-.064-.083c-.029-.036-.03-.042-.176.014-.064.02-.14.046-.217.054l-.083.007-.04-.037a.913.913 0 0 1-.077.049l-.285.083-.026-.132a.624.624 0 0 1-.322-.074H253.194l.046-.162-.006-.008c-.183.049-.324-.065-.406-.13a.22.22 0 0 0-.039-.032.596.596 0 0 1-.294-.135c-.046-.032-.059-.042-.1-.047l-.07-.005-.046-.056c-.065-.075-.262-.165-.368-.213l-.232-.1.051-.052a.308.308 0 0 1-.11-.07h-.222v-.179a.07.07 0 0 0-.028.003l-.126.055c-.01.007-.088-.107-.088-.107a5.655 5.655 0 0 0-.506-.576c-.213-.236-.438-.474-.615-.734l-.05-.078.03-.08c-.039-.027-.147-.091-.163-.217a.54.54 0 0 1-.12-.298c-.005-.025-.01-.06-.016-.076-.092-.111-.112-.224-.128-.307-.01-.066-.014-.1-.042-.135l-.113-.14.051-.036a.604.604 0 0 1-.037-.226c0-.024 0-.052-.003-.07l-.072-.045.02-.11c.03-.216 0-.424-.029-.631a3.047 3.047 0 0 1-.03-.648c-.085-.13-.066-.28-.05-.38.003-.031.01-.073.007-.097l-.108-.086.078-.13c.058-.1.01-.258-.032-.412-.046-.142-.098-.32-.043-.478a.322.322 0 0 1-.039-.042.233.233 0 0 1-.032-.131.57.57 0 0 0-.013-.161l-.085-.17-.01-.064.145-.108a.782.782 0 0 1 .008-.271c.016-.11.023-.16-.013-.205l-.092-.166.092-.106v-.034c-.003-.071-.013-.21.086-.307 0-.02.002-.034.01-.051l-.172-.047.112-.23c0-.018-.01-.044-.013-.063-.018-.068-.049-.205.024-.324-.057-.135-.02-.266.002-.354.007-.023.018-.058.018-.084-.16-.165-.083-.386-.04-.505a.452.452 0 0 1-.04-.33l-.21-.073.213-.222a.25.25 0 0 1 .027-.168.185.185 0 0 1 .088-.08l-.066-.022c0-.008.008-.012.01-.021l.075-.197-.003-.024a.474.474 0 0 1 .07-.32.184.184 0 0 1-.037-.098l-.086-.082.083-.121c.066-.094.04-.217-.007-.402-.042-.17-.095-.385.003-.571l-.12-.113.152-.112c-.004-.01-.007-.017-.012-.02-.038-.075-.11-.208-.02-.351l-.01.016c.035-.07.017-.183.003-.301-.019-.176-.045-.388.046-.595l-.026-.212.007.028a.253.253 0 0 1 .02-.201l-.069-.032.05-.144c.05-.151.05-.34.05-.535 0-.375 0-.8.335-1.114l.076-.073.093.029c.248.074.262.324.271.458 0 .03.004.058.004.08l.007.036-.01.035c-.105.336-.06.787-.024 1.183.014.104.023.206.027.298l.007.052-.02.042c-.072.134-.053.27-.036.43.02.14.036.302-.014.466.056.724.023 1.58-.01 2.333-.012.323-.022.625-.024.903v.01l-.008.007a7.423 7.423 0 0 0-.019 1.108c.012.334.02.678-.013.99.082.36.074.69.071 1.04a7.337 7.337 0 0 0 0 .493l.003.045-.016.02c.08.095.098.19.058.289.038.13.044.257.047.372.003.088.003.176.026.256l.01.037-.012.046c-.024.072-.005.163.02.253.024.118.053.25.006.387.136.265.165.598.192.92l.011.11a.238.238 0 0 1-.07.196v.01c0 .146.072.262.166.407.1.158.212.338.246.586l.002.04-.002.008c.013.014.026.024.04.035.061.052.155.134.153.263 0 .02-.004.046-.01.065.117.113.192.235.258.345.098.163.17.277.363.335l.095.025.021.097c.03.105.122.166.266.26.113.068.234.146.326.26.125-.01.2.026.244.073a.893.893 0 0 1 .36.2c.157.129.21.159.318.105l.107-.048.07.07.015.002c.046.016.135.038.183.118l.127.035c.09.032.111.036.141.019a.208.208 0 0 1 .161-.023l.006-.013.124.017.17.022c.494.062.921.116 1.307-.086l.14-.078.082.125.052-.06c.098-.106.271-.301.522-.26a1.06 1.06 0 0 1 .174-.117c.023-.01.048-.032.072-.041v-.012l.032-.044c.08-.104.245-.154.376-.156.295-.306.588-.726.588-.908v-.173h.128c.003-.003.003-.003.003-.007.052-.226.114-.507.29-.692-.052-.116-.009-.253.014-.312a.474.474 0 0 1 .016-.065l-.043-.13.112-.112.026-.015c-.01-.118.046-.226.084-.301l.03-.071-.026-.062c-.157-.29.05-.458.15-.537.017-.011.026-.022.036-.028-.075-.058-.075-.12-.092-.225l.017-.132.053-.083.003-.003c.003-.004.003-.011.01-.018.006-.023.015-.06.038-.098l-.062-.06-.038-.152.088-.125.065-.031a.35.35 0 0 1 .046-.172.168.168 0 0 1 .01-.027l-.016-.078c-.056-.28-.127-.645.048-.94-.007-.007-.013-.01-.013-.014-.085-.111-.065-.231-.049-.324.003-.03.014-.078.006-.096l-.042-.172c0-.007.056-.024.108-.035-.007-.018-.017-.03-.02-.056l-.032-.2h.064c-.008-.07-.012-.136-.016-.194-.003-.101-.006-.171-.042-.226l-.012-.024-.008-.025c-.052-.19.02-.361.073-.503.008-.028.022-.053.032-.08a.179.179 0 0 1-.059-.141c.003-.018.01-.03.01-.041l-.036-.04.036-.1c.017-.056.05-.095.094-.114l-.029-.008c-.006 0-.006-.131-.006-.131v-.053l-.107-.027.051-.115a.285.285 0 0 1-.027-.211l-.074-.131c.003.002.014-.082.081-.111-.07-.235.101-.408.203-.508.042-.041.068-.075.088-.101h-.08l.06-.218v-.006c-.01-.02-.029-.032-.042-.05l-.144-.07.046-.192-.013-.047c-.033-.096-.007-.167.023-.207.006-.007.01-.015.02-.021a.376.376 0 0 1-.122-.24l-.016-.16.134-.02c-.01-.033-.022-.07-.029-.1-.02-.061-.033-.111-.062-.154 0-.008-.003-.012-.007-.024l.23-.128a.786.786 0 0 1-.066-.167c-.01-.023-.017-.052-.026-.068H258.61l.008-.226a.421.421 0 0 0 .02-.118c.003-.042.014-.087.022-.14v-.221c0-.027 0-.076.012-.125l-.03-.015.018-.123a.593.593 0 0 0 0-.188c0-.03-.005-.074-.005-.114l-.155-.08.187-.208v-.01a.472.472 0 0 1-.049-.197h-.138l.236-.285c.02-.02.036-.09.05-.132a.047.047 0 0 0 .006-.017c-.098-.094-.112-.23-.118-.301-.006-.033-.01-.085-.019-.1l.005.008.06-.08c-.046-.033-.079-.068-.089-.103a.267.267 0 0 1-.02-.16h-.224l.185-.188-.175-.06.146-.12v-.454c0-.087.04-.157.11-.19l.007-.004a.324.324 0 0 1 .275-.037v-.191l.223.066a.798.798 0 0 0 .411.025l.183-.033.026.183c.085.688.07 1.353.052 2-.02.624-.032 1.219.046 1.802.05.116 0 .218-.032.275" style="fill:#007032;fill-opacity:1;fill-rule:nonzero;stroke:none" transform="matrix(.28515 0 0 -.28515 -32.506 68.431)"/><path d="m246.673 189.068.04.023-.003.102-.03 3.088v.015c-.056.465-.069.975-.082 1.522-.013.61-.026 1.247-.108 1.806-.014.8-.172 1.658-.33 2.493l-.1.56-.013.054-.037.042c-.125.12-.167.278-.213.458-.042.15-.08.308-.175.456-.206.376-.535.745-.827 1.066l-.018.02a.703.703 0 0 1-.23.195c-.04.028-.08.055-.125.093l-.067.06-.039-.011-.055.04c-.259.21-.505.294-.786.385l-.007.002c-.08.117-.238.135-.345.135v.08l-.147.02-.687.1-.1.019-.063-.083c-.026-.036-.03-.042-.177.014-.065.02-.133.046-.218.054l-.08.007-.038-.037-.08.049-.286.083-.022-.132a.623.623 0 0 1-.327-.074H240.024l.047-.162-.006-.008c-.183.049-.328-.065-.402-.13-.017-.012-.03-.025-.044-.032a.596.596 0 0 1-.294-.135c-.042-.032-.057-.042-.096-.047l-.073-.005-.046-.056c-.065-.075-.262-.165-.369-.213l-.232-.1.053-.052a.33.33 0 0 1-.11-.07h-.224v-.179c-.01 0-.015 0-.027.003l-.122.055c-.01.007-.093-.107-.093-.107-.133-.19-.314-.377-.502-.576-.216-.236-.445-.474-.618-.734l-.052-.078.036-.08c-.044-.027-.148-.091-.167-.217-.089-.091-.104-.215-.12-.298a.238.238 0 0 0-.015-.076.608.608 0 0 1-.126-.307.28.28 0 0 0-.046-.135l-.108-.14.05-.036a.588.588 0 0 1-.038-.226c0-.024 0-.052-.002-.07l-.076-.045.02-.11c.033-.216.004-.424-.027-.631a2.648 2.648 0 0 1-.03-.648c-.086-.13-.068-.28-.05-.38.002-.031.01-.073.006-.097l-.112-.086.082-.13c.057-.1.014-.258-.032-.412-.042-.142-.095-.32-.038-.478a.114.114 0 0 1-.04-.042.23.23 0 0 1-.038-.131.553.553 0 0 0-.012-.161l-.08-.17-.017-.064.15-.108a.832.832 0 0 1 .01-.271c.015-.11.015-.16-.013-.205l-.097-.166.097-.106v-.034c-.008-.071-.014-.21.078-.307.004-.02.01-.034.013-.051l-.167-.047.104-.23c0-.018-.005-.044-.005-.063-.02-.068-.049-.205.02-.324a.579.579 0 0 1 .002-.354c.005-.023.017-.058.02-.084-.162-.165-.082-.386-.042-.505a.427.427 0 0 1-.037-.33l-.215-.073.215-.222a.291.291 0 0 1 .026-.168.231.231 0 0 1 .092-.08l-.064-.022.01-.021h-.005l.08-.197-.005-.024a.462.462 0 0 1 .066-.32.192.192 0 0 1-.036-.098l-.085-.082.085-.121c.064-.094.04-.217-.01-.402-.042-.17-.09-.385.004-.571l-.12-.113.151-.112c-.003-.01-.008-.017-.012-.02-.036-.075-.109-.208-.019-.351l-.01.016c.033-.07.02-.183.002-.301-.02-.176-.045-.388.05-.595l-.032-.212.01.028a.242.242 0 0 1 .02-.201l-.068-.032.047-.144c.05-.151.051-.34.051-.535 0-.375 0-.8.336-1.114l.074-.073.097.029c.248.074.262.324.268.458 0 .03.003.058.007.08l.004.036-.01.035c-.102.336-.059.787-.02 1.183.01.104.02.206.026.298l.004.052-.023.042c-.066.134-.054.27-.03.43.016.14.033.302-.02.466.06.724.026 1.58-.004 2.333-.012.323-.025.625-.028.903v.01l-.003.007a7.164 7.164 0 0 0-.02 1.108c.013.334.02.678-.014.99.083.36.073.69.07 1.04-.005.164-.005.323 0 .493v.045l-.01.02c.078.095.093.19.055.289.038.13.043.257.046.372.003.088.003.176.023.256l.011.037-.015.046a.583.583 0 0 0 .023.253c.026.118.055.25.006.387.133.265.167.598.193.92l.014.11a.238.238 0 0 1-.074.196v.01c0 .146.074.262.17.407.1.158.215.338.243.586l.003.04v.008c.011.014.027.024.036.035.063.052.161.134.157.263-.003.02-.003.046-.01.065.12.113.19.235.26.345.093.163.166.277.358.335l.095.025.027.097c.022.105.116.166.263.26.115.068.232.146.327.26.122-.01.196.026.242.073a.913.913 0 0 1 .36.2c.155.129.212.159.315.105l.108-.048.07.07c.007 0 .013.002.013.002.053.016.141.038.19.118l.122.035c.09.032.113.036.142.019a.212.212 0 0 1 .161-.023l.006-.013.127.017.166.022c.498.062.922.116 1.311-.086l.137-.078.082.125c.02-.018.031-.042.052-.06.1-.106.273-.301.521-.26.057-.047.123-.086.18-.117.018-.01.048-.032.067-.041v-.012l.032-.044c.078-.104.244-.154.38-.156.291-.306.588-.726.588-.908v-.173h.127v-.007c.05-.226.114-.507.291-.692-.054-.116-.01-.253.013-.312.003-.021.01-.045.015-.065l-.043-.13.113-.112.026-.015a.6.6 0 0 1 .085-.301c.006-.025.022-.05.028-.071l-.028-.062c-.15-.29.055-.458.153-.537.015-.011.026-.022.04-.028-.08-.058-.075-.12-.088-.225l.008-.132.054-.083.001-.003a.027.027 0 0 0 .007-.018c.011-.023.02-.06.042-.098l-.057-.06-.042-.152.088-.125.065-.031c0-.073.026-.134.046-.172a.077.077 0 0 1 .01-.027l-.017-.078c-.056-.28-.124-.645.05-.94a.04.04 0 0 0-.018-.014c-.082-.111-.058-.231-.045-.324.003-.03.013-.078.01-.096l-.047-.172c-.002-.007.06-.024.11-.035a.162.162 0 0 1-.017-.056l-.04-.2h.076a.864.864 0 0 1-.02-.194c-.005-.101-.008-.171-.043-.226l-.016-.024-.01-.025c-.049-.19.02-.361.075-.503.014-.028.02-.053.033-.08a.174.174 0 0 1-.055-.141c0-.018.006-.03.008-.041l-.035-.04.033-.1a.175.175 0 0 1 .095-.114l-.03-.008c-.004 0-.004-.131-.004-.131v-.053l-.11-.027.054-.115c-.029-.051-.054-.13-.029-.211l-.067-.131c0 .002.008-.082.071-.111-.066-.235.104-.408.206-.508a.6.6 0 0 0 .088-.101h-.08l.06-.218.004-.006c-.015-.02-.03-.032-.05-.05l-.136-.07.047-.192-.018-.047a.233.233 0 0 1 .022-.207l.021-.021a.341.341 0 0 1-.114-.24l-.02-.16.134-.02a.453.453 0 0 1-.03-.1c-.019-.061-.033-.111-.06-.154h.002c-.007-.008-.014-.012-.017-.024l.231-.128a.9.9 0 0 1-.064-.167.404.404 0 0 0-.026-.068H245.442l.006-.226a.36.36 0 0 0 .022-.118c.003-.042.012-.087.02-.14v-.221c0-.027.008-.076.011-.125l-.028-.015.025-.123a1.964 1.964 0 0 0 0-.188c-.008-.03-.008-.074-.008-.114l-.155-.08.19-.208c0-.006-.004-.006-.004-.006a.526.526 0 0 1-.05-.201h-.136l.232-.285c.02-.02.035-.09.048-.132a.047.047 0 0 0 .007-.017c-.096-.094-.112-.23-.118-.301-.003-.033-.006-.085-.014-.1v.008l.06-.08a.26.26 0 0 1-.108-.262h-.225l.185-.19-.175-.058.15-.121v-.454c0-.087.032-.157.105-.19l.008-.004a.322.322 0 0 1 .274-.037v-.191l.223.066a.81.81 0 0 0 .415.025l.183-.033.021.183c.09.688.074 1.353.054 2-.016.624-.032 1.219.05 1.802a.292.292 0 0 1-.037.275" style="fill:#1e5cb3;fill-opacity:1;fill-rule:nonzero;stroke:none" transform="matrix(.28515 0 0 -.28515 -32.506 68.431)"/><path d="m272.784 188.83.04.029v.096l-.033 3.087V192.06c-.057.47-.073.983-.083 1.527-.013.61-.025 1.24-.108 1.8-.019.806-.172 1.66-.333 2.493l-.1.567-.01.05-.037.04c-.125.125-.167.28-.215.462-.036.15-.079.305-.174.455-.209.375-.535.743-.827 1.065l-.015.018a.733.733 0 0 1-.233.199c-.039.027-.08.05-.126.094l-.066.056-.043-.008-.048.038c-.262.21-.507.29-.787.387h-.007c-.085.115-.242.137-.347.142v.07l-.146.024-.688.102-.097.017-.066-.084c-.026-.035-.029-.04-.18.01a.659.659 0 0 1-.215.06l-.078.008-.043-.041a.354.354 0 0 1-.077.047l-.286.087-.022-.131a.666.666 0 0 1-.326-.075H266.136l.047-.163a.01.01 0 0 0-.009-.005c-.185.044-.327-.068-.405-.133-.013-.013-.029-.024-.039-.032a.567.567 0 0 1-.294-.135c-.043-.031-.056-.043-.098-.048l-.072-.002-.049-.057c-.059-.075-.258-.162-.366-.211l-.232-.105.052-.048a.418.418 0 0 1-.11-.072H264.34v-.178c-.01 0-.02 0-.027.004l-.124.053c-.013.006-.092-.105-.092-.105-.134-.191-.313-.376-.503-.58a5.88 5.88 0 0 1-.617-.735l-.053-.075.032-.077c-.038-.027-.147-.092-.162-.218a.549.549 0 0 1-.12-.3c0-.026-.008-.063-.017-.074a.58.58 0 0 1-.124-.307c-.014-.065-.02-.104-.046-.138l-.11-.138.047-.04c-.03-.08-.03-.168-.03-.221 0-.024 0-.051-.005-.07l-.072-.048.016-.108c.033-.22.004-.42-.028-.635a2.936 2.936 0 0 1-.03-.646c-.086-.13-.066-.28-.05-.376a.521.521 0 0 0 .007-.1l-.112-.086.08-.13c.058-.098.016-.257-.034-.41-.038-.144-.09-.327-.038-.48-.014-.014-.03-.025-.04-.043a.188.188 0 0 1-.03-.13c0-.116-.016-.155-.019-.163l-.075-.164-.016-.07.144-.102c-.014-.103 0-.193.012-.272.016-.117.02-.16-.012-.205l-.092-.167.092-.108c0-.01 0-.02-.004-.031-.003-.072-.01-.211.082-.31.003-.015.006-.036.013-.054l-.17-.04.111-.238c-.004-.016-.007-.038-.013-.055-.016-.07-.049-.207.023-.326a.576.576 0 0 1 .003-.358c.007-.024.013-.06.017-.082-.157-.164-.079-.39-.037-.504-.075-.115-.055-.246-.042-.33l-.215-.071.218-.224a.236.236 0 0 1 .026-.168.231.231 0 0 1 .093-.08l-.069-.02c.006-.004.006-.015.01-.021l.078-.203-.003-.02a.458.458 0 0 1 .065-.32.175.175 0 0 1-.032-.1l-.088-.083.081-.122c.066-.09.042-.212-.007-.402-.039-.17-.09-.381.003-.565l-.118-.118.15-.11c-.005-.012-.009-.017-.012-.022-.039-.07-.11-.207-.023-.351l-.007.018c.033-.065.021-.18.004-.301-.02-.178-.046-.385.045-.594l-.026-.211.007.027a.25.25 0 0 1 .02-.205l-.07-.031.05-.141c.05-.154.05-.341.05-.54 0-.37 0-.79.34-1.112l.067-.07.097.027c.252.074.267.328.272.46a.55.55 0 0 1 .006.077l.004.036-.01.039c-.1.339-.059.784-.02 1.183.007.105.017.2.026.299l.004.047-.023.046c-.068.135-.049.272-.029.426.016.145.032.3-.02.473.06.72.026 1.574-.004 2.334-.013.318-.025.616-.03.896v.02c-.045.353-.03.738-.025 1.109.013.33.02.672-.005.987.077.363.067.693.064 1.04 0 .163-.004.325 0 .499v.039l-.009.022c.077.093.093.19.055.285.038.135.042.26.045.376.008.089.01.172.024.253l.013.04-.013.043c-.02.079 0 .165.02.256.03.115.054.25.006.38.137.273.163.609.194.927l.012.11a.253.253 0 0 1-.073.199v.006c0 .144.073.258.163.404.105.162.217.34.25.59l.002.04v.007c.01.012.027.024.037.037.062.05.16.129.154.258 0 .025 0 .05-.01.07.12.108.192.232.26.343.1.16.167.279.36.332l.092.028.026.098c.025.105.121.167.271.256.11.072.23.15.32.263.127-.006.202.025.244.075a.921.921 0 0 1 .364.199c.157.13.21.155.314.105l.11-.05.065.07c.007 0 .014.005.017.005a.308.308 0 0 1 .19.118c.042.006.088.02.12.035.09.033.108.033.141.016a.206.206 0 0 1 .16-.02l.007-.014.13.018.164.02c.493.063.921.118 1.306-.09l.141-.072.082.12c.02-.015.036-.037.052-.056.098-.108.271-.3.523-.26.054-.044.12-.087.173-.117.023-.013.052-.027.071-.045v-.008l.037-.044c.078-.104.245-.153.376-.16.29-.304.585-.721.585-.904v-.174h.126l.004-.012c.05-.225.114-.505.29-.69-.049-.112-.01-.252.01-.313a.505.505 0 0 0 .02-.062l-.044-.127.112-.113.03-.015c-.01-.118.046-.23.085-.307.006-.02.02-.042.025-.065l-.025-.062c-.154-.298.052-.46.15-.535l.04-.03c-.079-.06-.076-.123-.092-.23l.013-.127.056-.084.002-.003c0-.004.003-.014.008-.017a.308.308 0 0 1 .038-.098l-.058-.06-.043-.154.085-.121.073-.036c-.007-.07.022-.131.042-.174.003-.006.006-.017.012-.02l-.019-.083c-.056-.277-.127-.641.05-.94l-.01-.007c-.086-.116-.067-.241-.053-.331.003-.027.013-.074.01-.093l-.047-.175c0-.01.06-.02.11-.033-.007-.017-.014-.035-.017-.05l-.039-.21h.07c-.012-.07-.015-.13-.019-.192 0-.102-.002-.17-.039-.225l-.016-.022-.007-.025c-.049-.188.017-.364.073-.502a.673.673 0 0 1 .03-.08.19.19 0 0 1-.053-.147c0-.018.006-.027.01-.042l-.037-.038.033-.1a.157.157 0 0 1 .095-.112l-.03-.01c-.006 0-.006-.132-.006-.132v-.048l-.108-.03.053-.113c-.024-.051-.053-.128-.024-.211l-.075-.135s.016-.076.078-.11c-.067-.23.102-.403.203-.508.042-.042.072-.071.091-.096h-.088l.065-.223.004-.006a.501.501 0 0 1-.047-.046l-.139-.073.045-.186-.016-.05a.226.226 0 0 1 .022-.207c.007-.01.018-.014.024-.018a.37.37 0 0 1-.122-.242l-.019-.16.135-.021c-.01-.034-.024-.07-.03-.101a.402.402 0 0 0-.063-.156h.004c-.004-.007-.006-.015-.01-.021l.228-.127a.992.992 0 0 1-.064-.166c-.006-.028-.02-.057-.026-.071H271.552l.006-.224a.448.448 0 0 0 .024-.123 1.15 1.15 0 0 1 .018-.135v-.225c0-.028.003-.075.01-.121l-.026-.015.02-.123a1.084 1.084 0 0 0 0-.19 1.21 1.21 0 0 1-.007-.113l-.156-.08.193-.207a.522.522 0 0 1-.052-.213h-.138l.232-.281c.02-.025.036-.088.05-.131.003-.012.003-.015.005-.018-.094-.092-.11-.228-.12-.306a.348.348 0 0 0-.014-.092l.003.002.06-.072a.249.249 0 0 1-.088-.112.299.299 0 0 1-.02-.16h-.229l.19-.182-.177-.06.147-.117v-.463c0-.082.04-.15.108-.186l.012-.003a.33.33 0 0 1 .272-.04v-.193l.225.066a.81.81 0 0 0 .412.032l.18-.034.023.182c.092.684.076 1.353.055 1.998-.017.629-.032 1.219.05 1.803.05.11-.004.217-.036.27" style="fill:#f25c19;fill-opacity:1;fill-rule:nonzero;stroke:none" transform="matrix(.28515 0 0 -.28515 -32.506 68.431)"/><path d="M233.068 216.81h42.406v-42.412h-42.406zm-2.503-44.912h47.423v47.414h-47.423z" style="fill:#f25c19;fill-opacity:1;fill-rule:nonzero;stroke:none" transform="matrix(.28515 0 0 -.28515 -32.506 68.431)"/><path d="M275.443 143.806c2.413 1.924 4.476 4.076 4.476 7.668 0 2.325-1.404 6.576-9.341 6.576-1.488 0-3.203-.131-5.349-.131-.874 0-3.634.131-5.96.131h-.586c-1.712 0-4.472-.131-4.998-.131-.043 0-2.807.131-5.041.131-.614 0-.921-.086-.921-.391 0-.309.265-.396.748-.396.48 0 1.225-.044 1.573-.131 1.449-.305 1.801-1.009 1.89-2.5.085-1.402.085-2.631.085-9.293v-5.48c0-4.514-.131-8.461-2.541-10.871-1.755-1.756-4.122-2.37-6.051-2.37-1.49 0-3.507.178-5.479 1.8-2.152 1.753-3.42 4.427-3.42 10.781v6.14c0 6.662 0 7.891.088 9.293.087 1.534.441 2.278 1.621 2.5.525.087.789.131 1.268.131.443 0 .703.087.703.396 0 .305-.303.391-.963.391-1.578 0-4.339-.131-5.391-.131-.986 0-2.787.074-4.605.111-.116.014-.249.02-.396.02-.164 0-.337-.002-.519-.005a87.31 87.31 0 0 1-.878.005c-.275 0-2.314-.131-2.727-.131-.568 0-2.412.131-4.603.131-.83 0-1.225-.086-1.225-.439 0-.306.349-.348.745-.348.572 0 1.228-.044 1.754-.221.392-.132.569-.478.569-.832 0-.393-.177-1.051-.395-1.622-1.053-2.895-6.75-17.008-8.636-21.833h-.175l-7.541 19.906c-.615 1.578-1.005 2.801-1.005 3.375 0 .392.13.701.437.918.346.265 1.009.309 1.709.309.395 0 .657.088.657.395 0 .306-.481.392-1.01.392-2.193 0-4.297-.131-5.391-.131-1.535 0-4.032.131-6.358.131-.654 0-1.136-.044-1.136-.392 0-.263.129-.395.521-.395.354 0 1.057 0 1.712-.174 1.579-.439 2.325-.923 3.332-3.331l11.051-26.789c.831-2.061 1.093-2.674 1.663-2.674.615 0 .875.699 2.02 3.246.962 2.189 3.021 6.969 5.826 13.369 2.37 5.392 3.552 7.76 5.262 11.882 1.185 2.803 1.842 3.55 2.409 3.945.456.304 1.207.584 2.022.395 1.439-.334 1.799-1.009 1.886-2.5.085-1.402.085-2.631.085-9.293v-6.405c0-6.353 1.667-9.596 3.903-11.611 3.203-2.897 7.412-3.027 9.734-3.027 2.848 0 6.008.481 9.117 3.155 3.686 3.156 4.165 8.332 4.165 13.193v4.695c0 6.662 0 7.891.09 9.293.085 1.534.434 2.273 1.617 2.5 1.153.221 2.442.157 3.219 0 1.449-.294 1.799-1.009 1.884-2.5.087-1.402.087-2.631.087-9.293v-7.714c0-4.034 0-7.497-.217-9.338-.172-1.273-.393-2.238-1.271-2.41a7.02 7.02 0 0 0-1.577-.177c-.527 0-.704-.134-.704-.35 0-.31.308-.442.879-.442.876 0 2.015.087 3.026.087 1.049.045 2.01.045 2.499.045a58.4 58.4 0 0 0 3.286-.132c1.269-.045 2.541-.131 3.068-.131 8.069 0 11.706 4.866 11.706 9.559 0 5.126-4.384 8.242-7.982 9.47m-7.451 11.616c0 .479.087.655.394.744.439.089.834.089 1.447.089 3.771 0 5.482-3.861 5.482-6.795 0-2.15-.658-3.73-1.799-4.645-.745-.663-1.708-.836-3.156-.836-1.006 0-1.667.044-2.062.132-.173.041-.306.13-.306.483zm4.736-28.672c-1.009 0-2.02.046-3.202.527-1.401.571-1.534 1.314-1.534 4.207v10.393c0 .215.087.305.263.305.662 0 1.099 0 1.886-.042 1.713-.091 2.718-.399 3.64-1.054 3.333-2.324 4.251-6.005 4.251-8.723 0-4.562-3.33-5.613-5.304-5.613M315.969 132.275c0-4.58-3.357-5.637-5.336-5.637-1.015 0-2.028.049-3.215.532-1.408.574-1.535 1.318-1.535 4.232v10.431c0 .217.086.307.254.307.664 0 1.107 0 1.897-.044 1.724-.084 2.732-.393 3.656-1.056 3.349-2.332 4.279-6.033 4.279-8.765m-15.377 5.288c0-4.048 0-7.534-.217-9.38-.184-1.281-.394-2.24-1.271-2.425a7.566 7.566 0 0 0-1.594-.174c-.526 0-.697-.133-.697-.355 0-.303.305-.434.879-.434 1.763 0 4.534.131 5.537.131 1.338 0 5.339-.264 6.389-.264 8.103 0 11.763 4.887 11.763 9.594 0 5.152-4.407 8.282-8.014 9.521 2.42 1.927 4.49 4.084 4.49 7.697 0 2.33-1.404 6.605-9.386 6.605-1.493 0-3.211-.126-5.367-.126-.878 0-3.649.126-5.986.126-.661 0-.968-.085-.968-.397 0-.306.259-.397.749-.397.611 0 1.359-.043 1.719-.132 1.447-.31 1.806-1.007 1.888-2.505.086-1.412.086-2.64.086-9.338zm5.291 17.876c0 .485.086.661.391.751.443.083.843.083 1.455.083 3.786 0 5.505-3.873 5.505-6.819 0-2.163-.665-3.75-1.806-4.669-.752-.659-1.717-.84-3.172-.84-1.012 0-1.672.042-2.07.132-.176.049-.303.133-.303.49z" style="fill:#007032;fill-opacity:1;fill-rule:nonzero;stroke:none" transform="matrix(.28515 0 0 -.28515 -51.682 69.503)"/><path d="M383.284 157.75c-2.151 0-3.811-.126-4.296-.126-.92 0-3.021.126-5.294.126-.655 0-1.138-.047-1.138-.393 0-.265.172-.391.693-.391.616 0 1.667 0 2.324-.268 1.055-.443 1.441-1.263 1.488-3.935l.439-19.65h-.221c-.751.696-6.644 7.006-9.628 9.978-6.387 6.343-13.038 13.472-13.565 14.049-.742.785-1.136 1.355-1.62 1.355-.44 0-.563-.61-.563-1.49l-.399-25.909c-.047-3.807-.469-5.421-1.356-5.421-1.67 0-2.15 1.075-3.667 4.69-2.801 6.649-9.802 24.508-10.86 26.915-.436 1.005-.701 1.392-1.09 1.392-.437 0-.703-.478-1.236-1.744l-10.975-27.489c-.878-2.18-1.713-3.669-3.723-3.934-.353-.043-.384-.077-.784-.077-.352 0-.522-.098-.522-.36 0-.343.266-.431.84-.431 2.259 0 4.098.126 4.582.126 1.365 0 3.234-.126 4.635-.126.488 0 .741.088.741.431 0 .262-.128.36-.647.36h-.661c-1.357 0-1.755.56-1.755 1.349 0 .526.232 1.575.658 2.662l2.368 6.26c.085.266.175.356.393.356h9.756c.213 0 .358-.09.445-.307l3.5-9.271c.211-.532-.084-.926-.398-1.015-.44-.034-.614-.132-.614-.394 0-.305.526-.305 1.315-.343 3.499-.088 6.695-.088 8.272-.088.98 0 5.028.032 7.864.032.616 0 1.014.087 1.014.435 0 .261-.262.354-.744.354-.702 0-1.524.032-2.272.299-.875.303-1.449 1.448-1.537 4.862l-.476 18.378h.129c.787-.828 5.644-6.302 10.413-11.034 4.554-4.499 10.144-10.227 12.914-12.859.481-.485 1.003-.963 1.484-.963.394 0 .568.388.568 1.349l.48 27.618c.047 2.454.394 3.373 1.627 3.718.532.14.871.14 1.307.14.519 0 .784.126.784.391 0 .346-.434.393-.992.393m-45.911-19.514h-8.051c-.179 0-.219.138-.179.315l4.023 10.763c.058.176.129.399.269.399.127 0 .173-.223.216-.399l3.942-10.806c.041-.134 0-.272-.22-.272" style="fill:#007032;fill-opacity:1;fill-rule:nonzero;stroke:none" transform="matrix(.28515 0 0 -.28515 -51.682 69.503)"/><path d="M393.235 145.117c0 6.651 0 7.878.088 9.276.087 1.535.436 2.275 1.618 2.496.525.084.788.131 1.226.131.349 0 .612.084.612.393 0 .308-.307.395-.917.395-1.491 0-4.247-.132-5.294-.132-1.054 0-3.808.132-6.127.132-.654 0-.96-.087-.96-.395 0-.309.26-.393.744-.393.61 0 1.354-.047 1.701-.131 1.444-.308 1.797-1.008 1.884-2.496.086-1.398.086-2.625.086-9.276v-7.7c0-4.024 0-7.48-.218-9.318-.174-1.269-.395-2.23-1.267-2.408a7.376 7.376 0 0 0-1.576-.173c-.526 0-.701-.129-.701-.351 0-.306.307-.437.875-.437 1.751 0 4.505.131 5.514.131 1.092 0 3.848-.131 6.302-.131.479 0 .831.131.831.437 0 .222-.219.351-.57.351-.57 0-1.533.089-2.145.173-1.094.178-1.487 1.139-1.574 2.365-.132 1.881-.132 5.337-.132 9.361v3.983h.219l.484-.655c.916-1.268 9.532-11.376 11.46-13.083 1.881-1.662 3.064-2.625 5.425-2.844.92-.088 1.705-.088 3.022-.088h3.804c.832 0 1.051.131 1.051.437 0 .262-.263.351-.572.351-.522 0-1.399.132-2.709.658-2.368.917-4.331 2.886-6.258 4.722-1.703 1.622-10.281 10.851-11.857 12.91 1.484 1.574 8.094 8.134 9.449 9.449 1.882 1.838 3.372 2.755 4.728 3.283.829.304 1.928.48 2.539.48.434 0 .653.084.653.393 0 .308-.303.395-.743.395-1.359 0-3.764-.132-5.119-.132-1.183 0-3.588.132-4.508.132-.48 0-.699-.087-.699-.395 0-.26.175-.35.572-.44.434-.084.609-.392.609-.871 0-.746-.962-1.84-2.187-3.283-1.27-1.488-7.657-8.007-9.144-9.627h-.219z" style="fill:#007032;fill-opacity:1;fill-rule:nonzero;stroke:none" transform="matrix(.28515 0 0 -.28515 -51.682 69.503)"/><path d="M437.451 136.129c.219 0 .349-.086.436-.304l3.488-9.243c.219-.523-.089-.915-.394-1.003-.433-.043-.608-.13-.608-.393 0-.303.523-.303 1.309-.348 3.485-.09 6.671-.09 8.239-.09 1.613 0 2.007.09 2.007.438 0 .305-.219.35-.569.35-.521 0-1.177.043-1.833.174-.913.261-2.179.869-3.835 4.776-2.791 6.604-9.765 24.392-10.816 26.788-.432 1.003-.693 1.395-1.085 1.395-.437 0-.699-.478-1.222-1.742l-10.944-27.382c-.869-2.179-1.699-3.66-3.704-3.922a13.129 13.129 0 0 0-1.351-.087c-.351 0-.525-.087-.525-.35 0-.348.263-.438.83-.438 2.265 0 4.663.135 5.145.135 1.349 0 3.226-.135 4.619-.135.481 0 .742.09.742.438 0 .263-.132.35-.655.35h-.655c-1.348 0-1.742.566-1.742 1.351 0 .522.217 1.57.652 2.658l2.358 6.234c.088.264.175.35.392.35zm-8.852 2.182c-.171 0-.214.128-.171.303l4.01 10.725c.044.174.13.394.26.394.131 0 .173-.22.219-.394l3.926-10.767c.041-.133 0-.261-.22-.261zM238.208 162.046c0 .342.538.488 1.026.878 2.242 1.609 4.972 4.389 5.411 4.973.488.684.537 1.072.78 1.072.244 0 .391-.096.926-.341.634-.292 2.341-.925 3.268-1.219.389-.096.632-.194.632-.438 0-.292-.681-.828-1.608-1.22-.829-.389-9.166-4.045-9.897-4.045-.196 0-.538.096-.538.34" style="fill:#007032;fill-opacity:1;fill-rule:nonzero;stroke:none" transform="matrix(.28515 0 0 -.28515 -51.682 69.503)"/></svg>
