<svg version="1.1" id="layer" x="0" y="0" viewBox="-153 -46 80 40" xml:space="preserve" width="80" height="40" xmlns="http://www.w3.org/2000/svg"><style type="text/css" id="style2">.st3{fill:#fff}</style><radialGradient id="SVGID_1_" cx="125.519" cy="285.48" r="42.52" gradientTransform="matrix(3.5277 0 0 -3.5277 -424.756 1281.613)" gradientUnits="userSpaceOnUse"><stop offset="0" style="stop-color:#f2cb72" id="stop4"/><stop offset="1" style="stop-color:#efbc32" id="stop6"/></radialGradient><g id="g858" transform="matrix(.12654 0 0 .12654 -134.258 -60.766)"><path d="M-132 124.5h300v300h-300z" id="path9" style="fill:url(#SVGID_1_)"/><path d="M86 252.5s17.6 9.1 34.3 1.5c-.1 0-17.2 3.5-34.3-1.5zm23.3 44.6s10.6 1.6 11.3-.2c.1 0-1-1.2-11.3.2zm6.9-3.7s6.4 1.3 6.9-.1c-.1 0-.7-.9-6.9.1zM80 295.9s-11.9-2.1-25.2-5.9c0 0 9.3 5 25.2 5.9zm-48.5 40.6c10.7 4.1 36.2 11.6 74.5 9.1 0 0-51.1-3.2-74.5-9.7-1.6-.7-2.2-1.3-3.1-1.6-1.1-.4-3.8-.9-4.9-.8 0 0 2.6 1.4 4.5 2.2.8.4 2 .6 3.5.8zm54.7-28.2s-28.6-2.7-59.2-13.8c0 0 23 11.5 59.2 13.8zm-3.9-6.5s-22.2-2.1-45.9-10.7c-.1 0 19 9.6 45.9 10.7zm26.2 37.4s-51.3-1.2-82.9-11.7c0 .1 28.8 15.1 82.9 11.7zm-5.5-17.1s-35.7 1.7-76.8-9.9c0 0 32 14.1 76.8 9.9zm-76.7-4.5s33.6 14.3 79.2 9.5c0 .1-40.7 1.4-79.2-9.5zm46.3-1.1c-11.1-1.6-27.2-4.6-47.4-10.4 0 0 13.2 6.7 43.8 10.4 7.9 1.4 26.7 4.1 40.4 1.3 0 0-18.2.3-36.8-1.3zm-46.3 5.9s27.9 14.6 76.4 10.2c0-.1-54.7-1.1-76.4-10.2zm6.3 21.3c11.3 4.2 35.3 11.1 72.4 8.7 0 0-48.6-3.1-72.4-9.4-1-.7-2.4-1.5-3.4-1.8-1.4-.4-4.5-.8-5.6-.8 0 0 2.6 1.4 5 2.4 1 .4 2.6.9 4 .9zm55.9-35.1s28.8 3.3 33.5 0c0 0-8.5.6-33.5 0zm16.1-7.7s14.8 1.5 15.4-.2c0 .1-.2-1.3-15.4.2zm-153.8-30c3-1.7 4.8 7.9 4.8 7.9s0-21.8-10-17.3c-5.6 2.5.2 22.3 10 22.1 0-.1-10.3-9.7-4.8-12.7zm169.5 34s.6-1.5-22.9.2c0 0 22.6 1.5 22.9-.2zm-41.1 7.7c-11.5-1.6-31.5-5-53.9-12 0 0 16 8.9 57.3 12.6 6.5 1 21 2.6 32.3-.6-.1 0-17.3 1.4-35.7 0zM97.5 402c-14.8-.5-26.4-2.3-35-3.2-13.4-1.5-21.6-1.8-21.6-1.8s14.3 3.6 21.4 4.7c10.6 1.7 22.5 1.8 34.4 2.1 5.7.2 11.5.2 17.2.2 10.9.6 31.5 1.2 54.2-1.2v-2.3l-38.8 1.8c-11.9.2-22.5.1-31.8-.3zm-8.5 4.7c-10.9-.5-19.7-1.9-26.5-2.6-12.1-1.2-20.5-1.8-20.5-1.8s13.7 3.7 20 4.7c8.2 1.3 17.2 1.6 26.5 2.1 11.7.6 23.8.6 35.2.3 8.7.6 24.3.9 44.3-1.8v-2c-12.2.2-30.6.7-43.3 1.9-13.8-.1-25.7-.3-35.7-.8zm-13.5 14.8c-5-.4-9.2-1.5-12.7-1.9-8.7-.9-15-1.1-15-1.1s10.2 3.2 14.7 4.1c4 .8 8.3.6 12.7 1.1 3.4.4 6.9.7 10.4.9H164c1.3-.1 2.6-.2 4-.4v-2.3c-9.7.1-22 .4-31.7 1.2-26.6.2-46.8-.6-60.8-1.6zm-89.7-108.6c1.4 3.8 8 4 8.3-.8.2-4-4.2-3.3-4.2-3.3s-2.5-.6-1.2-3.3c0 .1-4.2 3.6-2.9 7.4zm97.1 98.7c-8.5-.4-15.4-1.8-20.8-2.3-10.3-1-18.2-1.5-18.2-1.5s12.6 3.4 18.1 4.2c6.3 1 13.2.9 20.3 1.4 14.9 1 30.9 1.1 45.5.7 8.2.5 22.2.8 40.2-.6v-2.4c-13.1 0-29.8.3-41.5 1.4-17.6.1-32-.3-43.6-.9zm-31.5 12.9h7.3c-5.7-.5-9.6-.8-9.6-.8s.9.4 2.3.8zm61.8-282.8S93 139 87.6 125.6c0 0 2.2 16.3 25.6 16.1zM79.6 416.4c-7.2-.4-13.1-1.7-17.7-2.2-9.1-.9-15.9-1.2-15.9-1.2s11.1 3.2 15.9 4c5.4.9 11.3.8 17.4 1.3 15 1.3 31.5 1.4 46.6 1 7.9.6 22.7 1 42.1-.7v-2.2c-11.6 0-26.9.2-38.5 1.1-20.8.2-37.3-.3-49.9-1.1zm20.3-24.9c-4.4-.2-11.6 1.4-16.1-.6-3.5-1.5-8-1.6-16.2-2.4-22.3-2.1-30-2.7-30-2.7 6.8 2 16.1 4.9 26.1 6.1 8.3 1 15.6 2.1 24.8 1.6 4-1.2 13.9 0 17.5 0 20.2.3 39.6-.3 53.4-.9 1.5.3 4.4.7 8.9.8v-2.5c-2.9.3-5.5.7-7.9 1.1-25.1.4-43.7.2-60.5-.5zm45-169.3s-3.3-.9-6.1-2.4c-1.6-.9-4.2-1.2-6-.8 0 0 2 .6 5.2 2.2 1.7.8 4.1 1.5 6.9 1zm8.6 84.1s4.5.9 9.2 1.3c-1.2 1.1-3 2.1-6.6 2.2-9.2.5-10.9-3.2-16.4-5.2-5.2-1.9-10.3-2.4-11.7-.6-.4.5-.3.9 0 1.2-3.6.1-7.1-1.1-7.1-1.1 3.4 3.1 7.4 3.3 9.2 3.2 0 .2 0 .5-.3.8-1.4 1.7-7.9-.2-7.9-.2s3.3 3.8 7.4 3.9c4.1.2 6.1-1.7 9.6 0s4.6 4.2 6 6.7c2.2 3.7 6.1 1.4 7.9 3.5.3.3.6.6.8 1-6.5 2.5-10.2-1-10.2-1 2 6.8 10.3 3.8 12 3.1l1.4 1.4c-1.8.2-4.1 2.2-5.5 3-8.4 2.6-8.7-3.4-17.2-3.6-7.3-.2-10.8 4.1-14.7 5.4-3.9 1.4-7.5 1.6-12.7.3l-4.8 4.6c19.9 3.9 19.7-.5 28.5-.5s9.7 3.5 15.2 3.8c5.5.3 10.6-2.6 14.5-2.1 1.6.2 3.3.8 4.9 1.3h-.2c.3.2.6 1-.7 1.1-4.8 1.2-7.1 1.6-11.8 2.3 0 0 5.4.3 13.1-.4 1.6.6.4 2.6-.8 2.9-5.9.9-12.8 1.1-19.2 1 0 0 7.2 2 18.3 1.1 2.2 0-.2 2.3-1.3 2.5-13.5 2.5-34-1.3-34-1.3 9.3 3.9 24.7 4.1 29.6 3.7 5.3-.4-2.6 2.6-13.1 2.4-4-.2-8.8-.7-14.2-1.4-3.8-.5-12-1.9-12-1.9 3.5 2.1 17.7 6 17.7 6-3.7 2.2-20.1 1-20.1 1 8.8 2.5 19.8 3 19.8 3s3 .1 9.2.2c9.2.7 16.8 1.5 22.7 1.9v-32.7c-1.2-.7-2.4-1.4-3.8-1.9-1.5-.6-2.4-1.6-2.7-2.8 1.5.1 3.8.5 6.5 1.7v-2.8c-2.1-.8-4.2-1-6.6-1 .1-1.1.5-2.3 1.1-3.5 1.3.1 3.2.4 5.4 1v-2.4c-1.4-.3-2.8-.4-4.3-.5.6-.9 1.2-1.7 1.9-2.4.5 0 1.3 0 2.4.2v-1.9h-.7c.2-.2.5-.4.7-.6v-9.7c-1.3.2-2.1.6-2.8 1.3-1.6.1-7.6 1.5-11.6 1.5zm-7.8 3.3s6 3.8 14.4 1.2c0 0-7.3 7.3-14.4-1.2zm-89.4 63.1c2.5-.5 8.4 1.2 10.8 1.6 10.1 1.5 18.4 1.9 32.3 1 0 0-14.8-.8-33.1-3.2-2.9-.4-9.4.1-12.3-1.6-2.1-1-4.8-1.7-9.3-2.7-6.3-1.4-10.7-2.2-14.7-2.6 0 0 6.4 3.4 14.4 5.7 3.3.8 9.2 2.2 11.9 1.8zm-7.9-7.3c2.3-.5 7.3 1.2 10.1 1.7 10.9 2 23.1 3.3 40.5 2.2 0 0-19.9-1-39.9-3.9-3-.4-9.4-.3-12-1.8-2.2-1.3-3.8-1.9-7.3-2.8-2.6-.6-7.3-1.5-10.7-1.6 0 0 5.1 2.9 10.6 4.7 2.3.9 6.8 1.7 8.7 1.5zm-6.5-7.1c2.9-.1 8.2 1.8 11.1 2.5 11.6 2.6 24.9 4.3 45.9 3 0 0-25.3-1.3-46.8-4.8-3-.5-9.4-.8-11.3-2.1-1.3-.9-3.1-1.9-4.6-2.3-2.4-.6-7.1-1.1-9.3-.9 0 0 4.6 2.2 8.6 3.7 1.8.5 4.6.9 6.4.9zm24.4 21.6c3.3-.4 8 1.2 11 1.4 8.2.7 15 .8 25.1.2 0 0-8.5-.3-25.4-2.3-2.2-.3-10.1.7-14.1-1.6-4.1-1.8-7.2-2.5-12.4-3.5-7.6-1.5-14.3-1.8-17.9-2.4 0 0 7.1 3.7 17.6 6.3 4.5 1.2 11.7 2.5 16.1 1.9zm9.5 6.6c3-.7 6.5.6 9.6.7 9 .3 19.4.4 31.6-.1 0 0-13.6-.3-32.7-1.7-2.6-.2-7.8.6-11.6-.8-3.6-1.1-7.8-1.9-15-2.9-9.5-1.4-18.9-2.4-22.6-2.7 0 0 10.1 4.1 20.1 5.7 5.5 1 12.8 2.3 20.6 1.8zm92.2-3.6v-2.4c-20 .6-31.1 1.6-31.1 1.6 11.7.6 22.1.8 31.1.8zM37.2 351c2.5 0 6.9 1.7 9.8 2.5 13.4 3.5 32.3 6.6 60.4 4.9 0 0-34.2-1.6-59.3-6.1-2.9-.5-9.6-1.2-11.4-2.3-1.4-1.1-3.1-1.6-4.4-2-1.7-.5-5.2-.9-6.8-.9 0 0 3.7 1.9 6.7 3.1 1.3.5 3.2.6 5 .8zM168 153.3V152c-3.5 0-7.4.2-11.7.6 0 0 4.7.1 11.7.7zm-17.9 244.2c-12.5.6-23.8.8-34.3.7-20.9-2.1-14.7-1.6-31-2.6-24.3-1.5-45.7-4.7-45.7-4.7s19.7 5.9 31.4 6.9c35.9 3.2 66.8 2 86.5.4 2.8.2 6.5.2 11.1 0v-3.1c-6.8.5-13.3 1.2-18 2.2zM75.6 232.6c-1.7-.2-11.7-1.2-17.9.2l14.2 1.8c-6.8 3.1-11.8 2.4-11.8 2.4s6.3 4.3 12.1 3.8c0 0 13.5-15 29.4-15.2 15.9-.2 20.6 10 20.6 10s-9-5.8-20.7-4.4c-11.7 1.3-24.4 9.8-24.4 9.8s6-.4 8.6 1.9c2.7 2.3 13.4 5.9 20.4 4.2 6.7-1.6 16-5 17.3-1.5-3.7 1-8.8 5.9-17.4 6.1 0 0 6.1.7 12.2-.6 3.9-.5 14.1-1.6 15.3-1.4 0 0-4.7-.8-9-1-1.5-.1 1.3-1.7 2.4-1.8h.1c3-.3 10-1 11.9-1.1 0 0-2.6-1-8.5-1.2-1.9.1.2-2.6 2.4-2.8 3.3-.1 8.8-.1 10.6-.3 0 0-2.6-1.4-8-1.9-2-.1-3.7-2.7-2.2-2.7 5.7-.1 14.3-.5 14.3-.5-2.4-.8-9.9-1.8-13.6-2.1-1.2-.1-1.4-3.2 1.5-3.1 2.6.1 8 .4 8 .4-2.2-.8-5-1.8-6.9-2.7-2.7-1.3-.4-1.9 1.4-2.1 1.2-.1 2-.2 2.7-.6-5.2-1.6-14.2-9.1-26.9-9.1-2.5 0-7.5.9-11.2 1-6.2.1-11.1 0-23.2 2.1 0 0 28-.4 34.9.9 1 1.4 1.7 3-.5 2.8l-1.3-.1c-2.9-.4-5.5-.6-8-.7-9.3-.6-23.1-.9-35.9 1.3 0 0 10.2.2 21 .5-2.5.8-4.6 1.7-6.4 2.7-3-.3-10.3-.8-21.4.7l17.8 1.6c-.9.6-1.7 1.2-2.4 1.7s-1.1.8-1.5 1zm12.9 8.9s1.7-1.4 4.9-2.4c2-.6 3.4-.1 3.4-.1s.1 2.5-3.4 2.3c3.8 4.2 13.8 2.7 13.8 2.7s-9.5 4.1-18.7-2.5zm20.9 1.6c-1.1 0-.9-.8-.9-1.7 0-.9-.2-1.7.9-1.7s3.2.8 3.2 1.7c0 .9-2.1 1.7-3.2 1.7zm34.1-56.4s10.8.2 24.6 2.3v-2.2c-6-.8-14-1-24.6-.1zm15.6 57.2s3.7.5 8.9 2.1v-2.3c-2.4-.3-5.4-.3-8.9.2zM27.5 291.4s4.6-8.6-3.8-15.6c-6.5-5.4-9.6-10.8-9.6-10.8s1 5.2 7.7 11.9c4.6 4.6 3.8 6.1 2.1 7.5-1.2 1-2.1-5-6.7-7.9-2.3-1.5-5.6-5.4-7.3-8.8 0 0 1.2 7.5 5.2 11 3.7 3.2 5.6 7.5 5.6 8.3 0 0-5.6-.8-9.2-3.5-.1 0 5.8 8.3 16 7.9zM168 387.9v-2.2c-23 .6-47.6 1.5-47.6 1.5 19.4 1.2 35.3 1.2 47.6.7zm0-192.1v-1.6c-4.1-.4-8.7-.6-14.1-.6 0 .1 5.8.7 14.1 2.2zm0 27.4v-1.9c-3.5 0-7.4.2-12 .7.1 0 4.9.2 12 1.2zm-10.1 31.1s4.3.6 10.1 2.4v-2.6c-2.7-.3-6-.4-10.1.2zm.4 10.3s4.1.5 9.7 2.3v-2.4c-2.6-.4-5.8-.4-9.7.1zm0-15.5s4.1.5 9.7 2.3V249c-2.6-.4-5.8-.4-9.7.1zm-188.4-81.4c2.3 4.6.7 7.9 0 9.1 3.3-3.7 5.4-2.8 5.4-2.8-1.9 2.1-3.1 4-5.8 11.5-2.7 7.5-9.8 14.2-9.8 14.2 11.5-6.7 13.3-17.3 15.6-21.3 2.3-4 7.3-5.2 7.3-5.2-.2 3.3 2.7 6.9 2.7 6.9-2.3-5.6 4-14.6 4-14.6-10.2 11.8-19.4 2.2-19.4 2.2zM-6.9 144c-4.4 9-11.5 17.7-20 11.7 0 0 7.7 8.8 16.5-1.9 8.8-10.8 6.7-12.9 12.5-14 0 0-4.8 7.5-.2 18.3 0 0-2.7-12.3 5.8-21.7 0-.1-10.2-1.4-14.6 7.6zm44.8-15.3s-5.2 16.1-11.5 21.1-16.7 10.4-11.9 18.8c0 0-.6-5.2 2.9-6.9 0 0-1.3 5.4 3.5 8.8 0 0-1-8.6 2.9-13.3 3.7-4.5 13.3-14.1 14.1-28.5zm129.7 1.3c-4.9 7.5-13.8 14.1-27.1 12.6-6.1-.7-16.9-4.6-18.8-7.3 0 0 4 5.4 11.3 7.5 7.3 2.1 7.3 5.2.4 5.4-6.9.2-10-3.3-15.6-2.9-5.6.4-8.8 3.9-15.2 3.3-6.3-.6-14.8-5.2-15.8-14.6 0 0-16 1.3-22.3-9.5H63c.8 6.6 3.7 18.4 13.9 22.8 0 0-3.8-4.8 1-6.9 0 0 8.1 8.1 15.9 9.6 0 0-11.9 7.9-25-3.5 0 0 4.6 8.1 12.3 9.6 0 0-18.4 6.1-23.6-11.5 0 0-1.7 18.4-11.7 20.6 0 0 0-3.9 2.5-7.3 2.3-3.2 7.9-16 9.5-33.3h-.6c-1.9 8.6-6.5 28.2-11.5 32.4-6.3 5.4-9.2 10.8-6.7 16.9 0 0-3.3-3.1-3.1-8.3 0 0-2.7 8.6-1.3 14 0 0-6.2-6.9-3.7-16.3 1.3-7.1 10.6-6.5 13.4-19 0 0-4.4 8.3-10.6 10.6 0 0 10-10.2 10-24 0 0-2.5 13.5-13.6 22.9-11.1 9.4-6.3 16.7-6.3 16.7s.2-6.9 4.6-9.4c0 0-2.9 11.7 2.9 18.4 0 0-5-2.3-6.5-5.4 0 0-.4 19.6 29.4 13.1 0 0-19.3 10.1-35.7-3.5-11.9-9.8-13.6-16.3-12.7-23.4 0 0-1.9 4.4-6 7.1-4 2.7-14.4 10.2-1.7 19.8 0 0-4.2-5.4-2.7-9.6 0 0 2.5 7.5 8.6 11.1 0 0-5.6-8.3-4-12.5 0 0 5.6 12.5 13.3 16.1 0 0-4.4 0-8.1-2.5 0 0 2.9 4.2 7.1 7.1 0 0-15 5.8-26.1-14 0 0-3.7 1.7-5.6 4.8 0 0 3.8-3.3 6 0 2.1 3.3 1.3 5.6-1.4 7.9-2.7 2.3-11.1 4-18.3 12.9-3.5 4.4-8.5 11.2-6.9 23.2 1.4 10.6 5.8 20.2 13.1 26.1 0 0-16.4-2.8-23.8-21.7-4.4-11.3-5.2-24.8 8.6-40.2 0 0-11.3-5.8 10.6-30.7 0 0-2.7-12.5 13.1-15.9 0 0-2.2-11.9 11.2-24.7h-14.5c3.1 3.6 2.2 7.4 1.4 9.1l-.4.6c-2.1-2-6.1-5.5-12.2-9.6h-19.8c1.2 1.6 2.7 4.2 3.7 8-1.5-.8-3.1-1.5-4.6-2.2-.4-1.3-1.4-3.8-3.1-5.8h-3.9c.7 1 1.4 2.1 1.8 3.6-2-.8-4-1.6-6.1-2.4-.1-.2-.3-.7-.6-1.2H-84c-4.3 4.3-10.6 7.3-15.1 9.1-2.4-.6-5-1.1-7.5-1.6 5.9-2.2 10.4-5.3 13.1-7.4h-5.3c-3.3 2.9-7.4 5.2-10.8 6.8-.3-.1-.6-.1-.9-.2-2.8-.5-5.6-1.1-8.2-1.6 4.4-1.4 8.2-3.2 11.1-5h-5.2c-3 1.9-6.1 3.3-8.6 4.4-3.5-.7-6.7-1.4-9.9-2.1 2.9-.5 5.6-1.4 7.9-2.3h-8.4v9.2c1.8.1 4.8.3 8.7.7-1.7 1.7-4.5 3.8-8.7 5.9v3.6c6.2-2.4 12.6-6.4 15.3-8.8 2.1.3 4.4.6 6.8.9-4.3 5.3-14.2 10.2-19.6 11.7-.8-.2-1.6-.4-2.4-.5v12.2c.9-1 1.8-2 2.7-3.1l6.4-.7 2.9-.4-.1.2-.4.6c-.1.1-3.8 5.2-11.5 10.8v3.3c4.7-3.5 10.3-8.3 15.7-14.7l.1-.1 9.2-.7-.4.6-.2.2c-.1.1-8.2 10.9-24.4 18.4V191c3.6-4.1 5.3-7.6 5.9-9.2l3.1-.7c-2.7 6-6.3 10.2-9.1 12.8v5c7.9-.2 16.2.7 22.7 4.5-2.7.2-5.4.5-8.1.9-2.3-1.5-6.9-3.7-14.6-5v2.8c2.5.9 5.1 2 7.4 3.3-2.5.5-4.9 1-7.4 1.6v2.6l5.4-.9-.1.5c-.1.3-1.2 6-5.3 11.5v3.8l.9-.7c.1-.1 6.5-5.5 9.8-15.4l.1-.4c1.9-.2 3.7-.5 5.5-.6l-.1.5c-.1.5-3.5 12.3-10.4 16.5l-5.8.8v.9c1.1-.1 2.1-.2 2.9-.3 7.7-.7 18.7-1.4 28.9-.8-10 1.2-19.2 2.6-27.6 4.2l-4 .8h-.2v6.7c1.5-2.3 2.7-4.2 3.3-5.3 2.5-.5 4.9-.9 7.2-1.3-3 6.2-7.1 11.3-10.6 14.9v2.9c8.1-6.4 13.6-15.1 15.6-18.6 2.4-.4 4.7-.7 6.8-.9-4.7 9.7-12 17.1-15.3 20.2-2.4.2-4.8.5-7.1.8v5.8c1.6-1.8 2.3-3.4 2.4-3.8.2 0 1.8-.2 2.5-.2-1.1 3.2-3.3 5.1-4.7 6.1l-.2.1v5.8l3.9-.6c-1.2 2.4-2.5 4.3-3.9 5.9v2c3.7-3.2 6.1-6.7 7.3-8.5l5.7-.9c-3.3 6.7-8.2 10.7-10.6 12.3h-2.4v10.2c1-.8 2.1-1.7 3.2-2.8.3 0 .6-.1 1-.2l5.6-.9c-1.7 2.4-4.6 5.8-9.2 8.8-.2-.1-.4-.1-.6-.2v2.2c.2 0 .3.1.5.1 6.2 1.1 12.3 1.8 17.5 2.2 1.6.2 3.9.5 7 .7l-4 1.3-3.5 1.2-3.1 1c2.8-.2 5.6-.2 8-.1 3.1.1 5.7.4 7.1.6-.9.3-1.8.5-2.6.8-2.4.7-4.5 1.4-6.4 2.1-1.1.4-2 .7-3 1-8.4 3-12.2 4.9-12.2 4.9 2.2-.6 9.2-2.5 17.5-4.8-1.8 2.2-5.2 5.6-10.2 8.5-1.5-.1-3-.3-4.3-.6-6.9-1.3-3.3-6.7.3-10.7 0 0-6.8 4.1-6 9.2 1 6 15.2 5.3 15.2 5.3s-12 6.1 7.6 8.2c5.9-2.2 9.1-8.6 10.1-8.5.8.1.4 2.3-3.8 9.3 3.3.1 6.3.1 9.2 0 0 0 6.1-2.6 11.5-11.5l1.4-.1s-1.9 7.1-6.7 11.3c1.5-.1 2.9-.2 4.3-.3-2.1 1.3-3.9 2.5-5.5 3.6-.9.6-1.7 1.2-2.4 1.7-2.5 1.9-4.1 3.4-4.9 4.3-.5.6-.8.9-.8.9.3-.3.8-.6 1.2-1 .9-.7 2-1.4 3.2-2.2 2.2-.6 7.1-1.7 10.4-.8-1.9.8-3.7 1.7-5.5 2.5-1.4.6-2.7 1.3-3.9 1.9-4.1 2-7.4 3.9-9.2 5.3.1-1.2.5-2.1.5-2.1-2.5 2.5-5.2 7.7 1.1 10.5.6-.3 1.9-1 3.8-2.3 6.5-4.2 9.7-9.5 10.9-11.8l5.3-2.1c-3.4 6.7-9.1 12.1-12 14.6-.1 0-.1.1-.2.2l-.4.3c-1 .8-2.4 1.9-3 2.3 8.1 1.4 16.1.5 24.7-1.7.4-.1.9-.2 1.4-.4.3-.1.7-.2 1-.3-1.7 1.3-3.9 3-6.2 5.1-1 .9-2 1.7-2.9 2.7-2.1 2-4.2 4.3-6.2 6.6-.6.7-1.1 1.4-1.6 2.1-.6.8-1.2 1.7-1.7 2.5 0 0 1.2-1.2 3.3-3.2 2.8-1.1 8.7-3.1 12.9-2.6-.7.5-1.4 1.1-2 1.6-1.3 1-2.5 2-3.7 2.9-9 7.3-12.1 10.9-12.9 11.9-.4-1.2-.5-2.8-.2-4.6.1-.5.1-1 .2-1.5-5.4 9.1.2 12.9 8.8 12.5l1.8-1.8c.5-.6 1.1-1.2 1.6-2 0-.1.1-.1.1-.2 2.1-2.9 5.5-8.6 6.1-15.6 1.7-1.2 3.4-2.4 5-3.5-.1 3.1-.9 10.1-5.6 17.2-.1.1-.1.2-.2.3l-.1.1c-.5.7-1 1.4-1.5 2-1 1.3-1.9 2.3-2.5 2.9.8-.2 1.6-.3 2.3-.5 1.7-.4 3.9-1.3 6.6-2.5-1 1.2-2 2.7-2.9 4.3-.1.2-.2.3-.3.5-1 1.7-1.9 3.7-2.6 6 0 0 2-2.9 5-6.5 2.6-1.3 6.9-3 9.8-2l-4.1 3.9-2.6 2.5-.1.1c-.6.7-6.9 7.3-8.9 9.6-.6-1.3-.6-3.1.1-5.5 0-.1 0-.2.1-.3-.1.1-.1.3-.2.4-4.6 7.6 1.2 11.8 8.4 10.9 3.3-.4 7.1-.9 13.5-3.8-6.1 12.3-3.9 18.3-3.9 18.3.1-3.9 1.4-7.7 3-11.1.3-.7.7-1.4 1-2 2.4-1.3 7.4-3.6 11-2.9-.6.7-1.1 1.3-1.7 2-1.3 1.6-2.6 3.2-3.8 4.7-.8 1.1-1.6 2.1-2.4 3.2-2.4 3.2-4.7 6.4-6.7 9.4l7.8-7.8c.2 1.7.3 5.4-1.4 9.6-1.6.2-3.2.2-4.6 0 0 0 6 2.6 13.4.3 0 0-1.6 1.6-3.5 3.8h12.5l.1-.1v.1h3.3c-.1-1.4-.1-2.6-.2-3.4 1.4-1.5 2.8-3 4.2-4.4.2 2.6.4 5.3.4 7.8h2.1c.2-4.5.1-8.4.1-10.6 1.4-1.5 2.8-2.9 4.1-4.4.9 5.1.9 10.6.7 15h1.8c.9-7.4.6-15 .5-18.1l3.7-3.9c1.2 7.9.5 17-.1 21.6l-.5.4h8.9c-.6-1.1-1-1.6-1-1.6l3.9-3.6c.7 1.6 1.3 3.4 1.8 5.1h4.6c-.8-5.5-2.3-9.1-2.3-9.1l3.9-3.7c1.4 3.8 2.2 8.4 2.6 12.7h3c0-10-2.5-16.1-2.5-16.1l4.6-4.8c2.9 5.4 2.9 14.9 2.4 20.8h12.6v-.3s-2-18.2-3.3-24.4c0 0-2.2-10-4.9-19.4-2.1-7.2-10.3-12.8-14.1-13.5-6-1.1-12-3.8-12.6-11.6.7 2.8 3.1 5.9 10.2 7.1 10.9 1.8 14.5 9.3 14.5 9.3s-3.2-9.6-12.3-12c-8.9-2.5-13-4-12.3-9.1 1-5.6 4.3-5.5 4.3-5.5s-3.5 6.3 6.9 8.7c10.2 2.4 11.3 8.3 11.3 8.3s-4.4-41.1-2.9-68c0 0-10.6-3.3-16.2-14.6 0 0 3.4 13.6 10.1 16.7 3.6 1.7-9.2.8-14-2.4 0 0 9.5 9.8 8.7 20-2.8-8.6-8-10-8-10s10.7 16.2-1.9 23.6c0 0 7.3-8.5 1.2-15 0 0 1.2 11-8.4 11.5-9.6.6-18.4-14.8-1.2-28.6 0 0-6.9 2.3-10 5.8-2.9 3.2-10.3 4.8-11.7.9 0-.1 0-.2-.1-.3v-.2c-.1-1 .1-2.2.2-3.3.6-2.8 3.2-13.4 8.2-22.3 4.4-7.8-.1-13.1-2.6-15.2 5.6.9 9.8.3 9.8.3s1 7.9-1.5 14.2c-2.4 6.4-7 12.4-7.3 19.4 0 0 4.2-10.3 8.8-14.5 4.6-4.2 3.6-7.3 3.6-7.3s1.8 7-2.1 11.8c-3.9 4.8-3.9 10.9-3.9 10.9s2.7-5.9 5.2-7.9c4.2-3.3 3.9-7.6 3.9-7.6 2.3 7.5 6.9 11.9 6.9 11.9-1.3-2.1-2.3-7.1-2.5-11-.2-3.9-3.2-12.9-3.2-12.9 3.8.4 9.8 7.7 9.8 7.7-3.9-17.9 7.1-9.9 7.1-9.9-2.3-5-2.7-10.3-1.9-13.3.8-3.1 5-9 3.8-3.1-1.2 6 2.5 13.3 2.5 13.3-1.5-6.7.3-11.9 3.2-16.2 0 0-1.7 12.2 7 19.3 8.6 7.1 7.5 15.5 7.5 15.5 2.9-7.1.7-11.2-2.4-14.9l6.1-.2c-3.1-.7-5.7-1.4-8-2l-2.7-3c4.9-.2 8.4-.2 8.4-.2-4.4-1.1-7.8-2.1-10.6-2.9-.6-1-1-1.9-1.4-2.8 5.6-.2 9.8-.4 9.8-.4-4.5-1.2-7.9-2.3-10.8-3.2-.1-.7-.2-1.5-.2-2.2 6.9-.4 11-.8 11-.8-4.2-.9-7.7-2-10.6-2.7.2-.8.4-1.6.6-2.3 7.1-.7 12.9-1.3 12.9-1.3-4.6-.8-8.1-1.6-11-2.2 1-1 1.9-1.9 2.5-2.8 7.9-.4 14.7-.7 14.7-.7-5.2-.9-9.3-1.8-12.7-2.3.5-1 .8-2 1.1-3 7.4-.3 13.5-.6 13.5-.6-5.4-.9-9.5-1.5-12.8-2 .1-.2.1-.4.2-.6.4-1.4.7-2.4 1-3.2 7.5-.5 12.8-.8 12.8-.8-4.9-.6-8.9-1.2-12.3-1.7 0-.7-.2-1.4-.8-2.6-.1-.3-.2-.6-.2-1 9.5-.9 16.9-1.3 16.9-1.3-5.9-.8-10.4-1.5-14-1.9 1.5-.9 3.4-1.7 5-2.4 7.5-.9 13.1-1.4 13.1-1.4-3.7-.5-6.9-1-9.8-1.3.7-1.3.6-2.7.5-3.5 7.2-.8 12.5-1.2 12.5-1.2-2.9-.7-5.7-1.1-8.2-1.5 2.7-1.3 5.2-2.5 7.4-3.8.7-.4 1.3-.8 2-1.2 8.5-5.2 13.3-10.7 15.8-17.6 3.9-10.5 11.7-15.1 17.5-17.2-6 .1-12.6 2.6-15.4 5.8-8.5 9.8-22.3 5-23.4-4 0 0 4 6.7 14 5.6 0 0-9-1.5-11.1-7.9 0 0 5.5 4.1 10.7 3.7 0 0-8.3-3-7.5-8.5 0 0 4.5 5.9 11 5.2 6.7-.7 10.5-3.2 16.2-3.4 5.7-.2 9.5 1.5 14.6 1.7 20.1-1.5 39.9-11.6 39.9-11.6 16.1-.4 25.7-6.9 31.4-14.1V129c-.3.5-.4.8-.6 1zM-93.6 343.2c-.3-.1-.7-.2-1-.4-2.5-1.1-3.2-3-3.2-4.6l13-5.2c-2.6 4.5-6.4 8.2-8.8 10.2zm7.6 31.4c3.2-2.3 6.4-4.7 9.6-7-.4 2-1.6 6.1-5.1 10.2-2.3-.3-3.8-1.4-4.5-3.2zm10.8 2.8c-2 .4-3.6.6-5.1.5 2.1-2.2 5.6-6.5 6.2-11.9 1.4-1 2.9-2.1 4.3-3.1-.4 2.8-1.7 9.1-5.4 14.5zm85.6 30.2-3.8 3.6c2.2-9.1 2.1-20.5 2-24.8l2.7-2.8c2.6 13.1-.9 24-.9 24zm-7.2-39.1c1.6.8 3.2 1.5 4.8 2.4.3 2.2.8 7.7.3 11.4-1.9 1.7-3.7 3.5-5.6 5.3.8-3.6 1.6-10.9.5-19.1zm-.8 24.2 3.1-3.2c1.3 9.2 0 19.9-.5 23.1L.5 417c2.1-8.8 2-19.7 1.9-24.3zm-44.2-218.3c-.1.1-6 7.2-14.3 9.3-1.4.4-2.8.6-4.3.6l-1.2-.1-1.7-.2s.9-.3 2.2-.8c.6-.2 1.3-.5 2-.8 3.6-1.5 8.6-4.1 10.9-7.2 0 0 1.8.1 4.1-.5s2.9-1.2 2.9-1.2l-.6.9zm-33.6 69.4-4.3 1.1s10-4.3 16.7-14.6l4.9-2.4s-6.2 11.5-17.3 15.9zm16.5 9.5-.1.1zm6.7 51.9c0 .3-.1 1.7-.9 3.4-.1.3-.3.6-.5.9-.1.2-.2.4-.4.6-.2.2-.4.5-.6.8l-.1.1-.4.4c-.3.3-.5.5-.9.8l-.2.2c-.2.1-.4.2-.5.4l-.2.2c-.3.2-.7.5-1.1.7-.2.1-.3.2-.5.3-.3.1-.5.3-.8.4-.1.1-.2.1-.3.1-.6.3-1.3.5-2 .8l.3-.4v-.1l.1-.2c.1-.1.2-.3.3-.4l.1-.1c.1-.1.1-.2.2-.3.5-.8 1-1.8 1.5-2.9.5-1.2 1-2.6 1.2-4zm1 11c-.4-.1-.8-.2-1.3-.3.5 0 .9.1 1.3.3zm-11.5-3.9c-.5 1.1-1.1 2.3-1.8 3.4l-.1.1-.1.1c-.1.1-.2.2-.2.4-.1.2-.2.3-.4.5 0 0 0 .1-.1.1l-.3.3-.6.6c-.1.1-.2.3-.3.4l-1 .2-.8.2-2 .4h-.3l.2-.2.3-.4.1-.2.2-.3c.2-.4.6-.8.9-1.4.3-.5.7-1.1 1-1.8.9-1.7 1.8-3.9 2.4-6.4l4.5-.9c.1-.1-.4 2.2-1.6 4.9zm3.6-9c-2.6.5-5.4 1.1-8.1 1.5 2.7-2.5 7.3-7.2 10.2-13.1 1.6.6 3.1.9 4.4.9-1.2 2.8-3.3 6.8-6.5 10.7zm-10 1.9c-3 .5-6 .9-8.6 1.3 3-2.3 9.1-7.6 12.7-14.4l4.8-.6c-.6 1.3-3.4 7.7-8.9 13.7zm-6.2-14.8c2.3-1.3 6.7-4.2 9.5-8.3.6 1.6 1.3 3 2.2 4.3.5.7 1 1.3 1.5 1.9-2.4.4-7.1 1.3-13.2 2.1zm4.5-19.1c-1.6 3.3-6.7 12.7-17.7 20.5-2.7.2-5.6.4-8.5.5 3-1.8 14.7-9.5 20.2-20 2.2-.4 4.2-.7 6-1zm-2.9-1.8c2.5-1.8 5-4.2 7.2-6.6-.6 1.9-.9 4-1 6.2-1.5.1-3.6.2-6.2.4zm6.1 2.7c.1 2.1.3 4.2.7 6.3-2.1 4.3-5 8.5-10.7 12.2-2.7.3-5.7.7-8.9.9 3.4-2.2 13.4-9.2 18.9-19.4zm-8.1-2.5-7.5.5c7.6-5 12.6-13.7 13.8-15.9 2-.2 4-.4 5.8-.5-3.7 8.3-9.7 13.8-12.1 15.9zm-20.5-23.4s-1.5.1-4 .2c9.9-5.3 16.5-14.6 18.6-18 1.7.8 3.2 1.7 4.3 2.8-1.4 3.2-9.2 13.4-18.9 15zm23.4-13.8 5.5-1.7s-8.7 12-19.5 14.5l-1.9.2c-.1.1 8.6-2.6 15.9-13zm-21.8 15.7c.2 0 1.6-.2 2.1-.2-1.1 4.3-4.1 6.1-4.1 6.1s-2.3.7-2.8.8c2.7-1.2 4.7-5.5 4.8-6.7zm-7.3 6.9s-2 .4-2.2.5c3.1-1.9 4.5-5.7 4.8-7.1.2 0 1.7-.1 2.2-.2-.8 4.7-4.8 6.8-4.8 6.8zm19.3-31.3-5.4-.4c.1 0 11-4.2 16.6-16.4 2.3.2 4.5.5 6.5.7l-.1.2c-.4.5-9.2 13.4-17.6 15.9zm-4.7-48.7c-.6.2-1.1.4-1.7.6l-1.2-.4-2.2-.6 1.3-.5c.1 0 7.1-2.4 13.3-9l.2-.2s1.2.2 3.9 0 3.8-.7 3.8-.7c-1.7 1.6-10.5 8.2-17.4 10.8zm19.5-6.4c2.9-.2 3.4-.6 3.4-.6-2.8 3.2-10.7 8.1-17.2 10l-.9.3-.5-.2-2.6-1.1 1.3-.4c.1 0 6.9-2 12.9-7.8l.2-.2c-.1 0 .4.3 3.4 0zm-29.3 5.4-4.1-.7c.1 0 8.9-3.6 15.5-10.7l.3-.2s1.2.3 3.4.1c2.8-.2 4.1-.9 4.1-.9-.4.4-9.8 9.5-19.2 12.4zm.4 3.5c1.3.1 2.2.3 2.8.4-3.1 6.6-7.1 10.8-9.7 13.1-.9 0-1.8 0-2.8.1 7.1-6.5 9.2-12.1 9.7-13.6zm7.6 2.8c.7.3 1.4.7 2.2 1-2.8 4.8-5.9 8.1-8.3 10-.8-.1-1.6-.1-2.4-.2 4.6-4.1 7.1-8 8.5-10.8zm6.9 3.1c.7.3 1.4.5 2.1.8-1.5 2.6-3.8 5.8-6.8 8.3-.8-.1-1.7-.3-2.5-.4 3.7-3.2 5.9-6.3 7.2-8.7zm6.7 2.4c.8.2 1.6.5 2.4.7-2.1 3.3-4.7 5.9-6.7 7.6-.8-.2-1.5-.4-2.3-.6 3.5-3.2 5.5-5.9 6.6-7.7zm-2 12.9c.5.2 1 .5 1.5.8.1.1.2.2.3.2 1.8 1.2 2.8 2.7 3.4 3.8-1.2-.1-2.5-.3-3.8-.4-.6-1.7-2-3.2-3.1-4.2-.9-.8-1.6-1.2-1.6-1.2 1.3.2 2.4.5 3.3 1zm5.3-2c-.6-.3-1.3-.5-2-.8 3.7-3.3 5.9-6.1 7.3-8.2 1 .1 1.9.2 2.9.3-3 4-6.3 7.1-8.2 8.7zm6.5-14c-.5.1-1 .3-1.4.4l-4-.9s.1 0 .2-.1c1.2-.4 8.4-3.3 14.2-8.7l.1-.1h.2c1.4.1 3.7-.8 5.8-2.1l1.6-1-.9 1.6c-1.5 2.8-8.1 8.5-15.8 10.9zm-9.9-1.3-3.6-1.1 1.5-.5c.1 0 6.7-1.9 12.8-8.1l.2-.2s1.3.3 3.5 0 4.7-1.7 4.7-1.7c-1.5 1.4-10.2 9.8-19.1 11.6zm12.7-16.5c5-1.3 9.8-4.2 13-6.5 1.3-1 2.4-1.8 3.1-2.4.6.3 1.1.5 1.6.8l-.9.9c-5.6 5.2-11.8 7.3-14.7 8.1l-2.1-.9zm12.1-10.1c-5.8 5.2-11.2 7.6-14.5 8.7-.7-.5-1.3-1-1.9-1.5 4.8-1.4 9.2-4.1 12.2-6.3 1.2-.9 2.2-1.7 2.9-2.3.6.3 1.2.6 1.8.8zm-5.6-2.3c-4.8 4.2-9.4 6.5-12.6 7.8-.5-.6-1-1.1-1.5-1.6 3.8-1.6 7.3-3.8 9.8-5.5 1.4-1 2.4-1.8 3-2.3.7.3 1.4.6 2.1 1-.3.1-.6.4-.8.6zm-6-2.5c-3.7 3.1-7.2 5.2-10.1 6.6-.5-.6-1.1-1.1-1.7-1.6 2.7-1.4 4.9-2.9 6.4-4 1.2-.9 1.9-1.5 2-1.6l1.4-1.2c1 .4 1.9.8 2.9 1.2-.3.1-.6.4-.9.6zm-6.9-2.4c-.3.3-.6.5-.9.8-2.2 2-4.4 3.5-6.5 4.7-.9-.5-1.9-.9-3.1-1.3 1.9-1.1 3.5-2.2 4.8-3.1 1.4-1 2.3-1.8 2.4-1.9l1.4-1.4c1 .4 2 .8 3.1 1.2zm-6.8-2.5c-.7.7-1.4 1.3-2.2 1.9-2 1.7-4 3-5.9 4-.7-.1-1.4-.2-2.2-.2h-1.3c2.5-1.1 7.3-6 9.2-7.9 1.1.4 2.3.8 3.4 1.2zm-17 5.7c-1.2 0-2.6.1-4.1.1h-.6c3.6-1.3 9.4-7.1 12.3-10.4 1.1.3 2.1.6 3.2 1-2.1 2.8-7.2 7.8-10.8 9.3zm1.7 5c.1-.2.3-.3.4-.5l.1-.1 4.1-.3 3.8-.3-.6.8s-.3.4-.8 1c-.4.4-.9 1-1.6 1.7-4.1 4.2-13.5 12.5-28.1 17l-3 .2c.1 0 13.5-5.6 25.7-19.5zm-13.9 21.8c1-.1 1.9-.1 2.8-.1-3 6.8-7.1 11.4-9.9 14-1.2.1-2.4.2-3.6.4 7.5-6.6 9.9-12.4 10.5-14.2 0-.1.1-.1.2-.1zm-1.2 17.3c1.2 0 2.3-.1 3.4 0 1.8.1 3.4.2 4.8.5.5.1.9.2 1.3.3 7.5 1.8 9.5 6 9.9 6.7-.9 0-1.8-.1-2.8-.1l-2.6-.2c-2.4-4.8-9.4-6.3-13.7-6.8h-.3c-1.9-.2-3.2-.2-3.2-.2 1.1-.1 2.1-.1 3.2-.2zm17.2 1.8-.7-.4c-1.2-.6-2.1-1-2.1-1 .7 0 1.4.1 2.1.2 1.3.2 2.4.5 3.4.9.7.3 1.4.6 2 .9.7.4 1.3.8 1.8 1.2 2.1 1.6 3.2 3.4 3.5 4.2l-4.2-.3c-.6-2.4-3.5-4.4-5.8-5.7zm7.3 9.4c2.1.1 4 .2 5.9.3-.8 2.5-4.6 12.9-15.2 16.7l-4.8-.4 2.1-1c.1 0 8.4-4.4 12-15.6zm-9.9 20.5c2.3-.1 4.1 0 5.3 0l.9.2c-5.2 10.6-13.1 17-17 19.7-2.6.2-5.8.3-9.4.6 10.6-6.3 18.2-17.4 20.2-20.5zm-18.7 22.5 2.8-.2c-1.2 4.3-4.5 6.6-6.5 7.6l-2.4.3c4.8-3 6.1-7.6 6.1-7.7zm6.2-.3 2.3-.2c-1.7 5.7-5.7 7.3-5.8 7.3 0 0-1.9.4-2.3.4 3.9-2.3 5.7-7 5.8-7.5zm-2.4 10 5.5-.8c-2.9 6.7-7.3 11.4-10.1 13.9-2.7.2-5.1.3-7.3.5 6-3.9 10.6-11.3 11.9-13.6zm9-1.3 5.8-.8c-3.1 7.2-8.1 12.2-11 14.6-2.4.2-4.7.3-7 .5 7.4-5.5 11.1-12 12.2-14.3zm9.4-1.3 5.6-.8h.1c-3.7 8.1-9.6 13.4-12.2 15.4l-6.6.4c7.9-6 11.9-12.7 13.1-15zm9.5-1.1 1.6-.2 4.3-.4c-3.9 8.8-10.1 14.1-12.1 15.7-2.6.2-5.4.4-8.2.5 7.4-4.9 12.9-13.3 14.4-15.6zm2.4-30.8-2.8-.3c.1 0 12.1-5 17.9-15.9 2.3.3 4.3.7 5.8.9l-.3.4c-.4.4-9.8 12.6-20.6 14.9zm23.4-56.7c-1.3-.2-2.6-.4-3.9-.7 5.4-1.1 10-4 13-6.2 1.1-.8 1.9-1.5 2.6-2.1l2.8 1.5c-3.6 3.7-10.1 6.2-14.5 7.5zm16.4-36.9c5.7 3.8 8.3 12 6.5 13.6-1.4-1.1-2.8-2.1-4.3-3.1-.2-1.3-1.3-7.3-3.9-11.3.6.3 1.1.6 1.7.8zm2.2 16.5c-1.7 1-3.4 1.6-4.9 1.8-7 1.1-12.4-.1-13.8-.5-1.5-.7-3.2-1.4-4.9-2.1 9.5.7 17-1.4 19.7-2.4 1.8 1.4 3 2.5 3.9 3.2zm-9.2-19.8c1.2 1.6 3.3 5.1 4 10.4l-4.5-2.7c-.4-2-1.7-6.6-4-9.6 1.6.7 3.1 1.3 4.5 1.9zm-3.3 11.3c1.8 1 3.4 2 4.9 2.9-5.9 3-14.2 3.6-18.9 3.7-2-.8-4.1-1.6-6.3-2.4 9.7-.1 17.2-2.9 20.3-4.2zm-10.1-5.2c2.2 1 4.3 2 6.1 3-5.9 3.5-14.3 4.9-19 5.4-1.8-.6-3.7-1.3-5.6-1.9 9.5-1 16.3-5 18.5-6.5zm-4.1-1.8c-5.2 4.2-12.7 6.3-17.4 7.3-2.5-.8-5-1.5-7.7-2.3 9.8-1.6 16.8-6.1 18.8-7.6 2.2.9 4.3 1.8 6.3 2.6zm-17.8-6.5c2.5.8 4.9 1.6 7.1 2.4-4.9 4.5-12.4 7.1-17.2 8.4-2.3-.6-4.6-1.2-7-1.8 9.1-2.5 15.3-7.4 17.1-9zm-44.4 23.5c5-1.4 15.7-7.3 19.3-11.9 1.8.3 3.5.6 5.4.9-3.5 4.6-11 10.3-17.2 12.1-2.5-.3-5-.7-7.5-1.1zm13.5 1.8c8.4-3.3 14.3-9.4 16.4-11.8 1.3.3 2.7.6 4 .9-2.8 3.5-7.9 9-14.2 11.4-1.9-.1-4-.3-6.2-.5zm-17.6 25.9-3.3.3c.1-.1 14.1-6.5 26.9-21.7l.1-.1.1-.2 4.4-.4 4.8-.4-.6.8c-.1.3-10.8 14.6-32.4 21.7zm11.3 3.3.1-.5c1.4-.3 2.7-.5 3.9-.7-3.5 7.5-8.4 12.2-10.9 14.3-.9.2-1.9.3-2.8.5 7.6-7.2 9.6-13.3 9.7-13.6zm-7.2 17.3c21.4-3 26.2 5.2 26.3 5.4-1.8 0-3.6.1-5.4.2h-.5c-5.4-5.5-20.4-5.6-20.4-5.6zm6.3 26.2-4.5.4 1.4-1.3c.1-.1 6.6-5.9 9.4-15.7 2-.2 3.9-.3 5.8-.4-.8 2.3-5.4 14-12.1 17zm4.7-.2 1.8-1.4c.1-.1 6.5-5.2 9.7-15.6 2-.1 3.9-.1 5.8-.1-1 3.1-4.4 11.9-12.7 16.7zm7.9-.4 2-1.1c.1 0 8-4.6 11-15.6 2 0 4 0 5.9.1-.9 3.2-4.3 12.8-14.2 16.8zm.1 4.8c2.7-.3 5.2-.4 7.4-.6-6.8 12.3-14.7 18.5-17.6 20.5-2.6.2-5.3.4-8.1.7 9.3-6.7 16-16.8 18.3-20.6zm-22.4 30-3 .3c4.9-3 6.4-7.4 6.4-7.4l3-.3c-1.4 4.4-4.4 6.3-6.4 7.4zm6.7-.5-3.2.4c5.1-3.1 6.1-6.9 6.4-7.6l2.9-.3c-1.5 4.1-4.1 6.3-6.1 7.5zm-7.3 16h-.9c6.8-4 11.1-10.5 12.4-12.8 2-.3 3.9-.6 5.8-.9-2.9 6.6-7.4 11.1-9.8 13.1-3.8.4-6.5.6-7.5.6zm-2.7 15.5c2.5-1.5 7.8-5 11.6-9.7 2.2-.3 4.4-.7 6.7-1-2 2.9-6 7.5-12.9 11.9-1.9-.3-3.7-.7-5.4-1.2zm6.7 1.5c2.5-1.4 10.5-6.2 15.6-12.8 1.7-.3 3.5-.6 5.2-.8h.1l.5-.1c-2.4 3.5-7.2 9-15.8 14.7-1.9-.4-3.8-.7-5.6-1zm6.8 1.1c2.2-1.1 12.6-6.9 18.8-15.5 2.3-.4 4.5-.7 6.7-1.1-2.4 3.9-7.8 11.2-17.5 17.6-2.4-.2-5.1-.6-8-1zm11.6 1.4-2.3-.2c1.8-1 14.2-8 20.7-18.5 1.9-.3 3.7-.6 5.5-.9-1.6 3.2-6.5 11.5-17.9 19.4-1.9.1-3.9.2-6 .2zm-14.3 17.3 1.1-.3s8.6-3.7 13.7-9.5c2.3-.6 4.6-1.3 6.9-1.9-1.5 2.4-5.2 7.7-10.8 11.7l1 .1c-4.1.2-8.2.2-11.9-.1zm20.7-.7c-2.9.3-5.8.6-8.7.7.1-.1 9.3-5.6 14-12.9 1.8-.5 3.5-1 5.2-1.4-1.1 2.1-4.5 8-10.5 13.6zm1.9-.2c3.3-2.5 9.5-7.9 13.1-14.7 1-.3 1.9-.5 2.8-.8.8-.1 1.7-.1 2.6-.2-.8 1.8-4.2 8.6-10.8 14.6-2.4.4-5 .8-7.7 1.1zm17.3-2.2c-.8.1-1.6.2-2.3.3-1.7.2-3.6.4-5.6.7 2.8-2.2 9.3-7.6 13-14.7 1.7-.1 3.5-.3 5.3-.5-1 2.1-4.2 8.4-10.4 14.2zm2.8 13.4-.6.1-1.9.4-.7.1.1-.1c.5-.6 4-4.7 5.7-10.6l5.1-1s-1.1 4.3-3.7 8.1c-.6.8-1.2 1.5-1.9 2.2l-.3.3-.3.3-.8.1zm-10.3 24.4c8.3-5.6 11.9-13.1 13.1-15.9l6.3-2.5c-3.9 8.7-11.1 15.7-14.3 18.5-1.8.1-3.5.1-5.1-.1zm13.3-.6c-2.2.3-4.5.6-6.8.7 9.8-7.3 14.5-17.3 15.6-19.6l6.1-2.5c-4 10.4-11.8 18.5-14.9 21.4zm8.4-1.8c-.1 0-.3.1-.4.1-1.9.6-4.2 1.1-6.5 1.5 10.4-8.2 14.9-19.5 15.9-22.1l6.1-2.4c-4.3 11.7-13 20.8-15.1 22.9zm31.3 22.2 4.7-4.1c-.1 6-.9 18.3-5.6 27.2-1.8 1.1-3.5 2.1-5.2 3 1.3-2.3 6.3-12.1 6.1-26.1zm-7.6 27c-1.4.8-2.8 1.5-4.2 2.2 1.5-3.1 4-9.4 4.8-17.6.2-1.8.3-3.7.3-5.8l4.5-3.9c-.1 5.7-.9 17.1-5.4 25.1zm14.7-33.2 3.9-3.4c0 5-.4 18.9-5.5 28.8-1.6 1-3.1 2-4.7 3 1.8-3.8 6.4-14.3 6.3-28.4zm6.4-5.5c1-.8 1.9-1.6 2.7-2.4.4 3.6 1.6 17.2-3.5 28.5-1.7 1.2-3.5 2.4-5.3 3.6 2-4.1 6.9-15.1 6.1-29.7zm-1-4.1c-1.9 1.4-3.9 2.8-6 4.3 1.6-3.8 3.3-9.2 3.4-15.7 1.3.2 2.6.4 4.2.5.1 3.1-.4 7-1.6 10.9zm-8.7 6.2c-2.1 1.4-4.3 2.9-6.6 4.3 2.3-3.7 6.5-12.1 6.3-23.4l.9-.6c.8.5 1.6.8 2.5 1.2.1 4.3-.4 11.5-3.1 18.5zm-8.8 5.7c-1.7 1-3.4 2.1-5.2 3.1 2.2-3.6 6.4-11.7 6.5-23 1.7-1.2 3.2-2.2 4.5-3 0 4.3-.5 14.5-5.8 22.9zm.1-37.7c-3 6.3-5.8 10.3-7.5 12.4-2.2.8-4.4 1.7-6.6 2.5 8.6-8.1 12.3-18.6 13.4-22.3 0 2.1.1 4.8.7 7.4zM-52.7 340c.5-.2 1-.4 1.6-.6 1.4-.5 2.9-.9 4.3-1.1 1.7-.3 3.3-.5 4.7-.6 1.4-.1 2.5-.1 3-.1h.4l-3.8 2.4-1 .6-.3.2c-1.6-.7-5-.4-7.6-.1-2 .2-3.5.6-3.5.6.6-.6 1.4-1 2.2-1.3zm8.1 5.2c1.6-1.1 3-2.1 4.4-3 0 4.2-.7 13.6-6.1 22.5-2 1.1-4.1 2.3-6.2 3.4 2.5-3.3 7.6-11.5 7.9-22.9zm-10.2 24.1c-1.5.8-3 1.5-4.4 2.2 2.6-3.9 6.2-11.2 6.6-20.7 1.8-1.3 3.6-2.5 5.3-3.7-.1 4-1.1 13.2-7.5 22.2zm11.1-35.2c2.7-2.9 4.5-6 5.8-8.7.4.9.8 1.7 1.4 2.5.7.9 1.3 1.8 2 2.6-2.2.8-5.5 2.1-9.2 3.6zm3.5-31.3-3.5.4-1 .1-1.7.2s.9-.9 2-2.3c1-1.3 2-3 2.8-4.9.3-.8.6-1.6.8-2.5 0 0 .9-.1 2-.4 1.8-.5 4.4-1.5 5.9-3.8 0 0-.1.8-.4 2.1-.7 3-2.6 8.7-6.9 11.1zm-1.3 12.9c-3.7 10.7-10.7 19.4-13.8 22.8-3.1 1.2-5.9 2.2-7.9 2.9 10-8.4 14.8-20.2 15.9-23.4zm-22.7 31.6c1-.8 2.1-1.5 3.2-2.3 2.9-.9 7.3-1.8 12.6-1.1-1.2.8-2.3 1.6-3.4 2.4-1-.1-3.2-.2-6.1 0-2.3.2-4.9.8-7.6 1.8zm-11.5 9.1s.1 0 0 0c1.5-1.3 3.1-2.7 4.9-4.1 3.6-1.2 9.5-2.8 13.4-1.9-1.4 1-2.7 2-4 3-.1 0-.1.1-.2.1-2.4-.1-8.3-.1-14.1 2.9zm9.1 18.3c2-2.7 6-9.4 6.3-18.6 1.7-1.2 3.3-2.3 4.9-3.4-.2 3.9-1.2 11.8-6.3 19.9-1.7.8-3.3 1.5-4.9 2.1zm5.6 3.2.9-.9c.8-.8 1.7-1.6 2.6-2.4 3-1.4 7.2-2.8 10.1-1.8l-2.9 2.8-.2.2c-1.3-.1-6.1-.2-10.5 2.1zm-8.9 17.8c2.3-2 5.3-4.6 8.8-7.6.1 2.2 0 6.9-2.4 10.6-2.9-.1-5.4-.9-6.4-3zm7.5 3c1.5-2.1 3.4-6.1 3.2-12.2l3.8-3.3c.2 3.1.1 9.6-2.8 15-1.4.3-2.8.4-4.2.5zm5.3-.7c1.4-2 4-7 3.6-16.4 1.4-1.2 2.8-2.5 4.3-3.8.2 3.8.2 11.9-3 18.7-1.5.6-3.2 1.1-4.9 1.5zm6.3-2.1c1.3-2.7 4-9.7 3.6-19.9 1.5-1.3 3-2.6 4.4-3.9 0 2.2-.2 5.2-.6 8.5-.6 4.4-1.7 9.4-3.7 13.6-1.2.6-2.5 1.2-3.7 1.7zm3.5 5.1c0-.1.1-.1.1-.2.1 0 .1-.1.2-.1zm1.2-2c.6-1 1.2-1.9 1.8-2.7l.6-.8c2.8-1.4 8.4-3.9 11.8-2.5h.1l-2 2.3c-2.2-.1-7.3-.1-12.3 3.7zm6.5 20.3c-1.4.4-2.9.7-4.3 1 .7-1.4 2.8-6.3 2-11.5l3-3c.5 2.7.9 8-.7 13.5zm1.2-.4c1-2.9 3-9.4 1.8-15.4l3.5-3.5c.4 3.7.8 10.8-1.3 17.5-1.3.5-2.6 1-4 1.4zm10.6-8.6c-.2 1.5-.5 3-.8 4.6-1.3.7-2.8 1.4-4.4 2.1.9-2.6 3.5-10.8 2-19l2.9-2.9c.6 2.8 1.2 8 .3 15.2zm1.7 3.1-.6.5c-.2.1-.3.2-.5.3.1-.5.4-1.8.8-3.4l.1-.3.3-1.5.3-2.1c.5-3.9.7-8.9-.1-14l3.5-3.5c.7 4.6 1.5 13.8-.8 22.1zm8.5-5.6-4.7 3.1.5-.5s3.9-11.6 1.4-23c1.1-1.1 2.3-2.2 3.4-3.3.7 4.6 1.7 14.5-.6 23.7zm8.2-7.5c.7-3.5 2.1-13-.4-23.4 1.2-1.2 2.4-2.3 3.5-3.4 1.1 4.8 2.2 12.9.4 22.9-1.1 1.4-2.3 2.6-3.5 3.9zm8.9-4.5c1.2 9 0 19.2-.5 22.6l-4.3 4.1c1.8-9.2 1.6-19.9 1.5-23.2 1.1-1.2 2.2-2.4 3.3-3.5zm-6.1-49.3c1.5 2 2.5 6.2 2.1 15.5-.1.6-.3 1.3-.4 1.9l-5.3 5.6c1.6-3.8 4.1-11.4 3.6-23zm-5.1 56.4-4.4 3.8c.9-3 3.7-14 1.2-24.7 1-.9 1.9-1.8 2.8-2.7 1.2 4.1 2.7 12.4.4 23.6zm-2-60.3c-1.5 1.2-3.2 2.5-4.9 3.8.9-2.4 1.7-5.5 2-9 1.1-.1 2.2-.2 3.3-.4-.3 1.4-.5 2.8-.5 4.3-.1.6 0 1 .1 1.3zm-12.4-24.7c-1.2-8.3 5.5-13.3 5.5-13.3-6 15 5.8 20 5.8 20-8.6 1.2-11.1-4.4-11.1-4.4-1.2 5.8 4 9.4 4 9.4-23.5-3.3-11.8-24.2-10.8-25.8h.1c-.9 11.1 6.5 14.1 6.5 14.1zm-3.9-39c-.6 3.6-2 6.1-3.6 7.8-1.1 1.2-2.2 2-3.2 2.6-1.2.7-2 .9-2 .9 1.5-1.5 2.5-3 3.3-4.6 3.8-7.5.5-15-1.2-18.1-2.3-.6-3.9-1.8-3.9-1.8 10.7 19.1-2.1 25-5.3 26.1h-.5v.2h-.1.1c-.4 2.4-1.4 5.5-4.5 9.4-2 .5-4.2 1.1-6.5 1.6 2.3-2.3 5.6-6 8-10.5 1-.1 1.6-.3 1.6-.3s-9.3-.3-13.5-7.3c-6.8-11.5-2.3-21.4-2.3-21.4-1.3 8.5 5 15.6 5 15.6-.8-1.7-5-17.9-.1-22 8.1-6.7 15.6 5.2 15.6 5.2-2.7-4.4-3.2-10.1-3.3-13.1 5.7 6.9 12.8 9.9 18.8 11.1l-3.6 5.5c1.6 5.6 1.8 9.8 1.2 13.1zm61.3-76.1c-1.1.2-2.2.6-3.2 1-5.3 2.3-9 7.2-14.1 16.2-.4.7-.8 1.2-1.1 1.8-1.4 2.1-2.9 3.6-4.3 4.7-6.2 4.8-12.2 2.1-12.2 2.1 14.2-.8 16.3-15.6 23.1-21.7 2.9-2.6 6.6-3.6 9.1-4 1.6-.1 2.7-.1 2.7-.1zm-51.7-1c12.1-4.7 10-10.3 10-10.3 3.6 3.1 3.4 8.6-6.7 12.1-11.9 4.1-18.8 15.7-18.8 15.7s3.4-12.8 15.5-17.5zM-33.2 229c-2.1 8.8 1 19.2 1 19.2-9.6-10.8-1-19.2-1-19.2zm4.7-.4c-2.9 12.1 2.3 23.2 2.3 23.2-11.8-13.8-2.3-23.2-2.3-23.2zm6-2.7c-4.2 19 5 32.1 5 32.1-17.7-15-5-32.1-5-32.1zm4 5.3c0 14.6 3.6 21.7 3.6 21.7-10.2-8.6-3.6-21.7-3.6-21.7zm5.8-16.7c1.5-6.9 7.5-3.5 10.2-7.9 0 0 .4 4-3.7 5.8 0 0 5.8-.4 9-6 0 0-.4 6.5-4 8.5 0 0 5.8-.8 10-6s6-7.9 13.3-7.3c-7.9 2.3-8.6 15-17.5 21-8.1 5.5-19.8 3.3-17.3-8.1zm38.4 11.1c-.1 1-.2 2.1-.4 3.1-.2 1.1-.5 2.2-1 3.2 0 .1-.1.2-.1.3-.4.7-1 1.5-1.7 2.2-1.1 1.2-2.5 2.4-3.9 3.7-1.9 1.7-3.6 3.4-4.4 5.1 0 0 1.5-6.3 5.2-10.4.2-.2.4-.5.6-.7 1-1.2 1.8-2.4 2.6-3.7.5-.9 1-1.8 1.5-2.6.8-1.6 1.4-2.8 1.6-3.4l.1-.3v.4c0 .5 0 1.7-.1 3.1zM38 207.9c-.1.8-.4 1.8-1.2 2.8-1.1 1.4-3.1 2.8-6.8 3.9l-.6.2c-1 .3-1.9.6-2.7 1-2.9 1.2-4.7 2.6-6.2 4.5-.4.5-.7 1-1.1 1.5-.8 1.3-1.6 2.8-2.5 4.6l-.6 1.2-.5.9c-.7 1.4-1.4 2.6-2.2 3.7-6.7 10-15.7 10.1-17.6 2.2 0 0 2.8 3.8 7.7 2.3 3.1-1 6.2-5.3 9.1-10 1-1.7 2-3.5 3-5.1 1.7-3 3.3-5.7 4.7-7.2.6-.7 1.3-1.3 1.9-1.9 1-.9 2-1.6 3-2.3.6-.4 1.2-.7 1.7-1.1 3.2-1.8 6.7-2.8 10.6-3.4.2.6.4 1.3.3 2.2zm25.6-29c-12 13.1-29.6 2.7-29.6 2.7 17.7 5 29.6-2.7 29.6-2.7zm-78.4-34.5c3.8-9.8 7.5-11 11.5-13.4 4-2.5 15.9-1.4 15.9-1.4-1.2.8-2.9 4.4-2.9 4.4s2.8-2.5 9.6-5.4c3-1.2 5.4-2.7 7.4-4.1h-9.4c-8.8 2.3-16.2 1.7-22 4.1-9.1 3.9-10.1 15.8-10.1 15.8zm-24.6 103.8s-10.4-14.2-2.7-37.1c0 0-15.5 16.5 2.7 37.1zM119.4 134c-4.9-2.7-8.4-6.3-10.8-9.5h-2.2c2.4 5.2 5.5 6.8 5.5 6.8-5.8-.2-12.5-3.8-17.2-6.8h-2c12.8 13 26.7 9.5 26.7 9.5zm20.7 3.7c13.1 1.1 23-5 26.8-13.2h-4.3c-5.7 4.1-15.1 7.7-26.6 0h-2.2c2.2 2.4 5.6 5.2 10.6 7 0 0-7.4.2-15.5-7h-1.8c2 3.1 5 6.9 8.3 8.9 0 0-6.7-1.6-14-8.9H120c3.4 5.2 10 12.3 20.1 13.2zm-122.2-1.4c-8.3 1.9-9.6 9.8-9.6 9.8s3.5-6 9-6.9c3.4-.6 7.1-3.3 7.1-3.3s-2.3 6.5-7.9 9c-5.6 2.5-8.5 7.9-8.8 10.8 0 0 3.3-5.4 9.6-8.1 6.3-2.7 10.4-10.2 11-18.8 0 0-3.5 5.9-10.4 7.5zm139.4 102.4s4.4.3 10.7 1.6v-2.2c-2.9-.1-6.5 0-10.7.6zM168 378.3V375c-12.2.7-20.4 2.3-20.4 2.3 7.9.9 14.6 1.1 20.4 1zm0-10.9v-3.1c-8.3.4-14.4 1.6-14.4 1.6 5.6 1.3 10.4 1.6 14.4 1.5zm0 5.3v-3c-8.7.3-14.4 1.6-14.4 1.6 5.6 1.1 10.4 1.5 14.4 1.4zM152.2 227s6.5.3 15.8 1.6v-2.2c-4.4-.1-9.6.1-15.8.6zm15.8-66.6v-1.6c-4.1 0-8.8.1-14.3.6.1 0 5.9.2 14.3 1zM146.2 173s9.3.2 21.9 1.7v-2c-5.8-.4-13-.4-21.9.3zm5-6.7s7 .2 16.8 1.3v-1.8c-4.7-.2-10.2-.1-16.8.5zm10 129.3s2.7.4 6.8 1.5v-1.6c-2-.1-4.2-.1-6.8.1zm6.8-78.2v-.8c-1.8.1-3.7.1-5.8.3 0 0 2.2.1 5.8.5zm0 84.7v-1.6c-2-.1-4.2 0-6.6.3 0 0 2.7.3 6.6 1.3zm-10.1-42.7s4.3.6 10.1 2.4v-2.5c-2.7-.3-6-.4-10.1.1zm.4 10.4s4.1.5 9.7 2.3v-2.3c-2.6-.4-5.8-.5-9.7 0zm-18.3-90s12.3.3 28 2.3v-2.2c-6.8-.8-15.9-1-28-.1zm15.7 52.8s5 .3 12.3 1.5v-1.8c-3.5-.1-7.5 0-12.3.3zm3.8 52.7s3.6.5 8.6 2v-2.2c-2.5-.2-5.3-.2-8.6.2zm-.8-10.3s3.9.5 9.3 2.2v-2.3c-2.5-.4-5.6-.4-9.3.1zm1.1 15.5s3.4.4 8.2 1.9v-2c-2.3-.3-5-.3-8.2.1zm-.7-10.4s3.7.5 9 2.1V280c-2.5-.3-5.5-.3-9 .1z" id="path11" style="fill:#6c1011"/><g id="g26"><linearGradient id="SVGID_2_" gradientUnits="userSpaceOnUse" x1="196.04" y1="557.477" x2="-103.967" y2="557.477" gradientTransform="matrix(1 0 0 -1 272 832)"><stop offset=".5" style="stop-color:#6b113d" id="stop13"/><stop offset="1" style="stop-color:#490724" id="stop15"/></linearGradient><path d="M168 124.5h300v300H168z" id="path18" style="fill:url(#SVGID_2_)"/><path class="st3" d="M268.9 274.5V318h23.3v6.6H258v-50.2zm42.7 0v50.2h-11v-50.2zm69.9 24.8c0 15.8-12.1 26.4-30 26.4-7.8 0-14.5-2.2-19.3-6.3-5.4-4.6-8.6-11.7-8.6-19.4 0-8.1 3.3-15 9.7-19.8 6-4.6 12.3-6.7 20.4-6.7 16.7.1 27.8 10.4 27.8 25.8zm-46.3-.3c0 11.9 7.7 20.5 18.1 20.5 3.8 0 7.5-1.3 10.4-3.7 4.1-3.5 6.2-8.5 6.2-15 0-12.4-7.5-20.9-18.3-20.9-9.7 0-16.4 7.8-16.4 19.1zm58.1-24.5c12.6-.2 18.8-.4 18.8-.4 8.3 0 12 .6 15.3 2.7 4.2 2.6 6.2 6.3 6.2 11.2 0 6.6-5 11.6-12.7 13.9 7 14.4 12.7 19 19 18.6l.2.4-.8 3.2c-.2 1-2.4 1.6-6.2 1.6-6 0-10.4-2.5-14.6-8.1-2.2-3.1-4.3-6.9-7.7-14-1.4.1-2.4.2-4 .2-.9 0-1.5 0-2.6-.1v21.1h-11v-50.3zm11 23.4c4.2.2 5.1.2 5.8.2 8.3 0 12.1-2.9 12.1-9.3 0-3.9-1.7-6.5-4.8-7.7-1.6-.6-3.4-.9-7.3-.9-2.1 0-2.5 0-5.7.1z" id="path20"/><path d="M207.9 344.5c4.2-.1 4.3-.1 7.7-.1 2.9-.1 5.1-.1 6.3-.1 7.2 0 10.7.8 13.4 3.2 2.3 2.1 3.7 5.1 3.7 8.4 0 5.2-2.5 8.4-8 10.6 3.6.6 5.2 1.2 7 2.4 3.3 2.2 5.3 6.2 5.3 10.4 0 5.7-3.2 10.7-8.4 13.1-3.7 1.7-7.3 2.1-16.4 2.1h-10.7zm12.8 21.3c5 0 6.9-.5 8.8-2.1 1.9-1.7 2.8-3.9 2.8-6.8 0-3.3-1.2-5.7-3.4-7.2-1.6-1-3.8-1.5-7.6-1.5-2.1 0-3.1 0-7.3.3v17.3zm.2 24.7c5.9 0 9.7-.9 12.2-3 2.3-1.9 3.5-4.6 3.5-7.6 0-4-2-7.1-5.3-8.7-2.3-1.1-5.8-1.6-10.8-1.6H214v20.8zm55.5-46 19.3 50H289l-5.9-16.2h-21.8l-6.7 16.2h-6.3l23.2-50h4.9zm-3.5 6.5-9.8 23.5h18.6zm35.6-6.5 34.1 39.8-1.1-39.8h5.5l-.1 49.8-2.7.9-36.1-41.7 1.2 40.9h-5.5v-50zm61.6 0v50h-6.2v-50zm33.3 0-25.7 22.2 26.8 27.8h-8.7l-25.4-26.8 24.9-23.3z" id="path22" style="fill:#eebb31"/><path class="st3" d="M227.1 272.4h-16.9l-.6.5s-1.3 4.2-1.4 5.2c.2 2 9.7.2 9.7.2l-22 46.3h9.7l5.1-12.4H232l4.5 12.4h12.1zm-14.2 34.3 8.7-21.8 8 21.8z" id="path24"/></g></g></svg>