<svg xml:space="preserve" width="80" height="40" xmlns="http://www.w3.org/2000/svg"><g style="fill:#252525;fill-opacity:1"><g style="fill:#252525;fill-opacity:1"><path d="M126.227 163.657h6.915c11.398 0 19.169 4.735 19.169 12.69 0 6.85-5.792 9.769-13.664 9.769-3.609 0-6.495-.268-8.09-.671zm-8.327-41.19a68.714 68.714 0 0 1 7.924-.437c11.212 0 21.434 4.331 21.434 14.805 0 9.332-8.074 12.152-17.675 12.152h-6.496zm-5.219 77.044c6.948 1.276 15.844 2.216 25.496 2.216 10.071 0 17.591-1.208 24.07-5.002 6.48-3.223 11.212-9.232 11.212-17.189 0-11.816-9.063-19.37-19.554-22.323v-.403c9.366-2.786 15.224-10.172 15.224-20.513 0-10.037-5.556-17.456-13.243-22.356-8.192-5.306-20.411-7.656-36.542-7.656-10.96 0-19.74.839-24.506 1.813l17.843 91.413M229.725 161.006c-1.561.268-3.592.537-5.59.537-13.395 0-23.18-15.912-23.18-28.602 0-6.681 2.752-11.315 8.509-11.315 6.161 0 13.815 6.817 16.971 23.568zm-6.009-54.083c.117 4.063.57 8.694 1.007 13.596h-.437c-6.479-11.346-15.409-15.107-23.618-15.107-12.672 0-21.283 9.536-21.283 23.769 0 22.995 15.661 47.603 50.34 47.603 8.393 0 17.456-1.545 23.348-3.357l-7.469-35.753c-1.747-8.763-3.073-22.19-2.736-30.751h-19.152M258.108 106.923l8.931 46.126c1.729 8.662 2.853 16.182 3.743 22.19h18.429l-1.442-11.312h.285c6.597 8.896 15.408 12.857 24.758 12.857 11.548 0 17.995-6.848 17.995-18.599 0-3.088-.556-8.191-1.109-11.547l-7.772-39.715h-20.763l7.386 37.867c.352 2.384.655 5.204.655 7.689 0 4.734-1.747 8.09-6.933 8.09-6.731 0-14.62-8.224-17.541-23.298l-5.892-30.348h-20.73M339.165 106.923l19.27 99.135h20.611l-11.481-59.319h.236c2.165 2.651 4.347 5.303 6.345 7.821l17.96 20.679h25.513l-29.928-28.065 19.589-40.251h-23.03l-12.388 29.207-7.804-7.219-4.331-21.988h-20.562" style="fill:#252525;fill-opacity:1;fill-rule:nonzero;stroke:none;stroke-width:.1" transform="matrix(.07783 0 0 -.07783 25.548 26.231)"/></g><path d="M30.316 451.068c.112-.02.23-.036.408-.036.64 0 1.063.403 1.063.882 0 .466-.348.616-.76.616-.201 0-.34-.014-.43-.038zm-.62 2.156c.317.079.82.127 1.302.127.44 0 .96-.07 1.321-.322.33-.22.54-.558.54-1.024 0-.606-.29-1.064-.682-1.358-.404-.308-.98-.444-1.587-.444a3.43 3.43 0 0 0-.434.029l-.34-1.742h-1.042l.923 4.734M33.753 449.879c0-.408.209-.68.577-.68.585 0 .909.825.909 1.425 0 .322-.14.667-.569.667-.611 0-.923-.866-.917-1.412zm2.586.752c0-1.28-.899-2.219-2.156-2.219-.916 0-1.529.58-1.529 1.448 0 1.217.871 2.212 2.156 2.212.969 0 1.53-.645 1.53-1.44M39.359 448.598c-.228-.108-.596-.186-1.026-.186-.896 0-1.522.53-1.522 1.44 0 1.244.98 2.22 2.355 2.22.31 0 .578-.058.731-.115l-.258-.794c-.126.05-.274.085-.487.085-.76 0-1.226-.624-1.226-1.281 0-.48.31-.723.708-.723.311 0 .532.07.718.143l.006-.789M39.961 449.115l1.174 1.215c.303.317.54.525.885.81l.007.014h-1.543l.162.839h2.82l-.117-.653-1.15-1.187a8.426 8.426 0 0 0-.881-.81v-.013h1.694l-.173-.84h-2.995l.117.625M45.749 452.945l-.186-.952h.768l-.155-.78h-.768l-.243-1.19a2.474 2.474 0 0 1-.06-.442c0-.172.074-.294.303-.294.096 0 .2 0 .296.014l-.124-.811c-.134-.049-.401-.078-.63-.078-.634 0-.938.322-.938.761 0 .193.022.379.074.65l.282 1.39h-.461l.148.78h.468l.13.66 1.096.292M47.46 449.879c0-.408.2-.68.561-.68.563 0 .878.825.878 1.425 0 .322-.134.667-.55.667-.596 0-.896-.866-.89-1.412zm2.506.752c0-1.28-.874-2.219-2.093-2.219-.885 0-1.48.58-1.48 1.448 0 1.217.846 2.212 2.093 2.212.935 0 1.48-.645 1.48-1.44M51.574 451.993l.007-1.482c0-.401-.014-.732-.036-1.118h.015c.128.372.29.723.441 1.075l.713 1.525h.87l.09-1.475c.014-.408.028-.753.007-1.125h.021c.117.386.244.737.398 1.138l.614 1.462h1.07l-1.757-3.503h-.996l-.104 1.218a17.57 17.57 0 0 0-.03 1.125h-.014c-.193-.494-.28-.76-.43-1.075l-.61-1.268h-1.006l-.34 3.503h1.077M57.107 451.993l.22-1.525c.05-.358.088-.608.117-.83h.014c.081.208.162.435.317.814l.658 1.54h1.124l-1.293-2.51c-.48-.932-.907-1.569-1.388-2.006-.42-.388-.924-.56-1.16-.596l-.238.881c.173.05.407.136.617.28.242.165.447.371.583.609.036.048.036.093.02.172l-.717 3.17h1.126" style="fill:#252525;fill-opacity:1;fill-rule:nonzero;stroke:none;stroke-width:.00512792" transform="matrix(1.51774 0 0 -1.51774 -10.742 708.054)"/></g><path d="M249.078 213.631c-9.735-10.845-23.634-14.268-31.103-7.587-7.454 6.714-5.573 20.881 4.146 31.723 9.734 10.877 23.668 14.268 31.119 7.587 7.386-6.646 5.573-20.88-4.162-31.723" style="fill:#373f53;fill-opacity:1;fill-rule:evenodd;stroke:none;stroke-width:.1" transform="matrix(.1059 0 0 -.1059 -6.891 44.372)"/><path d="M273.148 280.402c-13.932 12.556-40.117 5.942-58.597-14.603-18.464-20.613-22.106-47.402-8.191-59.89 3.24-2.888 7.402-4.33 7.45-4.23.187-.1.389-.134.59-.134 1.208 0 2.148.771 2.148 1.947 0 .94-.318 1.578-1.108 2.15-.067.133-.352.301-.42.402-10.037 8.962-7.503 28.131 5.59 42.734 13.093 14.637 31.892 19.204 41.896 10.205 9.468-8.459 7.756-25.983-3.491-40.25 0 0-.235-.57-.235-.94 0-.806.638-1.51 1.578-1.51.504 0 1.208.57 1.208.57 1.008 1.007 2.417 2.62 3.424 3.726 18.432 20.546 22.09 47.335 8.158 59.823" style="fill:#e6392c;fill-opacity:1;fill-rule:evenodd;stroke:none;stroke-width:.1" transform="matrix(.1059 0 0 -.1059 -6.891 44.372)"/><path d="M329.682 255.091a4.206 4.206 0 0 1-3.526-1.948h-.033s-39.512-56.365-93.26-56.936c0 0-47.787-5.002-49.466 47.94 0 0-.822 27.996 20.763 50.523.387.37.672.94.672 1.51 0 1.176-.94 2.115-2.081 2.115-.118 0-.27-.033-.386-.033-.067 0-.118-.034-.201-.067-73.085-18.598-128.208-66.537-132.807-70.7-.587-.369-.972-1.074-.972-1.813 0-1.242.972-2.249 2.215-2.249.05 0 1.209 0 1.326.033 3.525-.067 43.692-1.24 76.927-28.737 0 0 33.336-27.728 72.63-26.89 0 0 61.905-7.318 111.724 80.672 0 0 .704 1.61.704 2.315 0 2.384-1.88 4.265-4.23 4.265" style="fill:#e6392c;fill-opacity:1;fill-rule:evenodd;stroke:none;stroke-width:.1" transform="matrix(.1059 0 0 -.1059 -6.891 44.372)"/></svg>