<svg width="80" height="40" viewBox="0 0 6.168 3.084" xmlns="http://www.w3.org/2000/svg"><g fill="#289268" fill-rule="evenodd" clip-rule="evenodd"><path d="M4.622.65a1.423 1.423 0 0 0-.247-.027.535.535 0 0 0-.27.055c-.07.042-.12.134-.12.183 0 .05.019.095.047.141.028.042.054.07.084.099.028.03.218.169.238.188.05.046.078.085.078.133 0 .028-.02.056-.057.076a.287.287 0 0 1-.142.03c-.1 0-.18-.02-.26-.078l.032.2c.1.028.199.049.299.049.07 0 .156-.013.21-.035.054-.024.099-.05.127-.09a.215.215 0 0 0 .051-.131.299.299 0 0 0-.07-.183c-.019-.018-.04-.047-.063-.063-.03-.023-.164-.126-.196-.146a.53.53 0 0 1-.08-.066c-.03-.039-.04-.069-.04-.096 0-.028.012-.057.05-.082a.53.53 0 0 1 .348.014zM4.33.466l-.058.128h.13L4.51.465zm-1.5 1.262.06.17c.048-.068.132-.134.2-.203.046.073.094.12.17.154.009-.068.055-.108.146-.043.045-.063.084-.065.147-.055a.155.155 0 0 1-.02-.15c-.116-.03-.158-.103.02-.153-.019-.043.045-.077.088-.086-.006-.031.009-.097.086-.147-.038.002-.072-.004-.088-.054-.045.026-.105.03-.108-.108-.106.129-.2.058-.099-.076-.039-.006-.08-.032-.04-.091-.083-.006-.096-.056-.114-.13-.026.043-.06.065-.105.067-.034.05-.069.054-.132.039.037.11-.049.237-.112.093-.05.022-.085.035-.136-.017-.039.046-.085.019-.135.01.037.088.035.133-.012.178.062.059.042.104.002.135.142.092.077.166-.074.205.088.045.12.071.15.147.075-.052.118.002.136.082.108-.114.236-.058.13.024a.642.642 0 0 0-.16.18z"/><path d="M3.118.31a.857.857 0 0 1 0 1.715v-.172a.685.685 0 1 0 0-1.372zm-.858.858c0-.474.385-.859.858-.859v.172a.687.687 0 0 0 0 1.372v.172a.859.859 0 0 1-.858-.857zM1.857.636h.059c.064 0 .119.016.165.045a.2.2 0 0 1 .087.088.3.3 0 0 1 .008.258c-.015.037-.045.123-.152.129.077-.004.16.066.186.12a.352.352 0 0 1 .019.258.209.209 0 0 1-.06.085.346.346 0 0 1-.105.063.406.406 0 0 1-.148.02h-.06v-.147h.02c.038 0 .101-.016.128-.047a.179.179 0 0 0 .037-.113c0-.04-.013-.08-.037-.106-.025-.028-.086-.043-.128-.044h-.02V1.08h.007a.165.165 0 0 0 .106-.05.17.17 0 0 0 .041-.109c0-.039-.016-.07-.04-.092C1.948.805 1.9.792 1.864.79h-.006V.636zm-.381 0h.38V.79h-.185v.29h.186v.164h-.185v.31h.185v.148h-.381z"/><path d="M2.172 2.059h.036c.039 0 .075.006.105.026a.15.15 0 0 1 .071.058.175.175 0 0 1 .018.081.231.231 0 0 1-.011.07.135.135 0 0 1-.041.055.207.207 0 0 1 .07.15c0 .03-.008.054-.018.08a.145.145 0 0 1-.067.062.267.267 0 0 1-.101.03h-.062v-.114h.053a.066.066 0 0 0 .037-.01.074.074 0 0 0 .026-.026.092.092 0 0 0 .008-.037.094.094 0 0 0-.015-.047.05.05 0 0 0-.04-.021h-.07v-.108h.04a.066.066 0 0 0 .036-.01.045.045 0 0 0 .023-.026.08.08 0 0 0 .011-.037.064.064 0 0 0-.01-.032c-.01-.01-.016-.024-.03-.026-.011-.009-.026-.01-.048-.01h-.021zm-.243.613v-.613h.243v.107H2.06v.142h.112v.108H2.06v.142h.112v.114h-.243zm.83-.613h.072l.209.613h-.129l-.047-.125h-.106V2.44h.073l-.073-.225zm-.078 0h.077v.157-.007l-.07.233h.07v.105H2.64l-.036.125H2.47zm.415 0h.125l.249.415v-.415h.125v.613H3.47l-.243-.415v.415h-.131zm.6 0h.133v.27l.234-.27h.157l-.25.27.27.343h-.157l-.187-.265-.067.067v.198h-.133z" style="stroke-width:.0678902" transform="matrix(1.06392 0 0 1.06392 -.197 -.068)"/></g></svg>