<svg xmlns="http://www.w3.org/2000/svg" xmlns:xlink="http://www.w3.org/1999/xlink" xml:space="preserve" width="80" height="40"><symbol id="g" viewBox="-22.7 -22.7 45.4 45.4"><linearGradient id="a" x1="0" x2="0" y1="23.793" y2="-24.084" gradientUnits="userSpaceOnUse"><stop offset="0" style="stop-color:#00774a"/><stop offset=".6" style="stop-color:#8ccaae"/><stop offset="1" style="stop-color:#00975f"/></linearGradient><path fill="url(#a)" d="M-22.7 22.7h45.4v-45.4h-45.4z"/><linearGradient id="b" x1="-.072" x2="-.072" y1="33.944" y2="-19.857" gradientUnits="userSpaceOnUse"><stop offset="0" style="stop-color:#00975f"/><stop offset=".3" style="stop-color:#8ccaae"/><stop offset=".55" style="stop-color:#00975f"/><stop offset=".835" style="stop-color:#00774a"/><stop offset=".869" style="stop-color:#007c4e"/><stop offset=".924" style="stop-color:#00895a"/><stop offset=".994" style="stop-color:#009e6e"/><stop offset="1" style="stop-color:#00a070"/></linearGradient><path fill="url(#b)" d="M21.3-.3c0-9.5.4-19.2.4-19.2 0-1.1-.7-1.8-1.6-1.8h-39.3c-.9 0-1.5.8-1.6 1.8 0 0-1.1 8.3-1.1 20.9 0 12.6 1.1 18.6 1.1 18.6.1 1 .7 1.8 1.6 1.8h39.3c.9 0 1.6-.8 1.6-1.8 0 .1-.4-10.8-.4-20.3z"/><linearGradient id="c" x1="8.546" x2="8.546" y1="-16.886" y2="17.93" gradientUnits="userSpaceOnUse"><stop offset="0" style="stop-color:#00a97c"/><stop offset="1" style="stop-color:#00975f"/></linearGradient><path fill="url(#c)" d="M12.5 10.4C9.7 8.8 8.9 8.7 5.8 6.8l.2.4c1.6 1.7 2.3 2.5 3.3 4-2.8-.2-6.9-.5-9.8-1.1l.2.3c2.6 1.3 7.6 2.6 10.1 2.9-.6.9-5.6 3.6-6.8 4.1l.1.3c3.8-.4 8.8-2.2 10.9-3.5.9.3 1.9.3 3.6.5 0 0-.3-1-2.1-2.3.5-1.2-.6-8.1-1.6-9.9 0 2.8-.3 6.4-1.4 7.9z"/><linearGradient id="d" x1="-13.055" x2="-13.055" y1="-16.888" y2="17.938" gradientUnits="userSpaceOnUse"><stop offset="0" style="stop-color:#00a97c"/><stop offset="1" style="stop-color:#00975f"/></linearGradient><path fill="url(#d)" d="m-8-14.1.1.3c-1.5.6-3 1-4.2 2.2.4 1.1.8 1.9 1.5 2.9l.1.3c-1.3-.2-2.4-.7-3.5-.9-.9 1.5-1.2 3.6-1.7 5.6l-.1-.3c-.2-2.3-.3-3.9 0-5.7-.9-.3-1.7-.3-2.5-.6l-.1-.3c1.2-.7 2.1-1.3 3.5-1.9.7-1.5 1.5-2.6 2.7-3.8l.1.3c-.2.9-.5 1.6-.4 2.6 1.6-.4 2.9-.6 4.5-.7z"/><linearGradient id="e" x1="-6.326" x2="-6.326" y1="-16.88" y2="17.924" gradientUnits="userSpaceOnUse"><stop offset="0" style="stop-color:#00a97c"/><stop offset="1" style="stop-color:#00975f"/></linearGradient><path fill="url(#e)" d="M-3.8 8.7s-.6-1.1-1.1-2.5H-5c3.5-.5 6.8-1.9 7.6-2.4l-.1-.3c-3.7.7-5.6.6-6.9.5-1.4-.2-1.6-.3-1.6-.3C-6.8 2-7.3-.8-7.5-1.8l-.1-.3c-.7 1.6-1.6 4.8-1.6 4.8-1.8-1-6-4.9-6-4.9 2.3 4.6 4.7 6.7 4.7 6.7-.8.8-2.9 1.2-4.5 1.3l.1.3c1 .3 3 .4 4.3.5h2.5c1.4 1 3.5 2 4.3 2.1z"/><linearGradient id="f" x1="-.508" x2="-.508" y1="-16.885" y2="17.924" gradientUnits="userSpaceOnUse"><stop offset="0" style="stop-color:#00a97c"/><stop offset="1" style="stop-color:#00975f"/></linearGradient><path fill="url(#f)" d="M.6-11.2c-.7-1-1.4-1.8-2.2-2.7-1.2-.3-2.6-.2-3.7-.2l-.1-.3c.8-.4 1.6-.7 2.5-.9-.7-.6-1.6-1.1-2.3-1.6l-.1-.3c1.4.3 3.3.9 4.7 1.8.7 0 1.4 0 1.9.1l.1.3c-.1.3-.4.5-.5 1 1.3 1 2.2 1.9 3.3 3l.2.3C3.3-11.4 2-12.5.8-13.1c-.1.7-.1 1.2-.2 1.9z"/><path fill="#fff" d="M12.7 10.7C9.9 9.1 9 9 6 7.1 7.8 9 8.4 9.8 9.5 11.5c-2.8-.1-6.9-.5-9.8-1.1 2.5 1.4 7.6 2.9 10.2 3.2-.6.8-5.6 3.5-6.8 4.1 3.9-.3 8.8-1.8 11.1-3.2.9.3 1.9.3 3.6.5-.4-.7-.5-1.2-2.1-2.3.5-1.2-.6-8.1-1.6-9.9-.1 2.8-.3 6.4-1.4 7.9zM-7.8-13.8c-1.6.6-2.8 1.3-4 2.5.4 1.1.8 1.9 1.5 2.9-1.3-.2-2.3-.3-3.4-.6-.9 1.6-1.3 3.2-1.8 5.3-.3-2.3-.3-3.9 0-5.7-1-.3-1.8-.5-2.6-.9 1.2-.7 2.2-1.3 3.5-1.9.7-1.5 1.5-2.6 2.7-3.8-.3 1-.4 1.8-.2 2.9 1.3-.4 2.6-.6 4.3-.7zM-3.6 9c-.5-.7-1.1-1.9-1.2-2.4C-.7 6 2.6 3.8 2.6 3.8c-3.6.7-5.5.6-6.9.5-1.3-.1-1.6-.3-1.6-.3-1-2.1-1.6-5.8-1.6-5.8C-8.1-.2-9.1 3-9.1 3c-1.8-1-6-4.9-6-4.9 2.3 4.6 4.7 6.7 4.7 6.7-.8.8-2.9 1.2-4.5 1.3.8.3 2.9.7 4.5.8h2.5c1.4 1 3.5 2 4.3 2.1zM.8-10.9c-.7-1-1.4-1.8-2.2-2.7-1.4-.4-2.5-.5-3.9-.5.8-.4 1.6-.7 2.5-.9-.9-.8-1.6-1.3-2.5-1.9 1.4.3 3.3.9 4.7 1.8.7 0 1.4 0 1.9.1-.1.4-.2.7-.3 1.3 1.3 1 2.3 1.9 3.3 3-1.2-.8-2.2-1.4-3.5-2v1.8z"/></symbol><use xlink:href="#g" width="45.4" height="45.4" x="-22.7" y="-22.7" overflow="visible" transform="matrix(.50369 0 0 -.50369 14.55 20)"/><path d="M7.813 29.8c.04.672.079 2.294.079 2.927 0 .554 0 2.414-.08 3.205v.079h2.89c1.424 0 2.927-.435 2.927-1.701 0-.792-.593-1.385-1.662-1.702.792-.198 1.306-.751 1.306-1.385 0-1.028-1.187-1.424-2.295-1.463H7.773zm2.255.632c1.227 0 1.662.238 1.662.91a.76.76 0 0 1-.158.475c-.238.277-.712.435-1.266.396h-.04l-.317.87h.357c.672-.04 1.266.198 1.543.554.158.158.197.356.197.554 0 .712-.593 1.068-1.82 1.068h-.751c-.04-.91-.04-2.176-.04-2.532 0-.435 0-1.424.04-2.255.158 0 .356-.04.593-.04zm10.248-.672H18.93l.08 1.582c.039.791.039 1.583.118 2.374-.08-.237-.158-.356-.594-.989 0-.04-1.464-2.295-1.978-2.928h-1.662v.08c.04.672.08 2.294.08 2.927 0 .554 0 2.414-.08 3.205v.08h1.464v-.08c-.079-1.543-.079-3.086-.079-4.55.04.198.119.356.356.672.04.04 2.532 3.68 2.651 3.918v.04h1.187v-.08c-.079-.791-.079-2.65-.079-3.205 0-.593.04-2.255.08-2.928V29.8h-.16zm1.701.04c.04.672.08 2.294.08 2.927 0 .554 0 2.414-.08 3.205v.079h1.741v-.08c-.079-.553-.079-1.66-.079-2.531h.554c2.295 0 3.403-.594 3.403-1.9 0-1.464-1.544-1.78-2.889-1.82h-2.73zm2.137.711c.83 0 1.385.159 1.662.475a.945.945 0 0 1 .197.554c0 .91-1.028 1.108-1.86 1.108h-.355s-.08 0-.12-.04v-.791c0-.396 0-.87.04-1.306h.436z" style="stroke-width:.395662" transform="matrix(1.13478 0 0 1.13477 21.234 -22.018)"/><path d="M30.96 29.8c.039.672.078 2.294.078 2.927 0 .554 0 2.414-.079 3.205v.079H32.7v-.08c-.08-.553-.08-1.66-.08-2.531h.556c2.295 0 3.403-.594 3.403-1.9 0-1.464-1.544-1.78-2.889-1.82h-2.73zm2.096.711c.831 0 1.385.159 1.662.475a.945.945 0 0 1 .198.554c0 .91-1.029 1.108-1.86 1.108H32.7s-.08 0-.119-.04v-.791c0-.396 0-.87.04-1.306h.435zm5.816-.751-.04.04c-.316.87-2.413 5.42-2.73 6.132l-.039.079h1.504v-.04c.118-.435.277-.91.474-1.424h2.493c.277.673.475 1.187.554 1.424v.04h1.741l-2.77-6.251h-.04zm.436 1.82c.158.277.514 1.147.91 2.136h-1.78c.276-.791.593-1.503.87-2.136zm4.194-1.78c.04.672.079 2.294.079 2.927 0 .554 0 2.414-.08 3.205v.079h1.742v-.08c-.08-.79-.08-2.65-.08-3.204 0-.435 0-1.424.04-2.176.158 0 .356-.04.475-.04.83 0 1.385.159 1.662.475a.945.945 0 0 1 .197.554c0 .712-.672 1.068-1.305 1.108h-.356l-.12-.04.08.119a69.74 69.74 0 0 1 1.939 3.205v.04h1.86l-.04-.08c-.08-.118-1.266-1.899-1.82-2.65 0 0 0-.04-.04-.04.95-.277 1.425-.831 1.425-1.662 0-1.464-1.583-1.78-2.889-1.82h-2.73zm8.546-.04h-1.662v.079c.04.672.08 2.294.08 2.928 0 .553 0 2.413-.08 3.204v.08h1.741v-.08c-.08-.79-.08-2.65-.08-3.204 0-.594.04-2.256.08-2.928v-.08zm1.622.04c.04.672.08 2.294.08 2.927 0 .554 0 2.414-.08 3.205v.079h2.888c1.425 0 2.928-.435 2.928-1.701 0-.792-.554-1.385-1.661-1.702.79-.198 1.345-.751 1.345-1.385 0-1.028-1.187-1.424-2.295-1.463H53.67zm2.255.632c1.227 0 1.662.238 1.662.91a.76.76 0 0 1-.158.475c-.237.277-.673.435-1.266.396h-.04l-.316.87h.356c.672-.04 1.226.198 1.543.554a.945.945 0 0 1 .198.554c0 .712-.594 1.068-1.78 1.068h-.753c-.04-.91-.04-2.176-.04-2.532 0-.435 0-1.424.04-2.255.12 0 .357-.04.554-.04zm7.835-.672h-1.187v.04c-.357.949-2.533 5.736-2.73 6.132l-.04.079h1.503v-.04c.12-.435.277-.91.475-1.424h2.493c.277.673.475 1.187.554 1.424v.04h1.74zm-.713 1.82c.159.277.475 1.147.91 2.097h-1.78c.277-.752.593-1.464.87-2.097zm4.036-.198c0 1.108 1.108 1.543 2.097 1.938.752.317 1.543.634 1.543 1.148 0 .158-.04.277-.119.396-.197.197-.553.316-1.147.277a5.204 5.204 0 0 1-1.939-.554l-.316-.159v1.346l.198.04.118.039c.356.079 1.069.237 1.78.237 1.82 0 2.929-.712 2.929-1.939 0-1.107-1.148-1.582-2.137-1.978-.752-.277-1.503-.593-1.503-1.068 0-.158 0-.554.95-.554.711 0 1.384.277 1.78.435l.356.158V29.76l-.356-.08c-.356-.079-.95-.197-1.543-.197-1.623.04-2.69.79-2.69 1.899z" style="stroke-width:.395662" transform="matrix(1.13478 0 0 1.13477 -5.077 -12.617)"/></svg>
