<svg version="1.2" viewBox="0 0 80 40" height="40pt" width="80pt" xmlns="http://www.w3.org/2000/svg"><path style="fill:#143f7f;fill-opacity:1;fill-rule:nonzero;stroke:none;stroke-width:.749526" d="M22.948 34.733v-4.46c0-1.639-.582-2.38-1.803-2.38-1.057 0-1.886.712-1.886 2.38v4.46H18.17v-9.975l1.09-.612v3.894c.435-.641 1.147-1.09 2.104-1.09 1.614 0 2.67.943 2.67 3.136v4.647zM30.192 34.733v-.931c-.536.582-1.291 1.089-2.38 1.089-1.192 0-2.442-.594-2.442-2.439 0-1.713 1.41-2.439 2.919-2.439.77 0 1.452.188 1.903.436v-.898c0-1.133-.536-1.687-1.654-1.687-.8 0-1.453.217-2.08.583l-.403-.887c.667-.363 1.566-.61 2.553-.61 1.642 0 2.673.697 2.673 2.469v5.314zm0-3.414c-.495-.275-1.03-.433-1.959-.433-1.118 0-1.789.535-1.789 1.496 0 1.13.627 1.625 1.555 1.625.986 0 1.727-.51 2.193-1.148zM37.915 34.733v-4.46c0-1.639-.58-2.38-1.8-2.38-1.06 0-1.886.712-1.886 2.38v4.46H33.14v-7.624h1.09v.93c.435-.64 1.144-1.088 2.104-1.088 1.61 0 2.67.942 2.67 3.135v4.647zM45.408 34.733v-.931c-.536.582-1.262 1.089-2.293 1.089-1.525 0-2.731-1.16-2.731-3.847 0-2.7 1.276-4.093 2.875-4.093.957 0 1.613.407 2.149 1.016v-3.21l1.089-.611v10.587zm0-5.692c-.422-.641-1.163-1.148-2.062-1.148-1.264 0-1.888 1.09-1.888 3.136 0 1.918.726 2.92 1.932 2.92.814 0 1.482-.437 2.018-1.105zM48.617 34.733v-9.975l1.089-.612v10.587zM54.627 34.89c-1.856 0-3.282-1.378-3.282-3.96 0-2.586 1.482-3.982 3.341-3.982 1.86 0 3.282 1.338 3.282 3.923s-1.481 4.02-3.34 4.02m.029-6.998c-1.32 0-2.208 1.002-2.208 3.007 0 2.003.887 3.048 2.208 3.048 1.323 0 2.222-1.045 2.222-3.048 0-2.005-.899-3.007-2.222-3.007M65.794 34.733h-1.001l-1.38-5.112c-.072-.26-.19-.797-.233-1.075-.044.278-.158.814-.232 1.075l-1.379 5.112h-.975l-2.017-7.624h1.118l1.192 5.039c.059.26.158.799.217 1.074.058-.275.175-.814.246-1.074l1.364-5.04h.99l1.364 5.04c.073.26.187.799.246 1.074.059-.275.161-.814.22-1.074l1.188-5.04h1.09zM71.398 37.42h-1.092l1.048-2.775-2.714-7.536h1.145l1.859 5.533.263.785.261-.77 1.874-5.548h1.148zm0 0" transform="matrix(1.0869 0 0 1.0869 -10.736 -5.794)"/><g><path style="fill:#eb1923;fill-opacity:1;fill-rule:nonzero;stroke:none;stroke-width:.749526" d="M19.154 15.886c-1.303-1.955-3.713-3.331-6.286-3.331-2.533 0-4.94 1.338-6.29 3.331H8.38c1.227-1.261 2.817-1.95 4.489-1.95 1.642 0 3.261.689 4.488 1.95zm0 0" transform="matrix(1.0869 0 0 1.0869 9.013 -8.524)"/><path style="fill:#143f7f;fill-opacity:1;fill-rule:nonzero;stroke:none;stroke-width:.749526" d="m5.838 22.512-.035.032c-.55.565-1.192.864-1.85.864-1.377 0-2.375-1.034-2.375-2.456 0-1.423.998-2.46 2.375-2.46.658 0 1.3.302 1.85.864l.035.035.887-1.069-.023-.029C5.967 17.421 5.082 17 3.996 17c-1.092 0-2.087.366-2.807 1.025C.409 18.747 0 19.754 0 20.952c0 1.194.41 2.207 1.189 2.924.72.662 1.715 1.028 2.807 1.028 1.087 0 1.97-.424 2.706-1.294l.023-.03zM7.618 24.758h1.564V17.13H7.618zM15.313 23.098c-.42.251-.809.383-1.157.383-.506 0-.732-.266-.732-.864v-4.049h1.59v-1.437h-1.59v-2.378l-1.537.82v1.558h-1.32v1.437h1.32v4.31c0 1.174.7 1.976 1.736 1.997.706.012 1.13-.196 1.388-.352l.015-.011.377-1.47zM16.607 24.758h1.563V17.13h-1.563zm0 0" transform="matrix(1.0869 0 0 1.0869 9.013 -8.524)"/></g></svg>