<svg width="80" height="40" viewBox="0 0 18.432 9.218" xmlns="http://www.w3.org/2000/svg"><path fill="#29756e" d="m2.693 5.162.04-.004.043-.006.1-.013.111-.024.113-.025.111-.032.115-.034.116-.04.087-.029.036-.017.035-.021.03-.028.027-.03.021-.036.553-1.16.885 2.205.01.026.016.023.019.022.021.017.026.015.025.008.028.007h.028l.753.002-1.378-2.955h-.815z" style="stroke-width:.0296275" transform="matrix(1.08034 0 0 1.08034 -.798 .014)"/><path fill="#b01e24" d="M6.554 3.21v-.533l-1.346.734-.013.006-.028.011-.03.009H5.11l-.024-.005-.025-.008-.022-.009-.008-.004.01.034.022.068.028.07.036.071.043.064.044.053.043.039.038.021.037.009h.036l.034-.005.026-.008.02-.009.01-.006z" style="stroke-width:.0296275" transform="matrix(1.08034 0 0 1.08034 -.798 .014)"/><path d="M9.252 5.04h-.015l-.012.003-.013.002-.009.004-.01.007-.009.006-.008.009-.007.01-.102.173h.463v.305l-.037.01-.032.01-.03.006-.031.006-.03.006-.04.005-.033.004-.027.002h-.092l-.032-.004L9.1 5.6l-.028-.005-.028-.006-.027-.006-.028-.009-.026-.01-.032-.018-.025-.015-.021-.017-.022-.017-.021-.019-.02-.02-.019-.02-.015-.024-.019-.032-.012-.026-.011-.027-.009-.028-.006-.028-.006-.03-.005-.027-.002-.03V5.1l.004-.027.007-.026.008-.028.009-.025.01-.026.013-.025.011-.015.017-.024.02-.021.018-.022.022-.019.021-.017.03-.019.026-.015.027-.015.03-.01.028-.011.04-.01.032-.007.032-.004.03-.005.032-.002.032-.002.032-.002h.03l.032.002.032.002.032.004.032.005.032.004.032.006.032.005.032.006.032.009.032.006.032.008.03.009.032.009.015.004V4.58l-.036-.01-.03-.011-.032-.009-.032-.006-.03-.007-.032-.006-.032-.006-.058-.009-.032-.004-.032-.005-.032-.002-.032-.002-.03-.002h-.162l-.032.002-.032.002-.032.005-.03.004-.03.004-.031.009-.03.008-.04.01-.03.01-.028.01-.03.013-.026.013-.028.012-.025.018-.026.014-.03.022-.023.019-.024.02-.02.02-.022.024-.022.021-.017.024-.017.025-.017.026-.015.026-.019.036-.01.025-.011.03-.01.028-.007.03-.009.03-.004.03-.004.03-.002.038v.06l.004.03.004.031.004.03.009.03.006.03.011.028.01.028.016.032.012.027.015.026.015.025.017.026.02.024.017.023.02.021.027.024.025.019.026.017.027.017.028.015.028.015.028.015.03.01.027.013.03.011.034.01.032.007.032.006.032.005.032.004.032.004.034.002.03.005.034.002h.032l.056.002.032-.002h.03l.032-.002.034-.002.032-.003.032-.004.032-.004.032-.004.034-.003.03-.006.032-.004.032-.007.032-.006.032-.004.032-.009.032-.008.032-.007.032-.008.027-.009v-.68zm1.272-2.03.023.002.028.006.021.007.017.006.02.01.015.012.014.012.015.015.015.02.009.019.008.017.005.019.004.021v.03l-.002.02-.004.016-.007.02-.01.017-.013.017-.013.017-.021.019-.02.013-.021.01-.021.007-.022.008-.021.005-.023.002h-.212l-.01.002-.013.004-.009.002-.01.007-.009.008-.006.009-.005.004-.096.175.303-.002.308.459h.362l-.352-.536.03-.008.026-.011.025-.013.034-.017.024-.015.021-.015.022-.017.019-.02.017-.02.021-.028.015-.021.013-.024.008-.023.009-.022.006-.023.002-.028.003-.026V3.16l-.003-.025-.004-.026-.006-.026-.009-.025-.008-.026-.013-.025-.015-.024-.017-.023-.017-.022-.02-.019-.018-.019-.022-.017-.023-.017-.024-.013-.025-.013-.026-.01-.026-.009-.025-.008-.028-.007-.028-.002-.027-.002-.028-.002-.024.002h-.9v1.243h.324V3.01l.45-.002zm1.54-.286.177-.205h-.303l-.1.205zm3.328 1.325h.326V3.025h.365l.01-.002.013-.002.009-.003.008-.004.007-.004.004-.006.006-.007.003-.006.004-.009.002-.004.002-.002.06-.169h-1.173l-.011.005-.008.002-.009.006-.008.006-.007.007-.006.008-.005.009-.002.004-.083.17h.493zM11.123 5.23l.026-.009.025-.009.024-.012.032-.017.021-.013.02-.017.019-.017.017-.02.015-.02.015-.022.012-.024.009-.025.008-.026.007-.025.004-.028.002-.028v-.023l-.002-.028-.004-.026-.005-.025-.008-.026-.009-.023-.012-.026-.011-.017-.015-.023-.017-.022-.02-.019-.018-.02-.032-.023-.026-.015-.026-.012-.027-.013-.045-.015-.03-.009-.032-.006-.03-.006-.03-.005-.032-.004-.032-.002-.032-.002h-.795v1.246h.326v-1.02h.435l.015.002.021.002.022.004.019.007.026.013.017.008.012.01.013.011.013.02.009.017.008.019.007.02.004.016.002.017v.01l-.002.018-.002.02-.007.014-.008.02-.01.018-.014.015-.021.024-.02.01-.018.013-.02.009-.023.008-.021.005-.022.004h-.209l-.008.002-.009.004-.01.005-.009.004-.008.006-.009.007-.006.006-.007.006-.004.01-.085.159h.283l.327.457h.354l-.357-.536zm-3.801-.704-.634 1.248h.35l.13-.282h.38l.015-.004.015-.005.013-.006.012-.009.011-.01.01-.01.01-.014.001-.004.099-.162H7.27l.26-.546L8 5.77h.336l-.576-1.243zm7.432-1.724h-.318v1.246h.318zm-6.35 1.064.023.022.023.019.024.02.025.016.026.017.026.017.027.015.028.013.021.009.03.008.03.01.03.01.032.008.03.006.032.005.03.006.038.004.032.002.032.003h.032l.032.002h.032l.032-.002.047-.003.032-.002.032-.002.03-.004.032-.004.03-.007.03-.006.032-.007.03-.006.031-.01.03-.007.03-.01.03-.011.024-.007v-.234l-.013.006-.03.01-.03.013-.03.009-.03.01-.03.01-.032.006-.044.008-.028.004-.032.005-.03.004-.03.002-.032.002h-.064l-.03.002L9 3.846l-.03-.002-.028-.004-.03-.007-.028-.008-.032-.009-.025-.008-.026-.01-.023-.014-.024-.015-.021-.015-.021-.017-.028-.025-.017-.022-.017-.02-.017-.024-.013-.024-.01-.025-.011-.026-.011-.04-.007-.028-.004-.03v-.086l.004-.027.007-.04.006-.026.009-.028.008-.026.013-.023.013-.024.021-.03.02-.02.019-.02.023-.02.021-.016.024-.017.038-.022.026-.012.03-.011.028-.009.03-.008.04-.009.03-.002.032-.004h.094l.044.002.032.002.032.004.032.005.028.004.032.006.03.007.032.008.03.007.03.01.03.009.015.006.036.01.002-.232-.02-.004-.03-.008-.029-.011-.032-.009-.03-.006-.032-.009-.03-.006-.032-.006-.036-.007-.032-.004-.03-.004-.032-.005-.032-.002-.032-.002h-.124l-.03.002-.031.002-.032.005-.03.004-.03.006-.03.007-.03.008-.03.009-.034.01-.028.011-.027.01-.03.014-.026.015-.028.014-.025.015-.026.017-.023.02-.024.019-.021.02-.021.02-.022.022-.019.023-.019.024-.017.025-.017.024-.013.027-.015.026-.017.04-.01.028-.01.028-.008.03-.006.03-.007.03-.002.042-.002.03v.06l.005.03.004.03.004.03.009.027.008.03.015.043.013.027.013.026.015.028.015.025.017.024.017.023.019.026zm3.282 1.908h.329V4.53h-.326zM15.61 4.53h-.305v1.244h.97l.095-.222h-.76zm-2.967-.7h-.996v-.817h.95l-.08-.213H11.33v1.244h1.205zm4.565 1.717h-.403v-.804h.95l-.076-.217h-1.2v1.245h1.226l.098-.224z" style="stroke-width:.0296275" transform="matrix(1.08034 0 0 1.08034 -.798 .014)"/><path d="m17.034 5.03-.008.002h-.01l-.014.002-.01.005-.009.006-.01.006-.01.009-.001.004-.124.184h.544l.008-.002.011-.003.01-.004.012-.004.008-.007.009-.008.004-.006.132-.184zm-1.85.081-.001-.03-.005-.023-.004-.03L15.168 5l-.009-.03-.008-.027-.013-.028-.01-.028-.016-.026-.015-.025-.019-.026-.019-.023-.02-.024-.02-.023-.022-.021-.023-.022-.024-.019-.028-.02-.025-.016-.028-.017-.028-.015-.03-.013-.027-.015-.028-.01-.03-.011-.03-.011-.03-.008-.03-.009-.031-.006-.03-.007-.032-.006-.032-.002-.03-.002-.03-.003h-.028l-.01-.002h-.015l-.026.002h-.026l-.03.003-.03.002-.031.002-.03.004-.032.006-.03.007-.03.006-.03.009-.03.008-.027.011-.028.013-.03.013-.026.012-.03.02-.023.015-.025.019-.024.019-.023.02-.022.02-.021.024-.02.021-.02.028-.018.024-.017.025-.015.026-.013.027-.01.028-.013.028-.008.03-.01.04-.005.03-.004.032-.005.03v.085l.005.032.002.03.006.03.006.03.007.028.01.032.011.03.013.027.013.026.015.028.017.025.025.039.02.023.02.021.022.024.022.021.023.02.028.02.025.018.026.015.028.017.027.013.03.015.028.01.03.013.04.01.03.01.032.006.032.006.03.004.032.005.03.002.032.004h.032l.028.002h.034l.032-.002.032-.002.032-.002.03-.005.051-.008.03-.006.03-.007.03-.008.03-.009.03-.013.027-.01.028-.013.04-.022.028-.015.026-.014.023-.017.024-.02.023-.019.021-.021.022-.022.028-.034.017-.025.017-.026.015-.028.012-.025.013-.028.01-.03.011-.028.007-.03.008-.03.005-.03.004-.029.004-.032.002-.03v-.017l-.002-.03zm-.349.053v.026l-.002.03-.004.03-.005.023-.006.03-.007.03-.01.028-.01.027-.012.028-.014.028-.015.023-.02.022-.019.019-.019.02-.021.018-.026.015-.023.015-.026.01-.025.01-.026.008-.026.006-.04.007-.03.002h-.055l-.03-.004-.028-.005-.028-.006-.028-.009-.027-.008-.028-.01-.032-.018-.024-.015-.02-.017-.022-.02-.02-.018-.03-.037-.014-.021-.013-.023-.013-.026-.01-.026-.011-.027-.009-.028-.006-.028-.006-.04-.005-.03v-.058l.005-.036.004-.032.004-.03.006-.028.009-.03.01-.025.011-.028.015-.023.013-.026.02-.021.016-.022.02-.019.02-.017.033-.023.023-.013.026-.013.025-.01.026-.01.026-.006.042-.006.04-.004h.028l.013-.002.043.004.051.008.026.007.027.008.026.011.024.01.025.016.021.014.022.018.021.019.02.019.019.021.014.024.015.023.011.026.01.025.011.026.007.026.004.02.004.03.005.03.004.028v.03zm-2.944-1.853h-.01l-.013.002-.015.002-.01.006-.014.005-.008.008-.01.01-.133.18h.527l.013-.002.012-.002.011-.005.013-.006.01-.008.01-.007.008-.01.006-.007.115-.166zm1.803.712.042-.01.03-.011.028-.01.028-.011.027-.015.043-.024.026-.015.023-.015.026-.017.021-.019.021-.021.02-.02.025-.03.017-.023.015-.023.015-.026.015-.028.01-.027.014-.032.006-.032.008-.03.007-.03.004-.03.002-.03.002-.032.002-.027.003-.028v-.024l-.003-.027-.004-.03-.004-.03-.007-.028-.008-.03-.009-.028-.01-.027-.013-.028-.013-.026-.015-.025-.017-.026-.021-.03-.02-.023-.02-.021-.022-.022-.024-.019-.023-.015-.023-.017-.024-.015-.025-.015-.024-.013-.026-.013-.025-.01-.028-.01-.025-.01-.028-.008-.026-.008-.028-.007-.027-.006-.028-.004-.026-.005-.027-.002-.026-.002-.028-.002h-.008l-.017.002h-.66v1.244h.73l.03-.002.03-.005.03-.004.032-.006zm-.077-.211-.026.009-.025.006-.026.004-.025.004h-.382V3.01h.313l.03.002h.013l.015.002.026.007.027.006.026.008.025.011.026.013.023.013.024.015.023.017.02.019.017.015.019.021.015.022.015.023.01.023.013.026.009.024.006.027.004.017.007.028.004.028v.079l-.004.028-.005.027-.008.028-.006.023-.009.028-.01.028-.013.026-.015.025-.015.026-.017.023-.017.022-.018.019-.02.015-.022.015-.024.012zm-.128 1.694-.024.008-.032.009-.03.008-.031.009-.032.006-.03.007-.032.006-.032.002-.028.005-.032.004-.03.002-.03.002h-.032l-.03-.002-.032-.002-.04-.002-.028-.005-.03-.004-.025-.006-.028-.011-.026-.008-.03-.015-.025-.013-.021-.015-.024-.015-.021-.017-.026-.028-.017-.021-.017-.022-.015-.023-.013-.023-.01-.026-.013-.043-.007-.03-.002-.03-.002-.027v-.03l.002-.03.002-.028.005-.027.004-.028.008-.026.009-.025.01-.024.018-.03.015-.023.017-.024.019-.019.02-.019.02-.02.024-.016.025-.015.026-.013.028-.013.028-.01.027-.009.032-.006.03-.005.03-.004.032-.002.03-.002.04.002.03.002.034.004.032.002.03.007.032.004.032.007.03.008.032.009.03.008.032.009.03.01.03.011h.002l.034.013v-.24l-.01-.003-.024-.009-.007-.002-.03-.01-.031-.011-.03-.009-.039-.008-.03-.007-.032-.006-.032-.004-.032-.005-.061-.006-.032-.002-.032-.002-.032-.003-.039-.002h-.062l-.032.002-.032.003-.049.006-.032.004-.03.007-.03.006-.03.009-.027.01-.038.015-.028.01-.028.016-.026.015-.027.015-.024.017-.03.023-.023.02-.021.019-.024.02-.019.024-.02.024-.027.034-.017.028-.015.025-.015.028-.01.028-.011.021-.01.03-.01.028-.006.03-.006.03-.007.048-.002.03v.06l.002.038.005.03.006.03.007.03.006.03.015.038.01.028.013.028.015.025.015.028.022.034.019.024.019.023.02.024.023.021.03.026.023.019.025.019.026.015.03.02.028.012.03.013.03.01.027.011.03.009.06.012.032.005.032.004.032.004.032.002.049.002.032.003h.064l.032-.003h.032l.034-.004.03-.002.028-.002.032-.004.032-.005.032-.006.03-.006.031-.009.032-.009.03-.008.03-.009.013-.004.002-.002.034-.01.002-.233-.032.013z" style="stroke-width:.0296275" transform="matrix(1.08034 0 0 1.08034 -.798 .014)"/><path fill="#4284b5" d="M6.554 4.102v-.631l-.444.251-.429.241-.4.222-.365.199-.329.175-.294.151-.269.13-.241.109-.226.096-.216.079-.213.07-.207.06-.207.05-.2.042-.19.032-.18.025-.16.017-.142.009-.12.006-.104-.004-.158-.017-.109-.026-.079-.032-.064-.042-.051-.05-.04-.057-.024-.064-.009-.075.009-.09.032-.102.051-.11.068-.114.086-.113.096-.108.098-.1.1-.088.109-.085.122-.092.125-.083.122-.075.126-.07.13-.067.13-.057.132-.053.126-.043.118-.036.104-.024.096-.015.096-.004.1.008.054.007-.028-.098-.05-.167-.038-.117-.03-.07-.023-.039-.023-.023-.026-.017-.04-.015L2.992 3l-.092.005-.115.015-.13.027-.135.039-.14.05-.137.059-.13.06-.126.065-.124.07-.126.08-.13.087-.128.092-.113.092-.1.083-.09.085L1.09 4l-.081.098-.075.102-.066.105-.053.113-.043.113-.024.115-.01.111.008.12.022.125.034.126.045.12.05.108.06.096.07.094.082.086.087.074.094.064.105.051.124.045.147.04.158.029.162.017.16.004.153-.009.139-.01.132-.02.132-.023.133-.026.123-.03.122-.03.128-.038.132-.038.133-.043.134-.047.134-.05.135-.054.134-.058.137-.064.145-.07.083-.045.109-.058.149-.08.218-.118.3-.166.4-.22.477-.267z" style="stroke-width:.0296275" transform="matrix(1.08034 0 0 1.08034 -.798 .014)"/></svg>