<svg version="1.0" width="80" height="40" xmlns="http://www.w3.org/2000/svg"><path d="M-180.293 288.224h-1.71v-5.194h1.71c1.81 0 2.779.883 2.779 2.593 0 1.695-.806 2.6-2.779 2.6zm-.123-4.404h-.561v3.613h.548c1.413.03 1.868-.66 1.868-1.803 0-1.257-.654-1.81-1.855-1.81M-175.947 286.033c.028-.475.26-.913.796-.913.52 0 .777.388.756.913zm.827-1.523c-1.366 0-1.84.97-1.84 1.882 0 1.085.545 1.896 1.71 1.932.926.007 1.747-.273 1.803-1.286h-.948c0 .41-.332.676-.719.676-.653 0-.86-.482-.87-1.07l2.617-.008c.078-1.077-.39-2.126-1.753-2.126M-169.164 288.224h-.979l-.006-.59c-.164.467-.619.705-1.177.705-.662 0-1.288-.403-1.294-1.365v-2.335h.99v2.198c-.005.517.196.805.682.812.44 0 .8-.252.8-.948v-2.062h.984v3.585M-167.894 284.653v-.567l.957-.503v1.07h.914v.697h-.914v1.731c0 .352.121.554.48.568.137 0 .26.014.44-.036v.618c-.468.065-1.006.187-1.453-.05-.337-.18-.424-.496-.424-.999v-1.832h-.768v-.697h.768M-162.303 286.68c.158.315.152.732-.044 1.02-.337.516-1.071.646-1.638.632-.805-.05-1.52-.26-1.487-1.222h.979c-.009.417.25.568.623.582.359 0 .718-.122.718-.453 0-.265-.25-.38-.573-.452-.368-.08-.632-.115-1.044-.28-.328-.158-.653-.424-.653-.927 0-.417.325-.733.75-.905.284-.122.637-.158.941-.158.681 0 1.422.237 1.378 1.099h-.92c0-.13-.028-.273-.136-.36-.201-.179-.82-.2-1.013.094-.217.503.452.539 1.193.74.467.108.783.302.926.59M-159.853 284.502c.784 0 1.595.36 1.595 1.344l-.963-.007c0-.46-.251-.74-.725-.718a.882.882 0 0 0-.36.107c-.297.173-.39.654-.39 1.136 0 .51.124 1.005.347 1.185.149.143.415.187.645.143.38-.064.495-.438.504-.761l.942-.007c.012 1.027-.827 1.415-1.703 1.4-1.171-.042-1.71-.804-1.71-1.932 0-1.142.653-1.89 1.818-1.89M-157.5 283.037h.992v2.17c.26-.46.647-.661 1.17-.661.664 0 1.29.495 1.29 1.206v2.472h-.98v-2.199c0-.488-.207-.811-.675-.811-.436 0-.811.287-.811.948v2.062h-.985v-5.187M-152.268 286.033c.028-.475.257-.913.796-.913.518 0 .778.388.756.913zm.827-1.523c-1.366 0-1.84.97-1.84 1.882 0 1.085.546 1.896 1.71 1.932.926.007 1.747-.273 1.803-1.286h-.948c0 .41-.331.676-.718.676-.654 0-.862-.482-.87-1.07l2.616-.008c.078-1.077-.39-2.126-1.753-2.126" style="fill:#0018a8;fill-opacity:1;fill-rule:nonzero;stroke:none;stroke-width:.0894688" transform="matrix(1.5656 0 0 1.5656 311.8 -432.52)"/><g><path d="M-178.727 294.772c-.334.108-.768.151-1.233.151h-1.877v-5.18h1.998c.892 0 1.824.28 1.862 1.28.021.631-.41 1.033-.948 1.213.415.108.752.23.982.618.201.345.217.805.052 1.185a1.37 1.37 0 0 1-.836.733zm-1.112-4.253h-1.013v1.344h1.029c.539 0 .817-.223.817-.661 0-.41-.322-.683-.833-.683zm.102 2.12-1.115-.008v1.523h1.078c.719 0 .948-.352.948-.79 0-.337-.245-.733-.91-.725M-175.592 294.406c-.366-.029-.583-.209-.583-.553.006-.755.964-.676 1.46-.676.02.597-.029 1.214-.877 1.229zm1.818-2.084c0-.732-.79-1.099-1.704-1.092-.87.015-1.502.295-1.514 1.136h.954c-.022-.389.244-.59.597-.597.53 0 .768.244.719.848-.527.029-1.23-.007-1.753.237-.381.18-.675.517-.675 1.056 0 .69.48 1.106 1.183 1.128.505.05 1.078-.173 1.3-.64l.038.525h.855v-2.6M-172.82 291.338h.99v.575c.261-.467.735-.668 1.268-.668.594 0 1.205.345 1.205 1.207v2.471h-.992v-2.198c.006-.467-.223-.812-.675-.812-.446 0-.811.287-.811.948v2.062h-.985v-3.585M-165.888 294.923l-1.509-2.055 1.366-1.53h1.165l-1.416 1.494 1.667 2.091zm-2.512-5.187h.975v5.187h-.975z" style="fill:#0018a8;fill-opacity:1;fill-rule:nonzero;stroke:none;stroke-width:.0894688" transform="matrix(1.5656 0 0 1.5656 311.54 -432.52)"/></g><g><path d="M-159.525 280.73h12.616v12.666h-12.616zm7.666 3-4.928 6.613h2.227l4.947-6.613zm-5.91 7.912h9.104v-9.158h-9.104z" style="fill:#0018a8;fill-opacity:1;fill-rule:nonzero;stroke:none;stroke-width:.0894688" transform="matrix(1.5656 0 0 1.5656 252.292 -429.427)"/></g></svg>