<svg xml:space="preserve" width="80" height="40" xmlns="http://www.w3.org/2000/svg"><path d="M29.785 180.136h.001M29.786 180.15l-.374.03c-.515 0-.942-.265-1.239-.729v.645h-.995v-4.803h1.082l-.002 2.374c0 .965.4 1.496 1.126 1.496l.331-.051.134-.039.037 1.062-.1.016M53.22 178.068l2.114 2.024h-1.328l-1.607-1.616v3.158h-1.08l-.001-6.343 1.08-.002v2.251c.204-.244 1.864-2.247 1.864-2.247h1.376l-2.419 2.775M48.654 180.207c-.648 0-1.152-.258-1.515-.742v.63h-1.004v-4.803h1.08v2.41c0 .968.423 1.545 1.133 1.545.274 0 .48-.073.627-.22.205-.205.304-.56.304-1.083v-2.65h1.08v2.845c0 1.352-.589 2.068-1.705 2.068M24.873 180.093v-2.247c0-.66-.166-1.766-1.277-1.766-.615.038-.856.463-.856 1.515v2.499h-1.054v-2.846c0-1.35.627-2.062 1.813-2.062.574 0 1.085.243 1.4.63v-.524h1.03v4.801h-1.056M34.336 179.51c-.44.441-1.036.675-1.722.675-1.43 0-2.429-1.025-2.429-2.492 0-1.422 1.044-2.493 2.429-2.493 1.38 0 2.421 1.071 2.421 2.493 0 .721-.248 1.367-.699 1.818zm-1.722-3.414c-.908 0-1.321.828-1.321 1.597 0 .774.464 1.596 1.32 1.596.852 0 1.311-.822 1.311-1.596 0-.77-.41-1.597-1.31-1.597M39.601 179.634c-.356.357-.827.538-1.396.538-.62 0-1.09-.197-1.417-.565v2.027h-1.056v-6.34h1.019v.49c.352-.37.881-.596 1.464-.596 1.52 0 2.061 1.386 2.061 2.572 0 .762-.246 1.445-.675 1.874zm-.433-1.982c0-.385-.118-.929-.457-1.275a.943.943 0 0 0-.692-.293c-.846 0-1.231.822-1.231 1.587 0 .773.388 1.605 1.24 1.605a.972.972 0 0 0 .729-.291c.263-.27.41-.714.41-1.228V177.652M45.07 175.293l-.017.123-.036.892v1.913c.001.688-.16 1.183-.49 1.513-.324.326-.808.483-1.476.483a3.108 3.108 0 0 1-1.602-.452l-.035-.022-.02-.054.095-.935.158.135c.324.276.811.447 1.269.446.682 0 .986-.28 1.021-.913l-.785.015c-.846 0-2.28-.359-2.28-1.704 0-1 .664-1.574 1.825-1.574h.002a1.8 1.8 0 0 1 1.341.571v-.438zm-2.297.747c-.408.004-.829.266-.829.694 0 .769 1.08.852 1.545.852l.46-.014v-.375c0-.34-.115-.642-.325-.848-.207-.205-.5-.312-.851-.308M20.755 177.852c0 1.485-.794 2.408-2.074 2.408-1.367 0-2.287-1.009-2.288-2.51 0-1.606.92-2.604 2.4-2.604.598 0 1.096.089 1.522.27l.04.016.026.054v.955l-.158-.086c-.427-.223-.835-.332-1.245-.332-.866 0-1.406.502-1.507 1.367h3.284zm-2.121 1.568c.61 0 .986-.443 1.073-1.234h-2.215c.117.759.544 1.234 1.142 1.234M13.365 174.347a.85.85 0 0 0-.85-.85H5.21a.85.85 0 0 0-.85.85v7.302c0 .47.382.851.85.851h7.305c.47 0 .85-.38.85-.85v-7.303" style="fill:#d91433;fill-opacity:1;fill-rule:evenodd;stroke:none;stroke-width:.0341398" transform="matrix(1.56017 0 0 -1.56017 -6.805 297.707)"/><path d="M8.98 177.075a.718.718 0 0 1 .152-.025.978.978 0 0 1 1.024.922 1.218 1.218 0 0 1-1.152 1.28c-.355.02-.689-.085-.958-.276h-.002c-1.274-.924-.765-3.6 1.686-3.688a2.913 2.913 0 0 1 2.724 1.678l.006.016a3.653 3.653 0 1 0-1.2 3.848l.008-.007a2.912 2.912 0 0 0 1.084-2.24v-.052a2.609 2.609 0 0 0-.273-1.084 2.08 2.08 0 0 0-.827-.882l-.005-.002c-.833-.493-1.941-.295-2.27.509h.003" style="fill:#fff;fill-opacity:1;fill-rule:evenodd;stroke:none;stroke-width:.0341398" transform="matrix(1.56017 0 0 -1.56017 -6.805 297.707)"/></svg>