<svg version="1.1" id="Layer_1" x="0" y="0" xml:space="preserve" width="80" height="40" xmlns="http://www.w3.org/2000/svg"><defs id="defs47"><filter id="Adobe_OpacityMaskFilter-6" filterUnits="userSpaceOnUse" x="71.8" y="17.3" width="4.3" height="16.5"><feColorMatrix type="matrix" values="1 0 0 0 0 0 1 0 0 0 0 0 1 0 0 0 0 0 1 0" id="feColorMatrix1371"/></filter><filter id="Adobe_OpacityMaskFilter_00000165208273705371669920000001440425162164076734_-3" filterUnits="userSpaceOnUse" x="79" y="17.3" width="14.3" height="16.5"><feColorMatrix type="matrix" values="1 0 0 0 0 0 1 0 0 0 0 0 1 0 0 0 0 0 1 0" id="feColorMatrix1382"/></filter></defs><style type="text/css" id="style2">.st0,.st1{fill-rule:evenodd;clip-rule:evenodd;fill:#00b140}.st1{fill:#fff}.st2{filter:url(#Adobe_OpacityMaskFilter)}.st3,.st5{mask:url(#b_00000162324539402943204290000002897888323580828302_);fill-rule:evenodd;clip-rule:evenodd;fill:#fff}.st5{mask:url(#b_00000090974080116550868120000002397445514278903479_)}</style><g id="g1471" transform="translate(12.607 44.173) scale(1.09668)"><g id="g42" transform="matrix(.49135 0 0 .49135 -64.86 15.375)"><g transform="translate(0 .469)" id="g40"><path class="st0" d="M126.2 30.4h3.5c.7 0 1.2-.1 1.7-.4.4-.3.6-.8.6-1.4 0-.7-.2-1.2-.7-1.5-.4-.3-1-.4-1.6-.4h-3.5zm0-6.6h3.3c.2 0 .4 0 .6-.1.2-.1.4-.1.6-.3.2-.1.3-.3.4-.5.1-.2.2-.4.2-.7 0-.6-.2-1-.5-1.3-.4-.2-.8-.3-1.2-.3h-3.3v3.2zm-4.3-6.5h7.7c.7 0 1.4 0 2.1.1.7.1 1.3.3 1.9.6.6.3 1 .7 1.4 1.3.4.5.5 1.2.5 2.1 0 .7-.2 1.4-.6 2-.4.6-.9 1-1.6 1.4.9.3 1.6.7 2.1 1.5.5.7.8 1.5.8 2.5s-.2 1.8-.5 2.5-.8 1.2-1.4 1.6c-.6.4-1.3.7-2 .8-.8.2-1.6.3-2.5.3h-7.9zm20.5 10.4h3.8l-1.8-5.8zm-.3-10.4h4.4l6.2 16.5h-4.5l-1-3h-5.8l-1 3H136z" id="path6"/><path class="st0" id="polygon8" d="m157.9 17.3 5.7 10.2h.1V17.3h4v16.5h-4.4l-5.7-10.3h-.1v10.3h-4V17.3z"/><path class="st0" id="polygon10" d="M174.2 17.3v6.4l5.5-6.4h5.3l-6.1 6.5 6.9 10h-5.4l-4.4-6.9-1.8 1.8v5.1h-4.3V17.3z"/><defs id="defs21"><filter id="Adobe_OpacityMaskFilter" filterUnits="userSpaceOnUse" x="71.8" y="17.3" width="4.3" height="16.5"><feColorMatrix type="matrix" values="1 0 0 0 0 0 1 0 0 0 0 0 1 0 0 0 0 0 1 0" id="feColorMatrix18"/></filter></defs><mask maskUnits="userSpaceOnUse" x="71.8" y="17.3" width="4.3" height="16.5" id="b_00000162324539402943204290000002897888323580828302_"><g class="st2" id="g24"><path id="a_00000162338793489612808270000001766772478768688536_" class="st1" d="M185.8 51.6V-.5H0v52.1z"/></g></mask><defs id="defs32"><filter id="Adobe_OpacityMaskFilter_00000165208273705371669920000001440425162164076734_" filterUnits="userSpaceOnUse" x="79" y="17.3" width="14.3" height="16.5"><feColorMatrix type="matrix" values="1 0 0 0 0 0 1 0 0 0 0 0 1 0 0 0 0 0 1 0" id="feColorMatrix29"/></filter></defs><mask maskUnits="userSpaceOnUse" x="79" y="17.3" width="14.3" height="16.5" id="b_00000090974080116550868120000002397445514278903479_"><g style="filter:url(#Adobe_OpacityMaskFilter_00000165208273705371669920000001440425162164076734_)" id="g35"><path id="a_00000178920361432809683020000013288797296764051369_" class="st1" d="M185.8 51.6V-.5H0v52.1z"/></g></mask></g></g><g id="g93" transform="matrix(.49135 0 0 .49135 -4.964 -.596)"><path class="st0" id="polygon49" d="M81.7 41.8v10.3L117.3 26 81.7 0v10.3H0v31.5z"/><g transform="translate(0 .469)" id="g91"><path class="st1" d="M33.2 33.8h-2.8l-.3-1.8c-.3.4-.6.7-1 1-.4.3-.8.5-1.2.7-.4.2-.8.3-1.2.4-.4.1-.8.1-1.2.1-1.3 0-2.4-.2-3.4-.7-1-.4-1.9-1.1-2.6-1.8-.7-.8-1.3-1.7-1.7-2.7-.4-1-.6-2.2-.6-3.4 0-1.2.2-2.3.6-3.4.4-1 .9-2 1.7-2.7.7-.8 1.6-1.4 2.6-1.8 1-.4 2.1-.7 3.4-.7.8 0 1.7.1 2.6.3.9.2 1.6.6 2.3 1.1.7.5 1.3 1.1 1.7 1.9.5.8.8 1.6.8 2.7h-4.3c-.1-.7-.4-1.3-1-1.7-.6-.4-1.4-.6-2.2-.6-.7 0-1.3.1-1.8.4-.5.3-.9.7-1.2 1.1-.3.5-.5 1-.7 1.6-.1.6-.2 1.2-.2 1.8 0 .6.1 1.2.2 1.8.1.6.4 1.1.7 1.6.3.5.7.8 1.2 1.1.5.3 1.1.4 1.8.4 1.1 0 1.9-.2 2.6-.7.7-.5 1.1-1.1 1.2-1.8h-3v-3.2h6.9v9z" id="path57"/><path class="st1" id="polygon59" d="M48.8 17.3v3.5h-8.9v2.9H48V27h-8.1v3.1H49v3.7H35.6V17.3z"/><path class="st1" id="polygon61" d="M60 21v12.8h-4.4V21h-4.9v-3.7h14.2V21z"/><defs id="defs67"><filter id="filter65" filterUnits="userSpaceOnUse" x="71.8" y="17.3" width="4.3" height="16.5"><feColorMatrix type="matrix" values="1 0 0 0 0 0 1 0 0 0 0 0 1 0 0 0 0 0 1 0" id="feColorMatrix63"/></filter></defs><mask maskUnits="userSpaceOnUse" x="71.8" y="17.3" width="4.3" height="16.5" id="mask73"><g class="st2" id="g71"><path id="polygon69" class="st1" d="M185.8 51.6V-.5H0v52.1z"/></g></mask><path class="st3" mask="url(#b_00000162324539402943204290000002897888323580828302_)" id="polygon75" d="M76.1 33.8V17.3h-4.3v16.5z"/><defs id="defs81"><filter id="filter79" filterUnits="userSpaceOnUse" x="79" y="17.3" width="14.3" height="16.5"><feColorMatrix type="matrix" values="1 0 0 0 0 0 1 0 0 0 0 0 1 0 0 0 0 0 1 0" id="feColorMatrix77"/></filter></defs><mask maskUnits="userSpaceOnUse" x="79" y="17.3" width="14.3" height="16.5" id="mask87"><g style="filter:url(#Adobe_OpacityMaskFilter_00000165208273705371669920000001440425162164076734_)" id="g85"><path id="polygon83" class="st1" d="M185.8 51.6V-.5H0v52.1z"/></g></mask><path class="st5" mask="url(#b_00000090974080116550868120000002397445514278903479_)" id="polygon89" d="M89.2 27.5V17.3h4.1v16.5h-4.5l-5.7-10.3H83v10.3h-4V17.3h4.4z"/></g></g></g><g id="g1395" transform="translate(0 8.784) scale(.43057)"><path class="st0" id="polygon1357" d="M0 10.3v31.5h81.7v10.3L117.3 26 81.7 0v10.3z"/><g transform="translate(0 .469)" id="g1393"><path class="st0" d="M126.2 30.4h3.5c.7 0 1.2-.1 1.7-.4.4-.3.6-.8.6-1.4 0-.7-.2-1.2-.7-1.5-.4-.3-1-.4-1.6-.4h-3.5zm0-6.6h3.3c.2 0 .4 0 .6-.1.2-.1.4-.1.6-.3.2-.1.3-.3.4-.5.1-.2.2-.4.2-.7 0-.6-.2-1-.5-1.3-.4-.2-.8-.3-1.2-.3h-3.3v3.2zm-4.3-6.5h7.7c.7 0 1.4 0 2.1.1.7.1 1.3.3 1.9.6.6.3 1 .7 1.4 1.3.4.5.5 1.2.5 2.1 0 .7-.2 1.4-.6 2-.4.6-.9 1-1.6 1.4.9.3 1.6.7 2.1 1.5.5.7.8 1.5.8 2.5s-.2 1.8-.5 2.5-.8 1.2-1.4 1.6c-.6.4-1.3.7-2 .8-.8.2-1.6.3-2.5.3h-7.9zm20.5 10.4h3.8l-1.8-5.8zm-.3-10.4h4.4l6.2 16.5h-4.5l-1-3h-5.8l-1 3H136z" id="path1359"/><path class="st0" id="polygon1361" d="M163.7 17.3h4v16.5h-4.4l-5.7-10.3h-.1v10.3h-4V17.3h4.4l5.7 10.2h.1z"/><path class="st0" id="polygon1363" d="m185 17.3-6.1 6.5 6.9 10h-5.4l-4.4-6.9-1.8 1.8v5.1h-4.3V17.3h4.3v6.4l5.5-6.4z"/><path class="st1" d="M33.2 33.8h-2.8l-.3-1.8c-.3.4-.6.7-1 1-.4.3-.8.5-1.2.7-.4.2-.8.3-1.2.4-.4.1-.8.1-1.2.1-1.3 0-2.4-.2-3.4-.7-1-.4-1.9-1.1-2.6-1.8-.7-.8-1.3-1.7-1.7-2.7-.4-1-.6-2.2-.6-3.4 0-1.2.2-2.3.6-3.4.4-1 .9-2 1.7-2.7.7-.8 1.6-1.4 2.6-1.8 1-.4 2.1-.7 3.4-.7.8 0 1.7.1 2.6.3.9.2 1.6.6 2.3 1.1.7.5 1.3 1.1 1.7 1.9.5.8.8 1.6.8 2.7h-4.3c-.1-.7-.4-1.3-1-1.7-.6-.4-1.4-.6-2.2-.6-.7 0-1.3.1-1.8.4-.5.3-.9.7-1.2 1.1-.3.5-.5 1-.7 1.6-.1.6-.2 1.2-.2 1.8 0 .6.1 1.2.2 1.8.1.6.4 1.1.7 1.6.3.5.7.8 1.2 1.1.5.3 1.1.4 1.8.4 1.1 0 1.9-.2 2.6-.7.7-.5 1.1-1.1 1.2-1.8h-3v-3.2h6.9v9z" id="path1365"/><path class="st1" id="polygon1367" d="M39.9 23.7H48V27h-8.1v3.1H49v3.7H35.6V17.3h13.2v3.5h-8.9z"/><path class="st1" id="polygon1369" d="M64.9 21H60v12.8h-4.4V21h-4.9v-3.7h14.2z"/><defs id="defs1374"><filter id="filter1416" filterUnits="userSpaceOnUse" x="71.8" y="17.3" width="4.3" height="16.5"><feColorMatrix type="matrix" values="1 0 0 0 0 0 1 0 0 0 0 0 1 0 0 0 0 0 1 0" id="feColorMatrix1414"/></filter></defs><mask maskUnits="userSpaceOnUse" x="71.8" y="17.3" width="4.3" height="16.5" id="b_00000162324539402943204290000002897888323580828302_-7"><g class="st2" id="g1377" style="filter:url(#Adobe_OpacityMaskFilter-6)"><path id="a_00000162338793489612808270000001766772478768688536_-5" class="st1" d="M0 51.6h185.8V-.5H0z"/></g></mask><path class="st3" mask="url(#b_00000162324539402943204290000002897888323580828302_)" id="polygon1380" d="M71.8 33.8h4.3V17.3h-4.3z"/><defs id="defs1385"><filter id="filter1425" filterUnits="userSpaceOnUse" x="79" y="17.3" width="14.3" height="16.5"><feColorMatrix type="matrix" values="1 0 0 0 0 0 1 0 0 0 0 0 1 0 0 0 0 0 1 0" id="feColorMatrix1423"/></filter></defs><mask maskUnits="userSpaceOnUse" x="79" y="17.3" width="14.3" height="16.5" id="b_00000090974080116550868120000002397445514278903479_-5"><g style="filter:url(#Adobe_OpacityMaskFilter_00000165208273705371669920000001440425162164076734_-3)" id="g1388"><path id="a_00000178920361432809683020000013288797296764051369_-6" class="st1" d="M0 51.6h185.8V-.5H0z"/></g></mask><path class="st5" mask="url(#b_00000090974080116550868120000002397445514278903479_)" id="polygon1391" d="M93.3 17.3v16.5h-4.5l-5.7-10.3H83v10.3h-4V17.3h4.4l5.8 10.2V17.3z"/></g></g></svg>