<svg width="80" height="40" xml:space="preserve" xmlns="http://www.w3.org/2000/svg"><g fill="#009de0"><path d="M46.513 14.021h4.247c.636 0 1.196.077 1.678.23.481.154.884.374 1.207.659.324.286.567.627.732 1.025.165.397.248.839.248 1.325 0 .329-.043.622-.129.881a2.418 2.418 0 0 1-.866 1.215c-.195.148-.4.27-.61.367v.03c.265.065.515.173.754.328.239.153.451.344.637.57.184.23.33.496.437.805.105.307.158.646.158 1.016 0 .55-.101 1.041-.303 1.47-.2.429-.486.794-.85 1.096a3.845 3.845 0 0 1-1.313.693 5.649 5.649 0 0 1-1.686.238h-4.342zm3.833 4.906c.573 0 1.033-.125 1.377-.375.345-.25.518-.61.518-1.087 0-.499-.162-.858-.486-1.08-.324-.222-.726-.333-1.202-.333h-1.657v2.875zm.127 5.01c.752 0 1.283-.145 1.59-.436a1.42 1.42 0 0 0 .463-1.073c0-.192-.033-.38-.096-.565a1.296 1.296 0 0 0-.317-.502 1.654 1.654 0 0 0-.573-.357c-.235-.091-.526-.135-.876-.135h-1.768v3.07zM61.018 24.9l-.034.012c-.382.496-.824.834-1.327 1.015-.503.18-.993.269-1.468.269-.318 0-.647-.042-.987-.126a2.791 2.791 0 0 1-.928-.423 2.237 2.237 0 0 1-.684-.77c-.173-.32-.261-.71-.261-1.178 0-.222.032-.468.095-.738.063-.271.211-.528.445-.772.231-.244.581-.459 1.047-.644.465-.185 1.096-.304 1.89-.356l2.113-.128v-.382c0-.489-.14-.852-.423-1.09-.278-.24-.674-.357-1.183-.357-.477 0-.847.11-1.111.328-.265.22-.409.514-.431.889H55.58a3.22 3.22 0 0 1 .229-.98c.133-.333.347-.642.645-.923.295-.28.682-.512 1.159-.692.476-.179 1.076-.271 1.795-.271.51 0 .987.05 1.431.15.447.101.837.258 1.179.468.337.214.606.485.803.819.197.332.295.732.295 1.199v4.73a4.608 4.608 0 0 0 .108 1.021h-2.206V24.9zm-.097-2.483-1.908.174c-.53.053-.894.159-1.095.319-.203.157-.304.386-.304.683 0 .18.04.33.12.452.079.122.181.22.309.295.126.074.277.127.453.16.175.03.355.046.547.046.18 0 .38-.026.595-.079.217-.053.423-.135.613-.246.192-.112.35-.256.477-.43.126-.174.192-.382.192-.627zM69.274 21c0-.299-.04-.547-.119-.749-.08-.2-.188-.362-.326-.484a1.266 1.266 0 0 0-.46-.263 1.762 1.762 0 0 0-.525-.08c-.464 0-.83.179-1.095.534-.265.355-.399.811-.399 1.373v4.637h-2.283v-8.17h2.187v1.071h.039c.339-.497.708-.837 1.112-1.017.4-.178.835-.27 1.3-.27.488 0 .912.074 1.27.224.358.146.658.352.897.61.237.26.411.562.523.907.11.344.167.712.167 1.104v5.543h-2.286V21h-.002zM74.77 21.968l-.034-.003v4.004h-2.283V14.02h2.283v7.357h.034l2.465-3.58 2.652.006-2.732 3.681L80 25.969h-2.813zM5.599 16.596a2.8 2.8 0 1 1-5.598 0 2.8 2.8 0 0 1 5.598 0m6.805 0a2.798 2.798 0 1 0-5.596-.001 2.798 2.798 0 0 0 5.596.001m-6.805 6.808A2.8 2.8 0 1 0 0 23.408a2.8 2.8 0 0 0 5.599-.004m6.805 0a2.798 2.798 0 1 0-5.596 0 2.798 2.798 0 0 0 5.596 0M14.86 14.021h2.384v11.948H14.86zm9.734 10.8-.036.006c-.329.489-.72.837-1.175 1.05a3.46 3.46 0 0 1-1.478.317c-.573 0-1.092-.119-1.558-.357a3.795 3.795 0 0 1-1.2-.953 4.4 4.4 0 0 1-.78-1.375 4.825 4.825 0 0 1-.277-1.636c0-.572.088-1.116.262-1.628.176-.515.424-.97.749-1.366a3.53 3.53 0 0 1 1.184-.946c.464-.233.994-.35 1.588-.35.53 0 .998.096 1.407.287.41.19.803.541 1.185 1.05h.031V14.02h2.285v11.948h-2.186zm-.02-2.917c0-.306-.041-.603-.127-.888a2.272 2.272 0 0 0-.39-.762 1.92 1.92 0 0 0-.651-.531c-.26-.132-.569-.198-.93-.198a1.76 1.76 0 0 0-.866.205 2.015 2.015 0 0 0-.627.541 2.339 2.339 0 0 0-.382.77 3.22 3.22 0 0 0-.127.897c0 .318.046.622.135.913.092.292.223.548.398.77.174.223.389.399.643.531.255.133.551.198.891.198.328 0 .617-.063.866-.19.248-.127.46-.302.636-.525.173-.222.305-.481.397-.777.089-.297.135-.614.135-.954zm5.29.63c.02.246.077.483.167.711.09.227.212.43.365.606.154.173.345.318.57.43.23.112.497.167.806.167.348 0 .669-.082.96-.246.291-.164.516-.406.676-.724l2.224.174c-.275.837-.764 1.469-1.47 1.898-.703.43-1.538.643-2.502.643-.615 0-1.178-.1-1.692-.302a3.685 3.685 0 0 1-1.32-.867 4.016 4.016 0 0 1-.857-1.35c-.207-.524-.31-1.115-.31-1.772 0-.656.103-1.253.31-1.786a3.99 3.99 0 0 1 .858-1.367 3.683 3.683 0 0 1 1.319-.865 4.61 4.61 0 0 1 1.692-.304c.615 0 1.178.1 1.693.304.513.199.954.488 1.319.863.364.377.65.831.858 1.365.206.536.309 1.132.309 1.787v.634zm3.686-1.46c-.02-.2-.074-.405-.157-.611a2.048 2.048 0 0 0-.352-.564 1.706 1.706 0 0 0-.54-.412 1.612 1.612 0 0 0-.73-.16 1.96 1.96 0 0 0-.78.144 1.814 1.814 0 0 0-.57.38 1.72 1.72 0 0 0-.375.556c-.09.212-.15.436-.183.668zm8.496 3.826-.035.012c-.382.496-.824.834-1.327 1.015-.503.18-.992.269-1.47.269-.316 0-.645-.042-.984-.126a2.794 2.794 0 0 1-.93-.423 2.237 2.237 0 0 1-.683-.77c-.173-.32-.261-.71-.261-1.178 0-.222.032-.468.095-.738.063-.271.21-.528.444-.772.233-.244.582-.459 1.05-.644.464-.185 1.094-.304 1.889-.356l2.111-.128v-.382c0-.489-.14-.852-.42-1.09-.28-.24-.675-.358-1.183-.358-.477 0-.848.11-1.113.328-.264.219-.407.514-.429.888h-2.192c.021-.318.099-.646.231-.979.132-.333.346-.643.644-.923.297-.28.682-.512 1.16-.693.476-.178 1.074-.27 1.795-.27.51 0 .986.05 1.43.15.447.1.838.257 1.178.468.34.214.607.485.804.819.197.331.296.732.296 1.199v4.73a4.62 4.62 0 0 0 .108 1.02h-2.207zm-.099-2.483-1.906.174c-.53.053-.896.159-1.097.319-.202.157-.302.386-.302.683 0 .18.039.33.119.452.079.122.182.22.31.295.126.074.277.127.453.16.175.03.358.046.547.046a2.513 2.513 0 0 0 1.207-.325c.192-.112.35-.256.477-.43.128-.174.192-.382.192-.627z"/></g></svg>