<svg width="80" height="40" xmlns="http://www.w3.org/2000/svg"><path d="M274.253 488.378h998.969v231.486H274.253z" style="fill:#c60052;fill-opacity:1;fill-rule:nonzero;stroke:none" transform="translate(-21.962 -28.363) scale(.08008)"/><path d="M401.426 17.277v9.997c-.063 8.067-5.526 10.134-12.726 10.134l-4.339-.402-4.46-6.666c2.996 1.404 5.667 2.667 9.066 2.667 2.466 0 6.399-1.068 6.399-4.263 0-7.263-19.933-1.533-19.933-13.933 0-5.532 4.668-9.792 11.4-9.792 1.138 0 2.335.13 3.463.33l3.936 4.998c-1.602-.465-3.198-.933-4.8-.933-3.535 0-7.267 1.335-7.267 5.467 0 4.065 3.6 4.8 6.802 5.532 2.196.534 4.46 1.068 6.399 2.067V11.95c0-5.335 4.401-6.667 8.79-6.93l2.934 4.394c-5.526.603-5.664 2.598-5.664 7.863m24.9 20.131c-4.333 0-7.069-1.932-9.394-5.133v4.263h-6.063V5.88h6.05l.013 19.129c0 3.936 1 7.998 7.06 7.998 6.069 0 8.067-3.666 8.067-10.794l.006-16.333h6.057v16.996c0 3.135.198 7.266-1.662 9.933-2.136 3.129-6.4 4.6-10.135 4.6m45.609-.87h-6.06L454.14 23.013S465.311 7.862 466.782 5.88h7.91c-2.41 3.085-13.892 17.797-13.892 17.797zM-187.45 53.35v-3.685h530.557V5.943c3.267-.468 5.614-.924 10.147-.924 12.13 0 19.729 6.73 19.729 17.194 0 9.129-6.396 15.195-13.996 15.195-1.599 0-3.198-.198-4.734-.732l-3.597-5.664c1.8.927 3.465 1.461 5.601 1.461 6.73 0 9.993-4.998 9.993-11.46 0-6.597-4.197-11.332-11.529-11.332-1.866 0-3.735.336-5.535.798v39.187h97.61V5.88h6.069l.006 43.786H611.75v3.685zM24.759 128.82l11.9-.01-.019-62.082H24.712zm31.082 26.8.066-88.996h12.29l.028 89.021zm-102.95-65.887-25.242 59.211c-7.86 18.196-18.912 25.641-27.693 27.743-3.914 1.354-15.274.434-15.274.434s8.555-.434 13.257-4c6.576-4.294 10.66-14.34 8.837-27.95l-7.995-59.195c-1.074-7.257-3.21-19.207-3.21-19.207h11.485s.723 9.132 1.794 17.322l7.656 57.738 25.509-60.556c3.223-7.52 5.105-11.146 11.818-16.248l30.077 76.939 7.653-64.721c.44-4.571.776-10.474.776-10.474H7.232s-1.3 7.79-2.11 14.099l-8.86 65.93c-.27 3.089-.628 8.326-.628 8.326h-18.44v-.138c0-2.818-.94-5.504-2.014-8.325zM86.628 155.62l.063-88.996h12.292l.029 89.021zm41.235-47.26h34.862c-1.483 9.465-7.703 13.916-17.433 13.916-9.05 0-15.808-5.4-17.429-13.917m-.54-7.832c.27-16.49 11.755-26.083 27.026-26.083 8.105 0 15.944 2.3 22.16 7.165h.406l-6.754-12.707c-5.812-2.428-12.3-3.374-18.652-3.374-22.97 0-38.781 14.457-38.781 33.24 0 18.78 13.65 32.433 33.78 32.433 18.381 0 30.947-13.248 30.407-30.674zm204.522 28.224-.05-62.102h11.928l.019 62.096zm-143.583.11V66.7l12.425-.007v38.785c0 7.977 2.02 16.22 14.319 16.22 12.295 0 16.345-7.433 16.345-21.89l-.022-33.137h12.327l-.006 34.488c0 6.349.409 14.727-3.374 20.134-4.326 6.349-12.974 9.324-20.545 9.324-8.78 0-14.316-3.918-19.047-10.405l.006 8.633zm214.766.188.022-35.948c0-10.405-6.487-17.702-15.409-17.702-11.756 0-15.27 7.7-15.27 20.13v33.51l-12.422.01.113-35.813c0-19.05 7.58-28.11 23.526-28.11 9.456 0 14.596 3.113 19.462 10.542v-8.783h12.302l-.006 62.142zm29.647-.166.075-62.161h12.359V102.4c0 12.971 5 19.323 15.27 19.323 8.376 0 15.4-7.162 15.4-21.353l.016-33.648h12.28l.006 34.59c0 12.708 3.377 20.411 15.538 20.411 10.813 0 15.136-8.783 15.136-22.572l-.094-32.43h12.43l-.04 35.81c0 17.163-4.995 28.108-24.187 28.108-10.005 0-16.351-4.458-21.623-11.756-5.001 7.973-11.485 11.756-21.08 11.756-9.053 0-14.325-3.374-19.053-10.675v8.897zm-174.163-.022.003-62.161h12.422l-.003 38.778c0 7.977 2.023 16.22 14.319 16.22 12.302 0 16.355-7.433 16.355-21.89l-.029-33.137h12.334l-.006 34.488c0 6.349.408 14.727-3.377 20.134-4.33 6.349-12.975 9.324-20.543 9.324-8.78 0-14.325-3.918-19.053-10.405l.006 8.633zM21.793 145.294a8.072 8.072 0 0 1 8.074-8.07 8.07 8.07 0 0 1 8.07 8.07 8.068 8.068 0 0 1-8.07 8.074 8.071 8.071 0 0 1-8.074-8.074m307.667 0a8.07 8.07 0 0 1 8.074-8.07 8.07 8.07 0 0 1 8.07 8.07 8.068 8.068 0 0 1-8.07 8.074 8.07 8.07 0 0 1-8.074-8.074" style="fill:#fff;fill-opacity:1;fill-rule:nonzero;stroke:none" transform="matrix(.1001 0 0 -.1001 18.764 28.476)"/></svg>