<svg width="80pt" height="40pt" viewBox="0 0 80 40" xmlns="http://www.w3.org/2000/svg"><path style="fill:#a37f51;fill-opacity:1;fill-rule:evenodd;stroke:none" d="m146.496 72.871-.027.027-.028.036-.027.05-.02.059-.015.066-.02.075-.019.086-.016.101-.004.008v.031l-.004.016-.004.02v.019l-.004.008-.164-.012.172-2.426.164.012v.203l.008.09.004.078.012.07.016.059.015.05.024.044.027.035.035.02.043.023.055.015.066.012.078.016.09.011.098.012.113.008 3.7.258.113.008.097.007h.09l.078-.004.07-.007.055-.008.047-.016.047-.02.023-.03.028-.036.027-.047.02-.058.02-.067.019-.074.015-.09.02-.097V71.5l.008-.027.004-.02v-.039l.004-.004.16.012-.184 2.64-.023.223-.031.207-.043.188-.055.175-.066.165-.07.144-.09.137-.094.117-.106.105-.117.086-.121.07-.133.063-.137.04-.152.027-.156.011-.172-.004-.145-.015-.136-.024-.133-.039-.125-.047-.117-.058-.11-.07-.105-.079-.098-.09-.098-.101-.085-.105-.07-.118-.067-.125-.063-.136-.05-.145-.043-.152-.036-.16-.015-.09-.012-.102-.008-.113-.004-.125v-.133l.004-.144.008-.157.008-.12.117.007v.09l.016.125.015.117.055.203.035.09.043.082.051.07.098.114.113.101.129.09.14.074.15.059.167.047.176.035.191.02.153.003h.144l.133-.015.125-.028.121-.03.113-.044.102-.055.094-.066.085-.07.075-.086.066-.09.055-.102.047-.109.035-.121.023-.125.016-.137.035-.48-4.387-.309-.113-.008-.098-.004h-.093l-.075.004-.066.004-.059.012-.05.012zm.8-8.215-.167.059-.152.07-.137.078-.117.09-.106.094-.086.11-.07.116-.059.13-.043.136-.023.148-.016.157.004.168.024.18.074.347.133.293.18.238.238.192.285.129.332.07.387.02.43-.04 2.175-.304.137-.02.125-.023.203-.055.086-.031.07-.031.063-.036.047-.043.039-.046.03-.059.024-.066.02-.079.011-.082.008-.101v-.176l.157-.023.246 1.757-.16.024-.016-.07-.027-.102-.035-.09-.036-.082-.039-.066-.043-.059-.043-.047-.05-.035-.055-.023-.07-.016-.079-.016-.09-.004h-.101l-.113.008-.125.012-.137.016-2.254.316-.258.027-.25.008-.226-.015-.219-.032-.207-.05-.191-.07-.176-.09-.168-.11-.153-.133-.132-.148-.121-.164-.11-.188-.09-.203-.074-.219-.062-.238-.043-.258-.032-.265-.004-.258.02-.235.035-.226.063-.211.086-.195.101-.184.129-.168.117-.125.145-.113.16-.102.18-.09.195-.078.219-.066.242-.055.258-.047 2.449-.344.11-.015.097-.02.086-.015.078-.02.066-.02.051-.019.047-.023.031-.028.028-.035.015-.043.016-.054.011-.06v-.073l.008-.075-.004-.09-.004-.1v-.063l-.004-.016v-.023l.16-.02.337 2.406-.157.02-.008-.024-.004-.02-.004-.01-.004-.017v-.015l-.004-.012-.023-.09-.023-.086-.024-.07-.023-.062-.024-.06-.027-.042-.027-.04-.035-.03-.036-.016-.039-.016-.054-.007-.06-.004h-.136l-.082.007-.094.012-.097.016-2.504.351-.215.036-.203.043zm2.227-8.254-.062-.172-.074-.16-.094-.144-.11-.13-.124-.112-.145-.098-.156-.086-.176-.066-.187-.051-.196-.035-.207-.02h-.215l-.222.016-.235.031-.246.05-.254.067-.296.094-.286.105-.261.118-.246.125-.227.136-.207.149-.191.16-.168.172-.149.18-.117.183-.098.18-.062.191-.04.188-.011.191.012.195.047.196.058.172.074.156.102.14.113.125.137.11.148.094.168.078.188.062.203.047.21.031.22.012.234-.008.242-.02.254-.038.266-.055.273-.074.281-.09.262-.094.246-.113.227-.121.207-.133.195-.14.172-.157.156-.164.13-.176.112-.172.086-.18.059-.183.031-.184.008-.19-.015-.192zm.262.153.067.273.043.27.008.265-.012.266-.043.258-.07.254-.09.25-.125.246-.145.238-.16.21-.18.196-.195.172-.215.152-.226.13-.25.109-.266.09-.176.046-.176.032-.171.027-.172.012-.172.004-.168-.004-.172-.016-.168-.027-.172-.031-.164-.047-.16-.055-.156-.066-.149-.075-.148-.082-.14-.093-.141-.106-.192-.16-.176-.172-.156-.184-.148-.195-.125-.207-.114-.215-.093-.23-.078-.242-.059-.235-.035-.226-.016-.23.008-.227.02-.23.047-.223.066-.23.086-.224.137-.277.16-.254.195-.226.215-.211.238-.176.27-.16.293-.13.316-.109.293-.066.293-.047.277-.012.282.024.273.047.27.074.27.11.26.132.25.16.227.176.204.2.187.214.16.238.14.254.122.278zm-6.125-7.383.285.535.121.188.157.144.175.098.207.047.223.003.246-.046.27-.094.293-.14.238-.141.191-.157.149-.164.105-.172.051-.191.008-.195-.043-.2-.09-.207-.285-.53zm-1.324 3.223-.016-.04-.008-.039-.008-.046.004-.051.008-.051.016-.059.02-.066.03-.07.044-.078.05-.09.063-.11.078-.125.09-.14.101-.153.114-.172.125-.183.742-1.074-.309-.582-1.398.746-.098.054-.09.051-.078.043-.058.043-.055.043-.047.035-.031.04-.024.034-.011.043v.047l.008.055.011.059.02.066.023.074.032.086.039.09.008.012.004.015.004.012.004.02.011.015.008.016-.144.082-1.14-2.145.144-.078.015.02.008.015.008.012.008.016.012.011.008.012.05.082.052.07.05.067.047.05.043.048.04.03.035.024.043.016h.047l.05-.004.055-.016.063-.02.07-.03.082-.04.09-.042.101-.051 3.274-1.742.101-.055.082-.047.078-.05.067-.04.054-.043.043-.039.032-.035.023-.039.012-.035.004-.055-.008-.05-.012-.06-.02-.07-.023-.074-.031-.082-.04-.09-.003-.015-.004-.012-.016-.031-.004-.02-.012-.02.141-.074 1.305 2.446.082.172.07.168.055.164.035.16.023.152.012.149-.008.148-.02.145-.039.132-.046.125-.067.121-.078.11-.09.101-.105.098-.117.086-.137.082-.113.055-.121.047-.114.035-.12.027-.118.012-.121.008-.121-.008-.121-.012-.121-.027-.125-.035-.121-.043-.114-.055-.117-.066-.11-.07-.113-.083-.152-.133-.754 1.36-.129.234-.113.219-.102.207-.078.191-.074.18-.059.16-.043.149-.023.113-.062.031zm-2.637-9.07.125-.102 1.606 1.984-.125.098-.125-.125-.07-.063-.06-.05-.058-.044-.05-.035-.044-.023-.043-.016-.047-.008-.043.008-.046.012-.047.02-.055.03-.059.036-.062.039-.063.05-.132.106-1.106.899-.207-.13-.226-.156-.215-.16-.203-.164-.196-.172-.18-.18-.175-.179-.16-.195-.207-.274-.176-.273-.148-.274-.118-.273-.09-.277-.054-.278-.027-.273v-.281l.03-.27.06-.258.085-.254.117-.242.149-.238.176-.223.203-.21.234-.212.258-.191.266-.16.265-.13.274-.093.277-.066.281-.032.29-.003.292.03.29.06.285.09.277.12.262.153.261.175.25.211.242.239.235.27.121.16.113.16.106.164.097.168.082.167.075.165.062.171.059.172.015.063.012.054v.098l-.012.035-.015.035-.016.028-.027.023-.766.617-.086-.101.078-.113.082-.141.075-.137.058-.136.043-.133.035-.137.02-.133.004-.129-.008-.133-.02-.128-.035-.13-.047-.132-.058-.13-.075-.132-.085-.129-.106-.133-.144-.168-.16-.144-.169-.125-.18-.098-.187-.082-.191-.054-.207-.032-.211-.008-.219.016-.219.035-.218.063-.223.082-.223.105-.222.125-.227.149-.223.175-.226.192-.203.2-.184.202-.156.203-.137.211-.12.215-.09.219-.075.223-.05.222-.02.219v.21l.027.204.055.2.078.19.101.18.125.18.082.094.086.082.082.07.078.055.086.05.086.036.082.023.086.008h.09l.09-.016.093-.023.094-.043.102-.047.105-.062.106-.075.109-.086.379-.304.078-.07.074-.06.063-.058.058-.054.043-.047.036-.047.027-.043.02-.043.007-.04v-.046l-.008-.043-.03-.102-.032-.054-.035-.059-.04-.058-.148-.215zm-7.96-6.942.109.086-.782.633-.023.023-.027.012-.031.015-.032.004-.027.004h-.035l-.035-.004-.04-.004-.078-.023-.085-.024-.09-.03-.094-.04-.105-.039-.102-.047-.11-.05-.113-.055-.113-.059-.11-.058-.105-.059-.098-.059-.09-.058-.085-.059-.082-.054-.078-.06-.27-.226-.238-.23-.211-.23-.18-.243-.148-.238-.117-.246-.09-.254-.059-.254-.02-.133-.007-.133-.004-.128.004-.137.011-.14.024-.138.023-.14.04-.14.042-.145.051-.137.059-.137.062-.133.07-.128.079-.125.086-.13.085-.12.204-.235.21-.21.227-.184.234-.157.243-.125.257-.101.266-.074.281-.047.137-.012.145-.004.14.004.149.016.152.02.152.03.157.04.156.05.16.059.156.058.153.07.148.079.145.082.144.086.14.094.134.101.085.074.086.07.086.075.168.168.086.09.086.093.086.098.078.098.074.09.063.086.058.082.043.07.043.066.028.063.023.055.008.03.004.032v.055l-.004.027-.008.023-.016.024-.015.027-.61.774-.105-.086.105-.266.07-.285.016-.277-.027-.262-.078-.246-.133-.235-.18-.218-.222-.203-.196-.137-.195-.113-.195-.086-.2-.063-.203-.035-.207-.012-.207.016-.21.039-.208.066-.207.086-.207.114-.199.136-.2.157-.194.183-.196.207-.183.235-.184.242-.156.242-.137.242-.113.234-.086.235-.063.226-.039.23-.011.224.008.214.035.207.055.2.085.191.11.18.129.176.156.164.176.148.12.094.122.07.125.07.125.051.125.047.129.031.129.02.129.012.133-.004.144-.012.145-.024.156-.03.156-.044.164-.058.168-.067zm-10.532-5.285.023.007.086.036.086.03.074.024.07.02.06.008.054.007.04-.003.046-.008.04-.032.034-.027.04-.047.039-.058.039-.067.047-.07.05-.09.051-.098 1.684-3.308.05-.098.044-.094.03-.082.036-.074.02-.062.011-.055.008-.05-.004-.044-.015-.039-.024-.043-.035-.039-.043-.043-.05-.043-.067-.047-.074-.05-.086-.055-.016-.016-.02-.008-.015-.007-.012-.012-.02-.012h-.003l.07-.144 2.168 1.105-.074.14-.004-.003-.016-.004-.02-.008-.015-.008-.02-.004-.011-.007-.008-.004-.094-.035-.082-.032-.078-.02-.066-.019-.059-.011-.055-.004-.05.004-.04.011-.035.024-.035.035-.039.043-.04.055-.042.066-.047.074-.047.09-.055.098-1.707 3.355-.035.074-.027.079-.02.07-.008.066-.004.067.008.062.02.063.023.058.04.055.042.055.059.05.062.055.082.055.082.058.098.051.106.059.16.074.148.07.14.055.13.039.125.031.105.02.11.008.093-.008.094-.02.105-.035.114-.043.12-.066.134-.078.136-.098.153-.106.14-.105.118.063-.817 1.105-3.762-1.918.075-.145.039.016.015.008zm-16.441-6.754h-.004l-.149 2.117-.004.11-.008.1v.09l.004.079.004.066.012.059.012.047.02.035.03.035.04.027.046.024.059.02.066.019.078.02.086.015.094.016h.016l.011.004.016.003h.02l.019.008h.023l-.011.164-2.422-.172.011-.164h.2l.09-.004.078-.007.07-.012.058-.012.051-.015.043-.024.035-.027.024-.035.02-.043.015-.059.016-.066.015-.078.012-.086.008-.102.012-.11.257-3.699.008-.113.004-.101v-.086l-.004-.082-.008-.067-.008-.058-.011-.047-.016-.031-.027-.036-.094-.054-.059-.02-.062-.02-.078-.019-.086-.02-.098-.015-.015-.004h-.012l-.016-.004-.02-.004h-.019l-.015-.008h-.008l.011-.156 2.426.168-.011.16h-.106l-.094.004-.086.004-.074.012-.066.008-.059.011-.05.016-.04.02-.039.023-.027.035-.02.04-.019.046-.016.059-.015.062-.012.074-.008.082-.008.09-.008.106zm.074.125.195-.102.047-.031.05-.04.048-.042.047-.05 1.797-2.192 1.085.074-.011.156h-.031l-.067.008-.07.008-.067.008-.125.03-.054.02-.059.024-.055.027-.05.035-.06.035-.054.04-.05.046-.055.047-.059.051-.055.059-1.523 1.625.394.574.149.219.144.21.145.208.14.199.133.191.133.184.13.176.124.168.125.164.117.156.114.148.113.14.105.134.106.129.101.12.086.098-.004.075-1.023-.075-.043-.003-.047-.008-.04-.012-.038-.02-.04-.015-.035-.02-.03-.027-.036-.031-.035-.035-.04-.047-.046-.055-.047-.066-.055-.079-.054-.082-.063-.097-.066-.106zm-9.735-1.04.41 3.337.02.144.02.133.027.113.027.102.036.09.03.074.044.058.043.043.058.04.067.023.078.02.097.011.11.012h.121l.137-.004.105-.012.02.164-1.922.235-.016-.16.067-.016.101-.027.094-.032.078-.03.07-.036.059-.043.047-.043.035-.05.027-.06.024-.07.011-.078.008-.09v-.101l-.004-.113-.011-.125-.012-.133-.434-3.524-.07-.086-.07-.066-.059-.067-.062-.058-.067-.05-.062-.048-.063-.039-.058-.031-.067-.027-.066-.024-.149-.031-.078-.008-.082-.004h-.136l-.024-.156 1.758-.215 3.89 3.777-.378-3.07-.016-.117-.016-.11-.02-.097-.019-.09-.02-.078-.027-.074-.027-.063-.027-.05-.055-.063-.07-.055-.09-.035-.102-.027-.12-.012-.134-.004-.152.008-.125.008-.02-.153 1.919-.234.023.16-.07.016-.102.031-.09.027-.082.036-.07.039-.055.039-.05.047-.036.046-.027.059-.02.07-.011.075-.008.09v.1l.004.114.008.125.015.137.531 4.34-.535.062zm-6.925 4.372 1.726-.559-1.613-2.117zm1.898-.328-1.918.62-.012 1.036v.035l.004.031v.063l.004.031.004.027.008.028.008.023.035.082.047.07.054.055.07.04.075.023.082.008.094-.008.058-.012.047.152-1.39.453-.055-.156.039-.015.07-.04.063-.039.058-.05.055-.051.05-.063.04-.066.035-.066.027-.075.032-.09.023-.09.02-.109.023-.113.016-.125.011-.133.008-.148.031-.676.207-4.031.438-.14 2.25 2.862.219.278.195.246.18.219.152.187.137.16.113.125.094.106.074.066.066.055.07.043.071.035.074.023.082.016.078.008h.082l.083-.016.015-.004.05.153-2.038.664-.05-.157.015-.007.058-.024.047-.023.043-.028.04-.023.03-.027.028-.028.023-.027.02-.035.011-.031.008-.036v-.078l-.004-.043-.007-.043-.016-.047-.008-.027-.008-.023-.02-.032-.015-.027-.015-.031-.02-.031-.023-.036-.028-.03zm-8.644 2.191.453-.227.199-.125.16-.148.113-.16.07-.188.024-.207-.023-.218-.07-.239-.11-.254-.129-.218-.14-.168-.157-.13-.176-.089-.187-.035-.2.004-.21.054-.223.09-.433.223zm.097.191.75 1.473.059.11.055.097.058.09.059.078.058.067.059.054.055.047.058.031.063.028.062.011.067.004.074-.004.074-.015.082-.024.078-.027.09-.043.105-.062.098-.067.086-.07.078-.082.063-.086.054-.09.043-.102.032-.101.02-.106.007-.113-.004-.113-.016-.117-.027-.125-.035-.121-.05-.125-.063-.13-.07-.132-.079-.121-.086-.11-.09-.093-.093-.086-.102-.07-.11-.06-.109-.046-.117-.031-.117-.02-.121-.004-.125.008-.125.023-.129.032-.133.047-.133.062zm2.98-.527.102.137.094.16.074.164.055.16.039.16.012.16v.157l-.028.152-.043.152-.058.153-.082.148-.098.145-.117.137-.137.136-.152.13-.172.12-.191.121-.211.11-2.344 1.199-.074-.149h.004l.015-.011.02-.008.011-.008.012-.012.016-.003.012-.012.082-.047.074-.05.062-.052.055-.043.047-.043.031-.039.024-.039.015-.039.004-.047-.008-.046-.011-.06-.024-.062-.027-.07-.035-.086-.043-.09-.047-.101-1.688-3.305-.05-.098-.047-.09-.043-.074-.047-.07-.04-.055-.077-.078-.028-.02-.039-.011-.055-.008-.054.008-.059.008-.066.02-.074.023-.086.027-.094.04-.008.003-.012.004-.015.008-.02.004-.02.007-.015.012h-.004l-.074-.144 2.223-1.133.39-.176.356-.113.316-.059.285.008.25.059.211.12.184.18.152.239.086.207.043.207.004.21-.043.204-.082.21-.129.212-.406.5.504-.13.125-.027.12-.02.11-.015.098-.004.094.004.175.02.164.043.153.058.133.082.128.102zm-11.98 4.54-.101-.063-.094-.055-.094-.043-.086-.035-.082-.027-.086-.016-.074-.004h-.078l-.074.012-.078.02-.079.03-.074.036-.066.05-.074.051-.856.719 1.488 1.77.563-.473.133-.125.097-.13.067-.136.023-.144-.004-.14-.043-.15-.078-.148-.078-.11.102-.089 1.14 1.36-.105.085-.047-.043-.074-.066-.07-.059-.075-.05-.07-.043-.07-.032-.07-.02-.071-.015-.07-.004-.067.004-.07.016-.07.023-.075.031-.074.043-.07.047-.074.059-.563.473 1.195 1.425.06.067.062.062.062.051.059.04.066.034.059.02.066.015.063.004.066-.007.07-.016.07-.027.079-.04.078-.042.082-.055.086-.067.09-.074.129-.11.117-.109.105-.109.086-.101.082-.098.059-.098.05-.09.04-.093.02-.094.019-.106v-.238l-.012-.133-.023-.144-.032-.156-.039-.165-.031-.125.105-.085.696 1.183-3.235 2.715-.105-.125h.004l.015-.016.008-.011.012-.012.016-.012.007-.012.012-.011.067-.07.062-.063.05-.063.04-.054.035-.051.027-.047.024-.086-.012-.047-.016-.047-.027-.05-.035-.055-.04-.067-.054-.07-.062-.078-.07-.086-2.387-2.844-.07-.086-.071-.074-.059-.066-.054-.055-.051-.043-.047-.035-.047-.023-.047-.016h-.039l-.043.008-.05.015-.055.024-.063.031-.07.04-.074.05-.106.07-.011.012-.016.008-.012.011-.023.008v.004l-.098-.121 2.977-2.5.77.914-.106.086-.078-.059zm-3.16 8.5.074.05.067.047.058.031.051.024.047.02.039.003.04-.004.05-.02.047-.023.047-.035.054-.043.059-.055.066-.062.098-.098.012-.016.03-.03.126.105-1.527 1.886-.13-.101.016-.024.012-.015.008-.012.008-.016.011-.011.004-.012.055-.078.05-.074.04-.07.027-.063.027-.055.012-.05.008-.055-.004-.043-.016-.035-.027-.043-.031-.047-.047-.051-.055-.05-.066-.067-.074-.063-.09-.074-3.414-2.766-.453.567-.055.07-.047.07-.043.075-.039.07-.027.074-.04.14-.007.15.004.077.015.09.02.09.023.098.028.105.039.11.043.117.054.156-.078.102-.754-.864 2.961-3.66 1 .559-.082.101-.16-.023-.125-.02-.113-.011-.11-.004-.097-.008-.098.004-.086.004-.078.011-.074.016-.07.023-.067.032-.066.035-.067.043-.062.05-.063.055-.058.063-.063.07-.453.563 3.418 2.761.086.07zm-6.058 6.417.906-1.57-2.614-.496zM64.5 47.27l-1.012 1.746.688.777.023.023.02.028.094.078.023.012.02.015.082.04.078.023h.078l.074-.016.074-.035.07-.05.063-.067.031-.047.145.082-.735 1.27-.14-.083.015-.035.028-.074.02-.074.011-.078.004-.078-.008-.075-.012-.078-.02-.074-.026-.074-.036-.082-.047-.086-.054-.094-.063-.098-.07-.105-.082-.11-.09-.113-.43-.527-2.539-3.129.227-.398 3.586.62.348.06.312.054.277.043.239.035.207.027.172.02.136.012.102.004.086-.004.082-.016.078-.023.074-.028.067-.043.062-.05.059-.055.05-.067.012-.011.137.082-1.067 1.855-.144-.082.012-.02.02-.054.019-.05.015-.048.012-.043.008-.043v-.074l-.008-.035-.012-.035-.02-.031-.023-.032-.027-.027-.031-.027-.04-.028-.034-.027-.055-.023-.031-.012-.028-.012-.035-.008-.035-.011-.043-.008-.04-.012zm-2.488 6.808-2.719-2.566-.043-.04-.04-.035-.077-.062-.07-.047-.032-.02-.035-.015-.105-.031-.102-.008-.098.016-.09.043-.081.066-.075.086-.062.105-.043.09-.149-.055.637-1.574.145.067-.024.09-.02.125-.003.128.02.118.034.117.055.11.07.097.09.097 3.758 3.536-.238.59-4.504-.192h-.398l-.118.012-.11.015-.105.016-.09.024-.09.027-.077.035-.075.04-.07.042-.066.05-.055.056-.055.062-.05.07-.016.04-.152-.063.906-2.246.148.058-.031.082-.027.118-.008.105.016.102.03.086.055.074.07.058.087.047.031.012.035.012.07.015.036.004.039.008.039.004h.039zm-1.082 5.82.03-.066.032-.07.031-.082.032-.09.004-.012.015-.031v-.016l.016-.039.004-.004.156.04-.59 2.359-.156-.043v-.004l.008-.04.004-.015v-.031l.004-.012.015-.097.012-.086.004-.079.004-.07-.004-.062-.008-.055-.012-.04-.02-.038-.034-.035-.043-.024-.047-.027-.063-.027-.074-.028-.086-.027-.094-.027-.11-.028-3.6-.898-.11-.028-.098-.02-.09-.015-.078-.011-.062-.008h-.059l-.05.008-.043.011-.036.02-.035.039-.027.043-.035.05-.032.063-.03.074-.032.078-.035.094-.004.012-.004.016-.004.011-.008.02-.004.02-.007.015v.004l-.157-.04.59-2.355.153.04v.003l-.012.059v.016l-.004.011-.004.016-.012.098-.008.085-.003.079-.004.07.004.058.007.055.012.047.02.031.03.035.044.028.047.027.062.027.078.028.082.023.102.032.105.023 3.602.898.113.028.094.02.09.019.078.012.066.003h.059l.047-.003.043-.012.039-.024.027-.035.035-.043zm-3.7 7.079.055-.602-.004-.227-.047-.207-.097-.175-.145-.153-.187-.125-.23-.093-.278-.07-.32-.044-.278-.008-.246.024-.219.055-.175.093-.149.125-.113.16-.07.196-.043.222-.051.602zm2.899-3.094.066.004-.097 1.105-.004.04-.012.042-.027.04-.024.042-.039.04-.047.042-.05.04-.067.042-.074.043-.094.051-.113.055-.133.062-.148.07-.172.075-.188.078-.207.086-1.207.496-.054.656 1.574.137.113.012.098.007h.172l.066-.007.055-.004.05-.016.04-.02.03-.03.024-.04.024-.047.023-.054.023-.067.02-.078.016-.086.02-.094.003-.015v-.012l.004-.02.008-.03.004-.028.16.016-.211 2.418-.16-.012v-.203l-.008-.09-.004-.078-.012-.07-.011-.06-.016-.046-.02-.047-.027-.031-.031-.024-.047-.023-.055-.016-.066-.02-.074-.015-.09-.011-.102-.012-.11-.012-3.694-.324-.114-.008-.097-.008h-.168l-.067.004-.058.012-.047.012-.043.02-.031.03-.028.036-.027.046-.02.059-.02.066-.023.079-.015.085-.024.098v.027l-.007.032-.008.039-.16-.012.242-2.762.023-.187.035-.18.04-.164.058-.156.063-.145.074-.129.086-.117.093-.11.106-.093.11-.082.12-.062.125-.047.13-.04.144-.023.144-.008.157.008.128.016.125.023.118.035.113.043.105.055.106.059.094.07.097.078.09.09.082.094.078.101.067.11.062.117.059.12.047.134.054.191 1.371-.726.235-.133.215-.121.195-.118.176-.117.156-.11.137-.105.117-.101zm-.645 10.05.055-.019.047-.02.035-.023.024-.035.023-.043.016-.047.011-.062.012-.07.008-.075.004-.09.004-.097v-.106l.164-.012.168 2.426-.16.008v-.004l-.008-.02v-.019l-.008-.031v-.016l-.004-.016-.016-.093-.015-.086-.02-.078-.02-.067-.019-.058-.023-.047-.032-.04-.027-.027-.039-.02-.05-.015-.055-.008-.07-.003-.079-.004h-.09l-.097.004-.114.003-3.699.258-.113.012-.098.012-.09.011-.078.012-.062.016-.055.015-.047.024-.039.023-.027.035-.02.043-.015.051-.016.059-.008.066-.008.078-.007.09-.004.098v.105l-.157.012-.187-2.648-.008-.215v-.211l.02-.196.027-.18.043-.167.05-.156.067-.149.078-.129.09-.117.102-.105.113-.086.121-.075.133-.062.148-.047.157-.035.164-.02.144-.004.14.004.134.02.129.031.125.04.12.054.118.066.11.07.105.09.097.094.098.11.082.113.078.125.067.133.066.148.059.152.027.086.023.102.024.113.023.117.016.133.02.145.015.156.008.117-.113.012-.02-.09-.031-.121-.032-.113-.039-.102-.046-.09-.047-.086-.055-.074-.059-.062-.113-.102-.125-.086-.137-.07-.148-.055-.16-.035-.172-.024-.18-.007-.191.004-.149.015-.144.024-.129.03-.125.044-.113.05-.102.063-.098.067-.085.074-.07.086-.063.093-.055.102-.043.106-.023.117-.024.12-.008.13.008.136.035.48 4.38-.304.116-.008.102-.011.086-.012.078-.016zm55.211-48.18 1.067-.651.648 1.074-1.066.648-.649-1.07M94.41 74.137c.078-.664.219-1.29.48-1.496-.312-.524-1.554-1.067-1.074-.157a3.52 3.52 0 0 1 .45 1.602zm18.703-3.668c.336-.942-.726-1.578-.687-.461.398.84.16.36-.305.097-.508-.14.965-1.007-.918-1.085.152.722.23 1.71 1.063 1.71-.57.41-1.985-.664-2.121.348.066.606.398.563.886.422-.054 1.25-.73 1.2-1.363 1.89-1.508 2.423 2.117.66 3.004.31.219-.169 2.707-3.012 1.2-2.579-.813.527.589-.273.718-.48.484-1.399-1.235-.121-1.477-.172zm-30.64 2.691c.89.442.98-1.293-.434-.441-.008.05.77 1.176.285.636-.488-.593-.613 1.34.293.645.043-.242.512.04.285.25-1.558 1.54 1.344.984 1.008.035-.332-.793-.793-.617-1.437-1.125zm5.468-1.765c.282-.227-1.136-2.266-1.207-.61.196.403 1.446.758.465.54-.742-.098-.261.675.285.59-2.113.831 5.621 2.882 2.801-.454-.34-.293-.86-.766-1.183-.41-.536.586.386-.735-.457-.703-.325.265-.461.578-.543.984.695-.242.476.504-.16.063zm20.7-.454c-.532-.843-.348-.277-.985-.214-.289.316.649.902-.21.59-.641-.09-1.798.855-2.2 1.558-1.832 6.41 5.524 1.402 3.395-1.934zm-9.895 4.899c.945-.172.895-3.613-1.14-1.555-1.157 1.278.269 1.25 1.14 1.555zm25.418-2.102c-.035-.64-.445-.273-1.043-.312.383-.73.477-.828-.433-.403-.465.477.343.34-.543.715-2.29 1.219.835 1.106 1.632 1.067-.691-1.203.465.043.387-1.067zm-2.316-.855c-.426-1-1.606-1.078-.36-1.586-.562-.379-1.988-.734-1.8.45 2.007 1.421-2.805-.7-1.2.847.621.523-1.468.336-.336 1.418 1.692.922 2.036.754 3.215-.313 1.078-.039.461-.383.48-.816zm-36.164 1.531c.855-.055 1.406-.45 2.242-.613-.555-.762-2.371-1.64-3.45-1.64-.507 1.245-.105 1.968 1.208 2.253zm7.906-.121c1.379-.281-2.047-3.586-2.094-2.215.14.453.383.883.7 1.246.378.434.859.781 1.394.969zm2.926-.645c.48-.64-.575-.539-.149-.062-.293-.086-.941 1.004-.426-.063.223-.53-1.703-.593-.722.23.797.685-.77.138.015.786.946.668.989.32 1.172.047.332-.508.864-.793 1.407-1.05.214-.102.425-.2.632-.302.09-.238-.25-.363-.601-.476-.207-.063-.422-.121-.543-.2.25.684-.016 1.5-.785 1.09zM83.543 71.73c-.945-.503-.961 1.735.469.247-.028-.016 1.207-.387.324-.973-.254-.016-1.098.422-.793.726zm32.855-1.566c1.008-.8-.27-1.344-.023-.016-.684-.277-.238 1.836.422.543-.059-.222-.172-.437-.399-.527zm10.2-10.137c.105.086.058-.418-.145-.691-.805-.762-.754.004-.058.535a7.582 7.582 0 0 0-.954.715c.692-.016.899.144 1.157-.559zm-3.11-1.625c-.16-.382-.14-.402-.066-.789-2.25-.25 1.695 2.598.617 1.176-.422-.516.29-1.031.59-1.527-.371.367-.817.734-1.14 1.14zm-9.82-8.039c.437-.027 1.316.852 1.473.012-.532-1.305-1.614-.305-1.93-.898-.66-1.348-1.484.8-.246.55.62-.152.426.493.101.356-1.328-.695-1.316.953-.308.336.484-.184.476.926 1.004.176.183-.297-.047-.278-.094-.532zm-25.32-.668c.687.063 2.625-.02 1.129-.918.195-.125.996-.14 1.199-.175-.399-.23-1.723-1.09-2.153-.75-.488 1.636-2.191-.227-1.703 1.953 1.254-1.086 1.133 1.273 2.047.879-.078-.387-.312-.664-.52-.989zm-.051-.996c.547.41 1.648.36.5.68-.785.226-.965-.156-.5-.68zm2.879-4.074c-.278-.113 1.508.926 1.836 1.117.496.293.242.211.375.664.383.313.61-1.074.008-1.02-.473.126-2.395-2.366-1.938-1.015-.125.082-.21.117-.281.254zm12.48-2.809c-.734-2.18-1.246-.129.223.754.797.567 1.3-1.726-.223-.754zm-13.41-.832c.598-.359.543.012.852-.605.922-.922-.707-.227-1.028-.254.575 1.066-.238.117-.316.117-.871-.562-.05.75-.328.778-.735.226.62.921.41.214.156-.09.742.493.41-.25zm44.067 33.364c.312-.325.406-.711-.145-.727-1.254.285.223 1.125.766 1.469-.063-.488-.028-.961-.621-.742zm-3.25-5.192c.093.254.039.328-.504.246.543.57-.176.778.515 1.274.2-.817 1.766 1.113 2.324.547.52-.227-.699-.465-.789-1.035.047-.34.836-2.856.067-2.192-.356.734-.446-.496-.91.848.175 1.37-.215.812-.704.312zm-.149-.793c.492-.07-.055-.52.074-1.02-1.011.536-.86.735-.074 1.02zm4.29 1.52c.394-.195-.891-.836.085-.52-.758-1.23-1.324-.39-.645-.199.004.613-.101.063-.453-.168-1.101-.625-.336.012-.558.633-.606 1.324 1.601.27 1.57.254zM83.765 68.44a2.09 2.09 0 0 0-.547-.16c-2.684-.418-1.422.567.394.7.336.09 1.985 1.12 1.157.007-.399-.289-1-.578-.79-1.195.415-1.211-1.261-.422-.214.648zm3.683-8.832c-.008.008.36.32.836-.117 1.043-1.297-2.523-.426-.836.117zm-10.398-2.07c-.406-.566.84-1.586-.438-.984-1.289.425.469 1.336 1.035 1.804-.039-.05.887-.867.016-.687.16-.738-.414-.711-.613-.133zm4.133 15.856c1.02.398.316-.438-.012-.875-.738-.883-1.356.332-.2.324.02.472-1.82 1.265-.015 1.379.645-.04.559-.32.227-.828zm-3.211-.91c-.891 1.23 3.093.73.601.128.262-1.18-.789-.261-.601-.129zm22.215-2.29c.648.32.226-1.261-.153-.273-.086.113-.527.234-.75.414-.195.164-.215.371.336.664.207.11.375.277.54.453.398.438.417.024.35-.508-.046-.386-.226-.507-.323-.75zm-9.93-.105c-.578-.192-.281-2.754-1.035-1.274-.418.98 1.965 1.543 2.129 2.579.765-.286.086-1.036-.45-1.082-.093-.032-.144-1.31-.105-1.543-.371.308-.785.976-.54 1.32zm9.402-.39c.317.253 1.133-.415.211-.77-.121.054-.656-.075-.738-.008-.637.539.504 1.527.527.777zm21.785-23.856c-.324-1-1.05-.453-.554-.157.437.208-.633.008-.27.641.766.82 2.223-.762.914-.926-.015.125-.09.325-.09.442zm-6.61 27.328c1.044-.336 2.74-1.504.958-2.137-.86-.14-2.063 2.38-.957 2.137zm-7.858-2.434c.886-.355 1.039-.62 1.078-1.5-.848.145-1.727.489-1.078 1.5zm-.622-.441c.59-.543.165-1.188-.43-.54.094.255.263.337.43.54zm13.618-6.649c1.37-.234 1.351-2.277-.383-1.28-.133.25.098 1.148.383 1.28zm1.316.012c.39-.191.434-.207.57-.652-.523.113-.96.031-.57.652zm11.117-.668c.875-.379-.476-1.441-.691-.484.144.258.433.351.691.484zm-10.918-.336c.953-.46-.726-.96-.152-.148.047.055.094.101.152.148zm.09-1.148c-.355.332.762 1.031.559.23-.118-.418-.086-.445-.559-.23zm-.789.097c.3.387.465.727.45-.183-.188-.527-1.184-.215-.45.183zm-.816-.324c.566.418.8-1.02-.204-.265.063.105.114.18.204.265zm1.234-.172c.863.286.805-1.156-.355-.02zm6.738-.836c1.633 1.25.426-1.488-.539-.543.176.184.352.372.54.543zm-3.254-1.378c.344-.055.676-.13 1.032-.145.73-1.61-1.809-.398-1.032.145zm1.274-1.536c.195.106.387.215.574.329.195-1.704-1.43-.782-.574-.329zm4.89-1.101c-1.441.648 1.442 1.883.73.097-.085-.039-.628-.125-.73-.097zm-6.933 1c.574-.04 1.793-.11 1.012-.926-.399-.258-1.176.512-1.012.926zm-2.363-.293c1.546.71 2.027-1.059.335-.281-.14.082-.226.168-.335.28zm2.722-2c-.55-.414-.344.324-.32.832.074 1.226 1.027-.29.32-.832zm-3.562-1.817c-.11.524.445.532.824.555 1.234.074-.004-2.043-.824-.555zm2.664-.71c-.395.742 1.52.75.531-.016-.172-.113-.344-.059-.531.016zm-9.09-.352c-.504 1.437 1.531-.004.73-.45-.14-.003-.656.348-.73.45zm10.43-.027c-.875-.114-2.758-.493-.57.28.562.2 1.085.235 1.468-.339a2.19 2.19 0 0 1-.898.059zm-8.84-.668c1.472.12-1.094-1.723-.688-.547.184.246.395.433.688.547zm-5.067-.996c.61-.051.336-.508-.047-.688-.625-.148-.382.563.047.688zm-10-1.387c.13.14.235.187.41.254 2.086.695-.468-1.82-.41-.254zm14.715.367c-.914-.48-.34 1.379-.043.45.45 0 .336-.2.043-.45zm-30.36-.695c1.684-.258-.577-1.5-.163-.153.05.082.086.102.164.153zm28.427.57c.328-.004.347-.387.23-.613-.336-.254-1.402.27-.23.613zm10.152-2.352c-.398.895.664.504.492.094-.222-.285-.3-.472-.492-.094zm-37.594-.117c.184.153.477.492.723.473 2.582-.274-2.82-1.816-.723-.473zm3.633.473c1.914.16-.223-1.992-.336-.031zm31.934-.55c.097.12.234.218.347.323 1.223-.605-.484-1.011-.347-.324zm-28.66.233c.937-.246-.43-1.054-.81-1.195-.628 1.031-.226.973.81 1.196zm10.37-1.132c.805 1.496 1.157-1.414.118-1.102-.203.356-.203.707-.117 1.102zm14.141-1.293c1.485.363.11-1.485-.168-.094.055.031.106.066.168.094zm-24.117-.871c.008-1.743-2.644 1.172-.848.472.325-.125.606-.215.848-.472zm8.719-.801c-.7.336-.27.437.254.754.066-.258.277-.957-.254-.754zm-13.668-2.207c.148.199.61.496.62.047-.093-.5-.347-.344-.62-.047zm16.207-.469c1.015-.176.879-1.371-.547-.723.105.332.21.575.547.723zm-4.82-.398c-.047-.653-1.301-.676-.594-.02.37.328.629.781.594.02zm5.628-.696c.79 1.567 1.207-1.644.02-.453-.121.176-.106.266-.02.453zm-.949-1.355c-.875.914 2.293.383.73-.14-.35-.106-.44-.071-.73.14zm27.692 37.383c-.11-.41-.149-1.32-.86-.825-.14.36.684 1.473.86.825zm.812-1.512c.352.254 1.074-.688.258-.406-.43.105-.77.004-.258.406zm1.992.152c.461-.21.125-.914-.34-.531 0 .234.184.371.34.531zm-10.37-1.656c-.637.5-.72.477.019.742.297.121.86-1.39-.02-.742zm-.22-.246c1.422-.883-.398-1.172-.21-.113.078.12.07.113.21.113zm11.165-3.14c-.184-.298-.325-.028-.25-.473-1.102.746.21.93.25.472zm-4.008-1.407c-.301.113-1.149.426-.364.61.356-.055.32-.294.364-.61zm3.8.195c.493.094.801-.71-.261-.437.047.183.058.367.262.437zm-4.683-.472c.797.402.61-.125.437-.727-.343.149-1.035.363-.437.727zm-2.492-.547c.433.379.883-1.133-.282-.496-.008.265.082.347.282.496zm-43.575 1.101c.051-.554.586-1.511-.18-.425-.374.53-.73 1.23.067 1.3.77-.046.153-.675.114-.875zm2.805-6.629c-.043 1.141 1.262 1.18 2.074 1.18-.636-.62-1.343-1.187-2.015-1.77zm-1.11 1.102c1.407-.55-.253-.953-.44-.32.09.203.242.242.44.32zm-12.847-1.098c-1.347-1.039-.902 1.817.238.192zm15.156.18c.625.66.805.7.41-.172 1.606.453.317-.965-.667-1.078.847.695-.582.316.257 1.25zm-3.285-.582c-1.355.356.871 1.262.2.496.304-.254.19-.562-.2-.496zm.555-.766c.617.332.773-.937-.414-.875-.371.309.125.723.414.875zm2.695-.605c-.777.664.184.64.551.57.844-.164-.293-.664-.55-.57zm-11.902.055c1.035-.22-.25-.496-.305-.993-.113-1.644-2.152.727-.71.512.382-.168.593.547 1.015.48zm2.035-3.293c-.723-.672-1.176-.457-1.867.23 1.512-.18 1.172.36 2.34 1.012-.106-.309-.254-1.035-.473-1.242zm3.836-.957.313-.262c-2.575-.309-.75 1.156-1.528 1.32-1.144.106.16.676.293.63 1.703-.657-.277-.747.922-1.688zm1.32 1.226c1.297-.117-.507-1.207.11-1.265 1.351-.188 1.129-.43.43-1.286-1.262 1.258-3.098 1.774-.54 2.551zm-3.332-1.27c-1.375.93.602 1.52.422-.199-.144.063-.285.122-.422.2zm-8.37 11.415c-.079.66-.552.91.503.785 1.512-.258-.191-.25-.078-1.102-.078-.636.633-.98-.45-.41-.632.266-.503-.742-.925.16-.281 1.082.914.102.95.567zm1.136-.93c-.484-.535-.61-1.23-.371.031.133.38.812.61 1.148.993 1.297-.696-.363-.715-.777-1.024zm-.672 11.164c.738-.367-.45-1.328-.426-.367.035.273.184.312.426.367zm1.984-.285c.809.73.844-.988.114-.36-.125.118-.18.188-.114.36zm1.36 0c.816-.281-.137-1.211-.5-.594.07.278.293.418.5.594zm-.477-.816c.102-.258-.918-.625-.344.289.157-.086.25-.137.344-.29zm3.348-1.344c.594-.133-.266-1.219-.707-.488.12.328.39.414.707.488zm12.945-2.785c.387.468 1.625 1.043 1.625-.004-.773-.121-1.273.304-.773-.774-.38.153-1 .254-.852.778zm-5.586-.852c.578-.086.844-.734.074-.836-.562.164-.433.508-.074.836zm-.636-.957c1.785-.16-1.016-1.594-.204-.234zm-2.926-1.664c.543-.52-.711-1.605-.844-.578.215.34.477.422.844.578zm49.453-1.773c1.383-.59.172-.438-.043-1.016-.445-1.125-1.23 1.445.043 1.016zm1.207.05c1.105-.375.91-.75-.207-1.129-.399.508-.281.766.207 1.13zm-58.668-.664c.773 0-.594-1.648-1.04-.785.204.484.544.711 1.04.785zm53.64-.133c1.231-.472.2-1.332-.515-.421.125.265.258.3.516.421zM99.657 79.684c-.734-2.317-5.726-4.09-7.945-4.559-.676-.14-1.61-.145-2.297-.156-1.754-.043-3.543.16-5.285.562-.746.172-3.414.926-3.672.426-1.516-1.094-.742 2.012-1.898 1.402-1.028-.562-1.496.657-2.473-.386-1.117-.508-1.77 1.304-2.07.246-.36-1.332-.621.93-1.61.332-.5-.149-2.472-.176-1.207-.492-.578-.98-.105-.036.235-.536.054-1.074-.965-.171-.957-.195.046-.828-1.106-.121-.5.293-2.063.883-2.235-2.86-.754-2.367.879.277-.48-1.469 1.168-1.117.421-.125.05-.461.363-.516.984.688.234-1.527 1.168-.324 1.254 1.078.285-2.395-.582-1.16-.106-.168.453-.332.078-.61-.703-.21-2.207.47-.738.668-.438.64-2.453-.484-2.235-1.039 1.114-1.648-.414-2.695 2.153-3.168.886-1.074-2.578-.703-1.711-1.875.636-.82-.371-1.058.258-2.25.492-.304 2.28 1.07 1.84.145-.676-1.16-.43-3.196 1.316-3.246 3.324 1.867 2.82-1.211 1.605-.555-.5.168-.547-.621-.566-.863-.215-1.207 2.61-2.668.515-3.582-.445.535.329-1.235.383-1.657.075-1.316 2.578.586 1.836-.535-1.238-1.578 1.082-.668.621-1.773-.32-.793.516.05.39-.676-.343-.762.47-1.004.974-.5 1.035.98 2.148 1.512 1.543-.082-.485-1.172 1.378-.617 2.015-1.254.27.344.735 1.656 1.16.688.172-.782-.367-2.04.375-2.086 1.282-1.059.524.054.633-1.086 1.172 1.058-.21-3.031 1.45-2.828.3-.032.995-1.508 1.187-.676.078.094 3.066.281 1.504-.629.226-.738.879-1.465.625-2.117 1.87-.906 1.804-1.285 3.449.351.867.676-.254 1.18.973 1.524-.485.5.644.062.902.23.613.434-.383 1.883.621.582.836-1.082-2.496-2.191.137-3.004.644.192 1.308 2.637 1.707.79.32-.18.215-1.454.531-2.094.426.125.652-.008.93-.274.898.395.082.653.594.813.582-.13.406-.797.503-1.008.512-.125 1.774.652 1.997 1.371-1.239.402.14 1.488.492.535 1.664 0-.219-1.453 1.125-1.496 1.093.234 1.082-.887 1.968-.527.47.16 1.641-.332 2.395-.239.02.399.336.583.336.922-.445.196-.75.446 0 .93.258.094 2.82-.898 2.012.398.34.95 1.402-.343 1.64 1.743.766-.364 1.61-2.125 1.989-.903.324.059.746-.968.925-.191.192.684.985-.29.528.594.12.277.465.238.207.441-.684.727 3.004 2.363 2.437.941 1.031.262.278-.546 1.047-.44-.512.608.348 1.237.73.433.333.168 1.118.992 1.329.32 0-.008.664 2.906 1.652 1.957.066-.32-.277-1.008-.656-.906-.035-1.68 1.664.066 1.14.207.23.93 1.82 1.32.97 2.027-.669.66.378 1.39.284.559 1.145.058 1.543.824 1.614 2.023-.024.285-1.88 1.563-.375 1.504 1.132-.281.714-.625 1.238.445-.375.254.055 1.02-.793.371-1.098-.605-.465 1.485.004 1.047.332-.605 1.414.032 1.25-.859-.719-2 3.516.668 3.637.734.011-.148.03-.304.035-.457 1.613.313.008 1.89 1.18 2.348.898.36-.875 1.336-1.122 1.125-1.242-.629-.332 1.66.235.668.387.016.21.316.445.406a2.12 2.12 0 0 0-.113.23c.918.524 1.086-.75 1.004.317.039.281 1.078.266.32.73-1.363.723 1.809.555.102 1.426-.418.313.57 1.403-.227 1.285-.543-.125-1.527-1.05-1.734.047.492.946.812.207 1.328.672-2.086.192.902 1.094 1.867.617h-.012l.067-.015c-.004.152.004.297.086.422v-.028c.004.051.77.34.968.91-.789 1.016.051.114.223.973-.266.098-.648.254-.355.59l-.024-.023c0 .128.031.242.117.34-.285.124-.543-.126-.625.378-.75-.715-1.726.89-.57.477.676-.246 1.312 1.605 1.914-.18.719.602-.297 1.695.16 1.82 1.61-.039.977 1.899 1.61 1.934h-.008c.027.012.046.02.066.047-.352.195-.445.5-.309.902-.68.63-1.754 1.196-2.144 1.203.637.621-1.176 1.207-1.512 1.79.285.414 2.332-.083 3.04.113.027.074.046.152.066.238-.82.363 1.214 1.672 1.41 1.813-.188.304-.356.55-.563.863-.754-1.367-1.277-.008-.84.152.895.262.262.711.008.477-.398-.63-1.414-.313-.695.355-.66.45-.648-.89-.672-.914-.324-.226-1.05-.355-1.691-.305 1.402.887-1.461 1.102-.457.07-.414.11-.719.329-.719.688-.031-.004-.066-.004-.098-.004l.032.032c-.082-.082-.528-.106-.618-.106-.609.488.258-2.223-1.375-1.156-1.898.476.496.41.188.676-.383.328.348 1.144-.59.914-.887-.242-.734.222-.562-.528-.133-.265-.403-.332-.668-.172.109-1.042-1.582.235-2.254.38l-.024-.04s-.472-.242-.62-.168c-.083.043-.177.16-.247.235-.082-.047-.148-.149-.242-.203-.29-.145-.149-.403-.524-.403l.008-.062c-.39-.043-.738.129-1.128.168-2.137.113-4.86.168-6.922-.34-2.977-.453-9.946 1.785-10.762 5.117-1.938 10.477 12.965 8.547 18.723 9.086.609.055 2.867 1.031 2.058 1.07-15.8.075-47.156 0-47.156 0s1.39-1.043 1.976-1.12c6.043-.817 20.989 1.198 18.583-9.598" transform="matrix(.36354 0 0 .36354 -19.73 -.778)"/><g style="fill:#000"><g style="fill:#000"><path style="fill:#000;fill-opacity:1;fill-rule:nonzero;stroke:none" d="M39.08 142.65c0 3.066-1.87 4.613-4.855 4.613-.114 0-.223 0-.332-.004h-3.621v-2.55c-.004-.063-.008-.126-.008-.184v-6.872h1.152c4.789 0 7.664 1.207 7.664 4.997zm-1.777-10.04c0 3.235-2.371 4.22-6.668 4.22h-.371v-7.614c0-.965.062-1.152 1.836-1.152 3.078 0 5.203 1.496 5.203 4.547zm5.414 10.02c0-3.285-2.363-5.18-7.156-5.68 3.39-.68 5.07-2.203 5.07-4.664 0-3.297-3.148-4.972-8.187-4.972h-8.399v.71c2.578.063 2.984.684 2.984 2.833v13.62c0 2.134-.406 2.755-2.984 2.817v.906l10.117-.011c5.66-.008 8.555-1.899 8.555-5.559M53.815 142.806h-7.45l-.925 2.758c-.082.238-.13.449-.13.633 0 .664.454 1.07 1.368 1.132v.86h-4.809v-.325c1.297-.417 2.36-2.496 2.684-3.359l4.992-13.246h2.871l5.23 13.977c.27.718.66 1.824 1.516 1.992.504.203.809.23 1.227-.07.484-.294.867-1.208.867-1.711v-8.227c0-.05 0-.102-.004-.148v-2.852c0-1.645-1.625-2.106-3.04-2.106v-.84l2.067-.046c2 .027 2.852.293 3.996 1.601l9.141 11.383v-9.469c0-1.086-.164-1.78-.492-2.093-.332-.309-1.121-.5-2.356-.57v-.805l6.325-.008v-.016l7.39-.012v.805c-2.11.055-2.441.563-2.441 2.309v6.535l8.027-6.985c.25-.296.473-.539.547-.933.055-.25 0-.48-.3-.688-.239-.16-.594-.234-1.067-.234-.125 0-.254.023-.383.023v-.886h5.64v.886h-.23c-.812 0-1.328.489-2.187 1.266l-5.457 4.957 5.722 6.672c.996 1.16 3.063 2.879 4.692 2.879v.558c-2.375.13-5.551.145-8.031-3.191l-4.27-5.031-2.703 2.433v2.41c0 1.743.332 2.22 2.441 2.27v.91h-7.375v-.91c.18-.004.348-.008.504-.02h.524a.191.191 0 0 1 .047-.008c.015-.004.03-.004.046-.008a.118.118 0 0 0 .043-.008.191.191 0 0 1 .047-.008c.012-.004.032-.004.043-.011a.164.164 0 0 0 .043-.008c.012 0 .032-.008.043-.012.016 0 .028-.008.04-.008l.042-.012a.219.219 0 0 1 .04-.011c.011-.004.023-.008.035-.008h.004c.011-.008.023-.012.035-.016.012-.004.027-.012.04-.012.015-.004.019-.008.03-.015h.008c.008 0 .02-.004.031-.012l.036-.012c.008-.004.023-.011.035-.015l.05-.024c.005 0 .009-.004.012-.008a.126.126 0 0 0 .032-.015h.004a.252.252 0 0 0 .027-.016c.012-.004.023-.012.031-.012v-.008l.027-.011c.036-.024.07-.043.102-.067l.008-.008a.085.085 0 0 0 .023-.015c.008-.008.016-.012.024-.02h.004a.046.046 0 0 1 .02-.02v-.003c.011-.004.015-.016.019-.02a.91.91 0 0 0 .168-.199v-.004l.023-.047s.004 0 .004-.004h.004v-.012c.008-.004.008-.008.012-.015.004-.008.008-.012.008-.024a.98.98 0 0 0 .082-.406v-.102l-.004-.004c-.004-.039-.004-.07-.008-.105.035-.254.047-.555.047-.898v-2.625c.011-.075.015-.157.015-.239v-8.23c0-.563-.175-1.262-.691-1.563-.27-.199-.902-.285-1.54-.27l-.003.016c-.79-.035-1.707.106-1.988.383-.625.606-.567 1.461-.567 2.246l.027 13.45h-1.273L62.404 134.5v10.168c0 1.078.168 1.778.504 2.102.336.32 1.121.52 2.344.61v.862l-11.715-.054v-.864c.985 0 1.469-.343 1.469-1.027a2.32 2.32 0 0 0-.168-.82zm-7.106-1.07h6.735l-3.461-9.059-3.274 9.059" transform="matrix(.48289 0 0 .48289 28.989 -38.807)"/></g><g style="fill:#000"><path style="fill:#000;fill-opacity:1;fill-rule:nonzero;stroke:none" d="M71.27 111.91c1.382.2 2.375.473 2.972.805 1.352.754 2.028 1.922 2.028 3.504 0 1.55-.575 2.754-1.72 3.597-1.144.844-2.757 1.266-4.847 1.266h-7.555v-.805c1.02-.078 1.637-.199 1.86-.37.219-.165.336-.606.336-1.313v-12.051c0-.703-.117-1.152-.348-1.328-.23-.18-.851-.293-1.848-.34v-.805h6.907c2.117 0 3.656.293 4.601.875.95.582 1.426 1.528 1.426 2.84 0 1.016-.293 1.84-.879 2.477-.586.629-1.558 1.183-2.933 1.648zm-4.067-.222h1.68c2.172 0 3.254-1.168 3.254-3.508 0-2.082-1.16-3.121-3.477-3.121h-1.457zm0 .984v4.879c0 1.027.156 1.707.477 2.054.316.34.949.516 1.902.516 2.277 0 3.414-1.187 3.414-3.55 0-2.598-1.41-3.9-4.226-3.9h-1.567" transform="matrix(.48289 0 0 .48289 30 -38.807)"/><path style="fill:#000;fill-opacity:1;fill-rule:nonzero;stroke:none" d="M52.871 104.914c-1.707 0-3.05.625-4.027 1.887-.985 1.254-1.473 2.969-1.473 5.137 0 2.414.563 4.406 1.691 5.98 1.126 1.574 2.547 2.36 4.278 2.36 1.637 0 2.941-.676 3.922-2.032.968-1.355 1.46-3.176 1.46-5.45 0-2.355-.538-4.265-1.613-5.706-1.074-1.453-2.488-2.176-4.238-2.176zm.613-1.043c2.461 0 4.551.813 6.254 2.445 1.707 1.633 2.563 3.625 2.563 5.97 0 2.507-.95 4.64-2.836 6.39-1.899 1.75-4.195 2.629-6.918 2.629-2.442 0-4.516-.828-6.211-2.47-1.691-1.647-2.543-3.66-2.543-6.038 0-2.512.93-4.629 2.8-6.348 1.868-1.715 4.16-2.578 6.891-2.578M94.488 113.063c.117-.009.23-.009.34-.009 1.488 0 3.188.024 3.281 1.348l.95-.183c-.047-.72-.067-.954-.067-1.66 0-.688.02-.618.067-1.356l-.95-.184c-.113 1.442-1.793 1.258-3.347 1.258-.117 0-.207-.004-.274-.004v-5.988c0-1.375.106-1.375 2.114-1.375 3.328 0 4.804.305 5.16 3.035h.508v-3.898H89.457v.812c2.11.05 2.441.563 2.441 2.324v13.828h11.516l.129-3.914h-.508c-.355 2.516-1.805 3.23-4.808 3.23-3.176 0-3.739-.66-3.739-3.128v-4.136" transform="matrix(.48289 0 0 .48289 30 -38.807)"/><path style="fill:#000;fill-opacity:1;fill-rule:nonzero;stroke:none" d="m90.41 121.012 1.5-2.785h-.844c-1.468 1.742-3.597 1.945-5.437 1.972-3.559.059-3.969-.59-3.969-3.129v-9.843c0-1.754.332-2.266 2.442-2.317v-.851h-7.528v.851c2.11.051 2.442.563 2.442 2.317v10.933c0 1.758-.332 2.117-2.442 2.168v.715l13.836-.031M26.738 105.531v11.48c0 1.25.196 2.075.59 2.466.39.386 1.29.64 2.684.765v.77h-7.453v-.774c1.101-.136 1.824-.41 2.175-.828.352-.414.532-1.219.532-2.398v-13.375c-.004-.68-.086-1.223-.313-1.621-.305-.528-.898-.786-1.527-.93-.508-.117-1.043-.16-1.477-.211v-.766h2.793c.88 0 1.73.246 2.434 1.07l13.176 14.938v-12.02c0-1.242-.196-2.058-.59-2.449-.39-.39-1.29-.64-2.684-.765v-.774h7.531v.774c-1.105.144-1.84.418-2.187.84-.344.414-.52 1.203-.52 2.375v16.918h-1.457L26.738 105.53" transform="matrix(.48289 0 0 .48289 30 -38.807)"/></g></g></svg>