<svg width="80" height="40" xmlns="http://www.w3.org/2000/svg"><path d="M13.774 10.698c-1.575-.012-3.352.472-5.308 1.778 0 0 .586 1.487-.639 3.055l.033.016c1.188-.658 6.846-5.622 12.98.313 0 0 9.684-.846 7.115 7.59 0 0 3.426 1.23 3.01 5.851 0 0 .041.002.042 0 .144-.295 2.15-4.325-1.02-6.188 0 0 1.282-2.972-1.111-5.726-1.217-1.4-3.447-2.739-7.53-2.177 0 0-2.85-4.477-7.572-4.512zm-9.762.172v.04c.538.282 3.81 2.245.141 4.59l2.273 9.235s3.185-2.44 5.83-1.324c1.687.712 2.123 2.68 1.8 5.742 0 0 .048.002.05 0 .242-.538 3.37-6.023-1.394-7.685-.899-.313-2.165-.411-4.437.376l-2.107-5.71s3.344-4.28-2.156-5.264zm19.904 11.523c-1.787.085-2.86 1.316-2.86 1.316-2.82-2.6-5.309.25-5.309.25 1.831 1.736.946 5.342.946 5.342-.001-.002.04.003.041 0 1.52-2.348 1.336-4.66 1.336-4.66 1.52-.44 2.421 1.135 2.421 1.135 1.903-1.972 3.806-2.099 4.844-1.488 2.574 1.518 1.691 4.865 1.691 4.865h.05c2.155-3.947.202-5.809-1.144-6.377-.742-.313-1.42-.412-2.016-.383z" style="fill:#d71a20;fill-opacity:1;fill-rule:nonzero;stroke:none;stroke-width:.206097" transform="matrix(1.04152 0 0 1.04152 -.527 -.83)"/><path d="M63.037 16.874c0-.074.064-.06.155-.06h.213c.02 0 .04-.002.094.002 0 0 .199.028.366.198l2.461 3.048 1.632.002-2.505-3.218-.483-.566c-.02-.03-.013-.067.074-.154l2.43-2.621.225-.228c.024-.03.082-.071-.05-.071h-1.345c-.19 0-.184-.014-.298.101l-2.229 2.428s-.128.175-.292.175H63.126c-.025-.004-.074 0-.084-.06-.003-.024-.006-.04-.006-.105v-5.591h-1.514v9.909h1.513v-3.12zm-7.57-1.668v-.012a.243.243 0 0 1 .027-.094s.412-.8 1.717-.8c0 0 1.38-.035 1.38 1.03v4.676h1.442v-4.508c0-.13.008-.248 0-.393 0 0-.041-1.43-1.512-1.825-.33-.111-.895-.128-1.285-.091 0 0-.884.035-1.754.908l-.033.042c-.034.042-.135.06-.135-.09V13.621c-.004-.094-.036-.31-.28-.31h-1.053v6.695h1.484v-4.781zm-5.64-2.1c-.169.006-.352.023-.551.051 0 0-.914.1-2.124 1.045 0 0-.175.086.013.273l.512.51c.049.043.179.125.472-.048.177-.109.844-.494 1.347-.633 0 0 1.126-.318 1.572.764 0 0 .1.147.1.942.004.17 0 .172-.136.172 0 0-3.172-.164-4.028 1.312 0 0-.818 1.028.323 2.163 0 0 .775.781 2.366.357 0 0 .815-.14 1.403-.726l.028-.03c.049-.058.175-.123.208.005a.307.307 0 0 1 .01.068c.003.033.007.036.008.13.001.17-.024.492.437.492h.699c.043 0 .12-.006.12-.09v-4.392c.002-.152-.086-.738-.136-.857.003.005-.258-.647-.935-1.112-.032-.015-.521-.443-1.708-.397zm1.175 3.996c.038 0 .145 0 .145.098v1.12c0 .037-.208.394-.734.57-.317.115-1.35.45-1.817.074 0 0-.63-.452-.256-1.095 0 0 .148-.338 1.035-.574 0 0 .64-.193 1.627-.193zm-12.347-6.657v9.56h3.55s1.146.065 2.137-.34c0 0 .958-.39 1.462-1.274 0 0 .426-.828.16-1.829-.083-.174-.12-.495-.863-1.032-.017-.01-.422-.324-1.054-.297-.02 0-.133.005-.152-.065-.001 0-.033-.093.137-.143.36-.097.784-.317 1.26-.8 0 0 .471-.403.471-1.311 0 0-.005-.667-.397-1.355 0 0-.317-.623-1.505-.945-.08-.022-.715-.17-5.115-.17zm1.639 1.266h2.22c.996 0 1.316.613 1.316.613.262.46.27.869.27.869a1.28 1.28 0 0 1-.453 1.006c-.393.327-.976.485-1.19.489-.245.013-1.407 0-2.11 0-.039 0-.061.003-.06-.01v-2.956c0-.005-.003-.01.007-.01zm-.018 4.12h2.366c1.06 0 1.401.623 1.401.623.28.467.288.881.288.881 0 .686-.483 1.022-.483 1.022-.418.331-1.04.49-1.267.495-.262.013-1.498 0-2.247 0-.042 0-.066.002-.066-.01V15.844c0-.006-.002-.012.008-.012zM54.936 29.282c0-.074.064-.06.155-.06h.213c.02 0 .04-.002.095.002 0 0 .198.028.366.198l2.46 3.048 1.632.002-2.505-3.218-.483-.566c-.02-.03-.012-.066.074-.154l2.43-2.621.225-.228c.024-.03.082-.071-.049-.071h-1.345c-.191 0-.185-.014-.299.101l-2.228 2.428s-.129.176-.292.176H55.025c-.025-.005-.073 0-.084-.061-.003-.024-.006-.04-.006-.105v-5.591h-1.514v9.909h1.514v-3.12zm15.467-3.822c-.092.003-.94.016-1.525.223-.145.037-1.356.505-1.864 1.882-.099.225-.398 1.305-.147 2.429.401 1.57.993 2.008 2.07 2.403 2.237.59 4.488-.621 4.773-2.482 0 0 .407-2.517-.804-3.747 0 0-.637-.708-2.503-.708zm-.099 1.203c1.606 0 1.813 1.194 1.813 1.194.215.814.097 1.75.097 1.75-.103 1.228-1.052 1.74-1.307 1.765-.608.164-1.33-.054-1.329-.05-1.006-.275-1.114-1.637-1.114-1.637-.094-.692-.022-1.369.103-1.791.124-.419.335-.636.288-.584.551-.665 1.45-.647 1.45-.647zm-21.093-1.195s-1.996.03-2.846 1.532c0 0-1.587 2.583.75 4.76.349.279.909.777 2.693.751.38-.02 1.092.083 2.485-1.07l-.456-.648-.048-.061c-.036-.06-.236-.104-.404-.006l-.415.282c-.232.17-.52.244-1.2.302-.976.047-1.674-.22-2.122-1.134 0 0-.152-.254-.152-1.067 0-.035-.008-.083.074-.083H52.242c.043 0 .076.001.087-.016a.527.527 0 0 0 .015-.167c0-.308.002-.66-.017-.924a2.82 2.82 0 0 0-.3-1.065s-.591-1.386-2.816-1.386zm.29 1.03c1.496.105 1.488 1.694 1.455 1.684h-3.441c0-1.863 1.987-1.685 1.987-1.685zM38.656 22.79v9.621h1.608v-3.498l.036-.002h1.93c.007-.005.269.027 1.066-.135.778-.153 1.792-.98 2.06-1.454.18-.314.554-1.459.327-2.229-.137-.526-.273-.837-.525-1.15 0 0-.817-1.153-2.9-1.153h-3.602zm1.623 1.285h2.052c1.72 0 1.734 1.583 1.734 1.583 0 1.308-.87 1.736-.87 1.736-.455.269-.622.295-.704.298-.045.002-.091.001-.137 0h-2.075zm22.776 1.394c-.17.006-.353.023-.552.051 0 0-.914.1-2.124 1.045 0 0-.175.086.013.273l.512.51c.049.043.18.125.473-.048.177-.11.843-.494 1.346-.633 0 0 1.126-.319 1.572.764 0 0 .1.146.1.941.004.17 0 .174-.135.174 0 0-3.173-.165-4.029 1.311 0 0-.817 1.028.323 2.163 0 0 .775.782 2.366.357 0 0 .815-.14 1.403-.725l.028-.03c.049-.058.175-.125.208.004a.307.307 0 0 1 .01.068c.003.033.007.036.008.13.001.17-.024.492.437.492h.699c.043 0 .12-.006.12-.09v-4.392c.002-.152-.085-.738-.135-.857.003.005-.26-.648-.936-1.113-.032-.015-.521-.441-1.708-.395zm1.175 3.996c.037.001.144 0 .144.097v1.121c0 .037-.208.394-.734.569-.317.116-1.349.45-1.816.075 0 0-.63-.453-.257-1.095 0 0 .148-.337 1.035-.574 0 0 .641-.193 1.628-.193z" style="fill:#000;fill-opacity:1;fill-rule:evenodd;stroke:#000;stroke-width:.0724088px;stroke-linecap:butt;stroke-linejoin:round;stroke-opacity:1" transform="matrix(1.04152 0 0 1.04152 -.527 -2.237)"/></svg>