<svg height="40" viewBox="5.2 3.6 3.495 1.802" width="80" xmlns:xlink="http://www.w3.org/1999/xlink" xmlns="http://www.w3.org/2000/svg"><linearGradient id="a"><stop offset="0" stop-color="#004c9a"/><stop offset=".143" stop-color="#004994"/><stop offset=".33" stop-color="#013f84"/><stop offset=".542" stop-color="#033069"/><stop offset=".771" stop-color="#051a43"/><stop offset="1" stop-color="#070016"/></linearGradient><radialGradient id="b" cx="49.902" cy="23.676" gradientUnits="userSpaceOnUse" r="60.06" xlink:href="#a"/><radialGradient id="c" cx="49.902" cy="23.676" gradientUnits="userSpaceOnUse" r="60.069" xlink:href="#a"/><radialGradient id="d" cx="49.902" cy="23.676" gradientUnits="userSpaceOnUse" r="60.055" xlink:href="#a"/><path d="M6.106 4a.156.156 0 1 0 0-.313.156.156 0 0 0 0 .312z" fill="#e4202c"/><path d="M50.2 45.9c11.5 0 21.4-2.9 25.6-6.8 1.4-1.3 2.1-2.8 2.1-4.3s-.8-2.9-2.1-4.3c-1.4-1.3-3.4-2.5-5.9-3.5-5-2-12-3.3-19.7-3.3h-.1c-10.3 0-19.3 2.4-24.1 5.7-2.8 1.9-3.6 4.2-3.6 6.9v30.9c0 3.5 1 5 1.5 5.8 1.5 2.5 3.5 4.5 6 6l.2.1V42.4l.2.1c5.1 2.1 12.1 3.4 19.9 3.4zM38.5 34.4c-.2-.2-.2-.5-.2-.6 0-.5.4-1.1 1-1.4.3-.2.7-.2 1-.2h20.3c.3 0 .7.1 1 .2.7.3 1 .9 1 1.4 0 .2-.1.4-.2.6-.3.3-.7.5-1.1.5H39.6c-.4 0-.9-.2-1.1-.5z" fill="url(#b)" style="fill:url(#b)" transform="matrix(.01794 0 0 .01794 5.205 3.622)"/><path d="M54.2 79.2v-8.8c0-2.7-2.2-4.8-4.9-4.9h-.1v-.8c2.8-.3 4.9-2.5 4.9-5.3v-6.2c0-1.4.1-2.8.5-4.1l.1-.2h-.2c-.7.1-1.9.1-3.2.1-1.9 0-4-.1-5.1-.2H46v.1c-.5 1.5-.7 2.8-.7 4.4v7c0 1.5-1.1 3.1-3.1 3.2V48.4h-.1c-3.4-.4-5.9-1-8.6-1.9l-.2-.1v34.5h.1c2.7 1.2 5.3 2 8.7 2.6h.1V66c1.9.1 3.1 1.6 3.1 3.2v9.6c0 2 .4 3.6.9 5.3v.1h.1c.7.1 1.8.1 3.1.1 1.8 0 3.9-.1 5.3-.3h.1v-.2c-.4-1.5-.6-2.9-.6-4.6z" fill="url(#c)" style="fill:url(#c)" transform="matrix(.01794 0 0 .01794 5.205 3.622)"/><path d="M77.1 45c0-.8-.7-1.5-1.5-1.5-.2 0-.5.1-.7.2-3.8 2.2-9.2 4-15.2 4.8-1.3.2-2.3 1.3-2.3 2.7v29.6c0 1.2 1 2.2 2.2 2.2.2 0 .3 0 .5-.1 4.7-1.2 8.7-3 11.9-5.6 2.8-2.4 5.1-5.7 5.1-9.5zm-7.7 7.4V73c0 .5-.3 1-.9 1.4-.8.5-1.7.5-2.1-.1-.1-.2-.1-.4-.1-.5V52.5c0-.5.5-1.1 1.2-1.3.2-.1.3-.1.5-.1.7 0 1.2.3 1.4.9v.3z" fill="url(#d)" style="fill:url(#d)" transform="matrix(.01794 0 0 .01794 5.205 3.622)"/><g><path d="m7.043 4.83-.037-.003v.152h-.05v-.325c0-.017-.01-.074.098-.074.098 0 .141.054.141.12 0 .078-.046.13-.152.13zm.014-.222c-.054 0-.049.032-.049.046v.144l.032.003c.075 0 .103-.04.103-.1 0-.05-.025-.093-.086-.093zm.287.376c-.083 0-.126-.071-.126-.152 0-.08.043-.149.126-.149.08 0 .127.069.127.15 0 .08-.043.151-.127.151zm-.003-.275c-.054 0-.074.057-.074.118 0 .06.023.129.077.129.058 0 .078-.06.078-.118 0-.063-.023-.13-.08-.13zm.184.267V4.56h.046v.416zm.316-.078c0 .052-.043.084-.1.084-.05 0-.11-.026-.11-.09h.012c.023 0 .037.012.043.03a.059.059 0 0 0 .054.037c.026 0 .055-.018.055-.05 0-.071-.155-.057-.155-.143 0-.049.043-.077.098-.077.045 0 .094.023.094.077-.02.006-.04 0-.051-.026a.052.052 0 0 0-.043-.025h-.003c-.029 0-.052.017-.052.046 0 .06.158.043.158.137zm.103.078h-.046v-.42h.046v.265l.092-.11a.073.073 0 0 1 .057-.025c.01 0 .018.003.018.003l-.086.097c-.018.018-.035.035-.046.035v.008c.011 0 .031.009.051.035l.095.112s-.009.003-.02.003c-.017 0-.04-.003-.055-.023a4.934 4.934 0 0 1-.103-.13v.15zm.247-.339a.033.033 0 0 1-.034-.034c0-.018.014-.035.034-.035.02 0 .035.015.035.035 0 .02-.015.034-.035.034zm-.023.339v-.287h.046v.287zM7.057 4.475c-.069 0-.1-.017-.1-.063v-.27c0-.072.066-.069.097-.069.098 0 .135.043.135.095 0 .049-.034.078-.072.092.049.009.095.04.095.103-.003.058-.04.112-.155.112zm-.003-.373c-.026 0-.049.003-.049.046v.103h.035c.057 0 .097-.028.097-.077 0-.043-.026-.072-.083-.072zm-.011.175h-.038v.13c0 .028.015.04.052.04.069 0 .1-.038.1-.084 0-.057-.034-.086-.114-.086zm.447.192-.017.003c-.011 0-.02-.005-.023-.023l-.003-.014h-.003c-.02.026-.043.043-.074.043-.063 0-.106-.046-.106-.138 0-.097.063-.163.129-.163.031 0 .097.008.097.057zm-.046-.232c0-.023-.014-.034-.051-.034-.04 0-.083.037-.083.126 0 .08.034.112.071.112.029 0 .05-.017.063-.035zm.296.232v-.206c0-.032-.017-.063-.069-.063-.054 0-.057.02-.057.04v.23h-.046v-.245c0-.017.006-.025.02-.034a.197.197 0 0 1 .083-.014c.049 0 .112.014.112.086v.21H7.74zm.167 0H7.86V4.05h.046v.264l.091-.109a.073.073 0 0 1 .058-.025l.017.002-.086.098c-.017.017-.035.034-.046.034v.01c.011 0 .032.008.052.034l.094.111s-.008.003-.02.003c-.017 0-.04-.003-.054-.023-.023-.025-.104-.129-.104-.129v.15z" style="stroke-width:.0287034" transform="matrix(1.02377 0 0 1.02377 -.133 -.124)"/></g></svg>