<svg width="80mm" height="40mm" viewBox="0 0 80 40" xmlns="http://www.w3.org/2000/svg"><g aria-label="Toyota Bank" style="font-size:13.6618px;line-height:1.25;fill:#c41515;stroke-width:.341546"><path d="M2.218 23.784H4.09v-8.306h1.872v-1.79H.347v1.79h1.871zM9.91 16.038c-2.2 0-4.003 1.79-4.003 3.962 0 2.186 1.803 3.962 4.017 3.962 2.2 0 4.03-1.776 4.03-3.907 0-2.255-1.763-4.017-4.044-4.017zm.014 1.667c1.215 0 2.2 1.024 2.2 2.295 0 1.27-.985 2.295-2.187 2.295-1.23 0-2.2-1.024-2.2-2.322 0-1.244.984-2.268 2.187-2.268zM15.347 26.312h1.954l4.372-10.096h-2.104l-1.817 4.904-1.68-4.904h-2.077l2.773 6.858zM25.758 16.038c-2.2 0-4.003 1.79-4.003 3.962 0 2.186 1.803 3.962 4.016 3.962 2.2 0 4.03-1.776 4.03-3.907 0-2.255-1.762-4.017-4.043-4.017zm.013 1.667c1.216 0 2.2 1.024 2.2 2.295 0 1.27-.984 2.295-2.186 2.295-1.23 0-2.2-1.024-2.2-2.322 0-1.244.984-2.268 2.186-2.268zM31.113 23.784h1.817V17.87h1.093v-1.653H32.93v-2.528h-1.817v2.528h-.888v1.653h.888zM42.493 16.216h-1.666v1.01c-.629-.833-1.38-1.188-2.473-1.188-2.24 0-3.853 1.68-3.853 3.99 0 2.28 1.599 3.934 3.812 3.934 1.065 0 1.79-.328 2.514-1.161v.983h1.666zm-3.948 1.489c1.298 0 2.227.97 2.227 2.35 0 .546-.219 1.175-.547 1.557-.368.45-.956.683-1.653.683-1.325 0-2.24-.901-2.24-2.227 0-1.38.915-2.363 2.213-2.363zM47.862 23.784h2.692c1.12 0 1.94-.177 2.554-.56.834-.505 1.312-1.407 1.312-2.445 0-.642-.178-1.244-.492-1.653-.287-.383-.574-.574-1.23-.847.82-.424 1.12-.943 1.12-1.9 0-.942-.409-1.734-1.147-2.199-.6-.382-1.23-.492-2.732-.492h-2.077zm1.872-1.79v-2.581h.888c1.298 0 1.913.423 1.913 1.311 0 .888-.56 1.27-1.872 1.27zm0-4.412v-2.063h.765c.984 0 1.448.328 1.448 1.025 0 .724-.478 1.038-1.612 1.038zM63.26 16.216h-1.668v1.01c-.628-.833-1.38-1.188-2.472-1.188-2.24 0-3.853 1.68-3.853 3.99 0 2.28 1.598 3.934 3.812 3.934 1.065 0 1.79-.328 2.513-1.161v.983h1.667zm-3.949 1.489c1.298 0 2.227.97 2.227 2.35 0 .546-.219 1.175-.547 1.557-.369.45-.956.683-1.653.683-1.325 0-2.24-.901-2.24-2.227 0-1.38.915-2.363 2.213-2.363zM64.612 23.784h1.817V20.22c0-1.011.068-1.449.3-1.817.287-.451.752-.697 1.34-.697.477 0 .846.164 1.092.478.246.328.355.888.355 1.899v3.702h1.817v-4.057c0-1.353-.136-2.009-.546-2.596-.492-.71-1.312-1.093-2.364-1.093-.874 0-1.461.246-2.13.902v-.724h-1.681zM72.809 23.784h1.817v-3.538l2.582 3.538h2.445l-3.142-3.866 2.705-3.702h-2.172l-2.418 3.565v-6.093h-1.817z" style="font-weight:600;font-family:'URW Gothic';-inkscape-font-specification:'URW Gothic Semi-Bold'" transform="translate(-.35 -.175) scale(1.00874)"/></g></svg>