<svg version="1.1" id="svg16" width="80" height="40" xmlns="http://www.w3.org/2000/svg"><defs id="defs4"><style id="style2">.cls-2{fill:#4c5356}</style></defs><g id="Boundingbox"><path id="rect8" style="fill:none" d="M0 0h538v52H0z"/></g><g id="g1153" transform="matrix(.85849 0 0 .85849 2.5 4.31)"><g id="g1163" transform="matrix(1.06667 0 0 1.06667 -2.912 -1.218)"><path class="cls-2" d="M86.844 21.11a5.75 5.75 0 0 0-1.06-.11c-1.456 0-2.305.733-2.305 1.79 0 1.992 2.612 1.557 2.612 2.733 0 .533-.426.759-1.021.759A4.512 4.512 0 0 1 83.603 26v1.128c.461.117.935.175 1.41.172 1.492 0 2.324-.795 2.324-1.89 0-2.007-2.65-1.618-2.65-2.73 0-.434.343-.704 1.015-.704a4.17 4.17 0 0 1 1.128.172zm-4.349 6.094v-1.012h-2.538v-1.656h2.307v-.939h-2.307v-1.511h2.504v-.984h-3.666v6.102zm-5.152-1.215a4.653 4.653 0 0 1-1.323.217c-1.156 0-1.709-.722-1.709-2.005 0-1.221.491-2.118 1.656-2.118.458.006.91.102 1.33.282v-1.156a5.135 5.135 0 0 0-1.257-.164c-2 0-3.02 1.368-3.02 3.274 0 1.602.696 2.958 2.783 2.958.52 0 1.038-.07 1.54-.208zm-5.725-4.887h-1.176v6.102h1.176zm-2.34 0h-1.213l-1.176 3.635c-.135.442-.282.956-.37 1.373h-.02c-.098-.426-.242-.95-.36-1.357l-1.184-3.651h-1.303l2.053 6.102h1.528zm-9.307.939s.282-.026.536-.026c.75 0 1.103.353 1.103.914s-.417.93-1.128.93h-.5zm3.291 5.155-1.32-2a9.66 9.66 0 0 0-.467-.66 1.692 1.692 0 0 0 1.373-1.717c0-1.247-.869-1.763-2.256-1.763-.948 0-1.788.037-1.788.037v6.111h1.173v-2.459h.327l1.537 2.46zm-5.784 0v-1.004H54.94v-1.656h2.304v-.939H54.94v-1.511h2.505v-.984h-3.666v6.102zm-5.47-6.086A5.8 5.8 0 0 0 50.95 21c-1.458 0-2.307.733-2.307 1.79 0 1.992 2.614 1.557 2.614 2.733 0 .533-.425.759-1.023.759A4.473 4.473 0 0 1 48.77 26v1.128c.46.117.935.175 1.41.172 1.492 0 2.324-.795 2.324-1.89 0-2.007-2.648-1.618-2.648-2.73 0-.434.344-.704 1.012-.704.382.006.762.063 1.128.172zm-6.503 6.094v-1.02h-2.223v-5.082h-1.176v6.102zm-6.41-2.233h-1.763l.635-1.918c.09-.299.169-.615.234-.902h.016c.065.282.147.595.246.91zm1.974 2.233-2.045-6.102h-1.528l-2.045 6.102h1.184l.426-1.303h2.296l.417 1.303zm-6.783-6.102H33.11v6.102h1.176zm-2.758 4.887a4.636 4.636 0 0 1-1.32.217c-1.158 0-1.708-.722-1.708-2.005 0-1.221.487-2.118 1.652-2.118.458.006.91.102 1.331.282v-1.156a5.135 5.135 0 0 0-1.255-.164c-2 0-3.02 1.368-3.02 3.274 0 1.602.697 2.958 2.786 2.958.52 0 1.037-.07 1.537-.208zm-5.724 1.204v-6.091h-1.128v1.48c0 1.004.045 2.081.09 2.75h-.017a11.136 11.136 0 0 0-.733-1.337l-1.81-2.893h-1.337v6.102h1.128V25.54c0-.987-.046-2.134-.09-2.75h.016c.204.458.443.9.714 1.32l1.917 3.103zm-8.179-2.234h-1.762l.632-1.917c.09-.3.172-.615.234-.903h.02c.061.282.143.595.242.911zm1.975 2.234-2.042-6.091h-1.529l-2.041 6.102h1.184l.423-1.303h2.298l.415 1.303zm-6.828 0v-6.091h-1.128v1.48c0 1.004.045 2.081.09 2.75h-.017a11.137 11.137 0 0 0-.733-1.337l-1.799-2.893H7.848v6.102h1.128V25.54c0-.987-.045-2.134-.09-2.75h.017c.212.459.46.9.739 1.32l1.917 3.103zm-6.768-6.091H4.828v6.102h1.176zm-2.369 1.003v-1.003H.025v6.102h1.176v-2.538H3.49v-.97H1.2v-1.59z" id="path11" style="fill:#4c5356;fill-opacity:1;stroke-width:.282006"/><path class="cls-2" d="M87.363 18.295V9.399h-1.644v2.158c0 1.464.065 3.034.131 4.008h-.009a15.593 15.593 0 0 0-1.064-1.948l-2.635-4.218h-1.953v8.896h1.644v-2.426c0-1.438-.065-3.111-.131-4.007h.029c.297.666.645 1.31 1.04 1.923l2.795 4.522zm-9.516 0v-1.476h-3.7v-2.413h3.363v-1.369h-3.363v-2.203h3.65V9.399h-5.34v8.896zm-8.115-4.65h-1.714v3.096c-.367.111-.75.165-1.134.16-1.846 0-2.833-1.159-2.833-3.033 0-1.645.868-3.055 2.977-3.055a6.27 6.27 0 0 1 2.347.448V9.568a8.727 8.727 0 0 0-2.24-.3c-3.215 0-4.933 1.948-4.933 4.768 0 2.651 1.566 4.39 4.493 4.39a8.366 8.366 0 0 0 3.046-.555zm-11.374 1.41h-2.573l.925-2.795c.131-.435.25-.896.341-1.315h.017c.09.411.21.867.353 1.328zm2.878 3.256L58.25 9.4h-2.228l-2.976 8.896h1.727l.616-1.9h3.35l.605 1.9zM52.624 9.4h-1.685l-1.176 4.966c-.144.699-.25 1.426-.341 2.109h-.029a17.355 17.355 0 0 0-.46-2.134l-1.381-4.932h-1.715l-1.344 4.887a20.5 20.5 0 0 0-.41 2.187h-.025a36.757 36.757 0 0 0-.383-2.212l-1.2-4.87h-1.83l2.225 8.895h2.137l1.332-4.863c.12-.536.211-1.078.275-1.624h.025c.065.554.162 1.103.292 1.644l1.356 4.863h2.121zm-13.758.013a8.456 8.456 0 0 0-1.53-.16c-2.125 0-3.362 1.068-3.362 2.61 0 2.902 3.81 2.269 3.81 3.983 0 .777-.62 1.106-1.491 1.106a6.52 6.52 0 0 1-2.134-.411v1.644a8.14 8.14 0 0 0 2.055.25c2.175 0 3.388-1.159 3.388-2.754 0-2.926-3.86-2.359-3.86-3.979 0-.633.501-1.027 1.475-1.027a6.13 6.13 0 0 1 1.645.25zm-5.92 8.883-3.494-4.65 3.289-4.241h-2.035l-3.005 4.032V9.4h-1.714v8.896h1.714v-4.271l3.112 4.27zm-8.578 0v-1.488h-3.244V9.399H19.41v8.896zM15.59 13.88c0 1.965-1.002 3.017-2.4 3.017-1.595 0-2.384-1.188-2.384-3.095 0-1.907.986-3.005 2.384-3.005 1.607 0 2.4 1.184 2.4 3.083m1.83-.197c0-2.796-1.41-4.432-4.086-4.432-2.36 0-4.362 1.678-4.362 4.76 0 2.796 1.41 4.428 4.086 4.428 2.36 0 4.362-1.673 4.362-4.756M8.196 9.399H6.43l-1.727 5.299a24.755 24.755 0 0 0-.538 2.002h-.029a39.64 39.64 0 0 0-.526-1.977L1.895 9.399H0l2.988 8.896h2.228z" id="path1032" style="fill:#4c5356;fill-opacity:1;stroke-width:.411062"/></g></g></svg>