<svg xmlns="http://www.w3.org/2000/svg" viewBox="0 0 286.89 70.87"><defs><style>.cls-1{fill:#f59100;}.cls-2{fill:#4f5d5b;}.cls-3{fill:#fff;}</style></defs><title>e-banefity</title><g id="Vrstva_2" data-name="Vrstva 2"><g id="eBenefity"><path class="cls-1" d="M117,44.31a17.37,17.37,0,0,1-9.93,3.1A12.52,12.52,0,0,1,94.44,34.85a12.69,12.69,0,0,1,12.75-12.56,12.35,12.35,0,0,1,9.22,4.05,13.56,13.56,0,0,1,2.21,3.43L102.3,39.7a5.48,5.48,0,0,0,5,2.4c2.26,0,4.28-.75,7.48-2.82Zm-5.74-15.15a5.58,5.58,0,0,0-4-1.55,7.33,7.33,0,0,0-7.24,7.2,8.14,8.14,0,0,0,0,1Z"/><path class="cls-2" d="M121.82,15.24c3.3-.24,5.13-.29,8-.29,4.47,0,7.1.52,9,1.79a8.3,8.3,0,0,1,3.44,6.82c0,3-1.13,4.9-4.14,6.73a8.87,8.87,0,0,1,3.48,2.07,7.91,7.91,0,0,1,2.21,5.5,8.58,8.58,0,0,1-3.1,6.59c-2.21,1.88-3.39,2.16-8.8,2.16H121.82Zm9.51,12.7c2.68,0,4.37-1.37,4.37-3.58s-1.51-3.48-4.37-3.57h-3.16v7.15Zm0,12.89c2.3,0,3.48-.24,4.32-.8a3.54,3.54,0,0,0,.66-5.36c-1.08-1.18-2.49-1.65-5.08-1.65h-3.06v7.81Z"/><path class="cls-2" d="M168.58,44.31a17.31,17.31,0,0,1-9.92,3.1A12.52,12.52,0,0,1,146,34.85a12.69,12.69,0,0,1,12.75-12.56A12.38,12.38,0,0,1,168,26.34a13.84,13.84,0,0,1,2.21,3.43L153.86,39.7a5.47,5.47,0,0,0,5,2.4c2.26,0,4.28-.75,7.48-2.82Zm-5.74-15.15a5.55,5.55,0,0,0-4-1.55,7.33,7.33,0,0,0-7.24,7.2c0,.19,0,.56,0,1Z"/><path class="cls-2" d="M186.88,46.94V32.5a6.91,6.91,0,0,0-.47-3.2,3.48,3.48,0,0,0-3-1.64,4.81,4.81,0,0,0-4.14,2.4c-.57,1-.75,2.39-.75,5v11.2l-5.6.65V23.42l5.41-.66V26a6.78,6.78,0,0,1,6.49-3.72,7.45,7.45,0,0,1,5.83,2.54c1.37,1.6,1.84,3.2,1.84,6.17V46.29Z"/><path class="cls-2" d="M218.54,44.31a17.34,17.34,0,0,1-9.93,3.1A12.52,12.52,0,0,1,196,34.85a12.69,12.69,0,0,1,12.75-12.56,12.38,12.38,0,0,1,9.22,4.05,14.13,14.13,0,0,1,2.21,3.43L203.81,39.7a5.49,5.49,0,0,0,5,2.4c2.26,0,4.28-.75,7.48-2.82ZM212.8,29.16a5.57,5.57,0,0,0-4-1.55,7.33,7.33,0,0,0-7.25,7.2,8.14,8.14,0,0,0,.05,1Z"/><path class="cls-2" d="M223.38,46.94V28.36h-3.71L221,23.09h2.4c.19-3.1.8-4.79,2.45-6.44a9.34,9.34,0,0,1,6.73-2.82,12.87,12.87,0,0,1,1.64.14l2.12,5.5c-1.08,0-1.69-.09-2.21-.09-3.15,0-5.18,1.22-5.18,3.1a2.91,2.91,0,0,0,0,.61h5.22v5.27H229V46.29Zm14.07-30.06,3.76-3.95L245,16.88l-3.77,4Zm6.35,29.41-5.6.65V23.42l5.6-.66Z"/><path class="cls-2" d="M260.4,46.94c-1.08.05-1.6.1-2.3.1-6.21,0-8.89-2.92-8.89-9.55v-9h-3.72l1.32-5.17h2.4V19.09l5.6-2.72v7h5.59V28.5h-5.59v9c0,3.06,1.17,4,4.84,4A11.44,11.44,0,0,0,262,41.3Z"/><path class="cls-2" d="M273.34,55.46l-6-.75,4.7-10.4L261.58,24.22l5.74-1.46,7.62,15.1,6.26-15.47,5.69,1.46Z"/><rect class="cls-1" width="70.87" height="70.87"/><path class="cls-3" d="M28.14,35.34c0,3.66-.8,6.46-4.9,6.46-4.59,0-5.08-3.29-5.08-6V14.89l-5.88,1.3V36.68c0,7.8,5.43,10.78,10.69,10.78,6.86,0,11.05-4.41,11.05-9.93V14.89l-5.88,1.3Z"/><path class="cls-3" d="M48.85,23.43a11,11,0,0,0-6.36,2V22.08l-5.67,1.38V54.77l5.65-1.3v-8a11.2,11.2,0,0,0,6.38,2,11.78,11.78,0,0,0,11.54-12,11.77,11.77,0,0,0-11.54-12m-.36,18.86a6.65,6.65,0,0,1-6.55-6.86,6.56,6.56,0,1,1,13.1,0,6.65,6.65,0,0,1-6.55,6.86"/></g></g></svg>