<svg xmlns="http://www.w3.org/2000/svg" width="1122.52" height="793.707"><defs><clipPath id="a" clipPathUnits="userSpaceOnUse"><path d="M0 595.28h841.89V0H0Z"/></clipPath></defs><g clip-path="url(#a)" transform="matrix(1.33333 0 0 -1.33333 0 793.707)"><path d="M0 0c-6.993 0-11.435-4.548-12.809-10.587h24.872C11.223-3.92 6.561 0 0 0" style="fill:#ed1c24;fill-opacity:1;fill-rule:nonzero;stroke:none" transform="translate(373.095 311.896)"/><path d="M0 0c-8.892 0-14.503-6.145-14.503-14.716 0-8.475 5.721-14.825 14.503-14.825 8.783 0 14.716 6.028 14.716 14.825C14.716-5.937 8.783 0 0 0" style="fill:#ed1c24;fill-opacity:1;fill-rule:nonzero;stroke:none" transform="translate(306.604 309.251)"/><path d="M0 0c4.764 0 9.177 1.374 13.306 3.288L11.961-9.521c-4.662-1.907-10.273-2.652-15.884-2.652-18.633 0-31.763 10.902-31.763 29.432 0 16.1 11.757 28.167 29.76 28.167 20.327 0 30.491-12.922 30.06-32.829h-41.918C-16.199 3.493-7.519 0 0 0m-40.866 19.904c0-20.211-11.968-32.077-31.762-32.077-18.318 0-30.71 12.276-30.71 28.803 0 17.251 11.756 28.796 29.329 28.796 8.045 0 13.978-3.179 16.944-6.353v24.565h16.199zm148.522 25.522c-13.349 0-23.754-5.334-25.456-19.184-.124-.007.088.008-.044 0-4.194 62.76-53.711 112.38-117.528 112.38-50.444 0-93.612-31.006-111.572-74.984h42.766l-2.229-14.406h-33.559V33.995h30.388l-2.331-13.872h-28.057v-8.899c0-5.401 2.331-7.936 6.773-7.936h28.701l-2.331-14.408h-31.769a24.38 24.38 0 0 0-4.413.401v-.007s-5.502.599-8.907 5.02c-.081.109-1.469 1.746-2.149 4.464-.182.717-.189.76-.343 1.301.234-1.783.614-4.194.789-5.085.965-5.028 2.192-9.28 2.302-9.573 14.27-50.628 60.754-87.745 115.941-87.745 56.444 0 104.127 38.835 117.206 91.224H65.635v29.438c0 7.939-3.068 13.028-10.901 13.028-7.84 0-10.908-5.089-10.908-13.028V-11.12h-16.2v33.464c0 15.987 11.655 23.082 27.108 23.082 15.461 0 27.1-7.095 27.1-23.082V-11.12h16.301v29.438c0 7.939 2.113 13.028 9.843 13.028 2.433 0 5.399-.742 6.459-1.272l3.068 14.186c-1.797.209-6.356 1.166-9.849 1.166" style="fill:#ed1c24;fill-opacity:1;fill-rule:nonzero;stroke:none" transform="translate(378.495 277.905)"/><path d="M0 0c1.374 6.036 5.816 10.587 12.809 10.587 6.568 0 11.222-3.92 12.063-10.587zm12.275 22.019c-17.996 0-29.753-12.067-29.753-28.164 0-18.53 13.138-29.431 31.763-29.431 5.611 0 11.223.738 15.884 2.645l1.352 12.816c-4.135-1.907-8.548-3.281-13.313-3.281-7.519 0-16.198 3.493-17.791 12.597h41.925c.431 19.903-9.733 32.818-30.067 32.818" style="fill:#ed1c24;fill-opacity:1;fill-rule:nonzero;stroke:none" transform="translate(510.613 301.309)"/><path d="M0 0c-8.79 0-14.504 6.35-14.504 14.825 0 8.571 5.611 14.713 14.504 14.713 8.789 0 14.715-5.926 14.715-14.713C14.715 6.043 8.789 0 0 0m14.824 61.829V37.268c-2.966 3.178-8.899 6.353-16.943 6.353-17.572 0-29.329-11.537-29.329-28.796 0-16.512 12.391-28.803 30.71-28.803 19.794 0 31.761 11.86 31.761 32.084v43.723z" style="fill:#ed1c24;fill-opacity:1;fill-rule:nonzero;stroke:none" transform="translate(586.201 279.71)"/></g></svg>
