<svg xmlns="http://www.w3.org/2000/svg" viewBox="0 0 310.27 70.87"><defs><style>.cls-1{fill:#f59100;}.cls-2{fill:#4f5d5b;}.cls-3{fill:#fff;}</style></defs><title>e-stravenka</title><g id="Vrstva_2" data-name="Vrstva 2"><g id="eStravenka"><path class="cls-1" d="M117,44.31a17.37,17.37,0,0,1-9.93,3.1A12.52,12.52,0,0,1,94.44,34.85a12.69,12.69,0,0,1,12.75-12.56,12.35,12.35,0,0,1,9.22,4.05,13.56,13.56,0,0,1,2.21,3.43L102.3,39.7a5.48,5.48,0,0,0,5,2.4c2.26,0,4.28-.75,7.48-2.82Zm-5.74-15.15a5.58,5.58,0,0,0-4-1.55,7.33,7.33,0,0,0-7.24,7.2,8.14,8.14,0,0,0,0,1Z"/><path class="cls-2" d="M123.66,37.86c1.88,2.45,3.76,3.49,6.3,3.49,2.73,0,4.61-1.46,4.61-3.63,0-1.88-1-2.77-4.61-3.95l-2.45-.8c-4.89-1.6-7.43-4.7-7.43-9,0-5.5,4.47-9.5,10.63-9.5a12.63,12.63,0,0,1,8.42,3,20.68,20.68,0,0,1,1.7,1.74l-4.33,4.19c-2.59-2.4-3.43-2.82-5.65-2.82-2.54,0-4.23,1.27-4.23,3.24a3.26,3.26,0,0,0,2.49,3l3,.94c6.21,2,9,5,9,9.79,0,5.74-4.66,9.92-11.06,9.92-4.37,0-7.66-1.6-10.67-5.17Z"/><path class="cls-2" d="M156.07,46.94c-1.08.05-1.6.1-2.31.1-6.21,0-8.89-2.92-8.89-9.55v-9h-3.71l1.31-5.17h2.4V19.09l5.6-2.72v7h5.6V28.5h-5.6v9c0,3.06,1.18,4,4.85,4a11.29,11.29,0,0,0,2.3-.23Z"/><path class="cls-2" d="M160,46.94V23.42l5.6-.66v3.86c2.12-3.29,4-4.33,7.86-4.33a11.06,11.06,0,0,1,1.13.05l-2.22,6.21a4.81,4.81,0,0,0-.75-.05,5.81,5.81,0,0,0-4.51,2c-1,1.22-1.51,3.43-1.51,6.63v9.18Z"/><path class="cls-2" d="M188.39,46.94v-2a8.26,8.26,0,0,1-6.17,2.49c-4.94,0-8.65-3.52-8.65-8.18S177.28,31,182.32,31A9.66,9.66,0,0,1,188,32.6v-2c0-2-1.64-3-5.08-3a21.14,21.14,0,0,0-6.63,1.27l1.41-5.79a31,31,0,0,1,6.49-.8c3.72,0,6.49,1.09,7.95,3,1,1.42,1.46,3.34,1.46,6.64V46.29Zm-9-7.9c0,2,1.74,3.43,4.33,3.43s4.38-1.5,4.38-3.57-1.7-3.39-4.33-3.39S179.35,36.88,179.35,39Z"/><path class="cls-2" d="M194.59,23.61l6-1.18,6.16,13.65L212,22.43l5.93,1.18-11.2,24.93Z"/><path class="cls-2" d="M240,44.31a17.37,17.37,0,0,1-9.93,3.1,12.51,12.51,0,0,1-12.65-12.56,12.69,12.69,0,0,1,12.75-12.56,12.38,12.38,0,0,1,9.22,4.05,14.13,14.13,0,0,1,2.21,3.43L225.31,39.7a5.48,5.48,0,0,0,5,2.4c2.26,0,4.28-.75,7.48-2.82ZM234.3,29.16a5.57,5.57,0,0,0-4-1.55,7.33,7.33,0,0,0-7.25,7.2,8.14,8.14,0,0,0,.05,1Z"/><path class="cls-2" d="M258.34,46.94V32.5a6.87,6.87,0,0,0-.48-3.2,3.46,3.46,0,0,0-3-1.64,4.82,4.82,0,0,0-4.14,2.4c-.56,1-.75,2.39-.75,5v11.2l-5.6.65V23.42l5.41-.66V26a6.8,6.8,0,0,1,6.5-3.72,7.46,7.46,0,0,1,5.83,2.54c1.36,1.6,1.83,3.2,1.83,6.17V46.29Z"/><path class="cls-2" d="M274.47,34.9V46.29l-5.6.65v-32l5.6-.61v20l10.11-12.19,5.7,2.17-9,10,9,11.33-5.7,1.6Z"/><path class="cls-2" d="M305.09,46.94v-2a8.22,8.22,0,0,1-6.16,2.49c-4.94,0-8.65-3.52-8.65-8.18S294,31,299,31a9.66,9.66,0,0,1,5.64,1.65v-2c0-2-1.65-3-5.08-3A21.09,21.09,0,0,0,293,28.88l1.41-5.79a30.83,30.83,0,0,1,6.49-.8c3.72,0,6.49,1.09,7.95,3,1,1.42,1.46,3.34,1.46,6.64V46.29Zm-9-7.9c0,2,1.74,3.43,4.33,3.43s4.37-1.5,4.37-3.57-1.69-3.39-4.32-3.39S296.06,36.88,296.06,39Z"/><rect class="cls-1" width="70.87" height="70.87"/><path class="cls-3" d="M28.14,35.34c0,3.66-.8,6.46-4.9,6.46-4.59,0-5.08-3.29-5.08-6V14.89l-5.88,1.3V36.68c0,7.8,5.43,10.78,10.69,10.78,6.86,0,11.05-4.41,11.05-9.93V14.89l-5.88,1.3Z"/><path class="cls-3" d="M48.85,23.43a11,11,0,0,0-6.36,2V22.08l-5.67,1.38V54.77l5.65-1.3v-8a11.2,11.2,0,0,0,6.38,2,11.78,11.78,0,0,0,11.54-12,11.77,11.77,0,0,0-11.54-12m-.36,18.86a6.65,6.65,0,0,1-6.55-6.86,6.56,6.56,0,1,1,13.1,0,6.65,6.65,0,0,1-6.55,6.86"/></g></g></svg>