<svg xmlns="http://www.w3.org/2000/svg" width="80" height="40" fill="#a1a1a1" class="main-header__logo-image"><path fill="#5f6368" d="M38.2 21.698v7.736h-2.453V10.328h6.509a5.886 5.886 0 0 1 4.215 1.655 5.317 5.317 0 0 1 1.76 4.032 5.293 5.293 0 0 1-1.76 4.055q-1.707 1.628-4.215 1.626H38.2zm0-9.017v6.67h4.117a3.244 3.244 0 0 0 2.428-.989 3.256 3.256 0 0 0 0-4.67 3.201 3.201 0 0 0-2.428-1.013H38.2zM53.887 15.935q2.722 0 4.296 1.455 1.575 1.454 1.573 3.988v8.056H57.41V27.62h-.107q-1.524 2.241-4.055 2.241-2.16 0-3.614-1.28a4.089 4.089 0 0 1-1.455-3.202q0-2.029 1.534-3.227t4.095-1.201q2.186 0 3.6.8v-.56a2.794 2.794 0 0 0-1.013-2.173 3.476 3.476 0 0 0-2.37-.895q-2.056 0-3.254 1.735l-2.162-1.362q1.784-2.56 5.28-2.56zm-3.175 9.498a1.96 1.96 0 0 0 .814 1.6 2.994 2.994 0 0 0 1.907.64 3.913 3.913 0 0 0 2.76-1.146q1.22-1.148 1.22-2.694-1.147-.914-3.2-.914-1.496 0-2.495.72c-.672.489-1.006 1.082-1.006 1.794zM73.233 16.362l-8.196 18.835h-2.533l3.04-6.59-5.388-12.245h2.668l3.895 9.39h.053l3.788-9.39z"/><path fill="#4285f4" d="M28.283 20.03a13.078 13.078 0 0 0-.19-2.232h-10.35v4.228h5.928a5.081 5.081 0 0 1-2.192 3.335v2.744h3.539c2.071-1.91 3.265-4.735 3.265-8.075z"/><path fill="#34a853" d="M17.743 30.756c2.962 0 5.456-.973 7.275-2.65l-3.539-2.743c-.984.667-2.253 1.048-3.736 1.048-2.863 0-5.293-1.93-6.162-4.53H7.936v2.828a10.976 10.976 0 0 0 9.807 6.047Z"/><path fill="#fbbc04" d="M11.581 21.88a6.576 6.576 0 0 1 0-4.2v-2.828H7.936a10.976 10.976 0 0 0 0 9.857z"/><path fill="#ea4335" d="M17.743 13.149a5.959 5.959 0 0 1 4.21 1.646l3.133-3.133a10.546 10.546 0 0 0-7.343-2.858 10.976 10.976 0 0 0-9.807 6.048l3.645 2.827c.87-2.6 3.299-4.53 6.162-4.53Z"/></svg>
