<svg xmlns="http://www.w3.org/2000/svg" viewBox="0 0 1309.9993 439.5998">
  <path fill="#040404" d="M1309.9993 0v328.2999h-74.7V0Zm-102.1999 110.7999v218.0999h-66.4v-18.8c-8.4 8.2-18 14.4-28.6 18.8-10.7 4.6-22.3 7-34.7 7-15.6 0-30.1-2.9-43.3999-8.7-13.3-6.1-24.9-14.4-34.7-24.8-9.9-10.5-17.7-22.7-23.5-36.6-5.5-14.2-8.2-29.5-8.2-45.8 0-16.3 2.7-31.4 8.2-45.3 5.8-14.2 13.6-26.6 23.5-37.1a104.49992 104.49992 0 0 1 34.7-24.4c13.3-6.1 27.8-9.2 43.3999-9.2 12.4 0 24 2.3 34.7 7 10.7 4.4 20.3 10.6 28.6 18.8v-18.8h66.4v-.2zm-117.7 158.7c13.6 0 24.7-4.6 33.3999-14 9-9.3 13.5-21.2 13.5-35.7 0-14.5-4.5-26.5-13.5-35.7-8.7-9.3-19.9-14-33.3999-14-13.4999 0-24.9 4.6-33.9 14-8.7 9.3-13 21.2-13 35.7 0 14.5 4.4 26.5 13 35.7 9 9.3 20.3 14 33.9 14zM861.6996 0c19.7 0 36.5 2.8 50.4 8.3 13.9 5.5 25.6 13.2 35.1999 23.1 9.8 10.2 17.5 21.8 23 34.9 5.5 13.1 8.2 27.2 8.2 42.3 0 15.1-2.7 29.2-8.2 42.3a111.5022 111.5022 0 0 1-23 34.9c-9.5 9.9-21.3 17.6-35.1999 23.1-13.8999 5.5-30.7 8.3-50.4 8.3h-36v111.6h-75.9999V0Zm-10.9 149.5999c10.2 0 17.9-1 23.5-3.1 5.8-2.3 10.6-5.3 14.3-8.7 7.8-7.3 11.7-17 11.7-29.2s-3.9-21.9-11.7-29.2c-3.8-3.5-8.5-6.3-14.3-8.3-5.5-2.3-13.3-3.5-23.5-3.5h-25.2v82zm-381.0998-38.8h82.5l56 104.6h.9l49.9-104.6h76.4L571.6999 439.5997H495.7l74.7-150.3999-100.6999-178.3999Zm-14.7 0v218.0999h-66.4v-18.8c-8.4 8.2-18 14.4-28.6 18.8-10.7 4.6-22.3 7-34.7 7-15.6 0-30.1-2.9-43.4-8.7-13.3-6.1-24.9-14.4-34.7-24.8-9.8-10.5-17.7-22.7-23.5-36.6-5.5-14.2-8.2-29.5-8.2-45.8 0-16.3 2.7-31.4 8.2-45.3 5.8-14.2 13.6-26.6 23.5-37.1a103.50166 103.50166 0 0 1 34.7-24.4c13.3-6.1 27.8-9.2 43.4-9.2 12.4 0 24 2.3 34.7 7 10.7 4.4 20.3 10.6 28.6 18.8v-18.8h66.4v-.2zm-117.7 158.7c13.6 0 24.7-4.6 33.5-14 9-9.3 13.5-21.2 13.5-35.7 0-14.5-4.5-26.5-13.5-35.7-8.7-9.3-19.9-14-33.5-14-13.6 0-24.9 4.6-33.9 14-8.7 9.3-13 21.2-13 35.7 0 14.5 4.4 26.5 13 35.7 9 9.3 20.3 14 33.9 14zM111.9999 0c19.7 0 36.5 2.8 50.4 8.3 13.9 5.5 25.6 13.2 35.2 23.1 9.8 10.2 17.5 21.8 23 34.9 5.5 13.1 8.2 27.2 8.2 42.3 0 15.1-2.7 29.2-8.2 42.3a111.50047 111.50047 0 0 1-23 34.9c-9.5 9.9-21.3 17.6-35.2 23.1-13.9 5.5-30.7 8.3-50.4 8.3h-36v111.6H0V0Zm-10.8 149.5999c10.2 0 17.9-1 23.5-3.1 5.8-2.3 10.6-5.3 14.3-8.7 7.8-7.3 11.7-17 11.7-29.2s-3.9-21.9-11.7-29.2c-3.8-3.5-8.5-6.3-14.3-8.3-5.5-2.3-13.3-3.5-23.5-3.5h-25.2v82z"/>
</svg>
