<svg xmlns="http://www.w3.org/2000/svg" fill="none" viewBox="0 0 36 36">
  <path fill="#002991" d="M28.5836 8.28c0 4.455-4.1338 9.72-10.3803 9.72h-6.0169l-.29213 1.8554-1.4073 8.9446H3.00027L7.50148 0H19.6271c4.0805 0 7.2956 2.268 8.4733 5.42025.3335.8928.5034 1.85625.4832 2.85975z"/>
  <path fill="#60cdff" d="M32.9007 16.56c-.8267 4.995-5.1442 8.64-10.2425 8.64h-4.1796L16.7332 36H9.29244l1.1942-7.2 1.40731-8.9447L12.18607 18H18.203c6.2465 0 10.3803-5.265 10.3803-9.72003.0014.00045.0027.00135.0041.0018 3.0746 1.5759 4.8641 4.76953 4.3133 8.27823z"/>
  <path fill="#000" d="M28.5833 8.27998s.0027.00135.0041.00225c-.0009-.07605-.0023-.081-.0041-.00225z"/>
  <path fill="#008cff" d="M28.5832 8.28001c-1.286-.675-2.8477-1.08-4.5471-1.08H13.8855L12.18603 18h6.01687c6.2466 0 10.3803-5.265 10.3803-9.71999z"/>
</svg>
