<svg xmlns="http://www.w3.org/2000/svg" viewBox="0 0 200 200">
  <path fill="#fff" d="M0 0h200v200H0Zm72.132 74.817c3.782 0 10.843.625 16.14 2.038l2.52-15.959c-5.8-1.868-13.872-2.83-19.168-2.83-24.715 0-34.049 8.939-34.049 29.823v21.222c0 20.94 9.33 29.88 34.05 29.88 6.306 0 13.87-1.132 19.166-2.887l-2.52-15.959a67.833 67.833 0 0 1-16.14 2.094c-11.35 0-14.881-3.395-14.881-12.959V87.72c0-9.564 3.53-12.902 14.882-12.902zm82.724-3.056c2.776-.794 5.798-1.587 8.575-2.376v-9.733H139.22a53.17 53.17 0 0 0-13.368-1.582c-22.698 0-31.273 9.733-31.524 25.86v7.302c0 9.451 3.279 16.639 10.591 20.94-3.781 2.719-8.071 6.846-8.071 13.245 0 9.902 4.286 13.583 15.385 14.828 10.089 1.131 13.619 1.643 22.698 2.544 6.055.681 7.564 1.47 7.564 6.226 0 5.151-3.28 6.226-18.916 6.226a111.323 111.323 0 0 1-26.48-3.338l-2.268 14.545c8.827 2.719 21.184 3.963 30.267 3.963 29.508 0 35.562-6.507 35.562-23.147 0-11.151-4.033-17.372-16.899-18.79-9.077-.963-13.87-1.47-22.698-2.432-3.026-.282-4.283-1.244-4.283-3.339 0-2.375 2.015-4.638 4.54-6.225a40.96 40.96 0 0 0 4.542.169c21.943 0 31.776-9.564 31.776-25.41v-7.301c-.01-4.475-1.016-8.832-2.78-12.175zm-15.642 12.79c0-7.358-3.53-10.865-13.368-10.865-9.585 0-13.116 3.507-13.116 10.865v5.887c0 7.696 4.034 10.527 13.116 10.527 9.33 0 13.368-3 13.368-10.527z"/>
</svg>
